<svg width="300" height="284" viewBox="0 0 300 284" fill="none" xmlns="http://www.w3.org/2000/svg">
<rect width="300" height="284" fill="white"/>
<path d="M32.5284 84.4062V83.2727H39.2827V84.4062H36.5597V92H35.2472V84.4062H32.5284ZM42.5447 92.1321C41.8999 92.1321 41.3445 91.9943 40.8786 91.7188C40.4155 91.4403 40.0575 91.0497 39.8047 90.5469C39.5547 90.0412 39.4297 89.4489 39.4297 88.7699C39.4297 88.0994 39.5547 87.5085 39.8047 86.9972C40.0575 86.4858 40.4098 86.0866 40.8615 85.7997C41.3161 85.5128 41.8473 85.3693 42.4553 85.3693C42.8246 85.3693 43.1825 85.4304 43.5291 85.5526C43.8757 85.6747 44.1868 85.8665 44.4624 86.1278C44.7379 86.3892 44.9553 86.7287 45.1143 87.1463C45.2734 87.5611 45.353 88.0653 45.353 88.6591V89.1108H40.1499V88.1562H44.1044C44.1044 87.821 44.0362 87.5241 43.8999 87.2656C43.7635 87.0043 43.5717 86.7983 43.3246 86.6477C43.0803 86.4972 42.7933 86.4219 42.4638 86.4219C42.1058 86.4219 41.7933 86.5099 41.5263 86.6861C41.2621 86.8594 41.0575 87.0866 40.9126 87.3679C40.7706 87.6463 40.6996 87.9489 40.6996 88.2756V89.0213C40.6996 89.4588 40.7763 89.831 40.9297 90.1378C41.0859 90.4446 41.3033 90.679 41.5817 90.8409C41.8601 91 42.1854 91.0795 42.5575 91.0795C42.799 91.0795 43.0192 91.0455 43.218 90.9773C43.4169 90.9062 43.5888 90.8011 43.7337 90.6619C43.8786 90.5227 43.9893 90.3509 44.0661 90.1463L45.272 90.3636C45.1754 90.7187 45.0021 91.0298 44.7521 91.2969C44.505 91.5611 44.1939 91.767 43.8189 91.9148C43.4467 92.0597 43.022 92.1321 42.5447 92.1321ZM48.6715 92.1449C48.2567 92.1449 47.8817 92.0682 47.5465 91.9148C47.2113 91.7585 46.9457 91.5327 46.7496 91.2372C46.5565 90.9418 46.4599 90.5795 46.4599 90.1506C46.4599 89.7812 46.5309 89.4773 46.6729 89.2386C46.815 89 47.0067 88.8111 47.2482 88.6719C47.4897 88.5327 47.7596 88.4276 48.0579 88.3565C48.3562 88.2855 48.6602 88.2315 48.9698 88.1946C49.3619 88.1491 49.68 88.1122 49.9244 88.0838C50.1687 88.0526 50.3462 88.0028 50.457 87.9347C50.5678 87.8665 50.6232 87.7557 50.6232 87.6023V87.5724C50.6232 87.2003 50.5181 86.9119 50.3079 86.7074C50.1005 86.5028 49.7908 86.4006 49.3789 86.4006C48.9499 86.4006 48.6119 86.4957 48.3647 86.6861C48.1204 86.8736 47.9513 87.0824 47.8576 87.3125L46.6602 87.0398C46.8022 86.642 47.0096 86.321 47.2823 86.0767C47.5579 85.8295 47.8746 85.6506 48.2326 85.5398C48.5906 85.4261 48.967 85.3693 49.3619 85.3693C49.6232 85.3693 49.9002 85.4006 50.1928 85.4631C50.4883 85.5227 50.7638 85.6335 51.0195 85.7955C51.2781 85.9574 51.4897 86.1889 51.6545 86.4901C51.8192 86.7884 51.9016 87.1761 51.9016 87.6534V92H50.6573V91.1051H50.6062C50.5238 91.2699 50.4002 91.4318 50.2354 91.5909C50.0707 91.75 49.859 91.8821 49.6005 91.9872C49.342 92.0923 49.0323 92.1449 48.6715 92.1449ZM48.9485 91.1222C49.3008 91.1222 49.6019 91.0526 49.8519 90.9134C50.1048 90.7741 50.2965 90.5923 50.4272 90.3679C50.5607 90.1406 50.6275 89.8977 50.6275 89.6392V88.7955C50.582 88.8409 50.494 88.8835 50.3633 88.9233C50.2354 88.9602 50.0891 88.9929 49.9244 89.0213C49.7596 89.0469 49.5991 89.071 49.4428 89.0938C49.2866 89.1136 49.1559 89.1307 49.0508 89.1449C48.8036 89.1761 48.5778 89.2287 48.3732 89.3026C48.1715 89.3764 48.0096 89.483 47.8874 89.6222C47.7681 89.7585 47.7085 89.9403 47.7085 90.1676C47.7085 90.483 47.8249 90.7216 48.0579 90.8835C48.2908 91.0426 48.5877 91.1222 48.9485 91.1222ZM53.5987 92V85.4545H54.8217V86.5199H54.9027C55.0391 86.1591 55.2621 85.8778 55.5717 85.6761C55.8814 85.4716 56.2521 85.3693 56.6839 85.3693C57.1214 85.3693 57.4879 85.4716 57.7834 85.6761C58.0817 85.8807 58.3018 86.1619 58.4439 86.5199H58.5121C58.6683 86.1705 58.9169 85.892 59.2578 85.6847C59.5987 85.4744 60.005 85.3693 60.4766 85.3693C61.0703 85.3693 61.5547 85.5554 61.9297 85.9276C62.3075 86.2997 62.4964 86.8608 62.4964 87.6108V92H61.2223V87.7301C61.2223 87.2869 61.1016 86.9659 60.8601 86.767C60.6186 86.5682 60.3303 86.4688 59.995 86.4688C59.5803 86.4688 59.2578 86.5966 59.0277 86.8523C58.7976 87.1051 58.6825 87.4304 58.6825 87.8281V92H57.4126V87.6491C57.4126 87.294 57.3018 87.0085 57.0803 86.7926C56.8587 86.5767 56.5703 86.4688 56.2152 86.4688C55.9737 86.4688 55.7507 86.5327 55.5462 86.6605C55.3445 86.7855 55.1811 86.9602 55.0561 87.1847C54.9339 87.4091 54.8729 87.669 54.8729 87.9645V92H53.5987ZM68.6541 88.1136V92H67.38V85.4545H68.603V86.5199H68.6839C68.8345 86.1733 69.0703 85.8949 69.3913 85.6847C69.7152 85.4744 70.1229 85.3693 70.6143 85.3693C71.0604 85.3693 71.451 85.4631 71.7862 85.6506C72.1214 85.8352 72.3814 86.1108 72.5661 86.4773C72.7507 86.8437 72.843 87.2969 72.843 87.8366V92H71.5689V87.9901C71.5689 87.5156 71.4453 87.1449 71.1982 86.8778C70.951 86.608 70.6115 86.473 70.1797 86.473C69.8842 86.473 69.6214 86.5369 69.3913 86.6648C69.1641 86.7926 68.9837 86.9801 68.8501 87.2273C68.7195 87.4716 68.6541 87.767 68.6541 88.1136ZM76.4567 92.1449C76.0419 92.1449 75.6669 92.0682 75.3317 91.9148C74.9964 91.7585 74.7308 91.5327 74.5348 91.2372C74.3416 90.9418 74.245 90.5795 74.245 90.1506C74.245 89.7812 74.3161 89.4773 74.4581 89.2386C74.6001 89 74.7919 88.8111 75.0334 88.6719C75.2749 88.5327 75.5447 88.4276 75.843 88.3565C76.1413 88.2855 76.4453 88.2315 76.755 88.1946C77.147 88.1491 77.4652 88.1122 77.7095 88.0838C77.9538 88.0526 78.1314 88.0028 78.2422 87.9347C78.353 87.8665 78.4084 87.7557 78.4084 87.6023V87.5724C78.4084 87.2003 78.3033 86.9119 78.093 86.7074C77.8857 86.5028 77.576 86.4006 77.1641 86.4006C76.7351 86.4006 76.397 86.4957 76.1499 86.6861C75.9055 86.8736 75.7365 87.0824 75.6428 87.3125L74.4453 87.0398C74.5874 86.642 74.7947 86.321 75.0675 86.0767C75.343 85.8295 75.6598 85.6506 76.0178 85.5398C76.3757 85.4261 76.7521 85.3693 77.147 85.3693C77.4084 85.3693 77.6854 85.4006 77.978 85.4631C78.2734 85.5227 78.549 85.6335 78.8047 85.7955C79.0632 85.9574 79.2749 86.1889 79.4396 86.4901C79.6044 86.7884 79.6868 87.1761 79.6868 87.6534V92H78.4425V91.1051H78.3913C78.3089 91.2699 78.1854 91.4318 78.0206 91.5909C77.8558 91.75 77.6442 91.8821 77.3857 91.9872C77.1271 92.0923 76.8175 92.1449 76.4567 92.1449ZM76.7337 91.1222C77.0859 91.1222 77.3871 91.0526 77.6371 90.9134C77.8899 90.7741 78.0817 90.5923 78.2124 90.3679C78.3459 90.1406 78.4126 89.8977 78.4126 89.6392V88.7955C78.3672 88.8409 78.2791 88.8835 78.1484 88.9233C78.0206 88.9602 77.8743 88.9929 77.7095 89.0213C77.5447 89.0469 77.3842 89.071 77.228 89.0938C77.0717 89.1136 76.9411 89.1307 76.8359 89.1449C76.5888 89.1761 76.3629 89.2287 76.1584 89.3026C75.9567 89.3764 75.7947 89.483 75.6726 89.6222C75.5533 89.7585 75.4936 89.9403 75.4936 90.1676C75.4936 90.483 75.6101 90.7216 75.843 90.8835C76.076 91.0426 76.3729 91.1222 76.7337 91.1222ZM81.3839 92V85.4545H82.6069V86.5199H82.6879C82.8242 86.1591 83.0472 85.8778 83.3569 85.6761C83.6665 85.4716 84.0373 85.3693 84.4691 85.3693C84.9066 85.3693 85.2731 85.4716 85.5685 85.6761C85.8668 85.8807 86.087 86.1619 86.229 86.5199H86.2972C86.4535 86.1705 86.7021 85.892 87.043 85.6847C87.3839 85.4744 87.7901 85.3693 88.2617 85.3693C88.8555 85.3693 89.3398 85.5554 89.7148 85.9276C90.0927 86.2997 90.2816 86.8608 90.2816 87.6108V92H89.0075V87.7301C89.0075 87.2869 88.8867 86.9659 88.6452 86.767C88.4038 86.5682 88.1154 86.4688 87.7802 86.4688C87.3654 86.4688 87.043 86.5966 86.8129 86.8523C86.5827 87.1051 86.4677 87.4304 86.4677 87.8281V92H85.1978V87.6491C85.1978 87.294 85.087 87.0085 84.8654 86.7926C84.6438 86.5767 84.3555 86.4688 84.0004 86.4688C83.7589 86.4688 83.5359 86.5327 83.3313 86.6605C83.1296 86.7855 82.9663 86.9602 82.8413 87.1847C82.7191 87.4091 82.658 87.669 82.658 87.9645V92H81.3839ZM94.8104 92.1321C94.1655 92.1321 93.6101 91.9943 93.1442 91.7188C92.6811 91.4403 92.3232 91.0497 92.0703 90.5469C91.8203 90.0412 91.6953 89.4489 91.6953 88.7699C91.6953 88.0994 91.8203 87.5085 92.0703 86.9972C92.3232 86.4858 92.6754 86.0866 93.1271 85.7997C93.5817 85.5128 94.1129 85.3693 94.7209 85.3693C95.0902 85.3693 95.4482 85.4304 95.7947 85.5526C96.1413 85.6747 96.4524 85.8665 96.728 86.1278C97.0036 86.3892 97.2209 86.7287 97.38 87.1463C97.5391 87.5611 97.6186 88.0653 97.6186 88.6591V89.1108H92.4155V88.1562H96.37C96.37 87.821 96.3018 87.5241 96.1655 87.2656C96.0291 87.0043 95.8374 86.7983 95.5902 86.6477C95.3459 86.4972 95.0589 86.4219 94.7294 86.4219C94.3714 86.4219 94.0589 86.5099 93.7919 86.6861C93.5277 86.8594 93.3232 87.0866 93.1783 87.3679C93.0362 87.6463 92.9652 87.9489 92.9652 88.2756V89.0213C92.9652 89.4588 93.0419 89.831 93.1953 90.1378C93.3516 90.4446 93.5689 90.679 93.8473 90.8409C94.1257 91 94.451 91.0795 94.8232 91.0795C95.0646 91.0795 95.2848 91.0455 95.4837 90.9773C95.6825 90.9062 95.8544 90.8011 95.9993 90.6619C96.1442 90.5227 96.255 90.3509 96.3317 90.1463L97.5376 90.3636C97.4411 90.7187 97.2678 91.0298 97.0178 91.2969C96.7706 91.5611 96.4595 91.767 96.0845 91.9148C95.7124 92.0597 95.2876 92.1321 94.8104 92.1321Z" fill="#52525B"/>
<path d="M103.668 88.1818L103.749 86.3835L102.232 87.3594L101.767 86.5497L103.378 85.7273L101.767 84.9048L102.232 84.0952L103.749 85.071L103.668 83.2727H104.592L104.511 85.071L106.028 84.0952L106.493 84.9048L104.882 85.7273L106.493 86.5497L106.028 87.3594L104.511 86.3835L104.592 88.1818H103.668Z" fill="#DC2626"/>
<g filter="url(#filter0_d_83_893)">
<rect x="32" y="100" width="236" height="32" rx="4" fill="white"/>
<path d="M41.4148 120H40.3068L43.5114 111.273H44.6023L47.8068 120H46.6989L44.0909 112.653H44.0227L41.4148 120ZM41.8239 116.591H46.2898V117.528H41.8239V116.591ZM51.6889 120.136C51.0753 120.136 50.5469 119.991 50.1037 119.702C49.6605 119.412 49.3196 119.013 49.081 118.504C48.8423 117.996 48.723 117.415 48.723 116.761C48.723 116.097 48.8452 115.51 49.0895 115.001C49.3366 114.49 49.6804 114.091 50.1207 113.804C50.5639 113.514 51.081 113.369 51.6719 113.369C52.1321 113.369 52.5469 113.455 52.9162 113.625C53.2855 113.795 53.5881 114.034 53.8239 114.341C54.0597 114.648 54.206 115.006 54.2628 115.415H53.2571C53.1804 115.116 53.0099 114.852 52.7457 114.622C52.4844 114.389 52.1321 114.273 51.6889 114.273C51.2969 114.273 50.9531 114.375 50.6577 114.58C50.3651 114.781 50.1364 115.067 49.9716 115.436C49.8097 115.803 49.7287 116.233 49.7287 116.727C49.7287 117.233 49.8082 117.673 49.9673 118.048C50.1293 118.423 50.3565 118.714 50.6491 118.922C50.9446 119.129 51.2912 119.233 51.6889 119.233C51.9503 119.233 52.1875 119.188 52.4006 119.097C52.6136 119.006 52.794 118.875 52.9418 118.705C53.0895 118.534 53.1946 118.33 53.2571 118.091H54.2628C54.206 118.477 54.0653 118.825 53.8409 119.135C53.6193 119.442 53.3253 119.686 52.9588 119.868C52.5952 120.047 52.1719 120.136 51.6889 120.136ZM55.733 120V113.455H56.7045V114.477H56.7898C56.9261 114.128 57.1463 113.857 57.4503 113.663C57.7543 113.467 58.1193 113.369 58.5455 113.369C58.9773 113.369 59.3366 113.467 59.6236 113.663C59.9134 113.857 60.1392 114.128 60.3011 114.477H60.3693C60.5369 114.139 60.7884 113.871 61.1236 113.672C61.4588 113.47 61.8608 113.369 62.3295 113.369C62.9148 113.369 63.3935 113.553 63.7656 113.919C64.1378 114.283 64.3239 114.849 64.3239 115.619V120H63.3182V115.619C63.3182 115.136 63.1861 114.791 62.9219 114.584C62.6577 114.376 62.3466 114.273 61.9886 114.273C61.5284 114.273 61.1719 114.412 60.919 114.69C60.6662 114.966 60.5398 115.315 60.5398 115.739V120H59.517V115.517C59.517 115.145 59.3963 114.845 59.1548 114.618C58.9134 114.388 58.6023 114.273 58.2216 114.273C57.9602 114.273 57.7159 114.342 57.4886 114.482C57.2642 114.621 57.0824 114.814 56.9432 115.061C56.8068 115.305 56.7386 115.588 56.7386 115.909V120H55.733ZM68.907 120.136C68.2763 120.136 67.7322 119.997 67.2749 119.719C66.8203 119.438 66.4695 119.045 66.2223 118.543C65.978 118.037 65.8558 117.449 65.8558 116.778C65.8558 116.108 65.978 115.517 66.2223 115.006C66.4695 114.491 66.8132 114.091 67.2536 113.804C67.6967 113.514 68.2138 113.369 68.8047 113.369C69.1456 113.369 69.4822 113.426 69.8146 113.54C70.147 113.653 70.4496 113.838 70.7223 114.094C70.995 114.347 71.2124 114.682 71.3743 115.099C71.5362 115.517 71.6172 116.031 71.6172 116.642V117.068H66.5717V116.199H70.5945C70.5945 115.83 70.5206 115.5 70.3729 115.21C70.228 114.92 70.0206 114.692 69.7507 114.524C69.4837 114.357 69.1683 114.273 68.8047 114.273C68.4041 114.273 68.0575 114.372 67.7649 114.571C67.4751 114.767 67.2521 115.023 67.0959 115.338C66.9396 115.653 66.8615 115.991 66.8615 116.352V116.932C66.8615 117.426 66.9467 117.845 67.1172 118.189C67.2905 118.53 67.5305 118.79 67.8374 118.969C68.1442 119.145 68.5007 119.233 68.907 119.233C69.1712 119.233 69.4098 119.196 69.6229 119.122C69.8388 119.045 70.0249 118.932 70.1811 118.781C70.3374 118.628 70.4581 118.437 70.5433 118.21L71.5149 118.483C71.4126 118.812 71.2408 119.102 70.9993 119.352C70.7578 119.599 70.4595 119.793 70.1044 119.932C69.7493 120.068 69.3501 120.136 68.907 120.136ZM83.6811 114H82.6243C82.5618 113.696 82.4524 113.429 82.2962 113.199C82.1428 112.969 81.9553 112.776 81.7337 112.619C81.5149 112.46 81.272 112.341 81.005 112.261C80.7379 112.182 80.4595 112.142 80.1697 112.142C79.6413 112.142 79.1626 112.276 78.7337 112.543C78.3075 112.81 77.968 113.203 77.7152 113.723C77.4652 114.243 77.3402 114.881 77.3402 115.636C77.3402 116.392 77.4652 117.03 77.7152 117.55C77.968 118.07 78.3075 118.463 78.7337 118.73C79.1626 118.997 79.6413 119.131 80.1697 119.131C80.4595 119.131 80.7379 119.091 81.005 119.011C81.272 118.932 81.5149 118.814 81.7337 118.658C81.9553 118.499 82.1428 118.304 82.2962 118.074C82.4524 117.841 82.5618 117.574 82.6243 117.273H83.6811C83.6016 117.719 83.4567 118.118 83.2464 118.47C83.0362 118.822 82.7749 119.122 82.4624 119.369C82.1499 119.614 81.799 119.8 81.4098 119.928C81.0234 120.055 80.6101 120.119 80.1697 120.119C79.4254 120.119 78.7635 119.938 78.1839 119.574C77.6044 119.21 77.1484 118.693 76.8161 118.023C76.4837 117.352 76.3175 116.557 76.3175 115.636C76.3175 114.716 76.4837 113.92 76.8161 113.25C77.1484 112.58 77.6044 112.062 78.1839 111.699C78.7635 111.335 79.4254 111.153 80.1697 111.153C80.6101 111.153 81.0234 111.217 81.4098 111.345C81.799 111.473 82.1499 111.661 82.4624 111.908C82.7749 112.152 83.0362 112.45 83.2464 112.803C83.4567 113.152 83.6016 113.551 83.6811 114ZM87.9116 120.136C87.3207 120.136 86.8022 119.996 86.3562 119.714C85.913 119.433 85.5664 119.04 85.3164 118.534C85.0692 118.028 84.9457 117.437 84.9457 116.761C84.9457 116.08 85.0692 115.484 85.3164 114.976C85.5664 114.467 85.913 114.072 86.3562 113.791C86.8022 113.51 87.3207 113.369 87.9116 113.369C88.5025 113.369 89.0195 113.51 89.4627 113.791C89.9087 114.072 90.2553 114.467 90.5025 114.976C90.7525 115.484 90.8775 116.08 90.8775 116.761C90.8775 117.437 90.7525 118.028 90.5025 118.534C90.2553 119.04 89.9087 119.433 89.4627 119.714C89.0195 119.996 88.5025 120.136 87.9116 120.136ZM87.9116 119.233C88.3604 119.233 88.7298 119.118 89.0195 118.888C89.3093 118.658 89.5238 118.355 89.663 117.98C89.8022 117.605 89.8718 117.199 89.8718 116.761C89.8718 116.324 89.8022 115.916 89.663 115.538C89.5238 115.161 89.3093 114.855 89.0195 114.622C88.7298 114.389 88.3604 114.273 87.9116 114.273C87.4627 114.273 87.0934 114.389 86.8036 114.622C86.5138 114.855 86.2994 115.161 86.1602 115.538C86.021 115.916 85.9513 116.324 85.9513 116.761C85.9513 117.199 86.021 117.605 86.1602 117.98C86.2994 118.355 86.5138 118.658 86.8036 118.888C87.0934 119.118 87.4627 119.233 87.9116 119.233ZM92.4126 120V113.455H93.3842V114.443H93.4524C93.5717 114.119 93.7876 113.857 94.1001 113.655C94.4126 113.453 94.7649 113.352 95.157 113.352C95.2308 113.352 95.3232 113.354 95.4339 113.357C95.5447 113.359 95.6286 113.364 95.6854 113.369V114.392C95.6513 114.384 95.5732 114.371 95.451 114.354C95.3317 114.334 95.2053 114.324 95.0717 114.324C94.7536 114.324 94.4695 114.391 94.2195 114.524C93.9723 114.655 93.7763 114.837 93.6314 115.07C93.4893 115.3 93.4183 115.562 93.4183 115.858V120H92.4126ZM96.8775 122.455V113.455H97.8491V114.494H97.9684C98.0423 114.381 98.1445 114.236 98.2752 114.06C98.4087 113.881 98.5991 113.722 98.8462 113.582C99.0962 113.44 99.4343 113.369 99.8604 113.369C100.412 113.369 100.897 113.507 101.318 113.783C101.738 114.058 102.066 114.449 102.302 114.955C102.538 115.46 102.656 116.057 102.656 116.744C102.656 117.438 102.538 118.038 102.302 118.547C102.066 119.053 101.74 119.445 101.322 119.723C100.904 119.999 100.423 120.136 99.8775 120.136C99.457 120.136 99.1204 120.067 98.8675 119.928C98.6147 119.786 98.4201 119.625 98.2837 119.446C98.1474 119.264 98.0423 119.114 97.9684 118.994H97.8832V122.455H96.8775ZM97.8661 116.727C97.8661 117.222 97.9386 117.658 98.0835 118.036C98.2283 118.411 98.44 118.705 98.7184 118.918C98.9968 119.128 99.3377 119.233 99.7411 119.233C100.162 119.233 100.512 119.122 100.794 118.901C101.078 118.676 101.291 118.375 101.433 117.997C101.578 117.616 101.65 117.193 101.65 116.727C101.65 116.267 101.579 115.852 101.437 115.483C101.298 115.111 101.086 114.817 100.802 114.601C100.521 114.382 100.167 114.273 99.7411 114.273C99.332 114.273 98.9883 114.376 98.7099 114.584C98.4315 114.788 98.2212 115.075 98.0792 115.445C97.9371 115.811 97.8661 116.239 97.8661 116.727Z" fill="#3F3F46"/>
<rect x="31" y="99" width="238" height="34" rx="5" stroke="#818CF8" stroke-width="2"/>
</g>
<path d="M32.9588 160V151.273H36.0696C36.7486 151.273 37.3111 151.396 37.7571 151.643C38.2031 151.891 38.5369 152.229 38.7585 152.658C38.9801 153.084 39.0909 153.564 39.0909 154.098C39.0909 154.635 38.9787 155.118 38.7543 155.547C38.5327 155.973 38.1974 156.311 37.7486 156.561C37.3026 156.808 36.7415 156.932 36.0653 156.932H33.9261V155.815H35.946C36.375 155.815 36.723 155.741 36.9901 155.594C37.2571 155.443 37.4531 155.239 37.5781 154.98C37.7031 154.722 37.7656 154.428 37.7656 154.098C37.7656 153.768 37.7031 153.476 37.5781 153.22C37.4531 152.964 37.2557 152.764 36.9858 152.619C36.7188 152.474 36.3665 152.402 35.929 152.402H34.2756V160H32.9588ZM40.5323 160V153.455H41.7638V154.494H41.832C41.9513 154.142 42.1616 153.865 42.4627 153.663C42.7667 153.459 43.1104 153.357 43.494 153.357C43.5735 153.357 43.6673 153.359 43.7752 153.365C43.886 153.371 43.9727 153.378 44.0352 153.386V154.605C43.984 154.591 43.8931 154.575 43.7624 154.558C43.6317 154.538 43.5011 154.528 43.3704 154.528C43.0692 154.528 42.8008 154.592 42.565 154.72C42.332 154.845 42.1474 155.02 42.011 155.244C41.8746 155.466 41.8065 155.719 41.8065 156.003V160H40.5323ZM47.6605 160.132C47.0469 160.132 46.5114 159.991 46.054 159.71C45.5966 159.429 45.2415 159.036 44.9886 158.53C44.7358 158.024 44.6094 157.433 44.6094 156.757C44.6094 156.078 44.7358 155.484 44.9886 154.976C45.2415 154.467 45.5966 154.072 46.054 153.791C46.5114 153.51 47.0469 153.369 47.6605 153.369C48.2741 153.369 48.8097 153.51 49.267 153.791C49.7244 154.072 50.0795 154.467 50.3324 154.976C50.5852 155.484 50.7116 156.078 50.7116 156.757C50.7116 157.433 50.5852 158.024 50.3324 158.53C50.0795 159.036 49.7244 159.429 49.267 159.71C48.8097 159.991 48.2741 160.132 47.6605 160.132ZM47.6648 159.062C48.0625 159.062 48.392 158.957 48.6534 158.747C48.9148 158.537 49.108 158.257 49.233 157.908C49.3608 157.558 49.4247 157.173 49.4247 156.753C49.4247 156.335 49.3608 155.952 49.233 155.602C49.108 155.25 48.9148 154.967 48.6534 154.754C48.392 154.541 48.0625 154.435 47.6648 154.435C47.2642 154.435 46.9318 154.541 46.6676 154.754C46.4063 154.967 46.2116 155.25 46.0838 155.602C45.9588 155.952 45.8963 156.335 45.8963 156.753C45.8963 157.173 45.9588 157.558 46.0838 157.908C46.2116 158.257 46.4063 158.537 46.6676 158.747C46.9318 158.957 47.2642 159.062 47.6648 159.062ZM54.5842 160.128C54.0558 160.128 53.5842 159.993 53.1694 159.723C52.7575 159.45 52.4336 159.062 52.1978 158.56C51.9648 158.054 51.8484 157.447 51.8484 156.74C51.8484 156.033 51.9663 155.428 52.2021 154.925C52.4407 154.422 52.7674 154.037 53.1822 153.77C53.5969 153.503 54.0671 153.369 54.5927 153.369C54.9989 153.369 55.3256 153.438 55.5728 153.574C55.8228 153.707 56.016 153.864 56.1523 154.043C56.2915 154.222 56.3995 154.379 56.4762 154.516H56.5529V151.273H57.8271V160H56.5827V158.982H56.4762C56.3995 159.121 56.2887 159.28 56.1438 159.459C56.0018 159.638 55.8058 159.794 55.5558 159.928C55.3058 160.061 54.9819 160.128 54.5842 160.128ZM54.8654 159.041C55.2319 159.041 55.5415 158.945 55.7944 158.751C56.0501 158.555 56.2433 158.284 56.3739 157.938C56.5075 157.591 56.5742 157.187 56.5742 156.727C56.5742 156.273 56.5089 155.875 56.3782 155.534C56.2475 155.193 56.0558 154.928 55.8029 154.737C55.5501 154.547 55.2376 154.452 54.8654 154.452C54.4819 154.452 54.1623 154.551 53.9066 154.75C53.6509 154.949 53.4577 155.22 53.3271 155.564C53.1992 155.908 53.1353 156.295 53.1353 156.727C53.1353 157.165 53.2006 157.558 53.3313 157.908C53.462 158.257 53.6552 158.534 53.9109 158.739C54.1694 158.94 54.4876 159.041 54.8654 159.041ZM63.7919 157.286V153.455H65.0703V160H63.8175V158.866H63.7493C63.5987 159.216 63.3572 159.507 63.0249 159.74C62.6953 159.97 62.2848 160.085 61.7933 160.085C61.3729 160.085 61.0007 159.993 60.6768 159.808C60.3558 159.621 60.103 159.344 59.9183 158.977C59.7365 158.611 59.6456 158.158 59.6456 157.618V153.455H60.9197V157.464C60.9197 157.911 61.0433 158.266 61.2905 158.53C61.5376 158.794 61.8587 158.926 62.2536 158.926C62.4922 158.926 62.7294 158.866 62.9652 158.747C63.2038 158.628 63.4013 158.447 63.5575 158.206C63.7166 157.964 63.7947 157.658 63.7919 157.286ZM69.5394 160.132C68.9059 160.132 68.3604 159.989 67.9031 159.702C67.4485 159.412 67.0991 159.013 66.8548 158.504C66.6104 157.996 66.4883 157.413 66.4883 156.757C66.4883 156.092 66.6133 155.506 66.8633 154.997C67.1133 154.486 67.4656 154.087 67.9201 153.8C68.3746 153.513 68.9102 153.369 69.5266 153.369C70.0238 153.369 70.467 153.462 70.8562 153.646C71.2454 153.828 71.5593 154.084 71.7979 154.413C72.0394 154.743 72.1829 155.128 72.2283 155.568H70.9883C70.9201 155.261 70.7638 154.997 70.5195 154.776C70.2781 154.554 69.9542 154.443 69.5479 154.443C69.1928 154.443 68.8817 154.537 68.6147 154.724C68.3505 154.909 68.1445 155.173 67.9968 155.517C67.8491 155.858 67.7752 156.261 67.7752 156.727C67.7752 157.205 67.8477 157.616 67.9925 157.963C68.1374 158.31 68.342 158.578 68.6062 158.768C68.8732 158.959 69.1871 159.054 69.5479 159.054C69.7894 159.054 70.0082 159.01 70.2042 158.922C70.4031 158.831 70.5692 158.702 70.7028 158.534C70.8391 158.366 70.9343 158.165 70.9883 157.929H72.2283C72.1829 158.352 72.0451 158.73 71.815 159.062C71.5849 159.395 71.2766 159.656 70.8903 159.847C70.5067 160.037 70.0565 160.132 69.5394 160.132ZM76.6463 153.455V154.477H73.071V153.455H76.6463ZM74.0298 151.886H75.304V158.078C75.304 158.325 75.3409 158.511 75.4148 158.636C75.4886 158.759 75.5838 158.842 75.7003 158.888C75.8196 158.93 75.9489 158.952 76.0881 158.952C76.1903 158.952 76.2798 158.945 76.3565 158.93C76.4332 158.916 76.4929 158.905 76.5355 158.896L76.7656 159.949C76.6918 159.977 76.5866 160.006 76.4503 160.034C76.3139 160.065 76.1435 160.082 75.9389 160.085C75.6037 160.091 75.2912 160.031 75.0014 159.906C74.7116 159.781 74.4773 159.588 74.2983 159.327C74.1193 159.065 74.0298 158.737 74.0298 158.342V151.886ZM78.4265 156.378C78.4265 155.31 78.5671 154.327 78.8484 153.429C79.1296 152.531 79.5401 151.703 80.0799 150.945H81.2475C81.0373 151.226 80.8413 151.571 80.6594 151.98C80.4776 152.389 80.3185 152.838 80.1822 153.327C80.0458 153.812 79.9393 154.317 79.8626 154.839C79.7859 155.359 79.7475 155.872 79.7475 156.378C79.7475 157.054 79.8143 157.739 79.9478 158.432C80.0813 159.125 80.2617 159.768 80.489 160.362C80.7163 160.956 80.9691 161.44 81.2475 161.815H80.0799C79.5401 161.057 79.1296 160.229 78.8484 159.331C78.5671 158.433 78.4265 157.449 78.4265 156.378ZM87.4957 155.053L86.3409 155.257C86.2926 155.109 86.2159 154.969 86.1108 154.835C86.0085 154.702 85.8693 154.592 85.6932 154.507C85.517 154.422 85.2969 154.379 85.0327 154.379C84.6719 154.379 84.3707 154.46 84.1293 154.622C83.8878 154.781 83.767 154.987 83.767 155.24C83.767 155.459 83.848 155.635 84.0099 155.768C84.1719 155.902 84.4332 156.011 84.794 156.097L85.8338 156.335C86.4361 156.474 86.8849 156.689 87.1804 156.979C87.4759 157.268 87.6236 157.645 87.6236 158.108C87.6236 158.5 87.5099 158.849 87.2827 159.156C87.0582 159.46 86.7443 159.699 86.3409 159.872C85.9403 160.045 85.4759 160.132 84.9474 160.132C84.2145 160.132 83.6165 159.976 83.1534 159.663C82.6903 159.348 82.4063 158.901 82.3011 158.321L83.5327 158.134C83.6094 158.455 83.767 158.697 84.0057 158.862C84.2443 159.024 84.5554 159.105 84.9389 159.105C85.3565 159.105 85.6903 159.018 85.9403 158.845C86.1903 158.669 86.3153 158.455 86.3153 158.202C86.3153 157.997 86.2386 157.825 86.0852 157.686C85.9347 157.547 85.7031 157.442 85.3906 157.371L84.2827 157.128C83.6719 156.989 83.2202 156.767 82.9276 156.463C82.6378 156.159 82.4929 155.774 82.4929 155.308C82.4929 154.922 82.6009 154.584 82.8168 154.294C83.0327 154.004 83.331 153.778 83.7116 153.616C84.0923 153.452 84.5284 153.369 85.0199 153.369C85.7273 153.369 86.2841 153.523 86.6903 153.83C87.0966 154.134 87.3651 154.541 87.4957 155.053ZM91.4748 156.378C91.4748 157.449 91.3342 158.433 91.0529 159.331C90.7717 160.229 90.3612 161.057 89.8214 161.815H88.6538C88.864 161.534 89.06 161.189 89.2418 160.78C89.4237 160.371 89.5827 159.923 89.7191 159.438C89.8555 158.949 89.962 158.443 90.0387 157.92C90.1154 157.398 90.1538 156.884 90.1538 156.378C90.1538 155.705 90.087 155.021 89.9535 154.328C89.82 153.635 89.6396 152.991 89.4123 152.398C89.185 151.804 88.9322 151.32 88.6538 150.945H89.8214C90.3612 151.703 90.7717 152.531 91.0529 153.429C91.3342 154.327 91.4748 155.31 91.4748 156.378Z" fill="#52525B"/>
<path d="M97.6676 156.182L97.7486 154.384L96.2315 155.359L95.767 154.55L97.3778 153.727L95.767 152.905L96.2315 152.095L97.7486 153.071L97.6676 151.273H98.5923L98.5114 153.071L100.028 152.095L100.493 152.905L98.8821 153.727L100.493 154.55L100.028 155.359L98.5114 154.384L98.5923 156.182H97.6676Z" fill="#DC2626"/>
<g filter="url(#filter1_d_83_893)">
<rect x="32" y="168" width="236" height="32" rx="4" fill="white"/>
<path d="M45.8295 181.455C45.7784 181.023 45.571 180.688 45.2074 180.449C44.8438 180.21 44.3977 180.091 43.8693 180.091C43.483 180.091 43.1449 180.153 42.8551 180.278C42.5682 180.403 42.3438 180.575 42.1818 180.794C42.0227 181.013 41.9432 181.261 41.9432 181.54C41.9432 181.773 41.9986 181.973 42.1094 182.141C42.223 182.305 42.3679 182.443 42.544 182.554C42.7202 182.662 42.9048 182.751 43.098 182.822C43.2912 182.891 43.4688 182.946 43.6307 182.989L44.517 183.227C44.7443 183.287 44.9972 183.369 45.2756 183.474C45.5568 183.58 45.8253 183.723 46.081 183.905C46.3395 184.084 46.5526 184.314 46.7202 184.595C46.8878 184.876 46.9716 185.222 46.9716 185.631C46.9716 186.102 46.848 186.528 46.6009 186.909C46.3565 187.29 45.9986 187.592 45.527 187.817C45.0582 188.041 44.4886 188.153 43.8182 188.153C43.1932 188.153 42.652 188.053 42.1946 187.851C41.7401 187.649 41.3821 187.368 41.1207 187.007C40.8622 186.646 40.7159 186.227 40.6818 185.75H41.7727C41.8011 186.08 41.9119 186.352 42.1051 186.568C42.3011 186.781 42.5483 186.94 42.8466 187.045C43.1477 187.148 43.4716 187.199 43.8182 187.199C44.2216 187.199 44.5838 187.134 44.9048 187.003C45.2259 186.869 45.4801 186.685 45.6676 186.449C45.8551 186.21 45.9489 185.932 45.9489 185.614C45.9489 185.324 45.8679 185.088 45.706 184.906C45.544 184.724 45.331 184.577 45.0668 184.463C44.8026 184.349 44.517 184.25 44.2102 184.165L43.1364 183.858C42.4545 183.662 41.9148 183.382 41.517 183.018C41.1193 182.655 40.9205 182.179 40.9205 181.591C40.9205 181.102 41.0526 180.676 41.3168 180.312C41.5838 179.946 41.9418 179.662 42.3906 179.46C42.8423 179.256 43.3466 179.153 43.9034 179.153C44.4659 179.153 44.9659 179.254 45.4034 179.456C45.8409 179.655 46.1875 179.928 46.4432 180.274C46.7017 180.621 46.8381 181.014 46.8523 181.455H45.8295ZM51.3171 188.136C50.6864 188.136 50.1424 187.997 49.685 187.719C49.2305 187.438 48.8796 187.045 48.6325 186.543C48.3881 186.037 48.266 185.449 48.266 184.778C48.266 184.108 48.3881 183.517 48.6325 183.006C48.8796 182.491 49.2234 182.091 49.6637 181.804C50.1069 181.514 50.6239 181.369 51.2148 181.369C51.5558 181.369 51.8924 181.426 52.2248 181.54C52.5572 181.653 52.8597 181.838 53.1325 182.094C53.4052 182.347 53.6225 182.682 53.7844 183.099C53.9464 183.517 54.0273 184.031 54.0273 184.642V185.068H48.9819V184.199H53.0046C53.0046 183.83 52.9308 183.5 52.783 183.21C52.6381 182.92 52.4308 182.692 52.1609 182.524C51.8938 182.357 51.5785 182.273 51.2148 182.273C50.8143 182.273 50.4677 182.372 50.1751 182.571C49.8853 182.767 49.6623 183.023 49.506 183.338C49.3498 183.653 49.2717 183.991 49.2717 184.352V184.932C49.2717 185.426 49.3569 185.845 49.5273 186.189C49.7006 186.53 49.9407 186.79 50.2475 186.969C50.5543 187.145 50.9109 187.233 51.3171 187.233C51.5813 187.233 51.82 187.196 52.033 187.122C52.2489 187.045 52.435 186.932 52.5913 186.781C52.7475 186.628 52.8683 186.437 52.9535 186.21L53.9251 186.483C53.8228 186.812 53.6509 187.102 53.4094 187.352C53.168 187.599 52.8697 187.793 52.5146 187.932C52.1594 188.068 51.7603 188.136 51.3171 188.136ZM56.5629 179.273V188H55.5572V179.273H56.5629ZM61.1491 188.136C60.5185 188.136 59.9744 187.997 59.517 187.719C59.0625 187.438 58.7116 187.045 58.4645 186.543C58.2202 186.037 58.098 185.449 58.098 184.778C58.098 184.108 58.2202 183.517 58.4645 183.006C58.7116 182.491 59.0554 182.091 59.4957 181.804C59.9389 181.514 60.456 181.369 61.0469 181.369C61.3878 181.369 61.7244 181.426 62.0568 181.54C62.3892 181.653 62.6918 181.838 62.9645 182.094C63.2372 182.347 63.4545 182.682 63.6165 183.099C63.7784 183.517 63.8594 184.031 63.8594 184.642V185.068H58.8139V184.199H62.8366C62.8366 183.83 62.7628 183.5 62.6151 183.21C62.4702 182.92 62.2628 182.692 61.9929 182.524C61.7259 182.357 61.4105 182.273 61.0469 182.273C60.6463 182.273 60.2997 182.372 60.0071 182.571C59.7173 182.767 59.4943 183.023 59.3381 183.338C59.1818 183.653 59.1037 183.991 59.1037 184.352V184.932C59.1037 185.426 59.1889 185.845 59.3594 186.189C59.5327 186.53 59.7727 186.79 60.0795 186.969C60.3864 187.145 60.7429 187.233 61.1491 187.233C61.4134 187.233 61.652 187.196 61.8651 187.122C62.081 187.045 62.267 186.932 62.4233 186.781C62.5795 186.628 62.7003 186.437 62.7855 186.21L63.7571 186.483C63.6548 186.812 63.483 187.102 63.2415 187.352C63 187.599 62.7017 187.793 62.3466 187.932C61.9915 188.068 61.5923 188.136 61.1491 188.136ZM68.0483 188.136C67.4347 188.136 66.9063 187.991 66.4631 187.702C66.0199 187.412 65.679 187.013 65.4403 186.504C65.2017 185.996 65.0824 185.415 65.0824 184.761C65.0824 184.097 65.2045 183.51 65.4489 183.001C65.696 182.49 66.0398 182.091 66.4801 181.804C66.9233 181.514 67.4403 181.369 68.0312 181.369C68.4915 181.369 68.9062 181.455 69.2756 181.625C69.6449 181.795 69.9474 182.034 70.1832 182.341C70.419 182.648 70.5653 183.006 70.6222 183.415H69.6165C69.5398 183.116 69.3693 182.852 69.1051 182.622C68.8438 182.389 68.4915 182.273 68.0483 182.273C67.6563 182.273 67.3125 182.375 67.017 182.58C66.7244 182.781 66.4957 183.067 66.331 183.436C66.169 183.803 66.0881 184.233 66.0881 184.727C66.0881 185.233 66.1676 185.673 66.3267 186.048C66.4886 186.423 66.7159 186.714 67.0085 186.922C67.304 187.129 67.6506 187.233 68.0483 187.233C68.3097 187.233 68.5469 187.188 68.7599 187.097C68.973 187.006 69.1534 186.875 69.3011 186.705C69.4489 186.534 69.554 186.33 69.6165 186.091H70.6222C70.5653 186.477 70.4247 186.825 70.2003 187.135C69.9787 187.442 69.6847 187.686 69.3182 187.868C68.9545 188.047 68.5313 188.136 68.0483 188.136ZM74.9389 181.455V182.307H71.5469V181.455H74.9389ZM72.5355 179.886H73.5412V186.125C73.5412 186.409 73.5824 186.622 73.6648 186.764C73.75 186.903 73.858 186.997 73.9886 187.045C74.1222 187.091 74.2628 187.114 74.4105 187.114C74.5213 187.114 74.6122 187.108 74.6832 187.097C74.7543 187.082 74.8111 187.071 74.8537 187.062L75.0582 187.966C74.9901 187.991 74.8949 188.017 74.7727 188.043C74.6506 188.071 74.4957 188.085 74.3082 188.085C74.0241 188.085 73.7457 188.024 73.473 187.902C73.2031 187.78 72.9787 187.594 72.7997 187.344C72.6236 187.094 72.5355 186.778 72.5355 186.398V179.886ZM79.8267 190.455V181.455H80.7983V182.494H80.9176C80.9915 182.381 81.0938 182.236 81.2244 182.06C81.358 181.881 81.5483 181.722 81.7955 181.582C82.0455 181.44 82.3835 181.369 82.8097 181.369C83.3608 181.369 83.8466 181.507 84.267 181.783C84.6875 182.058 85.0156 182.449 85.2514 182.955C85.4872 183.46 85.6051 184.057 85.6051 184.744C85.6051 185.438 85.4872 186.038 85.2514 186.547C85.0156 187.053 84.6889 187.445 84.2713 187.723C83.8537 187.999 83.3722 188.136 82.8267 188.136C82.4063 188.136 82.0696 188.067 81.8168 187.928C81.5639 187.786 81.3693 187.625 81.233 187.446C81.0966 187.264 80.9915 187.114 80.9176 186.994H80.8324V190.455H79.8267ZM80.8153 184.727C80.8153 185.222 80.8878 185.658 81.0327 186.036C81.1776 186.411 81.3892 186.705 81.6676 186.918C81.946 187.128 82.2869 187.233 82.6903 187.233C83.1108 187.233 83.4616 187.122 83.7429 186.901C84.027 186.676 84.2401 186.375 84.3821 185.997C84.527 185.616 84.5994 185.193 84.5994 184.727C84.5994 184.267 84.5284 183.852 84.3864 183.483C84.2472 183.111 84.0355 182.817 83.7514 182.601C83.4702 182.382 83.1165 182.273 82.6903 182.273C82.2813 182.273 81.9375 182.376 81.6591 182.584C81.3807 182.788 81.1705 183.075 81.0284 183.445C80.8864 183.811 80.8153 184.239 80.8153 184.727ZM87.1392 188V181.455H88.1108V182.443H88.179C88.2983 182.119 88.5142 181.857 88.8267 181.655C89.1392 181.453 89.4915 181.352 89.8835 181.352C89.9574 181.352 90.0497 181.354 90.1605 181.357C90.2713 181.359 90.3551 181.364 90.4119 181.369V182.392C90.3778 182.384 90.2997 182.371 90.1776 182.354C90.0582 182.334 89.9318 182.324 89.7983 182.324C89.4801 182.324 89.196 182.391 88.946 182.524C88.6989 182.655 88.5028 182.837 88.358 183.07C88.2159 183.3 88.1449 183.562 88.1449 183.858V188H87.1392ZM94.0639 188.136C93.473 188.136 92.9545 187.996 92.5085 187.714C92.0653 187.433 91.7188 187.04 91.4688 186.534C91.2216 186.028 91.098 185.437 91.098 184.761C91.098 184.08 91.2216 183.484 91.4688 182.976C91.7188 182.467 92.0653 182.072 92.5085 181.791C92.9545 181.51 93.473 181.369 94.0639 181.369C94.6548 181.369 95.1719 181.51 95.6151 181.791C96.0611 182.072 96.4077 182.467 96.6548 182.976C96.9048 183.484 97.0298 184.08 97.0298 184.761C97.0298 185.437 96.9048 186.028 96.6548 186.534C96.4077 187.04 96.0611 187.433 95.6151 187.714C95.1719 187.996 94.6548 188.136 94.0639 188.136ZM94.0639 187.233C94.5128 187.233 94.8821 187.118 95.1719 186.888C95.4616 186.658 95.6761 186.355 95.8153 185.98C95.9545 185.605 96.0241 185.199 96.0241 184.761C96.0241 184.324 95.9545 183.916 95.8153 183.538C95.6761 183.161 95.4616 182.855 95.1719 182.622C94.8821 182.389 94.5128 182.273 94.0639 182.273C93.6151 182.273 93.2457 182.389 92.956 182.622C92.6662 182.855 92.4517 183.161 92.3125 183.538C92.1733 183.916 92.1037 184.324 92.1037 184.761C92.1037 185.199 92.1733 185.605 92.3125 185.98C92.4517 186.355 92.6662 186.658 92.956 186.888C93.2457 187.118 93.6151 187.233 94.0639 187.233ZM101.037 188.136C100.491 188.136 100.01 187.999 99.592 187.723C99.1744 187.445 98.8477 187.053 98.6119 186.547C98.3761 186.038 98.2582 185.438 98.2582 184.744C98.2582 184.057 98.3761 183.46 98.6119 182.955C98.8477 182.449 99.1758 182.058 99.5962 181.783C100.017 181.507 100.502 181.369 101.054 181.369C101.48 181.369 101.816 181.44 102.064 181.582C102.314 181.722 102.504 181.881 102.635 182.06C102.768 182.236 102.872 182.381 102.946 182.494H103.031V179.273H104.037V188H103.065V186.994H102.946C102.872 187.114 102.767 187.264 102.63 187.446C102.494 187.625 102.299 187.786 102.047 187.928C101.794 188.067 101.457 188.136 101.037 188.136ZM101.173 187.233C101.576 187.233 101.917 187.128 102.196 186.918C102.474 186.705 102.686 186.411 102.831 186.036C102.975 185.658 103.048 185.222 103.048 184.727C103.048 184.239 102.977 183.811 102.835 183.445C102.693 183.075 102.483 182.788 102.204 182.584C101.926 182.376 101.582 182.273 101.173 182.273C100.747 182.273 100.392 182.382 100.108 182.601C99.8263 182.817 99.6147 183.111 99.4727 183.483C99.3335 183.852 99.2638 184.267 99.2638 184.727C99.2638 185.193 99.3349 185.616 99.4769 185.997C99.6218 186.375 99.8349 186.676 100.116 186.901C100.4 187.122 100.752 187.233 101.173 187.233ZM110.143 185.324V181.455H111.149V188H110.143V186.892H110.075C109.922 187.224 109.683 187.507 109.359 187.74C109.035 187.97 108.626 188.085 108.132 188.085C107.723 188.085 107.359 187.996 107.041 187.817C106.723 187.635 106.473 187.362 106.291 186.999C106.109 186.632 106.018 186.17 106.018 185.614V181.455H107.024V185.545C107.024 186.023 107.157 186.403 107.424 186.688C107.694 186.972 108.038 187.114 108.456 187.114C108.706 187.114 108.96 187.05 109.218 186.922C109.48 186.794 109.699 186.598 109.875 186.334C110.054 186.07 110.143 185.733 110.143 185.324ZM115.65 188.136C115.036 188.136 114.508 187.991 114.065 187.702C113.621 187.412 113.281 187.013 113.042 186.504C112.803 185.996 112.684 185.415 112.684 184.761C112.684 184.097 112.806 183.51 113.05 183.001C113.298 182.49 113.641 182.091 114.082 181.804C114.525 181.514 115.042 181.369 115.633 181.369C116.093 181.369 116.508 181.455 116.877 181.625C117.246 181.795 117.549 182.034 117.785 182.341C118.021 182.648 118.167 183.006 118.224 183.415H117.218C117.141 183.116 116.971 182.852 116.707 182.622C116.445 182.389 116.093 182.273 115.65 182.273C115.258 182.273 114.914 182.375 114.619 182.58C114.326 182.781 114.097 183.067 113.933 183.436C113.771 183.803 113.69 184.233 113.69 184.727C113.69 185.233 113.769 185.673 113.928 186.048C114.09 186.423 114.317 186.714 114.61 186.922C114.906 187.129 115.252 187.233 115.65 187.233C115.911 187.233 116.148 187.188 116.362 187.097C116.575 187.006 116.755 186.875 116.903 186.705C117.05 186.534 117.156 186.33 117.218 186.091H118.224C118.167 186.477 118.026 186.825 117.802 187.135C117.58 187.442 117.286 187.686 116.92 187.868C116.556 188.047 116.133 188.136 115.65 188.136ZM122.54 181.455V182.307H119.148V181.455H122.54ZM120.137 179.886H121.143V186.125C121.143 186.409 121.184 186.622 121.266 186.764C121.352 186.903 121.46 186.997 121.59 187.045C121.724 187.091 121.864 187.114 122.012 187.114C122.123 187.114 122.214 187.108 122.285 187.097C122.356 187.082 122.413 187.071 122.455 187.062L122.66 187.966C122.592 187.991 122.496 188.017 122.374 188.043C122.252 188.071 122.097 188.085 121.91 188.085C121.626 188.085 121.347 188.024 121.075 187.902C120.805 187.78 120.58 187.594 120.401 187.344C120.225 187.094 120.137 186.778 120.137 186.398V179.886ZM128.572 182.92L127.669 183.176C127.612 183.026 127.528 182.879 127.418 182.737C127.31 182.592 127.162 182.473 126.974 182.379C126.787 182.286 126.547 182.239 126.254 182.239C125.854 182.239 125.52 182.331 125.253 182.516C124.989 182.697 124.857 182.929 124.857 183.21C124.857 183.46 124.947 183.658 125.129 183.803C125.311 183.947 125.595 184.068 125.982 184.165L126.953 184.403C127.538 184.545 127.974 184.763 128.261 185.055C128.548 185.345 128.692 185.719 128.692 186.176C128.692 186.551 128.584 186.886 128.368 187.182C128.155 187.477 127.857 187.71 127.473 187.881C127.089 188.051 126.643 188.136 126.135 188.136C125.467 188.136 124.915 187.991 124.477 187.702C124.04 187.412 123.763 186.989 123.646 186.432L124.601 186.193C124.692 186.545 124.864 186.81 125.116 186.986C125.372 187.162 125.706 187.25 126.118 187.25C126.587 187.25 126.959 187.151 127.234 186.952C127.513 186.75 127.652 186.509 127.652 186.227C127.652 186 127.572 185.81 127.413 185.656C127.254 185.5 127.01 185.384 126.68 185.307L125.589 185.051C124.99 184.909 124.55 184.689 124.268 184.391C123.99 184.089 123.851 183.713 123.851 183.261C123.851 182.892 123.955 182.565 124.162 182.281C124.372 181.997 124.658 181.774 125.018 181.612C125.382 181.45 125.794 181.369 126.254 181.369C126.902 181.369 127.411 181.511 127.78 181.795C128.152 182.08 128.416 182.455 128.572 182.92ZM130.564 184.318C130.564 183.244 130.703 182.257 130.981 181.357C131.262 180.453 131.663 179.622 132.183 178.864H133.069C132.865 179.145 132.673 179.491 132.494 179.903C132.318 180.312 132.163 180.763 132.029 181.254C131.896 181.743 131.791 182.249 131.714 182.771C131.64 183.294 131.603 183.81 131.603 184.318C131.603 184.994 131.669 185.68 131.799 186.376C131.93 187.072 132.106 187.719 132.328 188.315C132.549 188.912 132.797 189.398 133.069 189.773H132.183C131.663 189.014 131.262 188.185 130.981 187.284C130.703 186.381 130.564 185.392 130.564 184.318ZM139.19 182.92L138.286 183.176C138.229 183.026 138.146 182.879 138.035 182.737C137.927 182.592 137.779 182.473 137.592 182.379C137.404 182.286 137.164 182.239 136.871 182.239C136.471 182.239 136.137 182.331 135.87 182.516C135.606 182.697 135.474 182.929 135.474 183.21C135.474 183.46 135.565 183.658 135.746 183.803C135.928 183.947 136.212 184.068 136.599 184.165L137.57 184.403C138.156 184.545 138.592 184.763 138.879 185.055C139.165 185.345 139.309 185.719 139.309 186.176C139.309 186.551 139.201 186.886 138.985 187.182C138.772 187.477 138.474 187.71 138.09 187.881C137.707 188.051 137.261 188.136 136.752 188.136C136.085 188.136 135.532 187.991 135.094 187.702C134.657 187.412 134.38 186.989 134.263 186.432L135.218 186.193C135.309 186.545 135.481 186.81 135.734 186.986C135.989 187.162 136.323 187.25 136.735 187.25C137.204 187.25 137.576 187.151 137.852 186.952C138.13 186.75 138.269 186.509 138.269 186.227C138.269 186 138.19 185.81 138.031 185.656C137.871 185.5 137.627 185.384 137.298 185.307L136.207 185.051C135.607 184.909 135.167 184.689 134.886 184.391C134.607 184.089 134.468 183.713 134.468 183.261C134.468 182.892 134.572 182.565 134.779 182.281C134.989 181.997 135.275 181.774 135.636 181.612C135.999 181.45 136.411 181.369 136.871 181.369C137.519 181.369 138.028 181.511 138.397 181.795C138.769 182.08 139.033 182.455 139.19 182.92ZM142.971 184.318C142.971 185.392 142.83 186.381 142.549 187.284C142.27 188.185 141.871 189.014 141.351 189.773H140.465C140.669 189.491 140.86 189.145 141.036 188.733C141.215 188.324 141.371 187.875 141.505 187.386C141.638 186.895 141.742 186.388 141.816 185.865C141.892 185.339 141.931 184.824 141.931 184.318C141.931 183.642 141.865 182.956 141.735 182.26C141.604 181.564 141.428 180.918 141.206 180.321C140.985 179.724 140.738 179.239 140.465 178.864H141.351C141.871 179.622 142.27 180.453 142.549 181.357C142.83 182.257 142.971 183.244 142.971 184.318Z" fill="#A1A1AA"/>
<path fill-rule="evenodd" clip-rule="evenodd" d="M248.234 181.834C248.384 181.684 248.588 181.6 248.8 181.6C249.012 181.6 249.216 181.684 249.366 181.834L252 184.468L254.634 181.834C254.708 181.758 254.797 181.697 254.894 181.655C254.992 181.613 255.097 181.591 255.203 181.59C255.309 181.589 255.415 181.609 255.513 181.649C255.611 181.69 255.7 181.749 255.776 181.824C255.851 181.899 255.91 181.989 255.95 182.087C255.991 182.185 256.011 182.291 256.01 182.397C256.009 182.503 255.987 182.608 255.945 182.706C255.903 182.803 255.842 182.891 255.766 182.965L252.566 186.165C252.416 186.315 252.212 186.4 252 186.4C251.788 186.4 251.584 186.315 251.434 186.165L248.234 182.965C248.084 182.815 248 182.612 248 182.4C248 182.188 248.084 181.984 248.234 181.834Z" fill="#A1A1AA"/>
<rect x="32.5" y="168.5" width="235" height="31" rx="3.5" stroke="#E4E4E7"/>
</g>
<rect x="145" y="220" width="123" height="32" rx="4" fill="#4F46E5"/>
<path d="M157.861 240V231.273H163.537V232.598H159.442V234.967H163.243V236.293H159.442V238.675H163.571V240H157.861ZM166.343 233.455L167.664 235.871L169.006 233.455H170.638L168.665 236.727L170.673 240H169.049L167.664 237.643L166.292 240H164.656L166.65 236.727L164.707 233.455H166.343ZM174.483 240.128C173.827 240.128 173.26 239.991 172.783 239.719C172.309 239.443 171.944 239.054 171.688 238.551C171.432 238.045 171.304 237.45 171.304 236.766C171.304 236.092 171.432 235.501 171.688 234.993C171.946 234.482 172.307 234.084 172.77 233.8C173.233 233.513 173.777 233.369 174.402 233.369C174.806 233.369 175.186 233.435 175.544 233.565C175.905 233.693 176.223 233.892 176.499 234.162C176.777 234.432 176.996 234.776 177.155 235.193C177.314 235.608 177.394 236.102 177.394 236.676V237.149H172.029V236.109H175.915C175.912 235.814 175.848 235.551 175.723 235.321C175.598 235.088 175.424 234.905 175.199 234.771C174.978 234.638 174.719 234.571 174.424 234.571C174.108 234.571 173.831 234.648 173.593 234.801C173.354 234.952 173.168 235.151 173.034 235.398C172.904 235.642 172.837 235.911 172.834 236.203V237.111C172.834 237.491 172.904 237.818 173.043 238.091C173.182 238.361 173.377 238.568 173.627 238.713C173.877 238.855 174.169 238.926 174.505 238.926C174.729 238.926 174.932 238.895 175.114 238.832C175.296 238.767 175.453 238.672 175.587 238.547C175.721 238.422 175.821 238.267 175.89 238.082L177.33 238.244C177.239 238.625 177.066 238.957 176.81 239.241C176.557 239.523 176.233 239.741 175.838 239.898C175.444 240.051 174.992 240.128 174.483 240.128ZM181.554 240.128C180.901 240.128 180.339 239.984 179.871 239.697C179.405 239.411 179.045 239.014 178.793 238.509C178.543 238 178.418 237.415 178.418 236.753C178.418 236.088 178.545 235.501 178.801 234.993C179.057 234.482 179.418 234.084 179.884 233.8C180.352 233.513 180.906 233.369 181.545 233.369C182.077 233.369 182.547 233.467 182.956 233.663C183.368 233.857 183.696 234.131 183.94 234.486C184.185 234.838 184.324 235.25 184.358 235.722H182.884C182.824 235.406 182.682 235.143 182.457 234.933C182.236 234.72 181.939 234.614 181.567 234.614C181.251 234.614 180.974 234.699 180.736 234.869C180.497 235.037 180.311 235.278 180.178 235.594C180.047 235.909 179.982 236.287 179.982 236.727C179.982 237.173 180.047 237.557 180.178 237.878C180.308 238.196 180.491 238.442 180.727 238.615C180.966 238.786 181.246 238.871 181.567 238.871C181.794 238.871 181.997 238.828 182.176 238.743C182.358 238.655 182.51 238.528 182.632 238.364C182.754 238.199 182.838 237.999 182.884 237.763H184.358C184.321 238.226 184.185 238.636 183.949 238.994C183.713 239.349 183.392 239.628 182.986 239.83C182.58 240.028 182.102 240.128 181.554 240.128ZM189.797 237.247V233.455H191.339V240H189.843V238.837H189.775C189.627 239.203 189.385 239.503 189.047 239.736C188.711 239.969 188.298 240.085 187.806 240.085C187.377 240.085 186.998 239.99 186.669 239.8C186.342 239.607 186.086 239.327 185.902 238.96C185.717 238.591 185.625 238.145 185.625 237.622V233.455H187.167V237.384C187.167 237.798 187.281 238.128 187.508 238.372C187.735 238.616 188.034 238.739 188.403 238.739C188.63 238.739 188.85 238.683 189.064 238.572C189.277 238.462 189.451 238.297 189.588 238.078C189.727 237.857 189.797 237.58 189.797 237.247ZM196.194 233.455V234.648H192.431V233.455H196.194ZM193.36 231.886H194.903V238.031C194.903 238.239 194.934 238.398 194.996 238.509C195.062 238.616 195.147 238.69 195.252 238.73C195.357 238.77 195.474 238.79 195.602 238.79C195.698 238.79 195.786 238.783 195.866 238.768C195.948 238.754 196.011 238.741 196.053 238.73L196.313 239.936C196.231 239.964 196.113 239.996 195.96 240.03C195.809 240.064 195.624 240.084 195.406 240.089C195.019 240.101 194.671 240.043 194.362 239.915C194.052 239.784 193.806 239.582 193.624 239.31C193.445 239.037 193.357 238.696 193.36 238.287V231.886ZM200.311 240.128C199.655 240.128 199.088 239.991 198.611 239.719C198.137 239.443 197.772 239.054 197.516 238.551C197.26 238.045 197.132 237.45 197.132 236.766C197.132 236.092 197.26 235.501 197.516 234.993C197.775 234.482 198.135 234.084 198.598 233.8C199.061 233.513 199.605 233.369 200.23 233.369C200.634 233.369 201.015 233.435 201.373 233.565C201.733 233.693 202.051 233.892 202.327 234.162C202.605 234.432 202.824 234.776 202.983 235.193C203.142 235.608 203.222 236.102 203.222 236.676V237.149H197.857V236.109H201.743C201.74 235.814 201.676 235.551 201.551 235.321C201.426 235.088 201.252 234.905 201.027 234.771C200.806 234.638 200.547 234.571 200.252 234.571C199.936 234.571 199.659 234.648 199.421 234.801C199.182 234.952 198.996 235.151 198.863 235.398C198.732 235.642 198.665 235.911 198.662 236.203V237.111C198.662 237.491 198.732 237.818 198.871 238.091C199.01 238.361 199.205 238.568 199.455 238.713C199.705 238.855 199.998 238.926 200.333 238.926C200.557 238.926 200.76 238.895 200.942 238.832C201.124 238.767 201.282 238.672 201.415 238.547C201.549 238.422 201.65 238.267 201.718 238.082L203.158 238.244C203.067 238.625 202.894 238.957 202.638 239.241C202.385 239.523 202.061 239.741 201.667 239.898C201.272 240.051 200.82 240.128 200.311 240.128ZM210.772 233.455V234.648H207.009V233.455H210.772ZM207.938 231.886H209.481V238.031C209.481 238.239 209.512 238.398 209.575 238.509C209.64 238.616 209.725 238.69 209.83 238.73C209.935 238.77 210.052 238.79 210.18 238.79C210.276 238.79 210.364 238.783 210.444 238.768C210.526 238.754 210.589 238.741 210.631 238.73L210.891 239.936C210.809 239.964 210.691 239.996 210.538 240.03C210.387 240.064 210.202 240.084 209.984 240.089C209.597 240.101 209.249 240.043 208.94 239.915C208.63 239.784 208.384 239.582 208.202 239.31C208.023 239.037 207.935 238.696 207.938 238.287V231.886ZM213.946 240.132C213.531 240.132 213.157 240.058 212.825 239.911C212.495 239.76 212.234 239.538 212.041 239.246C211.85 238.953 211.755 238.592 211.755 238.163C211.755 237.794 211.824 237.489 211.96 237.247C212.096 237.006 212.282 236.812 212.518 236.668C212.754 236.523 213.02 236.413 213.315 236.339C213.613 236.263 213.922 236.207 214.24 236.173C214.623 236.134 214.934 236.098 215.173 236.067C215.412 236.033 215.585 235.982 215.693 235.913C215.804 235.842 215.859 235.733 215.859 235.585V235.56C215.859 235.239 215.764 234.99 215.574 234.814C215.383 234.638 215.109 234.55 214.751 234.55C214.373 234.55 214.074 234.632 213.852 234.797C213.633 234.962 213.485 235.156 213.409 235.381L211.968 235.176C212.082 234.778 212.27 234.446 212.531 234.179C212.792 233.909 213.112 233.707 213.49 233.574C213.868 233.438 214.285 233.369 214.743 233.369C215.058 233.369 215.372 233.406 215.684 233.48C215.997 233.554 216.282 233.676 216.541 233.847C216.799 234.014 217.007 234.243 217.163 234.533C217.322 234.822 217.402 235.185 217.402 235.619V240H215.919V239.101H215.868C215.774 239.283 215.642 239.453 215.471 239.612C215.304 239.768 215.092 239.895 214.836 239.991C214.583 240.085 214.287 240.132 213.946 240.132ZM214.346 238.999C214.656 238.999 214.924 238.937 215.152 238.815C215.379 238.69 215.554 238.526 215.676 238.321C215.801 238.116 215.863 237.893 215.863 237.652V236.881C215.815 236.92 215.733 236.957 215.616 236.991C215.502 237.026 215.375 237.055 215.233 237.081C215.091 237.107 214.95 237.129 214.811 237.149C214.672 237.169 214.551 237.186 214.449 237.2C214.218 237.232 214.012 237.283 213.831 237.354C213.649 237.425 213.505 237.524 213.4 237.652C213.295 237.777 213.243 237.939 213.243 238.138C213.243 238.422 213.346 238.636 213.554 238.781C213.761 238.926 214.025 238.999 214.346 238.999ZM224.126 235.185L222.72 235.338C222.68 235.196 222.61 235.062 222.511 234.938C222.414 234.812 222.284 234.712 222.119 234.635C221.954 234.558 221.752 234.52 221.514 234.52C221.193 234.52 220.923 234.589 220.704 234.729C220.488 234.868 220.382 235.048 220.385 235.27C220.382 235.46 220.451 235.615 220.593 235.734C220.738 235.854 220.977 235.952 221.309 236.028L222.426 236.267C223.045 236.401 223.505 236.612 223.806 236.902C224.11 237.192 224.264 237.571 224.267 238.04C224.264 238.452 224.143 238.815 223.904 239.131C223.669 239.443 223.341 239.687 222.92 239.864C222.5 240.04 222.017 240.128 221.471 240.128C220.67 240.128 220.025 239.96 219.537 239.625C219.048 239.287 218.757 238.817 218.663 238.214L220.167 238.07C220.235 238.365 220.38 238.588 220.602 238.739C220.824 238.889 221.112 238.964 221.467 238.964C221.833 238.964 222.127 238.889 222.349 238.739C222.574 238.588 222.686 238.402 222.686 238.18C222.686 237.993 222.613 237.838 222.468 237.716C222.326 237.594 222.105 237.5 221.804 237.435L220.687 237.2C220.059 237.07 219.595 236.849 219.294 236.54C218.993 236.227 218.843 235.832 218.846 235.355C218.843 234.952 218.953 234.602 219.174 234.307C219.399 234.009 219.71 233.778 220.108 233.616C220.508 233.452 220.97 233.369 221.493 233.369C222.26 233.369 222.863 233.533 223.304 233.859C223.747 234.186 224.021 234.628 224.126 235.185ZM226.945 237.946L226.941 236.084H227.188L229.54 233.455H231.343L228.449 236.676H228.13L226.945 237.946ZM225.539 240V231.273H227.081V240H225.539ZM229.647 240L227.516 237.021L228.556 235.935L231.492 240H229.647Z" fill="white"/>
<path fill-rule="evenodd" clip-rule="evenodd" d="M244.234 233.834C244.384 233.684 244.588 233.6 244.8 233.6C245.012 233.6 245.216 233.684 245.366 233.834L248 236.468L250.634 233.834C250.708 233.758 250.797 233.697 250.894 233.655C250.992 233.613 251.097 233.591 251.203 233.59C251.309 233.589 251.415 233.609 251.513 233.649C251.611 233.69 251.7 233.749 251.776 233.824C251.851 233.899 251.91 233.989 251.95 234.087C251.991 234.185 252.011 234.291 252.01 234.397C252.009 234.503 251.987 234.608 251.945 234.706C251.903 234.803 251.842 234.891 251.766 234.965L248.566 238.165C248.416 238.315 248.212 238.4 248 238.4C247.788 238.4 247.584 238.315 247.434 238.165L244.234 234.965C244.084 234.815 244 234.612 244 234.4C244 234.188 244.084 233.984 244.234 233.834Z" fill="white"/>
<rect x="16.5" y="64.5" width="267" height="203" rx="3.5" stroke="#E4E4E7"/>
<rect x="16" y="16" width="32" height="32" rx="4" fill="#FEFBEB"/>
<path fill-rule="evenodd" clip-rule="evenodd" d="M33.04 24.8371C33.2024 24.8881 33.3443 24.9897 33.445 25.1269C33.5457 25.2642 33.6 25.43 33.6 25.6003V29.6003H36.8C36.9463 29.6002 37.0899 29.6403 37.215 29.7161C37.3402 29.792 37.4421 29.9007 37.5098 30.0305C37.5774 30.1602 37.6082 30.306 37.5987 30.4521C37.5892 30.5981 37.5399 30.7387 37.456 30.8587L31.856 38.8587C31.7586 38.9983 31.6191 39.1032 31.4579 39.1581C31.2967 39.213 31.1222 39.215 30.9598 39.1638C30.7973 39.1127 30.6555 39.0111 30.5548 38.8737C30.4541 38.7364 30.3999 38.5705 30.4 38.4003V34.4003H27.2C27.0537 34.4003 26.9101 34.3602 26.785 34.2844C26.6598 34.2085 26.5579 34.0998 26.4903 33.9701C26.4226 33.8403 26.3919 33.6945 26.4013 33.5484C26.4108 33.4024 26.4602 33.2618 26.544 33.1419L32.144 25.1419C32.2416 25.0025 32.3811 24.8979 32.5423 24.8432C32.7034 24.7885 32.8777 24.7867 33.04 24.8379V24.8371Z" fill="#B35214"/>
<path d="M57.0043 37V26.8182H63.6264V28.3643H58.8487V31.1286H63.2834V32.6747H58.8487V35.4538H63.6662V37H57.0043ZM67.2283 32.5256V37H65.4286V29.3636H67.1488V30.6612H67.2383C67.4139 30.2337 67.694 29.8939 68.0785 29.642C68.4663 29.3902 68.9452 29.2642 69.5153 29.2642C70.0423 29.2642 70.5013 29.3769 70.8924 29.6023C71.2868 29.8277 71.5917 30.1541 71.8072 30.5817C72.0259 31.0092 72.1336 31.5279 72.1303 32.1378V37H70.3306V32.4162C70.3306 31.9058 70.198 31.5064 69.9329 31.218C69.671 30.9297 69.3081 30.7855 68.8441 30.7855C68.5292 30.7855 68.2492 30.8551 68.0039 30.9943C67.762 31.1302 67.5714 31.3274 67.4322 31.5859C67.2963 31.8445 67.2283 32.1577 67.2283 32.5256ZM76.1573 37.1541C75.6734 37.1541 75.2376 37.0679 74.8498 36.8956C74.4653 36.7199 74.1604 36.4614 73.935 36.12C73.7129 35.7786 73.6019 35.3577 73.6019 34.8572C73.6019 34.4264 73.6815 34.0701 73.8406 33.7884C73.9996 33.5066 74.2167 33.2812 74.4918 33.1122C74.7669 32.9432 75.0768 32.8156 75.4215 32.7294C75.7695 32.6399 76.1291 32.5753 76.5004 32.5355C76.9478 32.4891 77.3107 32.4477 77.5891 32.4112C77.8675 32.3714 78.0697 32.3118 78.1957 32.2322C78.3249 32.1494 78.3896 32.0218 78.3896 31.8494V31.8196C78.3896 31.4451 78.2785 31.1551 78.0565 30.9496C77.8344 30.7441 77.5146 30.6413 77.0969 30.6413C76.6561 30.6413 76.3065 30.7375 76.0479 30.9297C75.7927 31.1219 75.6204 31.349 75.5309 31.6108L73.8505 31.3722C73.9831 30.9081 74.2018 30.5204 74.5067 30.2088C74.8117 29.8939 75.1845 29.6586 75.6254 29.5028C76.0662 29.3438 76.5534 29.2642 77.087 29.2642C77.4549 29.2642 77.8211 29.3073 78.1857 29.3935C78.5503 29.4796 78.8834 29.6222 79.185 29.821C79.4866 30.0166 79.7286 30.2834 79.9109 30.6214C80.0965 30.9595 80.1893 31.3821 80.1893 31.8892V37H78.4592V35.951H78.3995C78.2901 36.1631 78.136 36.362 77.9371 36.5476C77.7416 36.7299 77.4947 36.8774 77.1964 36.9901C76.9014 37.0994 76.555 37.1541 76.1573 37.1541ZM76.6246 35.8317C76.9859 35.8317 77.2991 35.7604 77.5643 35.6179C77.8294 35.4721 78.0333 35.2798 78.1758 35.0412C78.3216 34.8026 78.3945 34.5424 78.3945 34.2607V33.3608C78.3382 33.4072 78.2421 33.4503 78.1062 33.4901C77.9736 33.5298 77.8245 33.5646 77.6587 33.5945C77.493 33.6243 77.329 33.6508 77.1665 33.674C77.0041 33.6972 76.8633 33.7171 76.744 33.7337C76.4755 33.7701 76.2352 33.8298 76.0231 33.9126C75.811 33.9955 75.6436 34.1115 75.521 34.2607C75.3983 34.4065 75.337 34.5954 75.337 34.8274C75.337 35.1589 75.458 35.4091 75.6999 35.5781C75.9419 35.7472 76.2501 35.8317 76.6246 35.8317ZM82.0785 37V26.8182H83.8782V30.6264H83.9528C84.0456 30.4408 84.1765 30.2436 84.3455 30.0348C84.5146 29.8227 84.7433 29.642 85.0316 29.4929C85.32 29.3404 85.6879 29.2642 86.1353 29.2642C86.7253 29.2642 87.2572 29.415 87.7312 29.7166C88.2085 30.0149 88.5863 30.4574 88.8647 31.044C89.1464 31.6274 89.2873 32.3433 89.2873 33.1918C89.2873 34.0303 89.1497 34.7429 88.8746 35.3295C88.5996 35.9162 88.225 36.3636 87.7511 36.6719C87.2771 36.9801 86.7402 37.1342 86.1403 37.1342C85.7028 37.1342 85.3398 37.0613 85.0515 36.9155C84.7631 36.7696 84.5311 36.594 84.3555 36.3885C84.1831 36.1797 84.0489 35.9825 83.9528 35.7969H83.8484V37H82.0785ZM83.8434 33.1818C83.8434 33.6757 83.913 34.1082 84.0522 34.4794C84.1947 34.8506 84.3986 35.1406 84.6637 35.3494C84.9322 35.5549 85.257 35.6577 85.6381 35.6577C86.0359 35.6577 86.369 35.5516 86.6374 35.3395C86.9059 35.1241 87.1081 34.8307 87.244 34.4595C87.3832 34.085 87.4528 33.6591 87.4528 33.1818C87.4528 32.7079 87.3848 32.2869 87.2489 31.919C87.113 31.5511 86.9109 31.2628 86.6424 31.054C86.3739 30.8452 86.0392 30.7408 85.6381 30.7408C85.2537 30.7408 84.9272 30.8419 84.6587 31.044C84.3903 31.2462 84.1864 31.5296 84.0472 31.8942C83.9113 32.2588 83.8434 32.688 83.8434 33.1818ZM92.617 26.8182V37H90.8173V26.8182H92.617ZM97.8484 37.1491C97.0827 37.1491 96.4215 36.9901 95.8647 36.6719C95.3112 36.3504 94.8853 35.8963 94.587 35.3097C94.2887 34.7197 94.1396 34.0253 94.1396 33.2266C94.1396 32.4411 94.2887 31.7517 94.587 31.1584C94.8886 30.5618 95.3095 30.0978 95.8498 29.7663C96.39 29.4316 97.0247 29.2642 97.7539 29.2642C98.2246 29.2642 98.6687 29.3404 99.0863 29.4929C99.5072 29.642 99.8784 29.8741 100.2 30.1889C100.525 30.5038 100.78 30.9048 100.966 31.392C101.151 31.8759 101.244 32.4527 101.244 33.1222V33.674H94.9847V32.4609H99.5188C99.5155 32.1162 99.4409 31.8097 99.2951 31.5412C99.1493 31.2694 98.9454 31.0556 98.6836 30.8999C98.4251 30.7441 98.1235 30.6662 97.7788 30.6662C97.4109 30.6662 97.0877 30.7557 96.8093 30.9347C96.5309 31.1103 96.3138 31.3423 96.158 31.6307C96.0056 31.9157 95.9277 32.2289 95.9244 32.5703V33.6293C95.9244 34.0734 96.0056 34.4545 96.168 34.7727C96.3304 35.0876 96.5574 35.3295 96.8491 35.4986C97.1407 35.6643 97.4821 35.7472 97.8732 35.7472C98.1351 35.7472 98.372 35.7107 98.5842 35.6378C98.7963 35.5616 98.9802 35.4505 99.136 35.3047C99.2918 35.1589 99.4094 34.9782 99.489 34.7628L101.169 34.9517C101.063 35.3958 100.861 35.7836 100.563 36.1151C100.268 36.4432 99.89 36.6984 99.4293 36.8807C98.9686 37.0597 98.4416 37.1491 97.8484 37.1491ZM106.319 37V26.8182H108.118V30.6264H108.193C108.286 30.4408 108.417 30.2436 108.586 30.0348C108.755 29.8227 108.983 29.642 109.272 29.4929C109.56 29.3404 109.928 29.2642 110.376 29.2642C110.965 29.2642 111.497 29.415 111.971 29.7166C112.449 30.0149 112.827 30.4574 113.105 31.044C113.387 31.6274 113.528 32.3433 113.528 33.1918C113.528 34.0303 113.39 34.7429 113.115 35.3295C112.84 35.9162 112.465 36.3636 111.991 36.6719C111.517 36.9801 110.98 37.1342 110.381 37.1342C109.943 37.1342 109.58 37.0613 109.292 36.9155C109.003 36.7696 108.771 36.594 108.596 36.3885C108.423 36.1797 108.289 35.9825 108.193 35.7969H108.089V37H106.319ZM108.084 33.1818C108.084 33.6757 108.153 34.1082 108.292 34.4794C108.435 34.8506 108.639 35.1406 108.904 35.3494C109.172 35.5549 109.497 35.6577 109.878 35.6577C110.276 35.6577 110.609 35.5516 110.878 35.3395C111.146 35.1241 111.348 34.8307 111.484 34.4595C111.623 34.085 111.693 33.6591 111.693 33.1818C111.693 32.7079 111.625 32.2869 111.489 31.919C111.353 31.5511 111.151 31.2628 110.883 31.054C110.614 30.8452 110.279 30.7408 109.878 30.7408C109.494 30.7408 109.167 30.8419 108.899 31.044C108.631 31.2462 108.427 31.5296 108.287 31.8942C108.152 32.2588 108.084 32.688 108.084 33.1818ZM118.438 37.1491C117.673 37.1491 117.011 36.9901 116.455 36.6719C115.901 36.3504 115.475 35.8963 115.177 35.3097C114.879 34.7197 114.729 34.0253 114.729 33.2266C114.729 32.4411 114.879 31.7517 115.177 31.1584C115.478 30.5618 115.899 30.0978 116.44 29.7663C116.98 29.4316 117.615 29.2642 118.344 29.2642C118.814 29.2642 119.259 29.3404 119.676 29.4929C120.097 29.642 120.468 29.8741 120.79 30.1889C121.115 30.5038 121.37 30.9048 121.555 31.392C121.741 31.8759 121.834 32.4527 121.834 33.1222V33.674H115.575V32.4609H120.109C120.105 32.1162 120.031 31.8097 119.885 31.5412C119.739 31.2694 119.535 31.0556 119.273 30.8999C119.015 30.7441 118.713 30.6662 118.369 30.6662C118.001 30.6662 117.678 30.7557 117.399 30.9347C117.121 31.1103 116.904 31.3423 116.748 31.6307C116.595 31.9157 116.518 32.2289 116.514 32.5703V33.6293C116.514 34.0734 116.595 34.4545 116.758 34.7727C116.92 35.0876 117.147 35.3295 117.439 35.4986C117.731 35.6643 118.072 35.7472 118.463 35.7472C118.725 35.7472 118.962 35.7107 119.174 35.6378C119.386 35.5616 119.57 35.4505 119.726 35.3047C119.882 35.1589 119.999 34.9782 120.079 34.7628L121.759 34.9517C121.653 35.3958 121.451 35.7836 121.153 36.1151C120.858 36.4432 120.48 36.6984 120.019 36.8807C119.558 37.0597 119.031 37.1491 118.438 37.1491ZM127.17 29.3636V30.7557H122.78V29.3636H127.17ZM123.863 27.5341H125.663V34.7031C125.663 34.9451 125.7 35.1307 125.773 35.2599C125.849 35.3859 125.948 35.4721 126.071 35.5185C126.193 35.5649 126.329 35.5881 126.479 35.5881C126.591 35.5881 126.694 35.5798 126.787 35.5632C126.883 35.5466 126.956 35.5317 127.006 35.5185L127.309 36.9254C127.213 36.9586 127.075 36.995 126.896 37.0348C126.72 37.0746 126.505 37.0978 126.25 37.1044C125.799 37.1177 125.393 37.0497 125.032 36.9006C124.671 36.7481 124.384 36.5128 124.172 36.1946C123.963 35.8764 123.86 35.4787 123.863 35.0014V27.5341ZM130.872 37.1541C130.388 37.1541 129.952 37.0679 129.565 36.8956C129.18 36.7199 128.875 36.4614 128.65 36.12C128.428 35.7786 128.317 35.3577 128.317 34.8572C128.317 34.4264 128.396 34.0701 128.555 33.7884C128.714 33.5066 128.932 33.2812 129.207 33.1122C129.482 32.9432 129.792 32.8156 130.136 32.7294C130.484 32.6399 130.844 32.5753 131.215 32.5355C131.663 32.4891 132.026 32.4477 132.304 32.4112C132.582 32.3714 132.785 32.3118 132.911 32.2322C133.04 32.1494 133.104 32.0218 133.104 31.8494V31.8196C133.104 31.4451 132.993 31.1551 132.771 30.9496C132.549 30.7441 132.229 30.6413 131.812 30.6413C131.371 30.6413 131.021 30.7375 130.763 30.9297C130.508 31.1219 130.335 31.349 130.246 31.6108L128.565 31.3722C128.698 30.9081 128.917 30.5204 129.222 30.2088C129.527 29.8939 129.899 29.6586 130.34 29.5028C130.781 29.3438 131.268 29.2642 131.802 29.2642C132.17 29.2642 132.536 29.3073 132.901 29.3935C133.265 29.4796 133.598 29.6222 133.9 29.821C134.201 30.0166 134.443 30.2834 134.626 30.6214C134.811 30.9595 134.904 31.3821 134.904 31.8892V37H133.174V35.951H133.114C133.005 36.1631 132.851 36.362 132.652 36.5476C132.456 36.7299 132.21 36.8774 131.911 36.9901C131.616 37.0994 131.27 37.1541 130.872 37.1541ZM131.339 35.8317C131.701 35.8317 132.014 35.7604 132.279 35.6179C132.544 35.4721 132.748 35.2798 132.891 35.0412C133.036 34.8026 133.109 34.5424 133.109 34.2607V33.3608C133.053 33.4072 132.957 33.4503 132.821 33.4901C132.688 33.5298 132.539 33.5646 132.374 33.5945C132.208 33.6243 132.044 33.6508 131.881 33.674C131.719 33.6972 131.578 33.7171 131.459 33.7337C131.19 33.7701 130.95 33.8298 130.738 33.9126C130.526 33.9955 130.358 34.1115 130.236 34.2607C130.113 34.4065 130.052 34.5954 130.052 34.8274C130.052 35.1589 130.173 35.4091 130.415 35.5781C130.657 35.7472 130.965 35.8317 131.339 35.8317ZM142.384 37.1541C141.9 37.1541 141.464 37.0679 141.076 36.8956C140.692 36.7199 140.387 36.4614 140.162 36.12C139.94 35.7786 139.828 35.3577 139.828 34.8572C139.828 34.4264 139.908 34.0701 140.067 33.7884C140.226 33.5066 140.443 33.2812 140.718 33.1122C140.993 32.9432 141.303 32.8156 141.648 32.7294C141.996 32.6399 142.356 32.5753 142.727 32.5355C143.174 32.4891 143.537 32.4477 143.816 32.4112C144.094 32.3714 144.296 32.3118 144.422 32.2322C144.551 32.1494 144.616 32.0218 144.616 31.8494V31.8196C144.616 31.4451 144.505 31.1551 144.283 30.9496C144.061 30.7441 143.741 30.6413 143.324 30.6413C142.883 30.6413 142.533 30.7375 142.275 30.9297C142.019 31.1219 141.847 31.349 141.757 31.6108L140.077 31.3722C140.21 30.9081 140.428 30.5204 140.733 30.2088C141.038 29.8939 141.411 29.6586 141.852 29.5028C142.293 29.3438 142.78 29.2642 143.314 29.2642C143.681 29.2642 144.048 29.3073 144.412 29.3935C144.777 29.4796 145.11 29.6222 145.412 29.821C145.713 30.0166 145.955 30.2834 146.137 30.6214C146.323 30.9595 146.416 31.3821 146.416 31.8892V37H144.686V35.951H144.626C144.517 36.1631 144.363 36.362 144.164 36.5476C143.968 36.7299 143.721 36.8774 143.423 36.9901C143.128 37.0994 142.782 37.1541 142.384 37.1541ZM142.851 35.8317C143.212 35.8317 143.526 35.7604 143.791 35.6179C144.056 35.4721 144.26 35.2798 144.402 35.0412C144.548 34.8026 144.621 34.5424 144.621 34.2607V33.3608C144.565 33.4072 144.469 33.4503 144.333 33.4901C144.2 33.5298 144.051 33.5646 143.885 33.5945C143.72 33.6243 143.556 33.6508 143.393 33.674C143.231 33.6972 143.09 33.7171 142.971 33.7337C142.702 33.7701 142.462 33.8298 142.25 33.9126C142.038 33.9955 141.87 34.1115 141.748 34.2607C141.625 34.4065 141.564 34.5954 141.564 34.8274C141.564 35.1589 141.685 35.4091 141.926 35.5781C142.168 35.7472 142.477 35.8317 142.851 35.8317ZM151.556 37.1491C150.794 37.1491 150.14 36.9818 149.593 36.647C149.049 36.3123 148.63 35.8499 148.335 35.2599C148.043 34.6667 147.897 33.9839 147.897 33.2116C147.897 32.4361 148.047 31.7517 148.345 31.1584C148.643 30.5618 149.064 30.0978 149.608 29.7663C150.154 29.4316 150.801 29.2642 151.547 29.2642C152.166 29.2642 152.715 29.3786 153.192 29.6072C153.673 29.8326 154.056 30.1525 154.341 30.5668C154.626 30.9777 154.788 31.4583 154.828 32.0085H153.108C153.038 31.6406 152.872 31.334 152.61 31.0888C152.352 30.8402 152.006 30.7159 151.571 30.7159C151.203 30.7159 150.88 30.8153 150.602 31.0142C150.324 31.2098 150.106 31.4915 149.951 31.8594C149.798 32.2273 149.722 32.6681 149.722 33.1818C149.722 33.7022 149.798 34.1496 149.951 34.5241C150.103 34.8954 150.317 35.1821 150.592 35.3842C150.87 35.5831 151.197 35.6825 151.571 35.6825C151.837 35.6825 152.074 35.6328 152.282 35.5334C152.494 35.4306 152.672 35.2831 152.814 35.0909C152.957 34.8987 153.055 34.665 153.108 34.3899H154.828C154.785 34.9302 154.626 35.4091 154.35 35.8267C154.075 36.241 153.701 36.5658 153.227 36.8011C152.753 37.0331 152.196 37.1491 151.556 37.1491ZM159.637 37.1491C158.874 37.1491 158.22 36.9818 157.673 36.647C157.129 36.3123 156.71 35.8499 156.415 35.2599C156.123 34.6667 155.977 33.9839 155.977 33.2116C155.977 32.4361 156.127 31.7517 156.425 31.1584C156.723 30.5618 157.144 30.0978 157.688 29.7663C158.235 29.4316 158.881 29.2642 159.627 29.2642C160.246 29.2642 160.795 29.3786 161.272 29.6072C161.753 29.8326 162.136 30.1525 162.421 30.5668C162.706 30.9777 162.868 31.4583 162.908 32.0085H161.188C161.118 31.6406 160.952 31.334 160.691 31.0888C160.432 30.8402 160.086 30.7159 159.651 30.7159C159.284 30.7159 158.96 30.8153 158.682 31.0142C158.404 31.2098 158.186 31.4915 158.031 31.8594C157.878 32.2273 157.802 32.6681 157.802 33.1818C157.802 33.7022 157.878 34.1496 158.031 34.5241C158.183 34.8954 158.397 35.1821 158.672 35.3842C158.95 35.5831 159.277 35.6825 159.651 35.6825C159.917 35.6825 160.154 35.6328 160.362 35.5334C160.575 35.4306 160.752 35.2831 160.894 35.0909C161.037 34.8987 161.135 34.665 161.188 34.3899H162.908C162.865 34.9302 162.706 35.4091 162.431 35.8267C162.155 36.241 161.781 36.5658 161.307 36.8011C160.833 37.0331 160.276 37.1491 159.637 37.1491ZM167.766 37.1491C167.001 37.1491 166.339 36.9901 165.783 36.6719C165.229 36.3504 164.803 35.8963 164.505 35.3097C164.207 34.7197 164.058 34.0253 164.058 33.2266C164.058 32.4411 164.207 31.7517 164.505 31.1584C164.807 30.5618 165.228 30.0978 165.768 29.7663C166.308 29.4316 166.943 29.2642 167.672 29.2642C168.143 29.2642 168.587 29.3404 169.004 29.4929C169.425 29.642 169.796 29.8741 170.118 30.1889C170.443 30.5038 170.698 30.9048 170.884 31.392C171.069 31.8759 171.162 32.4527 171.162 33.1222V33.674H164.903V32.4609H169.437C169.433 32.1162 169.359 31.8097 169.213 31.5412C169.067 31.2694 168.863 31.0556 168.602 30.8999C168.343 30.7441 168.041 30.6662 167.697 30.6662C167.329 30.6662 167.006 30.7557 166.727 30.9347C166.449 31.1103 166.232 31.3423 166.076 31.6307C165.924 31.9157 165.846 32.2289 165.842 32.5703V33.6293C165.842 34.0734 165.924 34.4545 166.086 34.7727C166.248 35.0876 166.475 35.3295 166.767 35.4986C167.059 35.6643 167.4 35.7472 167.791 35.7472C168.053 35.7472 168.29 35.7107 168.502 35.6378C168.714 35.5616 168.898 35.4505 169.054 35.3047C169.21 35.1589 169.327 34.9782 169.407 34.7628L171.087 34.9517C170.981 35.3958 170.779 35.7836 170.481 36.1151C170.186 36.4432 169.808 36.6984 169.347 36.8807C168.887 37.0597 168.36 37.1491 167.766 37.1491ZM178.72 31.3821L177.079 31.5611C177.033 31.3954 176.952 31.2396 176.836 31.0938C176.723 30.9479 176.571 30.8303 176.378 30.7408C176.186 30.6513 175.951 30.6065 175.672 30.6065C175.298 30.6065 174.983 30.6877 174.728 30.8501C174.476 31.0125 174.352 31.223 174.355 31.4815C174.352 31.7036 174.433 31.8842 174.599 32.0234C174.768 32.1626 175.046 32.277 175.434 32.3665L176.736 32.6449C177.459 32.8007 177.996 33.0476 178.347 33.3857C178.702 33.7237 178.881 34.1662 178.884 34.7131C178.881 35.1937 178.74 35.6179 178.461 35.9858C178.186 36.3504 177.804 36.6354 177.313 36.8409C176.823 37.0464 176.259 37.1491 175.623 37.1491C174.688 37.1491 173.936 36.9536 173.366 36.5625C172.796 36.1681 172.456 35.6196 172.346 34.9169L174.101 34.7479C174.181 35.0926 174.35 35.3527 174.608 35.5284C174.867 35.7041 175.203 35.7919 175.618 35.7919C176.045 35.7919 176.388 35.7041 176.647 35.5284C176.909 35.3527 177.04 35.1357 177.04 34.8771C177.04 34.6584 176.955 34.4777 176.786 34.3352C176.62 34.1927 176.362 34.0833 176.01 34.0071L174.708 33.7337C173.975 33.5812 173.434 33.3243 173.082 32.9631C172.731 32.5985 172.557 32.1378 172.56 31.581C172.557 31.1103 172.684 30.7027 172.943 30.358C173.205 30.0099 173.568 29.7415 174.032 29.5526C174.499 29.3603 175.038 29.2642 175.648 29.2642C176.542 29.2642 177.247 29.4548 177.76 29.8359C178.278 30.2171 178.597 30.7325 178.72 31.3821ZM186.404 31.3821L184.763 31.5611C184.717 31.3954 184.635 31.2396 184.519 31.0938C184.407 30.9479 184.254 30.8303 184.062 30.7408C183.87 30.6513 183.634 30.6065 183.356 30.6065C182.981 30.6065 182.667 30.6877 182.411 30.8501C182.16 31.0125 182.035 31.223 182.039 31.4815C182.035 31.7036 182.116 31.8842 182.282 32.0234C182.451 32.1626 182.73 32.277 183.117 32.3665L184.42 32.6449C185.142 32.8007 185.679 33.0476 186.031 33.3857C186.385 33.7237 186.564 34.1662 186.568 34.7131C186.564 35.1937 186.423 35.6179 186.145 35.9858C185.87 36.3504 185.487 36.6354 184.997 36.8409C184.506 37.0464 183.943 37.1491 183.306 37.1491C182.372 37.1491 181.619 36.9536 181.049 36.5625C180.479 36.1681 180.139 35.6196 180.03 34.9169L181.785 34.7479C181.865 35.0926 182.034 35.3527 182.292 35.5284C182.551 35.7041 182.887 35.7919 183.301 35.7919C183.729 35.7919 184.072 35.7041 184.33 35.5284C184.592 35.3527 184.723 35.1357 184.723 34.8771C184.723 34.6584 184.639 34.4777 184.47 34.3352C184.304 34.1927 184.045 34.0833 183.694 34.0071L182.392 33.7337C181.659 33.5812 181.117 33.3243 180.766 32.9631C180.414 32.5985 180.24 32.1378 180.244 31.581C180.24 31.1103 180.368 30.7027 180.627 30.358C180.888 30.0099 181.251 29.7415 181.715 29.5526C182.183 29.3603 182.721 29.2642 183.331 29.2642C184.226 29.2642 184.93 29.4548 185.444 29.8359C185.961 30.2171 186.281 30.7325 186.404 31.3821ZM195.392 29.3636V30.7557H190.878V29.3636H195.392ZM192.007 37V28.6428C192.007 28.129 192.113 27.7015 192.325 27.3601C192.54 27.0187 192.829 26.7635 193.19 26.5945C193.551 26.4254 193.952 26.3409 194.393 26.3409C194.704 26.3409 194.981 26.3658 195.223 26.4155C195.465 26.4652 195.644 26.5099 195.76 26.5497L195.402 27.9418C195.326 27.9186 195.23 27.8954 195.114 27.8722C194.998 27.8456 194.869 27.8324 194.726 27.8324C194.391 27.8324 194.154 27.9136 194.015 28.076C193.879 28.2351 193.811 28.4638 193.811 28.7621V37H192.007ZM199.846 37.1491C199.1 37.1491 198.453 36.9851 197.907 36.657C197.36 36.3288 196.935 35.8698 196.634 35.2798C196.336 34.6899 196.186 34.0005 196.186 33.2116C196.186 32.4228 196.336 31.7318 196.634 31.1385C196.935 30.5452 197.36 30.0845 197.907 29.7564C198.453 29.4283 199.1 29.2642 199.846 29.2642C200.591 29.2642 201.238 29.4283 201.784 29.7564C202.331 30.0845 202.754 30.5452 203.052 31.1385C203.354 31.7318 203.505 32.4228 203.505 33.2116C203.505 34.0005 203.354 34.6899 203.052 35.2798C202.754 35.8698 202.331 36.3288 201.784 36.657C201.238 36.9851 200.591 37.1491 199.846 37.1491ZM199.855 35.7074C200.26 35.7074 200.598 35.5964 200.87 35.3743C201.141 35.1489 201.344 34.8473 201.476 34.4695C201.612 34.0916 201.68 33.6707 201.68 33.2067C201.68 32.7393 201.612 32.3168 201.476 31.9389C201.344 31.5578 201.141 31.2545 200.87 31.0291C200.598 30.8037 200.26 30.6911 199.855 30.6911C199.441 30.6911 199.096 30.8037 198.821 31.0291C198.55 31.2545 198.346 31.5578 198.21 31.9389C198.077 32.3168 198.011 32.7393 198.011 33.2067C198.011 33.6707 198.077 34.0916 198.21 34.4695C198.346 34.8473 198.55 35.1489 198.821 35.3743C199.096 35.5964 199.441 35.7074 199.855 35.7074ZM205.032 37V29.3636H206.777V30.6364H206.857C206.996 30.1955 207.235 29.8558 207.573 29.6172C207.914 29.3752 208.303 29.2543 208.741 29.2543C208.84 29.2543 208.951 29.2592 209.074 29.2692C209.2 29.2758 209.304 29.2874 209.387 29.304V30.9595C209.311 30.933 209.19 30.9098 209.024 30.8899C208.862 30.8667 208.704 30.8551 208.552 30.8551C208.224 30.8551 207.929 30.9264 207.667 31.0689C207.409 31.2081 207.205 31.402 207.056 31.6506C206.906 31.8991 206.832 32.1858 206.832 32.5107V37H205.032ZM217.869 29.3636V30.7557H213.479V29.3636H217.869ZM214.563 27.5341H216.362V34.7031C216.362 34.9451 216.399 35.1307 216.472 35.2599C216.548 35.3859 216.647 35.4721 216.77 35.5185C216.893 35.5649 217.029 35.5881 217.178 35.5881C217.29 35.5881 217.393 35.5798 217.486 35.5632C217.582 35.5466 217.655 35.5317 217.705 35.5185L218.008 36.9254C217.912 36.9586 217.774 36.995 217.595 37.0348C217.42 37.0746 217.204 37.0978 216.949 37.1044C216.498 37.1177 216.092 37.0497 215.731 36.9006C215.37 36.7481 215.083 36.5128 214.871 36.1946C214.662 35.8764 214.559 35.4787 214.563 35.0014V27.5341ZM222.673 37.1491C221.907 37.1491 221.246 36.9901 220.689 36.6719C220.135 36.3504 219.71 35.8963 219.411 35.3097C219.113 34.7197 218.964 34.0253 218.964 33.2266C218.964 32.4411 219.113 31.7517 219.411 31.1584C219.713 30.5618 220.134 30.0978 220.674 29.7663C221.214 29.4316 221.849 29.2642 222.578 29.2642C223.049 29.2642 223.493 29.3404 223.911 29.4929C224.331 29.642 224.703 29.8741 225.024 30.1889C225.349 30.5038 225.604 30.9048 225.79 31.392C225.975 31.8759 226.068 32.4527 226.068 33.1222V33.674H219.809V32.4609H224.343C224.34 32.1162 224.265 31.8097 224.119 31.5412C223.973 31.2694 223.77 31.0556 223.508 30.8999C223.249 30.7441 222.948 30.6662 222.603 30.6662C222.235 30.6662 221.912 30.7557 221.634 30.9347C221.355 31.1103 221.138 31.3423 220.982 31.6307C220.83 31.9157 220.752 32.2289 220.749 32.5703V33.6293C220.749 34.0734 220.83 34.4545 220.992 34.7727C221.155 35.0876 221.382 35.3295 221.673 35.4986C221.965 35.6643 222.306 35.7472 222.697 35.7472C222.959 35.7472 223.196 35.7107 223.408 35.6378C223.621 35.5616 223.804 35.4505 223.96 35.3047C224.116 35.1589 224.234 34.9782 224.313 34.7628L225.994 34.9517C225.888 35.3958 225.685 35.7836 225.387 36.1151C225.092 36.4432 224.714 36.6984 224.254 36.8807C223.793 37.0597 223.266 37.1491 222.673 37.1491ZM229.788 37.1541C229.304 37.1541 228.868 37.0679 228.481 36.8956C228.096 36.7199 227.791 36.4614 227.566 36.12C227.344 35.7786 227.233 35.3577 227.233 34.8572C227.233 34.4264 227.312 34.0701 227.471 33.7884C227.631 33.5066 227.848 33.2812 228.123 33.1122C228.398 32.9432 228.708 32.8156 229.052 32.7294C229.4 32.6399 229.76 32.5753 230.131 32.5355C230.579 32.4891 230.942 32.4477 231.22 32.4112C231.498 32.3714 231.701 32.3118 231.827 32.2322C231.956 32.1494 232.02 32.0218 232.02 31.8494V31.8196C232.02 31.4451 231.909 31.1551 231.687 30.9496C231.465 30.7441 231.145 30.6413 230.728 30.6413C230.287 30.6413 229.937 30.7375 229.679 30.9297C229.424 31.1219 229.251 31.349 229.162 31.6108L227.481 31.3722C227.614 30.9081 227.833 30.5204 228.138 30.2088C228.443 29.8939 228.815 29.6586 229.256 29.5028C229.697 29.3438 230.184 29.2642 230.718 29.2642C231.086 29.2642 231.452 29.3073 231.817 29.3935C232.181 29.4796 232.514 29.6222 232.816 29.821C233.117 30.0166 233.359 30.2834 233.542 30.6214C233.727 30.9595 233.82 31.3821 233.82 31.8892V37H232.09V35.951H232.03C231.921 36.1631 231.767 36.362 231.568 36.5476C231.372 36.7299 231.126 36.8774 230.827 36.9901C230.532 37.0994 230.186 37.1541 229.788 37.1541ZM230.256 35.8317C230.617 35.8317 230.93 35.7604 231.195 35.6179C231.46 35.4721 231.664 35.2798 231.807 35.0412C231.952 34.8026 232.025 34.5424 232.025 34.2607V33.3608C231.969 33.4072 231.873 33.4503 231.737 33.4901C231.604 33.5298 231.455 33.5646 231.29 33.5945C231.124 33.6243 230.96 33.6508 230.797 33.674C230.635 33.6972 230.494 33.7171 230.375 33.7337C230.106 33.7701 229.866 33.8298 229.654 33.9126C229.442 33.9955 229.274 34.1115 229.152 34.2607C229.029 34.4065 228.968 34.5954 228.968 34.8274C228.968 35.1589 229.089 35.4091 229.331 35.5781C229.573 35.7472 229.881 35.8317 230.256 35.8317ZM235.63 37V29.3636H237.35V30.6612H237.439C237.599 30.2237 237.862 29.8823 238.23 29.6371C238.598 29.3885 239.037 29.2642 239.547 29.2642C240.064 29.2642 240.5 29.3902 240.855 29.642C241.213 29.8906 241.465 30.2304 241.611 30.6612H241.69C241.859 30.237 242.144 29.8989 242.545 29.647C242.95 29.3918 243.429 29.2642 243.982 29.2642C244.685 29.2642 245.258 29.4863 245.702 29.9304C246.146 30.3745 246.368 31.0225 246.368 31.8743V37H244.564V32.1527C244.564 31.6787 244.438 31.3324 244.186 31.1136C243.934 30.8916 243.626 30.7805 243.261 30.7805C242.827 30.7805 242.487 30.9164 242.242 31.1882C242 31.4567 241.879 31.8063 241.879 32.2372V37H240.114V32.0781C240.114 31.6837 239.995 31.3688 239.756 31.1335C239.521 30.8982 239.213 30.7805 238.831 30.7805C238.573 30.7805 238.338 30.8468 238.126 30.9794C237.913 31.1087 237.744 31.2926 237.618 31.5312C237.492 31.7666 237.43 32.0417 237.43 32.3565V37H235.63Z" fill="#27272A"/>
<defs>
<filter id="filter0_d_83_893" x="28" y="97" width="244" height="40" filterUnits="userSpaceOnUse" color-interpolation-filters="sRGB">
<feFlood flood-opacity="0" result="BackgroundImageFix"/>
<feColorMatrix in="SourceAlpha" type="matrix" values="0 0 0 0 0 0 0 0 0 0 0 0 0 0 0 0 0 0 127 0" result="hardAlpha"/>
<feOffset dy="1"/>
<feGaussianBlur stdDeviation="1"/>
<feColorMatrix type="matrix" values="0 0 0 0 0 0 0 0 0 0 0 0 0 0 0 0 0 0 0.06 0"/>
<feBlend mode="normal" in2="BackgroundImageFix" result="effect1_dropShadow_83_893"/>
<feBlend mode="normal" in="SourceGraphic" in2="effect1_dropShadow_83_893" result="shape"/>
</filter>
<filter id="filter1_d_83_893" x="30" y="167" width="240" height="36" filterUnits="userSpaceOnUse" color-interpolation-filters="sRGB">
<feFlood flood-opacity="0" result="BackgroundImageFix"/>
<feColorMatrix in="SourceAlpha" type="matrix" values="0 0 0 0 0 0 0 0 0 0 0 0 0 0 0 0 0 0 127 0" result="hardAlpha"/>
<feOffset dy="1"/>
<feGaussianBlur stdDeviation="1"/>
<feColorMatrix type="matrix" values="0 0 0 0 0 0 0 0 0 0 0 0 0 0 0 0 0 0 0.06 0"/>
<feBlend mode="normal" in2="BackgroundImageFix" result="effect1_dropShadow_83_893"/>
<feBlend mode="normal" in="SourceGraphic" in2="effect1_dropShadow_83_893" result="shape"/>
</filter>
</defs>
</svg>
