<?xml version="1.0" encoding="UTF-8"?>
<svg id="Layer_1" xmlns="http://www.w3.org/2000/svg" xmlns:xlink="http://www.w3.org/1999/xlink" viewBox="0 0 170 170">
    <defs>
        <style>
            .cls-1 {
                fill: url('#linear-gradient-2');
            }
            .cls-2 {
                fill: url('#New_Gradient_Swatch_1-3');
            }
            .cls-3 {
                fill: url('#New_Gradient_Swatch_1-5');
            }
            .cls-4 {
                fill: url('#New_Gradient_Swatch_1');
            }
            .cls-5 {
                fill: url('#New_Gradient_Swatch_1-2');
            }
            .cls-6 {
                fill: url('#linear-gradient');
            }
            .cls-7 {
                fill: url('#New_Gradient_Swatch_1-4');
            }
        </style>
        <linearGradient id="linear-gradient" x1="33.69" y1="108.51" x2="33.95" y2="64.4" gradientUnits="userSpaceOnUse"><stop offset="0" stop-color="#364fc7"/><stop offset=".1" stop-color="#5c52cf"/><stop offset=".25" stop-color="#8c57d9"/><stop offset=".38" stop-color="#af5ae1"/><stop offset=".48" stop-color="#c45ce6"/><stop offset=".55" stop-color="#cc5de8"/><stop offset=".64" stop-color="#cc5ee5"/><stop offset=".71" stop-color="#ce62db"/><stop offset=".76" stop-color="#d26acc"/><stop offset=".82" stop-color="#d775b6"/><stop offset=".86" stop-color="#de8399"/><stop offset=".91" stop-color="#e69576"/><stop offset=".95" stop-color="#efa94d"/><stop offset="1" stop-color="#fac11e"/><stop offset="1" stop-color="#fcc419"/></linearGradient><linearGradient id="linear-gradient-2" x1="20.64" y1="108.43" x2="20.91" y2="64.33" xlink:href="#linear-gradient"/><linearGradient id="New_Gradient_Swatch_1" x1="48.53" y1="83.29" x2="155.51" y2="83.58" gradientUnits="userSpaceOnUse"><stop offset="0" stop-color="#364fc7"/><stop offset="1" stop-color="#cc5de8"/></linearGradient><linearGradient id="New_Gradient_Swatch_1-2" x1="48.5" y1="92.06" x2="155.49" y2="92.35" xlink:href="#New_Gradient_Swatch_1"/><linearGradient id="New_Gradient_Swatch_1-3" x1="48.52" y1="87.17" x2="155.5" y2="87.46" xlink:href="#New_Gradient_Swatch_1"/><linearGradient id="New_Gradient_Swatch_1-4" x1="48.52" y1="86.85" x2="155.5" y2="87.14" xlink:href="#New_Gradient_Swatch_1"/><linearGradient id="New_Gradient_Swatch_1-5" x1="48.53" y1="82.05" x2="155.51" y2="82.34" xlink:href="#New_Gradient_Swatch_1"/></defs>
    <g><path class="cls-6" d="m33.17,72.7c0,8.16-8.24,13.43-9.99,20.97-.04.19-.08.38-.1.57,0,0,0,0,0,0-.64,5.66,5.68,9.6,11.32,7.23,6.73-2.82,11.2-9.64,9.94-16.72,0,0,0,0,0,0-3.68,12.04-16.59,11.54-10.03,2.77.24-.32.5-.62.76-.92,2.1-2.41,3.67-5.16,3.69-8.31h0s.92-5.96-7.54-12.47c0,0-.02,0-.02.01.32.44,1.97,3.11,1.97,6.88Z"/><path class="cls-1" d="m20.28,101.37c.78.34,1.6-.44,1.22-1.16-1.93-3.68-1.4-8.08.81-11.78,5.7-8.82,12.97-15.38,3.64-25.99,0,0,0,0,0,0,.98,2.3-3.4,9.07-7.31,11.91-1.44,1.01-3.74,3.47-4.73,4.87t0,0h0c-5.65,7.39-2,18.49,6.36,22.15Z"/></g>
    <g><path class="cls-4" d="m59.7,97.98c-1.59,0-3.11-.25-4.57-.76-1.45-.51-2.73-1.23-3.82-2.18s-1.88-2.08-2.36-3.4l5.7-2.1c.13.39.43.77.9,1.13s1.05.66,1.77.9c.71.24,1.51.35,2.38.35.81,0,1.57-.12,2.28-.35.71-.24,1.29-.56,1.74-.98.44-.42.67-.9.67-1.45s-.23-1.03-.7-1.4c-.46-.37-1.06-.67-1.78-.89-.72-.22-1.46-.39-2.21-.5-2.05-.3-3.88-.78-5.5-1.46-1.62-.68-2.9-1.62-3.84-2.82-.94-1.2-1.4-2.72-1.4-4.57s.5-3.31,1.49-4.64c1-1.33,2.31-2.36,3.95-3.1,1.64-.74,3.4-1.11,5.3-1.11,1.59,0,3.11.25,4.58.76,1.46.5,2.74,1.24,3.83,2.19,1.09.96,1.87,2.1,2.34,3.43l-5.7,2.06c-.13-.39-.43-.76-.9-1.12-.46-.36-1.05-.65-1.77-.88-.71-.23-1.51-.34-2.38-.34-.78-.01-1.53.1-2.24.34-.71.24-1.3.57-1.76.99-.46.42-.69.89-.69,1.41,0,.73.22,1.27.65,1.63s1,.61,1.71.76c.71.15,1.48.28,2.33.4,1.94.28,3.72.79,5.35,1.52,1.63.73,2.94,1.7,3.92,2.91.98,1.21,1.47,2.69,1.47,4.42s-.5,3.31-1.48,4.64c-.99,1.33-2.3,2.36-3.93,3.1-1.63.74-3.41,1.11-5.33,1.11Z"/><path class="cls-5" d="m80.35,107.56h-6.06v-30.3h6.06v1.9c.63-.71,1.37-1.3,2.2-1.75.83-.45,1.8-.68,2.89-.68,1.48,0,2.86.28,4.14.83,1.28.55,2.41,1.32,3.38,2.29.98.98,1.74,2.1,2.28,3.38.55,1.28.82,2.65.82,4.12s-.27,2.85-.82,4.14c-.55,1.29-1.31,2.43-2.28,3.4s-2.1,1.74-3.38,2.29c-1.28.55-2.66.83-4.14.83-1.09,0-2.05-.23-2.89-.69-.84-.46-1.57-1.04-2.2-1.74v11.96Zm5.01-25.01c-.82,0-1.57.22-2.25.66-.68.44-1.22,1.02-1.63,1.75-.4.73-.61,1.53-.61,2.4s.2,1.7.61,2.42c.4.73.95,1.31,1.63,1.74.68.43,1.43.65,2.25.65s1.6-.22,2.28-.65c.69-.43,1.23-1.01,1.64-1.74.4-.73.61-1.54.61-2.42s-.2-1.68-.61-2.4c-.4-.73-.95-1.31-1.64-1.75-.69-.44-1.45-.66-2.28-.66Z"/><path class="cls-2" d="m113.8,77.26h6.06v20.2h-6.08l-.28-1.82c-.5.7-1.13,1.27-1.89,1.7-.76.43-1.65.65-2.66.65-1.51,0-2.92-.28-4.23-.85s-2.47-1.35-3.46-2.35c-1-1-1.77-2.16-2.33-3.47-.56-1.31-.84-2.72-.84-4.23s.26-2.79.79-4.04,1.26-2.35,2.21-3.3,2.05-1.69,3.29-2.23c1.25-.54,2.58-.81,4.01-.81,1.16,0,2.21.24,3.16.72.95.48,1.79,1.07,2.54,1.79l-.28-1.94Zm-5.01,14.91c.84,0,1.6-.22,2.28-.65.69-.43,1.23-1.01,1.64-1.74.4-.73.61-1.54.61-2.42s-.2-1.7-.61-2.42c-.4-.73-.95-1.31-1.64-1.74-.69-.43-1.45-.65-2.28-.65s-1.59.22-2.27.65c-.68.43-1.22,1.01-1.62,1.74-.4.73-.6,1.54-.6,2.42s.2,1.7.61,2.42c.4.73.95,1.31,1.63,1.74.68.43,1.43.65,2.25.65Z"/><path class="cls-7" d="m123.92,97.46l-.02-20.2h6.06l.02,1.27c.67-.58,1.44-1.03,2.3-1.35s1.77-.48,2.73-.48c.73,0,1.47.11,2.22.32l-2.38,6.14c-.47-.22-.96-.32-1.45-.32-.63,0-1.21.15-1.73.45-.52.3-.93.71-1.23,1.23-.3.52-.45,1.09-.45,1.73v11.21h-6.06Z"/><path class="cls-3" d="m158.73,97.46h-6.99l-4.04-6.95-2.18,2.59v4.36h-6.06v-30.3h6.06v16.52l5.37-6.42h7.92l-6.95,8.32,6.87,11.88Z"/></g>
</svg>
