<svg width="101" height="40" viewBox="0 0 101 40" fill="none" xmlns="http://www.w3.org/2000/svg">
<g clip-path="url(#clip0_2824_883)">
<path d="M2.75117 30.9652C2.15546 30.3817 1.69187 29.6771 1.39171 28.8991C1.09154 28.1211 0.961772 27.2877 1.01117 26.4552V13.1152C0.959382 12.2855 1.08812 11.4545 1.38851 10.6793C1.6889 9.90417 2.1538 9.20338 2.75117 8.62524C4.16033 7.48675 5.94247 6.91291 7.75117 7.01524C9.55849 6.8975 11.3438 7.46523 12.7512 8.60524C13.3506 9.18602 13.8167 9.89015 14.1172 10.6689C14.4176 11.4476 14.5452 12.2823 14.4912 13.1152V15.0252C14.4926 15.1092 14.4769 15.1926 14.4451 15.2703C14.4133 15.348 14.366 15.4185 14.3062 15.4774C14.2463 15.5363 14.1752 15.5825 14.0969 15.613C14.0187 15.6436 13.9351 15.658 13.8512 15.6552H10.8312C10.7481 15.6566 10.6655 15.6412 10.5885 15.61C10.5114 15.5789 10.4415 15.5325 10.3827 15.4737C10.3239 15.415 10.2776 15.345 10.2464 15.2679C10.2152 15.1909 10.1998 15.1083 10.2012 15.0252V12.8852C10.2545 12.5717 10.2323 12.25 10.1364 11.9468C10.0406 11.6435 9.87376 11.3675 9.64986 11.1417C9.42596 10.9158 9.15143 10.7466 8.84904 10.6481C8.54666 10.5496 8.22514 10.5246 7.91117 10.5752C7.59811 10.5343 7.27982 10.5658 6.98088 10.6674C6.68194 10.769 6.41035 10.9379 6.1871 11.1612C5.96384 11.3844 5.79489 11.656 5.69329 11.9549C5.5917 12.2539 5.56018 12.5722 5.60117 12.8852V26.7252C5.55412 27.0377 5.58178 27.3569 5.68188 27.6566C5.78198 27.9563 5.95168 28.2281 6.17706 28.4495C6.40245 28.671 6.67711 28.836 6.97853 28.9308C7.27995 29.0257 7.59956 29.0477 7.91117 28.9952C8.22128 29.0442 8.53857 29.0194 8.83734 28.923C9.13612 28.8265 9.40799 28.6611 9.63096 28.4401C9.85393 28.2191 10.0217 27.9487 10.1208 27.6507C10.2199 27.3528 10.2474 27.0358 10.2012 26.7252V23.5752C10.1984 23.4913 10.2128 23.4077 10.2434 23.3295C10.2739 23.2513 10.3201 23.1801 10.379 23.1202C10.4379 23.0604 10.5084 23.0131 10.5861 22.9813C10.6638 22.9495 10.7472 22.9338 10.8312 22.9352H13.9012C13.9856 22.9339 14.0694 22.9495 14.1477 22.9812C14.2259 23.0129 14.297 23.06 14.3567 23.1197C14.4164 23.1794 14.4635 23.2505 14.4952 23.3287C14.5269 23.407 14.5425 23.4908 14.5412 23.5752V26.4552C14.5932 27.288 14.4647 28.1221 14.1644 28.9005C13.864 29.6789 13.399 30.3833 12.8012 30.9652C11.3938 32.1052 9.60849 32.673 7.80117 32.5552C5.97627 32.692 4.16854 32.1228 2.75117 30.9652Z" fill="#AD52DD"/>
<path d="M2.75117 30.9652C2.15546 30.3817 1.69187 29.6771 1.39171 28.8991C1.09154 28.1211 0.961772 27.2877 1.01117 26.4552V13.1152C0.959382 12.2855 1.08812 11.4545 1.38851 10.6793C1.6889 9.90417 2.1538 9.20338 2.75117 8.62524C4.16033 7.48675 5.94247 6.91291 7.75117 7.01524C9.55849 6.8975 11.3438 7.46523 12.7512 8.60524C13.3506 9.18602 13.8167 9.89015 14.1172 10.6689C14.4176 11.4476 14.5452 12.2823 14.4912 13.1152V15.0252C14.4926 15.1092 14.4769 15.1926 14.4451 15.2703C14.4133 15.348 14.366 15.4185 14.3062 15.4774C14.2463 15.5363 14.1752 15.5825 14.0969 15.613C14.0187 15.6436 13.9351 15.658 13.8512 15.6552H10.8312C10.7481 15.6566 10.6655 15.6412 10.5885 15.61C10.5114 15.5789 10.4415 15.5325 10.3827 15.4737C10.3239 15.415 10.2776 15.345 10.2464 15.2679C10.2152 15.1909 10.1998 15.1083 10.2012 15.0252V12.8852C10.2545 12.5717 10.2323 12.25 10.1364 11.9468C10.0406 11.6435 9.87376 11.3675 9.64986 11.1417C9.42596 10.9158 9.15143 10.7466 8.84904 10.6481C8.54666 10.5496 8.22514 10.5246 7.91117 10.5752C7.59811 10.5343 7.27982 10.5658 6.98088 10.6674C6.68194 10.769 6.41035 10.9379 6.1871 11.1612C5.96384 11.3844 5.79489 11.656 5.69329 11.9549C5.5917 12.2539 5.56018 12.5722 5.60117 12.8852V26.7252C5.55412 27.0377 5.58178 27.3569 5.68188 27.6566C5.78198 27.9563 5.95168 28.2281 6.17706 28.4495C6.40245 28.671 6.67711 28.836 6.97853 28.9308C7.27995 29.0257 7.59956 29.0477 7.91117 28.9952C8.22128 29.0442 8.53857 29.0194 8.83734 28.923C9.13612 28.8265 9.40799 28.6611 9.63096 28.4401C9.85393 28.2191 10.0217 27.9487 10.1208 27.6507C10.2199 27.3528 10.2474 27.0358 10.2012 26.7252V23.5752C10.1984 23.4913 10.2128 23.4077 10.2434 23.3295C10.2739 23.2513 10.3201 23.1801 10.379 23.1202C10.4379 23.0604 10.5084 23.0131 10.5861 22.9813C10.6638 22.9495 10.7472 22.9338 10.8312 22.9352H13.9012C13.9856 22.9339 14.0694 22.9495 14.1477 22.9812C14.2259 23.0129 14.297 23.06 14.3567 23.1197C14.4164 23.1794 14.4635 23.2505 14.4952 23.3287C14.5269 23.407 14.5425 23.4908 14.5412 23.5752V26.4552C14.5932 27.288 14.4647 28.1221 14.1644 28.9005C13.864 29.6789 13.399 30.3833 12.8012 30.9652C11.3938 32.1052 9.60849 32.673 7.80117 32.5552C5.97627 32.692 4.16854 32.1228 2.75117 30.9652Z" fill="black" fill-opacity="0.2"/>
<path d="M18.9211 7.39559H22.2511C22.3351 7.3942 22.4184 7.40987 22.4962 7.44167C22.5739 7.47346 22.6444 7.52072 22.7033 7.58057C22.7622 7.64042 22.8083 7.71161 22.8389 7.78983C22.8695 7.86805 22.8838 7.95166 22.8811 8.03559V17.4956H27.8111V8.03559C27.8097 7.95118 27.8254 7.86735 27.8571 7.78909C27.8887 7.71083 27.9358 7.63974 27.9955 7.58004C28.0552 7.52034 28.1263 7.47324 28.2046 7.44156C28.2828 7.40987 28.3667 7.39424 28.4511 7.39559H31.7711C31.8555 7.39424 31.9393 7.40987 32.0176 7.44156C32.0959 7.47324 32.167 7.52034 32.2267 7.58004C32.2864 7.63974 32.3334 7.71083 32.3651 7.78909C32.3968 7.86735 32.4124 7.95118 32.4111 8.03559V31.5556C32.4124 31.64 32.3968 31.7238 32.3651 31.8021C32.3334 31.8804 32.2864 31.9515 32.2267 32.0112C32.167 32.0709 32.0959 32.1179 32.0176 32.1496C31.9393 32.1813 31.8555 32.1969 31.7711 32.1956H28.4511C28.3667 32.1969 28.2828 32.1813 28.2046 32.1496C28.1263 32.1179 28.0552 32.0709 27.9955 32.0112C27.9358 31.9515 27.8887 31.8804 27.8571 31.8021C27.8254 31.7238 27.8097 31.64 27.8111 31.5556V21.0356H22.8811V31.5556C22.8838 31.6395 22.8695 31.7231 22.8389 31.8014C22.8083 31.8796 22.7622 31.9508 22.7033 32.0106C22.6444 32.0705 22.5739 32.1177 22.4962 32.1495C22.4184 32.1813 22.3351 32.197 22.2511 32.1956H18.9211C18.8371 32.197 18.7538 32.1813 18.676 32.1495C18.5983 32.1177 18.5278 32.0705 18.4689 32.0106C18.41 31.9508 18.3639 31.8796 18.3333 31.8014C18.3027 31.7231 18.2884 31.6395 18.2911 31.5556V8.03559C18.2911 7.86757 18.3571 7.70628 18.475 7.58654C18.5929 7.4668 18.7531 7.39822 18.9211 7.39559Z" fill="#AD52DD"/>
<path d="M18.9211 7.39559H22.2511C22.3351 7.3942 22.4184 7.40987 22.4962 7.44167C22.5739 7.47346 22.6444 7.52072 22.7033 7.58057C22.7622 7.64042 22.8083 7.71161 22.8389 7.78983C22.8695 7.86805 22.8838 7.95166 22.8811 8.03559V17.4956H27.8111V8.03559C27.8097 7.95118 27.8254 7.86735 27.8571 7.78909C27.8887 7.71083 27.9358 7.63974 27.9955 7.58004C28.0552 7.52034 28.1263 7.47324 28.2046 7.44156C28.2828 7.40987 28.3667 7.39424 28.4511 7.39559H31.7711C31.8555 7.39424 31.9393 7.40987 32.0176 7.44156C32.0959 7.47324 32.167 7.52034 32.2267 7.58004C32.2864 7.63974 32.3334 7.71083 32.3651 7.78909C32.3968 7.86735 32.4124 7.95118 32.4111 8.03559V31.5556C32.4124 31.64 32.3968 31.7238 32.3651 31.8021C32.3334 31.8804 32.2864 31.9515 32.2267 32.0112C32.167 32.0709 32.0959 32.1179 32.0176 32.1496C31.9393 32.1813 31.8555 32.1969 31.7711 32.1956H28.4511C28.3667 32.1969 28.2828 32.1813 28.2046 32.1496C28.1263 32.1179 28.0552 32.0709 27.9955 32.0112C27.9358 31.9515 27.8887 31.8804 27.8571 31.8021C27.8254 31.7238 27.8097 31.64 27.8111 31.5556V21.0356H22.8811V31.5556C22.8838 31.6395 22.8695 31.7231 22.8389 31.8014C22.8083 31.8796 22.7622 31.9508 22.7033 32.0106C22.6444 32.0705 22.5739 32.1177 22.4962 32.1495C22.4184 32.1813 22.3351 32.197 22.2511 32.1956H18.9211C18.8371 32.197 18.7538 32.1813 18.676 32.1495C18.5983 32.1177 18.5278 32.0705 18.4689 32.0106C18.41 31.9508 18.3639 31.8796 18.3333 31.8014C18.3027 31.7231 18.2884 31.6395 18.2911 31.5556V8.03559C18.2911 7.86757 18.3571 7.70628 18.475 7.58654C18.5929 7.4668 18.7531 7.39822 18.9211 7.39559Z" fill="black" fill-opacity="0.2"/>
<path d="M40.9012 7.39551H46.0612C46.2097 7.39612 46.3536 7.4468 46.4697 7.53934C46.5859 7.63189 46.6674 7.76089 46.7012 7.90551L51.2112 31.4255C51.2381 31.592 51.2002 31.7625 51.1054 31.902C51.0105 32.0415 50.8659 32.1393 50.7012 32.1755H50.5712H47.2912C47.1395 32.1796 46.9916 32.1278 46.8755 32.0302C46.7594 31.9325 46.6831 31.7956 46.6612 31.6455L45.9212 27.2855H40.7112L40.0112 31.6455C39.9831 31.7947 39.9038 31.9293 39.7869 32.0261C39.67 32.1229 39.5229 32.1758 39.3712 32.1755H36.3712C36.2014 32.1755 36.0386 32.1081 35.9186 31.9881C35.7986 31.868 35.7312 31.7052 35.7312 31.5355C35.7223 31.4926 35.7223 31.4484 35.7312 31.4055L40.2812 7.88551C40.3163 7.74706 40.3961 7.62404 40.5081 7.53547C40.6202 7.4469 40.7583 7.39771 40.9012 7.39551ZM45.3912 23.9755L43.3312 14.4055H43.2512L41.2512 23.9755H45.3912Z" fill="#AD52DD"/>
<path d="M40.9012 7.39551H46.0612C46.2097 7.39612 46.3536 7.4468 46.4697 7.53934C46.5859 7.63189 46.6674 7.76089 46.7012 7.90551L51.2112 31.4255C51.2381 31.592 51.2002 31.7625 51.1054 31.902C51.0105 32.0415 50.8659 32.1393 50.7012 32.1755H50.5712H47.2912C47.1395 32.1796 46.9916 32.1278 46.8755 32.0302C46.7594 31.9325 46.6831 31.7956 46.6612 31.6455L45.9212 27.2855H40.7112L40.0112 31.6455C39.9831 31.7947 39.9038 31.9293 39.7869 32.0261C39.67 32.1229 39.5229 32.1758 39.3712 32.1755H36.3712C36.2014 32.1755 36.0386 32.1081 35.9186 31.9881C35.7986 31.868 35.7312 31.7052 35.7312 31.5355C35.7223 31.4926 35.7223 31.4484 35.7312 31.4055L40.2812 7.88551C40.3163 7.74706 40.3961 7.62404 40.5081 7.53547C40.6202 7.4469 40.7583 7.39771 40.9012 7.39551ZM45.3912 23.9755L43.3312 14.4055H43.2512L41.2512 23.9755H45.3912Z" fill="black" fill-opacity="0.2"/>
<path d="M55.3811 30.9455C54.7783 30.3366 54.3129 29.6057 54.0162 28.8018C53.7195 27.998 53.5984 27.14 53.6611 26.2855V25.5055C53.6597 25.4211 53.6754 25.3372 53.707 25.259C53.7387 25.1807 53.7858 25.1096 53.8455 25.0499C53.9052 24.9902 53.9763 24.9431 54.0546 24.9115C54.1328 24.8798 54.2167 24.8641 54.3011 24.8655H57.3711C57.4551 24.8641 57.5384 24.8798 57.6162 24.9116C57.6939 24.9434 57.7643 24.9906 57.8233 25.0505C57.8822 25.1103 57.9283 25.1815 57.9589 25.2597C57.9894 25.3379 58.0038 25.4216 58.0011 25.5055V26.0955C57.9515 26.4212 57.9785 26.7539 58.0799 27.0674C58.1813 27.3808 58.3544 27.6663 58.5854 27.9011C58.8164 28.136 59.099 28.3138 59.4107 28.4205C59.7224 28.5271 60.0546 28.5597 60.3811 28.5155C60.7012 28.5389 61.0229 28.4979 61.3269 28.3949C61.6309 28.2918 61.9112 28.1288 62.1511 27.9155C62.3785 27.6578 62.5509 27.3563 62.6575 27.0296C62.7641 26.7028 62.8028 26.3577 62.7711 26.0155C62.7885 25.1816 62.4923 24.3715 61.9411 23.7455C61.0519 22.6504 60.0115 21.6874 58.8511 20.8855C57.3102 19.8369 55.9578 18.5352 54.8511 17.0355C54.096 15.888 53.7056 14.5389 53.7311 13.1655C53.6803 12.3237 53.8111 11.4807 54.1148 10.694C54.4185 9.90716 54.8879 9.19489 55.4911 8.6055C56.939 7.44114 58.7797 6.87893 60.6311 7.0355C62.4436 6.90277 64.2366 7.48013 65.6311 8.6455C66.2227 9.25694 66.679 9.9861 66.9702 10.7855C67.2613 11.585 67.3809 12.4368 67.3211 13.2855V13.6655C67.3224 13.7499 67.3068 13.8337 67.2751 13.912C67.2434 13.9903 67.1963 14.0614 67.1366 14.1211C67.0769 14.1808 67.0058 14.2278 66.9276 14.2595C66.8493 14.2912 66.7655 14.3068 66.6811 14.3055H63.6111C63.5279 14.303 63.446 14.2838 63.3704 14.2489C63.2948 14.2141 63.227 14.1644 63.171 14.1028C63.115 14.0412 63.072 13.969 63.0445 13.8904C63.017 13.8119 63.0057 13.7286 63.0111 13.6455V13.4755C63.0413 13.1418 63.0047 12.8054 62.9034 12.4861C62.8021 12.1667 62.6381 11.8707 62.4211 11.6155C62.1884 11.4065 61.9166 11.2459 61.6213 11.1429C61.326 11.0399 61.0132 10.9966 60.7011 11.0155C59.1811 11.0155 58.4211 11.8055 58.4211 13.3955C58.4349 14.1451 58.7355 14.8608 59.2611 15.3955C60.1527 16.4933 61.1888 17.4655 62.3411 18.2855C63.8959 19.3168 65.2512 20.6212 66.3411 22.1355C67.0847 23.3565 67.4597 24.7664 67.4211 26.1955C67.4789 27.0577 67.3498 27.9223 67.0426 28.73C66.7354 29.5378 66.2573 30.2696 65.6411 30.8755C64.189 32.0517 62.3453 32.6341 60.4811 32.5055C59.5696 32.6067 58.647 32.5205 57.77 32.2522C56.8929 31.984 56.08 31.5393 55.3811 30.9455Z" fill="#AD52DD"/>
<path d="M55.3811 30.9455C54.7783 30.3366 54.3129 29.6057 54.0162 28.8018C53.7195 27.998 53.5984 27.14 53.6611 26.2855V25.5055C53.6597 25.4211 53.6754 25.3372 53.707 25.259C53.7387 25.1807 53.7858 25.1096 53.8455 25.0499C53.9052 24.9902 53.9763 24.9431 54.0546 24.9115C54.1328 24.8798 54.2167 24.8641 54.3011 24.8655H57.3711C57.4551 24.8641 57.5384 24.8798 57.6162 24.9116C57.6939 24.9434 57.7643 24.9906 57.8233 25.0505C57.8822 25.1103 57.9283 25.1815 57.9589 25.2597C57.9894 25.3379 58.0038 25.4216 58.0011 25.5055V26.0955C57.9515 26.4212 57.9785 26.7539 58.0799 27.0674C58.1813 27.3808 58.3544 27.6663 58.5854 27.9011C58.8164 28.136 59.099 28.3138 59.4107 28.4205C59.7224 28.5271 60.0546 28.5597 60.3811 28.5155C60.7012 28.5389 61.0229 28.4979 61.3269 28.3949C61.6309 28.2918 61.9112 28.1288 62.1511 27.9155C62.3785 27.6578 62.5509 27.3563 62.6575 27.0296C62.7641 26.7028 62.8028 26.3577 62.7711 26.0155C62.7885 25.1816 62.4923 24.3715 61.9411 23.7455C61.0519 22.6504 60.0115 21.6874 58.8511 20.8855C57.3102 19.8369 55.9578 18.5352 54.8511 17.0355C54.096 15.888 53.7056 14.5389 53.7311 13.1655C53.6803 12.3237 53.8111 11.4807 54.1148 10.694C54.4185 9.90716 54.8879 9.19489 55.4911 8.6055C56.939 7.44114 58.7797 6.87893 60.6311 7.0355C62.4436 6.90277 64.2366 7.48013 65.6311 8.6455C66.2227 9.25694 66.679 9.9861 66.9702 10.7855C67.2613 11.585 67.3809 12.4368 67.3211 13.2855V13.6655C67.3224 13.7499 67.3068 13.8337 67.2751 13.912C67.2434 13.9903 67.1963 14.0614 67.1366 14.1211C67.0769 14.1808 67.0058 14.2278 66.9276 14.2595C66.8493 14.2912 66.7655 14.3068 66.6811 14.3055H63.6111C63.5279 14.303 63.446 14.2838 63.3704 14.2489C63.2948 14.2141 63.227 14.1644 63.171 14.1028C63.115 14.0412 63.072 13.969 63.0445 13.8904C63.017 13.8119 63.0057 13.7286 63.0111 13.6455V13.4755C63.0413 13.1418 63.0047 12.8054 62.9034 12.4861C62.8021 12.1667 62.6381 11.8707 62.4211 11.6155C62.1884 11.4065 61.9166 11.2459 61.6213 11.1429C61.326 11.0399 61.0132 10.9966 60.7011 11.0155C59.1811 11.0155 58.4211 11.8055 58.4211 13.3955C58.4349 14.1451 58.7355 14.8608 59.2611 15.3955C60.1527 16.4933 61.1888 17.4655 62.3411 18.2855C63.8959 19.3168 65.2512 20.6212 66.3411 22.1355C67.0847 23.3565 67.4597 24.7664 67.4211 26.1955C67.4789 27.0577 67.3498 27.9223 67.0426 28.73C66.7354 29.5378 66.2573 30.2696 65.6411 30.8755C64.189 32.0517 62.3453 32.6341 60.4811 32.5055C59.5696 32.6067 58.647 32.5205 57.77 32.2522C56.8929 31.984 56.08 31.5393 55.3811 30.9455Z" fill="black" fill-opacity="0.2"/>
<path d="M71.6212 7.39559H82.8812C82.9656 7.39424 83.0494 7.40987 83.1277 7.44155C83.2059 7.47324 83.277 7.52033 83.3367 7.58003C83.3964 7.63973 83.4435 7.71082 83.4752 7.78908C83.5069 7.86734 83.5225 7.95117 83.5212 8.03559V10.2856C83.5226 10.3696 83.5069 10.4529 83.4751 10.5307C83.4433 10.6084 83.396 10.6788 83.3362 10.7378C83.2763 10.7967 83.2051 10.8428 83.1269 10.8734C83.0487 10.9039 82.9651 10.9183 82.8812 10.9156H75.5812V17.4756H81.2512C81.3356 17.4742 81.4194 17.4899 81.4977 17.5216C81.5759 17.5532 81.647 17.6003 81.7067 17.66C81.7664 17.7197 81.8135 17.7908 81.8452 17.8691C81.8769 17.9473 81.8925 18.0312 81.8912 18.1156V20.4056C81.8926 20.4896 81.8769 20.5729 81.8451 20.6507C81.8133 20.7284 81.766 20.7988 81.7062 20.8578C81.6463 20.9167 81.5751 20.9628 81.4969 20.9934C81.4187 21.0239 81.3351 21.0383 81.2512 21.0356H75.5812V28.6556H82.8812C82.9656 28.6542 83.0494 28.6699 83.1277 28.7016C83.2059 28.7332 83.277 28.7803 83.3367 28.84C83.3964 28.8997 83.4435 28.9708 83.4752 29.0491C83.5069 29.1273 83.5225 29.2112 83.5212 29.2956V31.5556C83.5225 31.64 83.5069 31.7238 83.4752 31.8021C83.4435 31.8804 83.3964 31.9514 83.3367 32.0111C83.277 32.0708 83.2059 32.1179 83.1277 32.1496C83.0494 32.1813 82.9656 32.1969 82.8812 32.1956H71.6212C71.5367 32.1969 71.4529 32.1813 71.3747 32.1496C71.2964 32.1179 71.2253 32.0708 71.1656 32.0111C71.1059 31.9514 71.0588 31.8804 71.0271 31.8021C70.9954 31.7238 70.9798 31.64 70.9812 31.5556V8.03559C70.9798 7.95117 70.9954 7.86734 71.0271 7.78908C71.0588 7.71082 71.1059 7.63973 71.1656 7.58003C71.2253 7.52033 71.2964 7.47324 71.3747 7.44155C71.4529 7.40987 71.5367 7.39424 71.6212 7.39559Z" fill="#AD52DD"/>
<path d="M71.6212 7.39559H82.8812C82.9656 7.39424 83.0494 7.40987 83.1277 7.44155C83.2059 7.47324 83.277 7.52033 83.3367 7.58003C83.3964 7.63973 83.4435 7.71082 83.4752 7.78908C83.5069 7.86734 83.5225 7.95117 83.5212 8.03559V10.2856C83.5226 10.3696 83.5069 10.4529 83.4751 10.5307C83.4433 10.6084 83.396 10.6788 83.3362 10.7378C83.2763 10.7967 83.2051 10.8428 83.1269 10.8734C83.0487 10.9039 82.9651 10.9183 82.8812 10.9156H75.5812V17.4756H81.2512C81.3356 17.4742 81.4194 17.4899 81.4977 17.5216C81.5759 17.5532 81.647 17.6003 81.7067 17.66C81.7664 17.7197 81.8135 17.7908 81.8452 17.8691C81.8769 17.9473 81.8925 18.0312 81.8912 18.1156V20.4056C81.8926 20.4896 81.8769 20.5729 81.8451 20.6507C81.8133 20.7284 81.766 20.7988 81.7062 20.8578C81.6463 20.9167 81.5751 20.9628 81.4969 20.9934C81.4187 21.0239 81.3351 21.0383 81.2512 21.0356H75.5812V28.6556H82.8812C82.9656 28.6542 83.0494 28.6699 83.1277 28.7016C83.2059 28.7332 83.277 28.7803 83.3367 28.84C83.3964 28.8997 83.4435 28.9708 83.4752 29.0491C83.5069 29.1273 83.5225 29.2112 83.5212 29.2956V31.5556C83.5225 31.64 83.5069 31.7238 83.4752 31.8021C83.4435 31.8804 83.3964 31.9514 83.3367 32.0111C83.277 32.0708 83.2059 32.1179 83.1277 32.1496C83.0494 32.1813 82.9656 32.1969 82.8812 32.1956H71.6212C71.5367 32.1969 71.4529 32.1813 71.3747 32.1496C71.2964 32.1179 71.2253 32.0708 71.1656 32.0111C71.1059 31.9514 71.0588 31.8804 71.0271 31.8021C70.9954 31.7238 70.9798 31.64 70.9812 31.5556V8.03559C70.9798 7.95117 70.9954 7.86734 71.0271 7.78908C71.0588 7.71082 71.1059 7.63973 71.1656 7.58003C71.2253 7.52033 71.2964 7.47324 71.3747 7.44155C71.4529 7.40987 71.5367 7.39424 71.6212 7.39559Z" fill="black" fill-opacity="0.2"/>
<path d="M87.1412 8.03559C87.1385 7.95166 87.1528 7.86805 87.1834 7.78983C87.214 7.71161 87.2601 7.64042 87.319 7.58057C87.3779 7.52072 87.4484 7.47346 87.5261 7.44167C87.6039 7.40987 87.6872 7.3942 87.7712 7.39559H93.9512C96.3212 7.39559 98.0412 7.86559 99.1412 8.79559C99.7138 9.34734 100.157 10.0191 100.439 10.7627C100.721 11.5062 100.834 12.3029 100.771 13.0956V14.6156C100.771 17.2056 99.7712 18.8356 97.7712 19.5056V19.5756C98.2639 19.6686 98.7296 19.8704 99.1344 20.1662C99.5392 20.462 99.8729 20.8444 100.111 21.2856C100.621 22.3861 100.854 23.5944 100.791 24.8056V29.1856C100.787 29.7602 100.817 30.3346 100.881 30.9056C100.896 31.0689 100.93 31.2299 100.981 31.3856C101.005 31.4663 101.013 31.5512 101.004 31.635C100.995 31.7188 100.969 31.8 100.928 31.8737C100.887 31.9473 100.832 32.012 100.765 32.0639C100.699 32.1158 100.623 32.1537 100.541 32.1756C100.485 32.1849 100.427 32.1849 100.371 32.1756H97.0712C96.9383 32.1777 96.8083 32.137 96.7002 32.0596C96.5922 31.9822 96.5119 31.8721 96.4712 31.7456C96.3993 31.5162 96.3425 31.2824 96.3012 31.0456C96.2346 30.4146 96.2079 29.78 96.2212 29.1456V24.6156C96.3034 23.7834 96.0676 22.951 95.5612 22.2856C95.2549 22.0304 94.9008 21.8389 94.5197 21.7221C94.1385 21.6054 93.7379 21.5658 93.3412 21.6056H91.7512V31.6056C91.7539 31.6895 91.7396 31.7731 91.709 31.8514C91.6784 31.9296 91.6323 32.0008 91.5734 32.0606C91.5145 32.1205 91.444 32.1677 91.3663 32.1995C91.2885 32.2313 91.2052 32.247 91.1212 32.2456H87.7912C87.7072 32.247 87.6239 32.2313 87.5461 32.1995C87.4684 32.1677 87.3979 32.1205 87.339 32.0606C87.2801 32.0008 87.234 31.9296 87.2034 31.8514C87.1728 31.7731 87.1585 31.6895 87.1612 31.6056V8.03559H87.1412ZM93.4012 18.0356C94.1424 18.0905 94.8792 17.8815 95.4812 17.4456C95.7339 17.1815 95.9271 16.8664 96.0478 16.5214C96.1686 16.1764 96.2141 15.8096 96.1812 15.4456V13.5156C96.2458 12.8183 96.0379 12.123 95.6012 11.5756C95.3646 11.3573 95.0848 11.1911 94.7799 11.0877C94.475 10.9844 94.1518 10.9462 93.8312 10.9756H91.7312V18.0456H93.4012V18.0356Z" fill="#AD52DD"/>
<path d="M87.1412 8.03559C87.1385 7.95166 87.1528 7.86805 87.1834 7.78983C87.214 7.71161 87.2601 7.64042 87.319 7.58057C87.3779 7.52072 87.4484 7.47346 87.5261 7.44167C87.6039 7.40987 87.6872 7.3942 87.7712 7.39559H93.9512C96.3212 7.39559 98.0412 7.86559 99.1412 8.79559C99.7138 9.34734 100.157 10.0191 100.439 10.7627C100.721 11.5062 100.834 12.3029 100.771 13.0956V14.6156C100.771 17.2056 99.7712 18.8356 97.7712 19.5056V19.5756C98.2639 19.6686 98.7296 19.8704 99.1344 20.1662C99.5392 20.462 99.8729 20.8444 100.111 21.2856C100.621 22.3861 100.854 23.5944 100.791 24.8056V29.1856C100.787 29.7602 100.817 30.3346 100.881 30.9056C100.896 31.0689 100.93 31.2299 100.981 31.3856C101.005 31.4663 101.013 31.5512 101.004 31.635C100.995 31.7188 100.969 31.8 100.928 31.8737C100.887 31.9473 100.832 32.012 100.765 32.0639C100.699 32.1158 100.623 32.1537 100.541 32.1756C100.485 32.1849 100.427 32.1849 100.371 32.1756H97.0712C96.9383 32.1777 96.8083 32.137 96.7002 32.0596C96.5922 31.9822 96.5119 31.8721 96.4712 31.7456C96.3993 31.5162 96.3425 31.2824 96.3012 31.0456C96.2346 30.4146 96.2079 29.78 96.2212 29.1456V24.6156C96.3034 23.7834 96.0676 22.951 95.5612 22.2856C95.2549 22.0304 94.9008 21.8389 94.5197 21.7221C94.1385 21.6054 93.7379 21.5658 93.3412 21.6056H91.7512V31.6056C91.7539 31.6895 91.7396 31.7731 91.709 31.8514C91.6784 31.9296 91.6323 32.0008 91.5734 32.0606C91.5145 32.1205 91.444 32.1677 91.3663 32.1995C91.2885 32.2313 91.2052 32.247 91.1212 32.2456H87.7912C87.7072 32.247 87.6239 32.2313 87.5461 32.1995C87.4684 32.1677 87.3979 32.1205 87.339 32.0606C87.2801 32.0008 87.234 31.9296 87.2034 31.8514C87.1728 31.7731 87.1585 31.6895 87.1612 31.6056V8.03559H87.1412ZM93.4012 18.0356C94.1424 18.0905 94.8792 17.8815 95.4812 17.4456C95.7339 17.1815 95.9271 16.8664 96.0478 16.5214C96.1686 16.1764 96.2141 15.8096 96.1812 15.4456V13.5156C96.2458 12.8183 96.0379 12.123 95.6012 11.5756C95.3646 11.3573 95.0848 11.1911 94.7799 11.0877C94.475 10.9844 94.1518 10.9462 93.8312 10.9756H91.7312V18.0456H93.4012V18.0356Z" fill="black" fill-opacity="0.2"/>
</g>
<defs>
<clipPath id="clip0_2824_883">
<rect width="101" height="40" fill="white"/>
</clipPath>
</defs>
</svg>
