<svg width="40" height="40" viewBox="0 0 40 40" fill="none" xmlns="http://www.w3.org/2000/svg"><path d="M27.7752 15.7156c.1569.4666-.1279.9564-.6034 1.0838l-3.1138.8344c-.5432.1455-1.0965-.1798-1.3016-.7035-.6627-1.6913-1.8185-3.1543-3.3282-4.1919-1.7907-1.2308-3.9618-1.7821-6.1228-1.555-2.161.2271-4.17009 1.2179-5.6658 2.794-1.49582 1.5762-2.37998 3.6344-2.49375 5.8043-.11377 2.17.55054 4.3092 1.87332 6.0331 1.32277 1.7239 3.21733 2.9192 5.34273 3.3711 2.1254.4517 4.3423.1302 6.2519-.9065 1.6098-.8741 2.9122-2.2084 3.748-3.8211.2588-.4994.843-.7651 1.3682-.5635l2.8906 1.1096c.0088.0034.0175.0068.0261.0104l12.2991 4.7212c.5252.2016.7875.7908.5859 1.3158l-1.0951 2.8526c-.2015.5252-.7907.7876-1.3158.5859l-8.6767-3.3307c-.7729-.2966-1.6251-.6323-2.2173-1.2244-.3019-.3019-.6737-.7751-.7499-.8731-1.1923 1.5195-2.6903 2.7927-4.4137 3.7285-2.9838 1.6201-6.4476 2.1223-9.7686 1.4164-3.32095-.706-6.28116-2.5736-8.348-5.2672C.879783 26.2463-.158144 22.9036.0195555 19.5131.197244 16.1225 1.57889 12.9067 3.91593 10.4439c2.33718-2.46276 5.47628-4.0108 8.85287-4.36577 3.3765-.35486 6.769.50666 9.567 2.42971 2.5526 1.75436 4.4576 4.28716 5.4394 7.20776Z" fill="#AD52DD"/><path d="M27.7752 15.7156c.1569.4666-.1279.9564-.6034 1.0838l-3.1138.8344c-.5432.1455-1.0965-.1798-1.3016-.7035-.6627-1.6913-1.8185-3.1543-3.3282-4.1919-1.7907-1.2308-3.9618-1.7821-6.1228-1.555-2.161.2271-4.17009 1.2179-5.6658 2.794-1.49582 1.5762-2.37998 3.6344-2.49375 5.8043-.11377 2.17.55054 4.3092 1.87332 6.0331 1.32277 1.7239 3.21733 2.9192 5.34273 3.3711 2.1254.4517 4.3423.1302 6.2519-.9065 1.6098-.8741 2.9122-2.2084 3.748-3.8211.2588-.4994.843-.7651 1.3682-.5635l2.8906 1.1096c.0088.0034.0175.0068.0261.0104l12.2991 4.7212c.5252.2016.7875.7908.5859 1.3158l-1.0951 2.8526c-.2015.5252-.7907.7876-1.3158.5859l-8.6767-3.3307c-.7729-.2966-1.6251-.6323-2.2173-1.2244-.3019-.3019-.6737-.7751-.7499-.8731-1.1923 1.5195-2.6903 2.7927-4.4137 3.7285-2.9838 1.6201-6.4476 2.1223-9.7686 1.4164-3.32095-.706-6.28116-2.5736-8.348-5.2672C.879783 26.2463-.158144 22.9036.0195555 19.5131.197244 16.1225 1.57889 12.9067 3.91593 10.4439c2.33718-2.46276 5.47628-4.0108 8.85287-4.36577 3.3765-.35486 6.769.50666 9.567 2.42971 2.5526 1.75436 4.4576 4.28716 5.4394 7.20776Z" fill="#000" fill-opacity=".2"/></svg>