<svg width="101" height="40" viewBox="0 0 101 40" fill="none" xmlns="http://www.w3.org/2000/svg"><g clip-path="url(#a)"><path d="M9.17037 16.1471c1.77343 0 2.94513.8867 3.45183 2.6285l3.7685-1.2667c-.38-1.4568-1.1717-2.6918-2.4384-3.7052-1.2668-1.0134-2.9135-1.5517-4.87693-1.5517-2.28011 0-4.21186.7917-5.7636 2.3434C1.76003 16.1788 1 18.1422 1 20.5173c0 2.3751.76003 4.3386 2.34344 5.922 1.58341 1.5834 3.51516 2.3434 5.8586 2.3434 1.93176 0 3.54686-.5067 4.81356-1.5517 1.2667-1.0134 2.0901-2.2485 2.4701-3.7052l-3.7052-1.2351c-.2216.7284-.6333 1.3618-1.2034 1.8685-.6016.5067-1.3933.76-2.37506.76-1.14005 0-2.09009-.38-2.85013-1.1717-.76003-.7917-1.14005-1.8684-1.14005-3.2302 0-1.33.38002-2.4067 1.14005-3.1984.76004-.7601 1.67841-1.1718 2.81846-1.1718Zm16.22743 8.8038c-1.1084 0-2.0585-.3801-2.8185-1.1718-.76-.76-1.14-1.8684-1.14-3.2618s.38-2.4701 1.14-3.2618c.76-.76 1.7101-1.1717 2.8185-1.1717 1.0767 0 2.0267.4117 2.7868 1.1717.76.7917 1.1717 1.8684 1.1717 3.2618s-.4117 2.5018-1.1717 3.2618c-.7601.7917-1.7101 1.1718-2.7868 1.1718Zm0-12.6989c-2.3435 0-4.3069.7917-5.8586 2.3434-1.5518 1.5834-2.3118 3.5468-2.3118 5.9219 0 2.4068.76 4.3702 2.3118 5.922 1.5517 1.5834 3.5151 2.3434 5.8586 2.3434 2.3434 0 4.2752-.76 5.8269-2.3434 1.5517-1.5518 2.3434-3.5152 2.3434-5.922 0-2.3751-.7917-4.3385-2.3434-5.9219-1.5517-1.5517-3.4835-2.3434-5.8269-2.3434Zm14.6777 22.0726v-7.537c.9184 1.2667 2.4068 1.9001 4.4969 1.9001 2.1534 0 3.9269-.76 5.2886-2.3118 1.3617-1.52 2.0584-3.4835 2.0584-5.8902 0-2.3751-.665-4.3069-1.9317-5.827-1.2984-1.52-3.0402-2.2801-5.2569-2.2801-1.1401 0-2.1218.2217-2.9452.6651-.855.4433-1.4567.95-1.8367 1.5834V12.727h-4.0852v21.5976h4.2118Zm7.6954-13.8073c0 1.3618-.38 2.4385-1.1084 3.2302-.7284.7917-1.6467 1.1717-2.7551 1.1717-1.1401 0-2.0584-.38-2.7868-1.2034-.76-.7917-1.1084-1.8684-1.1084-3.1985 0-1.33.3484-2.3751 1.1084-3.1668.7284-.7917 1.6467-1.2034 2.7868-1.2034 1.1084 0 2.0267.4117 2.7551 1.1718.7284.7917 1.1084 1.8684 1.1084 3.1984Zm11.8377 13.934L69.394 12.727h-4.4969l-3.8318 9.1204-4.1485-9.1204h-4.7186l6.6187 13.6173-3.6735 8.107h4.4652Z" fill="#AD52DD"/><path d="M9.17037 16.1471c1.77343 0 2.94513.8867 3.45183 2.6285l3.7685-1.2667c-.38-1.4568-1.1717-2.6918-2.4384-3.7052-1.2668-1.0134-2.9135-1.5517-4.87693-1.5517-2.28011 0-4.21186.7917-5.7636 2.3434C1.76003 16.1788 1 18.1422 1 20.5173c0 2.3751.76003 4.3386 2.34344 5.922 1.58341 1.5834 3.51516 2.3434 5.8586 2.3434 1.93176 0 3.54686-.5067 4.81356-1.5517 1.2667-1.0134 2.0901-2.2485 2.4701-3.7052l-3.7052-1.2351c-.2216.7284-.6333 1.3618-1.2034 1.8685-.6016.5067-1.3933.76-2.37506.76-1.14005 0-2.09009-.38-2.85013-1.1717-.76003-.7917-1.14005-1.8684-1.14005-3.2302 0-1.33.38002-2.4067 1.14005-3.1984.76004-.7601 1.67841-1.1718 2.81846-1.1718Zm16.22743 8.8038c-1.1084 0-2.0585-.3801-2.8185-1.1718-.76-.76-1.14-1.8684-1.14-3.2618s.38-2.4701 1.14-3.2618c.76-.76 1.7101-1.1717 2.8185-1.1717 1.0767 0 2.0267.4117 2.7868 1.1717.76.7917 1.1717 1.8684 1.1717 3.2618s-.4117 2.5018-1.1717 3.2618c-.7601.7917-1.7101 1.1718-2.7868 1.1718Zm0-12.6989c-2.3435 0-4.3069.7917-5.8586 2.3434-1.5518 1.5834-2.3118 3.5468-2.3118 5.9219 0 2.4068.76 4.3702 2.3118 5.922 1.5517 1.5834 3.5151 2.3434 5.8586 2.3434 2.3434 0 4.2752-.76 5.8269-2.3434 1.5517-1.5518 2.3434-3.5152 2.3434-5.922 0-2.3751-.7917-4.3385-2.3434-5.9219-1.5517-1.5517-3.4835-2.3434-5.8269-2.3434Zm14.6777 22.0726v-7.537c.9184 1.2667 2.4068 1.9001 4.4969 1.9001 2.1534 0 3.9269-.76 5.2886-2.3118 1.3617-1.52 2.0584-3.4835 2.0584-5.8902 0-2.3751-.665-4.3069-1.9317-5.827-1.2984-1.52-3.0402-2.2801-5.2569-2.2801-1.1401 0-2.1218.2217-2.9452.6651-.855.4433-1.4567.95-1.8367 1.5834V12.727h-4.0852v21.5976h4.2118Zm7.6954-13.8073c0 1.3618-.38 2.4385-1.1084 3.2302-.7284.7917-1.6467 1.1717-2.7551 1.1717-1.1401 0-2.0584-.38-2.7868-1.2034-.76-.7917-1.1084-1.8684-1.1084-3.1985 0-1.33.3484-2.3751 1.1084-3.1668.7284-.7917 1.6467-1.2034 2.7868-1.2034 1.1084 0 2.0267.4117 2.7551 1.1718.7284.7917 1.1084 1.8684 1.1084 3.1984Zm11.8377 13.934L69.394 12.727h-4.4969l-3.8318 9.1204-4.1485-9.1204h-4.7186l6.6187 13.6173-3.6735 8.107h4.4652Z" fill="#000" fill-opacity=".2"/><path d="M70.8635 25.4266c0 .892.3088 1.6125.9263 2.23.6176.6175 1.338.892 2.1957.892.8577 0 1.6124-.2745 2.2299-.892.6176-.6175.9263-1.338.9263-2.23 0-.8576-.3087-1.5781-.9263-2.1956-.6175-.6175-1.3722-.9263-2.2299-.9263-.8577 0-1.5781.3088-2.1957.9263-.6175.6175-.9263 1.338-.9263 2.1956Z" fill="#AD52DD"/><path d="M70.8635 25.4266c0 .892.3088 1.6125.9263 2.23.6176.6175 1.338.892 2.1957.892.8577 0 1.6124-.2745 2.2299-.892.6176-.6175.9263-1.338.9263-2.23 0-.8576-.3087-1.5781-.9263-2.1956-.6175-.6175-1.3722-.9263-2.2299-.9263-.8577 0-1.5781.3088-2.1957.9263-.6175.6175-.9263 1.338-.9263 2.1956Z" fill="#000" fill-opacity=".2"/><path d="M79.5054 24.0642c0 1.2667.475 2.3751 1.4567 3.2935.9817.95 2.2801 1.3934 3.8952 1.3934 2.0584 0 3.5785-.7601 4.5919-2.3118 0 .7917.0316 1.4251.1583 1.8684h3.8635c-.1267-.6967-.19-1.52-.19-2.4701v-7.6637c0-1.71-.57-3.1351-1.6467-4.2435-1.1084-1.1084-2.8185-1.6784-5.1303-1.6784-1.9634 0-3.5151.5384-4.6869 1.5517-1.2033 1.0451-1.8684 2.2485-1.9951 3.5785l3.7369.7917c.0633-.6967.3483-1.2984.855-1.805.5067-.4751 1.2351-.7284 2.1218-.7284.8234 0 1.4884.19 1.9317.57.4434.38.6967.8867.6967 1.4567 0 .6334-.4116 1.0134-1.1717 1.1084l-3.8318.5701c-1.3934.2216-2.5018.7283-3.3568 1.52-.8867.8234-1.2984 1.8684-1.2984 3.1985Zm6.2386 1.5517c-.6334 0-1.1401-.1583-1.4884-.5067-.38-.3483-.5384-.7917-.5384-1.2983 0-1.1084.6334-1.7735 1.9318-1.9635l3.5151-.5383v.6967c0 1.2984-.3483 2.2167-.9817 2.7868-.6333.57-1.4567.8233-2.4384.8233Zm14.965 2.6918V12.727h-4.2117v15.5807h4.2117ZM95.9906 7.62845c0 .6967.2533 1.2984.76 1.80509.5067.50669 1.1084.76006 1.8368.76006.6967 0 1.33-.25337 1.8366-.76006.507-.50669.76-1.10839.76-1.80509 0-.72836-.253-1.36172-.76-1.86841C99.9174 5.25334 99.2841 5 98.5874 5c-.7284 0-1.3301.28501-1.8368.7917-.5067.50669-.76 1.14006-.76 1.83675Z" fill="#AD52DD"/><path d="M79.5054 24.0642c0 1.2667.475 2.3751 1.4567 3.2935.9817.95 2.2801 1.3934 3.8952 1.3934 2.0584 0 3.5785-.7601 4.5919-2.3118 0 .7917.0316 1.4251.1583 1.8684h3.8635c-.1267-.6967-.19-1.52-.19-2.4701v-7.6637c0-1.71-.57-3.1351-1.6467-4.2435-1.1084-1.1084-2.8185-1.6784-5.1303-1.6784-1.9634 0-3.5151.5384-4.6869 1.5517-1.2033 1.0451-1.8684 2.2485-1.9951 3.5785l3.7369.7917c.0633-.6967.3483-1.2984.855-1.805.5067-.4751 1.2351-.7284 2.1218-.7284.8234 0 1.4884.19 1.9317.57.4434.38.6967.8867.6967 1.4567 0 .6334-.4116 1.0134-1.1717 1.1084l-3.8318.5701c-1.3934.2216-2.5018.7283-3.3568 1.52-.8867.8234-1.2984 1.8684-1.2984 3.1985Zm6.2386 1.5517c-.6334 0-1.1401-.1583-1.4884-.5067-.38-.3483-.5384-.7917-.5384-1.2983 0-1.1084.6334-1.7735 1.9318-1.9635l3.5151-.5383v.6967c0 1.2984-.3483 2.2167-.9817 2.7868-.6333.57-1.4567.8233-2.4384.8233Zm14.965 2.6918V12.727h-4.2117v15.5807h4.2117ZM95.9906 7.62845c0 .6967.2533 1.2984.76 1.80509.5067.50669 1.1084.76006 1.8368.76006.6967 0 1.33-.25337 1.8366-.76006.507-.50669.76-1.10839.76-1.80509 0-.72836-.253-1.36172-.76-1.86841C99.9174 5.25334 99.2841 5 98.5874 5c-.7284 0-1.3301.28501-1.8368.7917-.5067.50669-.76 1.14006-.76 1.83675Z" fill="#000" fill-opacity=".2"/></g><defs><clipPath id="a"><path fill="#fff" d="M0 0h101v40H0z"/></clipPath></defs></svg>