<svg width="40" height="40" viewBox="0 0 40 40" fill="none" xmlns="http://www.w3.org/2000/svg">
<path d="M23.456 3.36811C17.7952 3.51252 12.3365 4.58114 7.28223 7.29603C6.01143 7.98919 4.79839 8.79788 3.93194 9.98204C3.15213 11.0507 2.54562 12.2059 3.26766 13.5634C3.41207 13.8233 3.44095 14.141 3.20989 14.3721C2.94996 14.6609 2.63226 14.5454 2.34345 14.4587C1.88134 14.3143 1.56364 13.9966 1.27482 13.65C-0.515851 11.3684 -0.429205 8.65348 1.59252 6.5451C3.49871 4.55226 5.83814 3.25258 8.37974 2.27061C13.8384 0.16224 19.4703 -0.386514 25.2467 0.248885C28.5681 0.624349 31.6296 1.57745 34.4023 3.48363C38.0125 5.96747 39.7454 9.46217 39.9764 13.7367C40.2075 18.1845 38.7057 22.1413 36.4529 25.867C33.1026 31.4124 28.6548 35.8024 22.6473 38.4307C20.0769 39.5571 17.4197 40.2214 14.5893 39.9325C13.0008 39.7593 11.7011 39.1527 11.1524 37.5354C11.1235 37.4198 11.0657 37.3043 11.0369 37.1888C11.008 36.7844 10.8058 36.3223 11.2102 36.0624C11.6145 35.8024 11.9611 36.1779 12.221 36.409C13.2896 37.3043 14.5316 37.2754 15.7735 37.0444C19.2393 36.4378 22.1852 34.7916 24.929 32.6832C29.9256 28.8418 33.6513 24.0186 35.7308 18.0112C36.4818 15.8162 36.7995 13.5634 36.4818 11.2528C35.9619 7.67149 33.7091 5.56312 30.4166 4.37897C28.1926 3.59916 25.8532 3.33923 23.456 3.36811Z" fill="#AD52DD"/>
<path d="M23.456 3.36811C17.7952 3.51252 12.3365 4.58114 7.28223 7.29603C6.01143 7.98919 4.79839 8.79788 3.93194 9.98204C3.15213 11.0507 2.54562 12.2059 3.26766 13.5634C3.41207 13.8233 3.44095 14.141 3.20989 14.3721C2.94996 14.6609 2.63226 14.5454 2.34345 14.4587C1.88134 14.3143 1.56364 13.9966 1.27482 13.65C-0.515851 11.3684 -0.429205 8.65348 1.59252 6.5451C3.49871 4.55226 5.83814 3.25258 8.37974 2.27061C13.8384 0.16224 19.4703 -0.386514 25.2467 0.248885C28.5681 0.624349 31.6296 1.57745 34.4023 3.48363C38.0125 5.96747 39.7454 9.46217 39.9764 13.7367C40.2075 18.1845 38.7057 22.1413 36.4529 25.867C33.1026 31.4124 28.6548 35.8024 22.6473 38.4307C20.0769 39.5571 17.4197 40.2214 14.5893 39.9325C13.0008 39.7593 11.7011 39.1527 11.1524 37.5354C11.1235 37.4198 11.0657 37.3043 11.0369 37.1888C11.008 36.7844 10.8058 36.3223 11.2102 36.0624C11.6145 35.8024 11.9611 36.1779 12.221 36.409C13.2896 37.3043 14.5316 37.2754 15.7735 37.0444C19.2393 36.4378 22.1852 34.7916 24.929 32.6832C29.9256 28.8418 33.6513 24.0186 35.7308 18.0112C36.4818 15.8162 36.7995 13.5634 36.4818 11.2528C35.9619 7.67149 33.7091 5.56312 30.4166 4.37897C28.1926 3.59916 25.8532 3.33923 23.456 3.36811Z" fill="black" fill-opacity="0.2"/>
<path d="M6.9068 35.4847C7.02233 32.9431 7.51332 31.0369 8.06207 29.1596C9.7661 23.2965 11.8456 17.6068 14.5894 12.1482C15.4269 10.473 16.4089 8.88451 17.5353 7.35377C17.8819 6.92055 18.2573 6.48732 18.7195 6.22738C19.4993 5.76527 20.308 5.85192 20.8567 6.40067C21.4343 7.00719 21.521 7.61371 20.9722 8.4224C19.7303 10.2708 18.7772 12.2637 17.853 14.2854C15.0803 20.3795 12.7409 26.6179 10.9791 33.0587C10.6614 34.2717 10.4304 35.4847 10.3726 36.7555C10.3149 38.0263 9.4484 38.4884 8.35089 37.8242C7.28226 37.1599 6.84904 36.1779 6.9068 35.4847Z" fill="#AD52DD"/>
<path d="M6.9068 35.4847C7.02233 32.9431 7.51332 31.0369 8.06207 29.1596C9.7661 23.2965 11.8456 17.6068 14.5894 12.1482C15.4269 10.473 16.4089 8.88451 17.5353 7.35377C17.8819 6.92055 18.2573 6.48732 18.7195 6.22738C19.4993 5.76527 20.308 5.85192 20.8567 6.40067C21.4343 7.00719 21.521 7.61371 20.9722 8.4224C19.7303 10.2708 18.7772 12.2637 17.853 14.2854C15.0803 20.3795 12.7409 26.6179 10.9791 33.0587C10.6614 34.2717 10.4304 35.4847 10.3726 36.7555C10.3149 38.0263 9.4484 38.4884 8.35089 37.8242C7.28226 37.1599 6.84904 36.1779 6.9068 35.4847Z" fill="black" fill-opacity="0.2"/>
</svg>
