<svg width="72" height="24" viewBox="0 0 72 24" fill="none" xmlns="http://www.w3.org/2000/svg"><path d="M14.0736 2.02086c-3.3965.08665-6.67168.72783-9.70426 2.35676-.76248.4159-1.4903.90111-2.01018 1.6116-.46788.64118-.83179 1.33434-.39856 2.14881.08664.15596.10397.34658-.03466.48521-.15596.17329-.34658.10398-.51987.05199-.27727-.08665-.467887-.27727-.641178-.48521-1.074402-1.369-1.022415-2.99793.19062-4.26296C2.09923 2.73136 3.50288 1.95155 5.02784 1.36237 8.30304.0973438 11.6822-.231908 15.148.149331c1.9929.225278 3.8298.797138 5.4934 1.940849 2.1661 1.4903 3.2058 3.58712 3.3445 6.15182.1386 2.6687-.7625 5.0428-2.1142 7.2782-2.0102 3.3273-4.6788 5.9613-8.2833 7.5382-1.5423.6758-3.1366 1.0744-4.83481.9011-.9531-.1039-1.7329-.4679-2.06216-1.4383-.01733-.0693-.05198-.1386-.06931-.2079-.01733-.2426-.13864-.5199.10397-.6759.24261-.1559.45056.0693.60652.208.64117.5372 1.38632.5199 2.13147.3812 2.07952-.3639 3.84702-1.3516 5.49332-2.6167 2.998-2.3048 5.2334-5.1987 6.4811-8.8032.4505-1.317.6412-2.66867.4506-4.055-.312-2.1488-1.6636-3.41383-3.6392-4.12432-1.3343-.46788-2.738-.62384-4.1763-.60652Z" fill="#AD52DD"/><path d="M14.0736 2.02086c-3.3965.08665-6.67168.72783-9.70426 2.35676-.76248.4159-1.4903.90111-2.01018 1.6116-.46788.64118-.83179 1.33434-.39856 2.14881.08664.15596.10397.34658-.03466.48521-.15596.17329-.34658.10398-.51987.05199-.27727-.08665-.467887-.27727-.641178-.48521-1.074402-1.369-1.022415-2.99793.19062-4.26296C2.09923 2.73136 3.50288 1.95155 5.02784 1.36237 8.30304.0973438 11.6822-.231908 15.148.149331c1.9929.225278 3.8298.797138 5.4934 1.940849 2.1661 1.4903 3.2058 3.58712 3.3445 6.15182.1386 2.6687-.7625 5.0428-2.1142 7.2782-2.0102 3.3273-4.6788 5.9613-8.2833 7.5382-1.5423.6758-3.1366 1.0744-4.83481.9011-.9531-.1039-1.7329-.4679-2.06216-1.4383-.01733-.0693-.05198-.1386-.06931-.2079-.01733-.2426-.13864-.5199.10397-.6759.24261-.1559.45056.0693.60652.208.64117.5372 1.38632.5199 2.13147.3812 2.07952-.3639 3.84702-1.3516 5.49332-2.6167 2.998-2.3048 5.2334-5.1987 6.4811-8.8032.4505-1.317.6412-2.66867.4506-4.055-.312-2.1488-1.6636-3.41383-3.6392-4.12432-1.3343-.46788-2.738-.62384-4.1763-.60652Z" fill="#000" fill-opacity=".2"/><path d="M4.14415 21.2909c.06932-1.525.36391-2.6687.69317-3.7951 1.02241-3.5179 2.27011-6.9317 3.91637-10.20689.50254-1.00508 1.09173-1.95818 1.76761-2.87662.2079-.25994.4332-.51987.7104-.67584.4679-.27726.9531-.22527 1.2824.10398.3466.36391.3986.72782.0693 1.21303-.7451 1.10906-1.317 2.30477-1.8715 3.51781C9.04828 12.2277 7.64463 15.9708 6.58755 19.8352c-.19062.7278-.32925 1.4557-.36391 2.2181-.03465.7625-.55453 1.0398-1.21303.6412-.64118-.3986-.90111-.9877-.86646-1.4036Z" fill="#AD52DD"/><path d="M4.14415 21.2909c.06932-1.525.36391-2.6687.69317-3.7951 1.02241-3.5179 2.27011-6.9317 3.91637-10.20689.50254-1.00508 1.09173-1.95818 1.76761-2.87662.2079-.25994.4332-.51987.7104-.67584.4679-.27726.9531-.22527 1.2824.10398.3466.36391.3986.72782.0693 1.21303-.7451 1.10906-1.317 2.30477-1.8715 3.51781C9.04828 12.2277 7.64463 15.9708 6.58755 19.8352c-.19062.7278-.32925 1.4557-.36391 2.2181-.03465.7625-.55453 1.0398-1.21303.6412-.64118-.3986-.90111-.9877-.86646-1.4036Z" fill="#000" fill-opacity=".2"/><path fill-rule="evenodd" clip-rule="evenodd" d="M37.8664 14.4978c-.2463.0284-.4667.0982-.6838.167-.1802.0571-.358.1135-.5466.1449-.5545.0866-1.109.156-1.6809.052-.2946-.052-.3986.0346-.5025.3119-.5892 1.5423-1.3864 2.9807-2.5474 4.1937-.8491.8838-1.7849 1.5769-3.0499 1.7502-2.1835.312-4.0897-1.1264-4.4016-3.3098-.2426-1.681.1733-3.2406.8318-4.7482.8318-1.9062 2.0102-3.51784 3.7084-4.74821 1.8715-1.36899 5.0428-.5372 5.9439 1.73291.3466.8838.3466 1.7849.1559 2.686-.0866.3986.0694.5199.3986.5199 1.0917.0346 2.0448-.3293 2.8766-.9878.1468-.1068.1908-.2856.235-.4651.0132-.0535.0264-.107.0423-.1587.2426-.7972.5372-1.577.8665-2.35678.1732-.4159.4332-.77981.8491-.98776.4505-.20795.9011-.15596 1.2477.17329.3119.2946.3812.69317.2079 1.16105-.9704 2.5647-1.7329 5.1987-2.1315 7.9194-.0519.3466-.0519.6932-.0346 1.0398.0346.5545.3466.7105.8144.4505.4159-.2252.7625-.5372 1.0745-.8664 1.5249-1.629 2.686-3.5005 3.795-5.4067.1669-.2921.2208-.6282.275-.9667.0359-.2237.0719-.4485.1409-.6623.2426-.8317.5199-1.64623 1.0224-2.37405.3639-.50255.8318-.8318 1.4903-.79714.6759.05199 1.1438.60652 1.0051 1.28235-.1733.91844-.6758 1.68094-1.213 2.42604-.4852.6759-.8665 1.3517-.8145 2.2182.0347.3985.104.7798.2426 1.1263.2946.7279.9185 1.0051 1.6116.6585.8838-.4505 1.6116-1.0397 1.9409-2.0794.6238-1.9756 1.6809-3.70846 3.3965-4.93883.9184-.6585 1.9235-.97042 3.0672-.69316 1.1611.27727 2.0449 1.40366 2.1315 2.59939.0693 1.0744-.2773 2.0275-.8491 2.8939-.8838 1.3517-1.9409 2.4781-3.5698 2.9286-.6585.1907-1.317.208-1.9409-.0866-.2772-.1386-.3292-.052-.3639.2253l-.0008.0103c-.0517.6202-.1021 1.2234.1048 1.8266.3466.9531 1.0051 1.2997 1.9928 1.1264 1.0744-.208 1.9929-.7278 2.8593-1.369 1.577-1.1611 2.8247-2.6514 3.8991-4.263.3076-.4734.4618-1.0276.6169-1.5853.0721-.259.1442-.5187.2322-.7715.13-.3552.2556-.7061.3812-1.057.1257-.3509.2513-.70184.3813-1.0571.052-.13864.1213-.25994.1906-.38124.3293-.57186.9358-.79714 1.4556-.55454.5026.22528.7105.8318.4853 1.45565-.182.51123-.3639 1.01813-.5459 1.52493-.182.5069-.3639 1.0138-.5459 1.525-.0346.0693-.0346.1559 0 .2599.104-.1386.2036-.2772.3033-.4159.0996-.1386.1993-.2772.3032-.4159.7625-1.057 1.5943-2.0448 2.5821-2.91126.6238-.5372 1.2997-1.00509 2.1488-1.12639.5545-.08664.9877.08665 1.3517.50254.6238.76248.7451 1.66361.7798 2.59941 0 .2252-.104.4332-.3639.4679-.2427.0346-.4679-.052-.5892-.2773-.0579-.1155-.1002-.2464-.1425-.3773v-.0001c-.0213-.0655-.0424-.1309-.0655-.1945-.1906-.5545-.5892-.7798-1.1437-.6238-.7971.2252-1.3863.7624-1.9409 1.3343-1.4903 1.577-2.6686 3.3618-3.7257 5.2507-.5719 1.0225-.9878 2.1142-1.3517 3.2233-.1733.5372-.5718.7971-1.0397.6931-.5199-.1039-.8838-.3985-1.0918-.8837-.1039-.26-.1213-.5372-.0519-.8145.0485-.2672.1055-.5343.1651-.8133l.0002-.0001c.0255-.1193.0513-.2406.0773-.365-.1782.0685-.2804.1802-.3752.2839h-.0002c-.0251.0275-.0497.0545-.0752.08-1.0744 1.0744-2.2528 1.9929-3.6911 2.5127-1.8542.6759-3.7777.26-4.9388-1.057-.5545-.6239-.8491-1.369-.9877-2.1835l-.0002-.0007c-.0347-.2078-.0691-.4155-.1038-.6405-2.6167.9011-3.5351.5372-4.6615-1.8369-.2257.2382-.397.5127-.5663.784-.0647.1038-.1291.2071-.1962.3077-.1937.2817-.3828.5655-.5717.849l-.0002.0002c-.555.833-1.1083 1.6632-1.7675 2.4261l-.0366.041c-.5251.5934-1.0567 1.194-1.8696 1.3973-1.8196.4679-3.4139-.7278-3.4658-2.634-.0347-1.1611.1732-2.3049.3985-3.4312.0867-.1733.1213-.312.156-.4679Zm-11.2986 3.0673c.0867-1.6463.6759-3.1366 1.4383-4.575.5546-1.0397 1.2304-1.9755 2.1142-2.7726.6065-.53721 1.265-.95311 2.1315-.91845.5025.01733.7971.27726.9011.76245l.0019.014c.0166.1141.0288.198-.0712.298-.7625.8317-.8145 1.8022-.4853 2.8246.0694.2253.0694.4159-.0173.6238-.6758 1.6636-1.5943 3.1886-2.8419 4.5056-.3813.3986-.8145.7279-1.3344.9358-.9704.3986-1.5423.0867-1.7849-.9358-.0348-.162-.0385-.3318-.0424-.5042-.0019-.0856-.0039-.1719-.0096-.2582Zm31.331-6.4638c.1213-.26.1733-.5199.1733-.6932.0173-.81446-.3986-1.10905-1.0917-.86644-.4853.19062-.8665.50254-1.2131.88374-1.0917 1.1957-1.7502 2.6341-2.3221 4.1244-.1039.2599.052.3119.2426.3292.4852.0347.9185-.1213 1.317-.3639 1.3344-.8144 2.2702-1.9928 2.894-3.4138Z" fill="#AD52DD"/><path fill-rule="evenodd" clip-rule="evenodd" d="M37.8664 14.4978c-.2463.0284-.4667.0982-.6838.167-.1802.0571-.358.1135-.5466.1449-.5545.0866-1.109.156-1.6809.052-.2946-.052-.3986.0346-.5025.3119-.5892 1.5423-1.3864 2.9807-2.5474 4.1937-.8491.8838-1.7849 1.5769-3.0499 1.7502-2.1835.312-4.0897-1.1264-4.4016-3.3098-.2426-1.681.1733-3.2406.8318-4.7482.8318-1.9062 2.0102-3.51784 3.7084-4.74821 1.8715-1.36899 5.0428-.5372 5.9439 1.73291.3466.8838.3466 1.7849.1559 2.686-.0866.3986.0694.5199.3986.5199 1.0917.0346 2.0448-.3293 2.8766-.9878.1468-.1068.1908-.2856.235-.4651.0132-.0535.0264-.107.0423-.1587.2426-.7972.5372-1.577.8665-2.35678.1732-.4159.4332-.77981.8491-.98776.4505-.20795.9011-.15596 1.2477.17329.3119.2946.3812.69317.2079 1.16105-.9704 2.5647-1.7329 5.1987-2.1315 7.9194-.0519.3466-.0519.6932-.0346 1.0398.0346.5545.3466.7105.8144.4505.4159-.2252.7625-.5372 1.0745-.8664 1.5249-1.629 2.686-3.5005 3.795-5.4067.1669-.2921.2208-.6282.275-.9667.0359-.2237.0719-.4485.1409-.6623.2426-.8317.5199-1.64623 1.0224-2.37405.3639-.50255.8318-.8318 1.4903-.79714.6759.05199 1.1438.60652 1.0051 1.28235-.1733.91844-.6758 1.68094-1.213 2.42604-.4852.6759-.8665 1.3517-.8145 2.2182.0347.3985.104.7798.2426 1.1263.2946.7279.9185 1.0051 1.6116.6585.8838-.4505 1.6116-1.0397 1.9409-2.0794.6238-1.9756 1.6809-3.70846 3.3965-4.93883.9184-.6585 1.9235-.97042 3.0672-.69316 1.1611.27727 2.0449 1.40366 2.1315 2.59939.0693 1.0744-.2773 2.0275-.8491 2.8939-.8838 1.3517-1.9409 2.4781-3.5698 2.9286-.6585.1907-1.317.208-1.9409-.0866-.2772-.1386-.3292-.052-.3639.2253l-.0008.0103c-.0517.6202-.1021 1.2234.1048 1.8266.3466.9531 1.0051 1.2997 1.9928 1.1264 1.0744-.208 1.9929-.7278 2.8593-1.369 1.577-1.1611 2.8247-2.6514 3.8991-4.263.3076-.4734.4618-1.0276.6169-1.5853.0721-.259.1442-.5187.2322-.7715.13-.3552.2556-.7061.3812-1.057.1257-.3509.2513-.70184.3813-1.0571.052-.13864.1213-.25994.1906-.38124.3293-.57186.9358-.79714 1.4556-.55454.5026.22528.7105.8318.4853 1.45565-.182.51123-.3639 1.01813-.5459 1.52493-.182.5069-.3639 1.0138-.5459 1.525-.0346.0693-.0346.1559 0 .2599.104-.1386.2036-.2772.3033-.4159.0996-.1386.1993-.2772.3032-.4159.7625-1.057 1.5943-2.0448 2.5821-2.91126.6238-.5372 1.2997-1.00509 2.1488-1.12639.5545-.08664.9877.08665 1.3517.50254.6238.76248.7451 1.66361.7798 2.59941 0 .2252-.104.4332-.3639.4679-.2427.0346-.4679-.052-.5892-.2773-.0579-.1155-.1002-.2464-.1425-.3773v-.0001c-.0213-.0655-.0424-.1309-.0655-.1945-.1906-.5545-.5892-.7798-1.1437-.6238-.7971.2252-1.3863.7624-1.9409 1.3343-1.4903 1.577-2.6686 3.3618-3.7257 5.2507-.5719 1.0225-.9878 2.1142-1.3517 3.2233-.1733.5372-.5718.7971-1.0397.6931-.5199-.1039-.8838-.3985-1.0918-.8837-.1039-.26-.1213-.5372-.0519-.8145.0485-.2672.1055-.5343.1651-.8133l.0002-.0001c.0255-.1193.0513-.2406.0773-.365-.1782.0685-.2804.1802-.3752.2839h-.0002c-.0251.0275-.0497.0545-.0752.08-1.0744 1.0744-2.2528 1.9929-3.6911 2.5127-1.8542.6759-3.7777.26-4.9388-1.057-.5545-.6239-.8491-1.369-.9877-2.1835l-.0002-.0007c-.0347-.2078-.0691-.4155-.1038-.6405-2.6167.9011-3.5351.5372-4.6615-1.8369-.2257.2382-.397.5127-.5663.784-.0647.1038-.1291.2071-.1962.3077-.1937.2817-.3828.5655-.5717.849l-.0002.0002c-.555.833-1.1083 1.6632-1.7675 2.4261l-.0366.041c-.5251.5934-1.0567 1.194-1.8696 1.3973-1.8196.4679-3.4139-.7278-3.4658-2.634-.0347-1.1611.1732-2.3049.3985-3.4312.0867-.1733.1213-.312.156-.4679Zm-11.2986 3.0673c.0867-1.6463.6759-3.1366 1.4383-4.575.5546-1.0397 1.2304-1.9755 2.1142-2.7726.6065-.53721 1.265-.95311 2.1315-.91845.5025.01733.7971.27726.9011.76245l.0019.014c.0166.1141.0288.198-.0712.298-.7625.8317-.8145 1.8022-.4853 2.8246.0694.2253.0694.4159-.0173.6238-.6758 1.6636-1.5943 3.1886-2.8419 4.5056-.3813.3986-.8145.7279-1.3344.9358-.9704.3986-1.5423.0867-1.7849-.9358-.0348-.162-.0385-.3318-.0424-.5042-.0019-.0856-.0039-.1719-.0096-.2582Zm31.331-6.4638c.1213-.26.1733-.5199.1733-.6932.0173-.81446-.3986-1.10905-1.0917-.86644-.4853.19062-.8665.50254-1.2131.88374-1.0917 1.1957-1.7502 2.6341-2.3221 4.1244-.1039.2599.052.3119.2426.3292.4852.0347.9185-.1213 1.317-.3639 1.3344-.8144 2.2702-1.9928 2.894-3.4138Z" fill="#000" fill-opacity=".2"/></svg>