<svg width="104" height="24" viewBox="0 0 104 24" fill="none" xmlns="http://www.w3.org/2000/svg"><path d="M5.9173 13.121c-.29402.294-.66156.441-1.1026.441H1.13936c-.330784 0-.588058-.1102-.808579-.3308C.147014 13.0107 0 12.7534 0 12.4227V1.13936C0 .808576.147014.551302.330781.330781.551302.147014.845329 0 1.13936 0h6.76263c.33078 0 .58806.147014.80858.330781.22052.220521.33078.477795.33078.808579v8.19601c0 .40429-.14702.80853-.44104 1.06583l-1.32313 1.3231L5.9173 13.121Z" fill="#AD52DD"/><path d="M5.9173 13.121c-.29402.294-.66156.441-1.1026.441H1.13936c-.330784 0-.588058-.1102-.808579-.3308C.147014 13.0107 0 12.7534 0 12.4227V1.13936C0 .808576.147014.551302.330781.330781.551302.147014.845329 0 1.13936 0h6.76263c.33078 0 .58806.147014.80858.330781.22052.220521.33078.477795.33078.808579v8.19601c0 .40429-.14702.80853-.44104 1.06583l-1.32313 1.3231L5.9173 13.121Z" fill="#000" fill-opacity=".2"/><path d="M10.8063 5.9173c-.2941-.29402-.4411-.66156-.4411-1.06585V1.13936c0-.330784.147-.588058.3308-.808579C10.9165.147014 11.2106 0 11.5046 0h11.2833c.3308 0 .5881.147014.8086.330781.2205.220521.3308.477795.3308.808579v6.76263c0 .33078-.1471.58806-.3308.80858-.2205.22052-.4778.33078-.8086.33078H14.5551c-.4043 0-.8085-.14702-1.1026-.44104l-1.3231-1.32313-1.3231-1.35988Z" fill="#AD52DD"/><path d="M10.8063 5.9173c-.2941-.29402-.4411-.66156-.4411-1.06585V1.13936c0-.330784.147-.588058.3308-.808579C10.9165.147014 11.2106 0 11.5046 0h11.2833c.3308 0 .5881.147014.8086.330781.2205.220521.3308.477795.3308.808579v6.76263c0 .33078-.1471.58806-.3308.80858-.2205.22052-.4778.33078-.8086.33078H14.5551c-.4043 0-.8085-.14702-1.1026-.44104l-1.3231-1.32313-1.3231-1.35988Z" fill="#000" fill-opacity=".2"/><path d="M18.0456 10.879c.294-.294.6615-.441 1.1026-.441h3.6386c.3307 0 .588.147.8085.3308.2206.2205.3308.4778.3308.8085v11.2466c0 .3308-.147.5881-.3308.8086-.2205.2205-.4778.3308-.8085.3308H16.0241c-.3308 0-.588-.1471-.8086-.3308-.2205-.2205-.3307-.4778-.3307-.8086v-8.196c0-.4043.147-.8086.441-1.0659l1.3231-1.3231 1.3967-1.3599Z" fill="#AD52DD"/><path d="M18.0456 10.879c.294-.294.6615-.441 1.1026-.441h3.6386c.3307 0 .588.147.8085.3308.2206.2205.3308.4778.3308.8085v11.2466c0 .3308-.147.5881-.3308.8086-.2205.2205-.4778.3308-.8085.3308H16.0241c-.3308 0-.588-.1471-.8086-.3308-.2205-.2205-.3307-.4778-.3307-.8086v-8.196c0-.4043.147-.8086.441-1.0659l1.3231-1.3231 1.3967-1.3599Z" fill="#000" fill-opacity=".2"/><path d="M13.121 18.0828c.294.294.441.6615.441 1.1026v3.6753c0 .3308-.147.5881-.3308.8086-.2205.2205-.4778.3308-.8085.3308H1.13936c-.330784 0-.588058-.147-.808579-.3308C.147014 23.4488 0 23.1548 0 22.8607v-6.7626c0-.3308.147014-.5881.330781-.8086.220521-.2205.477795-.3308.808579-.3308h8.19601c.40429 0 .80853.1471 1.06583.4411l1.3231 1.3231 1.3967 1.3599Z" fill="#AD52DD"/><path d="M13.121 18.0828c.294.294.441.6615.441 1.1026v3.6753c0 .3308-.147.5881-.3308.8086-.2205.2205-.4778.3308-.8085.3308H1.13936c-.330784 0-.588058-.147-.808579-.3308C.147014 23.4488 0 23.1548 0 22.8607v-6.7626c0-.3308.147014-.5881.330781-.8086.220521-.2205.477795-.3308.808579-.3308h8.19601c.40429 0 .80853.1471 1.06583.4411l1.3231 1.3231 1.3967 1.3599Z" fill="#000" fill-opacity=".2"/><path d="M61.8945 18.0827c-.147.1102-.294.2205-.4043.294-.1103.0735-.1838.1103-.2573.147-.0735.0368-.147.0735-.1837.0735h-.2206c-.294 0-.5145-.147-.6248-.4043-.1102-.294-.1837-.8085-.1837-1.5804v-3.565c0-.6249-.0368-1.1394-.1103-1.4702s-.1838-.6615-.3675-.9556c-.5881-.91881-1.7275-1.3966-3.3814-1.3966-1.2128 0-2.2052.22052-2.9402.62481-.7351.40429-1.0659.99229-1.0659 1.72739 0 .3676.1103.6983.3308.9189.2205.2205.5146.3675.8453.3675.3676 0 .6983-.1103.9189-.3308.2205-.2205.3675-.5145.3675-.8453 0-.2941-.1103-.5513-.294-.7351l-.2205-.2205c-.0368-.0368-.0368-.0368-.0368-.0735 0-.0735.0368-.147.147-.2573.1103-.0735.2205-.147.3675-.2205.1471-.0735.3308-.1103.5146-.147.1838-.03678.4043-.03678.588-.03678.9924 0 1.654.29398 1.9847.88208.0735.147.147.2573.1838.4043.0368.1103.0735.294.1103.4778.0367.1838.0367.4043.0735.6615 0 .2941.0367.6249.0367.9924l-2.0214.3675-.8086.147c-.4043.0735-.7718.1471-1.0291.2206-.294.0735-.5513.147-.7718.2205-.2205.0735-.4043.1837-.5881.294-.1837.1103-.3307.2205-.4778.3308-.5145.4778-.7718 1.1393-.7718 1.9847 0 .9188.2573 1.6539.8086 2.1684.5145.5146 1.2496.8086 2.1684.8086.6616 0 1.2864-.147 1.8377-.441.5513-.2941 1.1026-.7719 1.6907-1.4334.0735.294.147.5513.1837.6983.0736.147.1471.294.2573.441.147.2206.3308.3676.5513.4778.2205.1103.4411.1838.6983.1838.4043 0 .7719-.1103 1.1394-.294.3675-.1838.8086-.5513 1.2864-.9924l-.3308-.5145Zm-3.7856-4.1164v1.6906c0 .7351-.1103 1.3232-.3308 1.6907-.2205.3675-.5146.6616-.9188.8821-.4043.2205-.8454.3308-1.2864.3308-.5881 0-1.0659-.1838-1.3966-.5513-.3676-.3676-.5146-.8454-.5146-1.4334 0-.9556.4411-1.5804 1.2864-1.9112.294-.1103.6983-.2205 1.1761-.3308.4778-.0735 1.1393-.2205 1.9847-.3675Z" fill="#AD52DD"/><path d="M61.8945 18.0827c-.147.1102-.294.2205-.4043.294-.1103.0735-.1838.1103-.2573.147-.0735.0368-.147.0735-.1837.0735h-.2206c-.294 0-.5145-.147-.6248-.4043-.1102-.294-.1837-.8085-.1837-1.5804v-3.565c0-.6249-.0368-1.1394-.1103-1.4702s-.1838-.6615-.3675-.9556c-.5881-.91881-1.7275-1.3966-3.3814-1.3966-1.2128 0-2.2052.22052-2.9402.62481-.7351.40429-1.0659.99229-1.0659 1.72739 0 .3676.1103.6983.3308.9189.2205.2205.5146.3675.8453.3675.3676 0 .6983-.1103.9189-.3308.2205-.2205.3675-.5145.3675-.8453 0-.2941-.1103-.5513-.294-.7351l-.2205-.2205c-.0368-.0368-.0368-.0368-.0368-.0735 0-.0735.0368-.147.147-.2573.1103-.0735.2205-.147.3675-.2205.1471-.0735.3308-.1103.5146-.147.1838-.03678.4043-.03678.588-.03678.9924 0 1.654.29398 1.9847.88208.0735.147.147.2573.1838.4043.0368.1103.0735.294.1103.4778.0367.1838.0367.4043.0735.6615 0 .2941.0367.6249.0367.9924l-2.0214.3675-.8086.147c-.4043.0735-.7718.1471-1.0291.2206-.294.0735-.5513.147-.7718.2205-.2205.0735-.4043.1837-.5881.294-.1837.1103-.3307.2205-.4778.3308-.5145.4778-.7718 1.1393-.7718 1.9847 0 .9188.2573 1.6539.8086 2.1684.5145.5146 1.2496.8086 2.1684.8086.6616 0 1.2864-.147 1.8377-.441.5513-.2941 1.1026-.7719 1.6907-1.4334.0735.294.147.5513.1837.6983.0736.147.1471.294.2573.441.147.2206.3308.3676.5513.4778.2205.1103.4411.1838.6983.1838.4043 0 .7719-.1103 1.1394-.294.3675-.1838.8086-.5513 1.2864-.9924l-.3308-.5145Zm-3.7856-4.1164v1.6906c0 .7351-.1103 1.3232-.3308 1.6907-.2205.3675-.5146.6616-.9188.8821-.4043.2205-.8454.3308-1.2864.3308-.5881 0-1.0659-.1838-1.3966-.5513-.3676-.3676-.5146-.8454-.5146-1.4334 0-.9556.4411-1.5804 1.2864-1.9112.294-.1103.6983-.2205 1.1761-.3308.4778-.0735 1.1393-.2205 1.9847-.3675Z" fill="#000" fill-opacity=".2"/><path d="M69.3903 18.2295c-.3675.1471-.6983.2573-.9188.2941-.2206.0735-.4411.0735-.6249.0735-.5513 0-.9555-.147-1.2128-.4778-.2573-.3308-.4043-.8086-.4043-1.4334v-6.1378h3.0138v-.69834h-3.0138V5.80688h-.4778l-1.3966 1.39664v2.60949h-2.4625v.69829h2.4625v6.8729c0 .7718.1837 1.3966.5513 1.7642.3675.4043.9188.588 1.6171.588.4778 0 .9556-.0735 1.4334-.2572.4778-.147 1.0291-.4411 1.6539-.8086l-.2205-.4411Z" fill="#AD52DD"/><path d="M69.3903 18.2295c-.3675.1471-.6983.2573-.9188.2941-.2206.0735-.4411.0735-.6249.0735-.5513 0-.9555-.147-1.2128-.4778-.2573-.3308-.4043-.8086-.4043-1.4334v-6.1378h3.0138v-.69834h-3.0138V5.80688h-.4778l-1.3966 1.39664v2.60949h-2.4625v.69829h2.4625v6.8729c0 .7718.1837 1.3966.5513 1.7642.3675.4043.9188.588 1.6171.588.4778 0 .9556-.0735 1.4334-.2572.4778-.147 1.0291-.4411 1.6539-.8086l-.2205-.4411Z" fill="#000" fill-opacity=".2"/><path d="M82.2183 8.15917c.3675 0 .6984-.11026.9557-.36754.2572-.25727.3674-.5513.3674-.91883 0-.36754-.1102-.66157-.3674-.91884-.2573-.25727-.5514-.36753-.919-.36753-.3308 0-.6614.11026-.9187.36753s-.3675.5513-.3675.88208c0 .36754.1102.66157.3675.91884.2205.25727.5512.40429.882.40429Z" fill="#AD52DD"/><path d="M82.2183 8.15917c.3675 0 .6984-.11026.9557-.36754.2572-.25727.3674-.5513.3674-.91883 0-.36754-.1102-.66157-.3674-.91884-.2573-.25727-.5514-.36753-.919-.36753-.3308 0-.6614.11026-.9187.36753s-.3675.5513-.3675.88208c0 .36754.1102.66157.3675.91884.2205.25727.5512.40429.882.40429Z" fill="#000" fill-opacity=".2"/><path d="M102.911 17.1271c-.294.3308-.588.588-.845.8086-.257.2205-.515.3675-.772.5145-.257.1103-.515.2205-.809.2573-.294.0367-.5876.0735-.9551.0735-1.2129 0-2.1317-.4043-2.7565-1.2129-.2573-.3675-.4411-.7718-.5513-1.2496-.1103-.4778-.1471-1.1026-.1471-1.9112h7.682c-.037-.735-.111-1.3598-.184-1.8009-.111-.4778-.258-.8821-.478-1.2864-.368-.6615-.919-1.1761-1.654-1.5436-.735-.36754-1.5436-.5513-2.4624-.5513-.7719 0-1.4702.11026-2.095.36753-.6248.25728-1.1393.58807-1.5804 1.02907-.441.4411-.7718.9924-.9923 1.6539-.2205.6616-.3675 1.3967-.3675 2.1685 0 .8086.1102 1.5436.3675 2.2052.2205.6616.588 1.2129.9923 1.6907.4411.4777.9556.8085 1.5804 1.0658.6248.2573 1.3231.3675 2.095.3675.4778 0 .882-.0367 1.2864-.1102.404-.0735.772-.2205 1.103-.4043.367-.1838.698-.4043 1.029-.6983.33-.2941.698-.6248 1.029-1.0291l-.515-.4043Zm-4.0427-7.24044c.9188 0 1.5807.29404 1.9847.88204.404.5881.662 1.5437.772 2.9403h-5.5867c.1103-1.3599.3675-2.3522.8086-2.9403.441-.588 1.1393-.88204 2.0214-.88204Z" fill="#AD52DD"/><path d="M102.911 17.1271c-.294.3308-.588.588-.845.8086-.257.2205-.515.3675-.772.5145-.257.1103-.515.2205-.809.2573-.294.0367-.5876.0735-.9551.0735-1.2129 0-2.1317-.4043-2.7565-1.2129-.2573-.3675-.4411-.7718-.5513-1.2496-.1103-.4778-.1471-1.1026-.1471-1.9112h7.682c-.037-.735-.111-1.3598-.184-1.8009-.111-.4778-.258-.8821-.478-1.2864-.368-.6615-.919-1.1761-1.654-1.5436-.735-.36754-1.5436-.5513-2.4624-.5513-.7719 0-1.4702.11026-2.095.36753-.6248.25728-1.1393.58807-1.5804 1.02907-.441.4411-.7718.9924-.9923 1.6539-.2205.6616-.3675 1.3967-.3675 2.1685 0 .8086.1102 1.5436.3675 2.2052.2205.6616.588 1.2129.9923 1.6907.4411.4777.9556.8085 1.5804 1.0658.6248.2573 1.3231.3675 2.095.3675.4778 0 .882-.0367 1.2864-.1102.404-.0735.772-.2205 1.103-.4043.367-.1838.698-.4043 1.029-.6983.33-.2941.698-.6248 1.029-1.0291l-.515-.4043Zm-4.0427-7.24044c.9188 0 1.5807.29404 1.9847.88204.404.5881.662 1.5437.772 2.9403h-5.5867c.1103-1.3599.3675-2.3522.8086-2.9403.441-.588 1.1393-.88204 2.0214-.88204Z" fill="#000" fill-opacity=".2"/><path d="M48.6629 18.6707c-.1838-.0735-.3308-.1838-.441-.3308-.1103-.147-.1471-.3675-.1838-.6248-.0368-.2573-.0368-.6248-.0368-1.0659V4.15308l-3.7856.91883v.69832c.3676 0 .6983.03675.9189.11026.2572.0735.441.18377.5513.33078.147.14701.2205.36753.294.66156.0367.29403.0735.66156.0735 1.1026v8.67377c0 .4411 0 .7719-.0368 1.0659-.0367.2573-.0735.4778-.1837.6248-.1103.147-.2573.2573-.4411.3308-.1837.0735-.441.1102-.7718.1838l-.5145.0367v.6616h5.8805v-.6616l-.5145-.0367c-.3676-.0368-.6248-.1103-.8086-.1838Z" fill="#AD52DD"/><path d="M48.6629 18.6707c-.1838-.0735-.3308-.1838-.441-.3308-.1103-.147-.1471-.3675-.1838-.6248-.0368-.2573-.0368-.6248-.0368-1.0659V4.15308l-3.7856.91883v.69832c.3676 0 .6983.03675.9189.11026.2572.0735.441.18377.5513.33078.147.14701.2205.36753.294.66156.0367.29403.0735.66156.0735 1.1026v8.67377c0 .4411 0 .7719-.0368 1.0659-.0367.2573-.0735.4778-.1837.6248-.1103.147-.2573.2573-.4411.3308-.1837.0735-.441.1102-.7718.1838l-.5145.0367v.6616h5.8805v-.6616l-.5145-.0367c-.3676-.0368-.6248-.1103-.8086-.1838Z" fill="#000" fill-opacity=".2"/><path d="M84.2023 18.6706c-.1838-.0735-.3308-.1838-.441-.3308-.1103-.147-.147-.3675-.1838-.6248-.0368-.2573-.0368-.6248-.0368-1.0659V8.93091l-3.7856.91883v.69836c.3676 0 .6984.0367.9189.1102.2573.0735.441.1838.588.3308.1471.147.2206.3675.2941.6616.0367.294.0735.6615.0735 1.1026v3.9326c0 .441 0 .7718-.0368 1.0658-.0367.2573-.0735.4778-.1837.6248-.1103.1471-.2573.2573-.4411.3308-.1838.0735-.441.1103-.7718.1838l-.5146.0367v.6616h5.8806v-.6616l-.5146-.0367c-.4043-.0735-.6615-.147-.8453-.2205Z" fill="#AD52DD"/><path d="M84.2023 18.6706c-.1838-.0735-.3308-.1838-.441-.3308-.1103-.147-.147-.3675-.1838-.6248-.0368-.2573-.0368-.6248-.0368-1.0659V8.93091l-3.7856.91883v.69836c.3676 0 .6984.0367.9189.1102.2573.0735.441.1838.588.3308.1471.147.2206.3675.2941.6616.0367.294.0735.6615.0735 1.1026v3.9326c0 .441 0 .7718-.0368 1.0658-.0367.2573-.0735.4778-.1837.6248-.1103.1471-.2573.2573-.4411.3308-.1838.0735-.441.1103-.7718.1838l-.5146.0367v.6616h5.8806v-.6616l-.5146-.0367c-.4043-.0735-.6615-.147-.8453-.2205Z" fill="#000" fill-opacity=".2"/><path d="M91.5171 18.6707c-.1837-.0735-.3308-.1838-.441-.3308-.1103-.147-.147-.3675-.1838-.6248-.0367-.2573-.0367-.6248-.0367-1.0659V4.15308l-3.7489.95559v.69831c.3675 0 .6983.03675.9188.11026.2573.07351.4411.18377.5881.33078.147.14702.2205.36754.294.66156.0368.29403.0735.66157.0735 1.10261V16.686c0 .441 0 .7718-.0367 1.0658-.0368.2573-.0735.4778-.1838.6249-.1102.147-.2573.2572-.441.3307-.1838.0735-.4411.1103-.7719.1838l-.5145.0368v.6615h5.8806v-.6615l-.5146-.0368c-.4043-.0735-.6616-.147-.8821-.2205Z" fill="#AD52DD"/><path d="M91.5171 18.6707c-.1837-.0735-.3308-.1838-.441-.3308-.1103-.147-.147-.3675-.1838-.6248-.0367-.2573-.0367-.6248-.0367-1.0659V4.15308l-3.7489.95559v.69831c.3675 0 .6983.03675.9188.11026.2573.07351.4411.18377.5881.33078.147.14702.2205.36754.294.66156.0368.29403.0735.66157.0735 1.10261V16.686c0 .441 0 .7718-.0367 1.0658-.0368.2573-.0735.4778-.1838.6249-.1102.147-.2573.2572-.441.3307-.1838.0735-.4411.1103-.7719.1838l-.5145.0368v.6615h5.8806v-.6615l-.5146-.0368c-.4043-.0735-.6616-.147-.8821-.2205Z" fill="#000" fill-opacity=".2"/><path d="M78.1387 5.07203c-.441-.29402-.9923-.47779-1.6907-.47779-1.0291 0-1.8744.33078-2.4992.99234-.6248.66156-.9188 1.5804-.9188 2.71976v.88208c0 .22052.0367.40429.0367.62481H71.082v.69827h1.9847v6.1379c0 .441 0 .7718-.0367 1.0658-.0368.2573-.0735.4778-.1838.6248-.1103.147-.2573.2573-.441.3308-.1838.0735-.4411.1103-.7719.1838l-.5145.0367v.6616h6.0275v-.6616l-.6615-.0367c-.3308-.0735-.5881-.1103-.7718-.1838-.1838-.0735-.3308-.1838-.4411-.3308-.1102-.147-.147-.3675-.1837-.6248-.0368-.2573-.0368-.6248-.0368-1.0658v-6.1011h2.7198v-.69832h-2.7198c-.0367-.07351-.3308-.95559-.4778-1.91118-.0735-.58805-.0735-1.06585.0368-1.47014.1102-.51454.3675-.84533.7718-1.02909H75.5292c.1838-.07351.3675-.11026.5513-.11026.1838 0 .3675.03675.5513.11026.147.0735.2573.14701.2573.22052 0 .03675-.0368.11026-.1103.18377-.2205.22052-.3675.51454-.3675.84532 0 .33079.1102.58806.3308.80858.2205.22052.5145.29403.8453.29403.3675 0 .6983-.14702.9556-.40429s.3675-.62481.3675-1.0291c-.1102-.58805-.3308-.99234-.7718-1.28637Z" fill="#AD52DD"/><path d="M78.1387 5.07203c-.441-.29402-.9923-.47779-1.6907-.47779-1.0291 0-1.8744.33078-2.4992.99234-.6248.66156-.9188 1.5804-.9188 2.71976v.88208c0 .22052.0367.40429.0367.62481H71.082v.69827h1.9847v6.1379c0 .441 0 .7718-.0367 1.0658-.0368.2573-.0735.4778-.1838.6248-.1103.147-.2573.2573-.441.3308-.1838.0735-.4411.1103-.7719.1838l-.5145.0367v.6616h6.0275v-.6616l-.6615-.0367c-.3308-.0735-.5881-.1103-.7718-.1838-.1838-.0735-.3308-.1838-.4411-.3308-.1102-.147-.147-.3675-.1837-.6248-.0368-.2573-.0368-.6248-.0368-1.0658v-6.1011h2.7198v-.69832h-2.7198c-.0367-.07351-.3308-.95559-.4778-1.91118-.0735-.58805-.0735-1.06585.0368-1.47014.1102-.51454.3675-.84533.7718-1.02909H75.5292c.1838-.07351.3675-.11026.5513-.11026.1838 0 .3675.03675.5513.11026.147.0735.2573.14701.2573.22052 0 .03675-.0368.11026-.1103.18377-.2205.22052-.3675.51454-.3675.84532 0 .33079.1102.58806.3308.80858.2205.22052.5145.29403.8453.29403.3675 0 .6983-.14702.9556-.40429s.3675-.62481.3675-1.0291c-.1102-.58805-.3308-.99234-.7718-1.28637Z" fill="#000" fill-opacity=".2"/><path d="M31.9395 5.10864v.69832l.7718.07351c.588.0735.9923.22052 1.1761.44104.0735.0735.1102.14701.147.22052.0368.0735.0735.14701.0735.29402 0 .11027.0368.25728.0368.44105v10.1072c0 .1838-.0368.3308-.0368.441 0 .1103-.0367.2206-.0735.2941-.0368.0735-.0735.147-.147.1837-.1838.2573-.5881.4043-1.1761.4411l-.7718.0735v.6983h6.8728v-.6983l-.9923-.0735c-.5881-.0368-.9556-.1838-1.1761-.4411-.0735-.0735-.1103-.1102-.1103-.1837-.0367-.0735-.0367-.1838-.0735-.2941-.0367-.1102-.0367-.2572-.0367-.441v-4.0796h1.8744c.2205 0 .4043.0367.5513.0735.1838.0367.3675.1102.5145.2205.1471.1103.2573.2573.3676.4778.1102.1838.2205.441.294.7351l.1838.588h.8453v-5.1087h-.8453l-.147.588c-.1103.3308-.2206.5881-.2941.7719-.1102.2205-.2205.3675-.3675.4778-.147.1102-.294.2205-.4778.2572-.1103.0368-.2205.0368-.4043.0735h-2.1317V6.02748h2.3522c.6984 0 1.2864.03675 1.7275.11026.441.07351.8085.22052 1.0658.44104.2573.22052.441.51455.5145.88208.1103.36754.1471.88209.1838 1.47014h.8453V5.10864H31.9395Z" fill="#AD52DD"/><path d="M31.9395 5.10864v.69832l.7718.07351c.588.0735.9923.22052 1.1761.44104.0735.0735.1102.14701.147.22052.0368.0735.0735.14701.0735.29402 0 .11027.0368.25728.0368.44105v10.1072c0 .1838-.0368.3308-.0368.441 0 .1103-.0367.2206-.0735.2941-.0368.0735-.0735.147-.147.1837-.1838.2573-.5881.4043-1.1761.4411l-.7718.0735v.6983h6.8728v-.6983l-.9923-.0735c-.5881-.0368-.9556-.1838-1.1761-.4411-.0735-.0735-.1103-.1102-.1103-.1837-.0367-.0735-.0367-.1838-.0735-.2941-.0367-.1102-.0367-.2572-.0367-.441v-4.0796h1.8744c.2205 0 .4043.0367.5513.0735.1838.0367.3675.1102.5145.2205.1471.1103.2573.2573.3676.4778.1102.1838.2205.441.294.7351l.1838.588h.8453v-5.1087h-.8453l-.147.588c-.1103.3308-.2206.5881-.2941.7719-.1102.2205-.2205.3675-.3675.4778-.147.1102-.294.2205-.4778.2572-.1103.0368-.2205.0368-.4043.0735h-2.1317V6.02748h2.3522c.6984 0 1.2864.03675 1.7275.11026.441.07351.8085.22052 1.0658.44104.2573.22052.441.51455.5145.88208.1103.36754.1471.88209.1838 1.47014h.8453V5.10864H31.9395Z" fill="#000" fill-opacity=".2"/></svg>