<svg width="24" height="24" viewBox="0 0 24 24" fill="none" xmlns="http://www.w3.org/2000/svg"><path d="M22.8982 9.64313c-.522-1.76952-2.1893-2.47704-3.8086-1.56168-.6489.39768-1.1755.94824-1.7496 1.47-.0326-.89232.2429-1.764-.9549-1.7496-.8163-.03168-.8698.03024-.9809.96624-.4303 3.62881-.905 7.25301-1.2864 10.88741-.0173.1675.133.497.2309.5073.4958.0516 1.0029.0516 1.4993.0014.1243-.0127.2973-.2666.3218-.4286.156-1.0308.2765-2.0671.415-3.1512 4.086 2.7624 7.451-3.4641 6.3134-6.94127Zm-3.2263 5.28357c-.6605.6915-1.6123.8564-2.4053.3946-.2086-.1214-.4454-.4368-.4354-.6521.0456-1.8725.6296-3.887 2.2726-4.98767.7459-.4656 1.4693-.16296 1.7076.67947.101.3568.1133.7387.145.9602-.0708 1.4412-.3658 2.6439-1.2845 3.6055ZM5.96621 8.01977c-.5388.01104-1.07784.00288-1.61808.00288.0576-1.86072.39816-2.256 2.0772-2.44584.72528-.08208.53568-.68592.6408-1.10928.11712-.47232-.3048-.42912-.5544-.48216-2.4348-.45096-4.12992 1.5252-4.302 3.97776-1.275603.15696-1.303923.17376-1.330803.86736-.02976.76656.612483.6492 1.141203.83304-.35688 3.08397-.74232 6.13607-1.083603 9.21697-.01776.161.119043.4634.238803.4956.8796.2352 1.4928-.1083 1.69632-1.0049.67224-2.9006.91728-5.7809 1.28784-8.76335.5652 0 1.08456-.0132 1.60296.0048.33528.01152.50736-.10464.52344-.45384-.0072-.40512.37944-1.17696-.31968-1.13904Zm2.60376-4.2204c-.65568-.01656-.69048.34824-.74496.80568-.50136 4.2408-1.01616 8.33375-1.49448 12.60265.55392 0 1.02936-.0206 1.50168.0062.42912.0245.62208-.0912.67752-.5704.43728-3.7779.9132-7.55141 1.36272-11.32805.18025-1.51512.16275-1.47888-1.30248-1.51608Zm3.59473 4.0908c-.4555-.00984-.6687.10512-.7191.6036-.3165 2.95323-.6849 5.69333-1.03 8.69283.5366 0 .9559-.0423 1.3632.0098.6403.0816.8121-.2109.8757-.7968.2549-2.3455.5866-4.6831.8283-7.03007.1728-1.67904.558-1.43928-1.3181-1.47936Zm.683-3.87648c-.7017-.00912-1.3459.63696-1.3608 1.36584-.0149.7224.6096 1.40448 1.3042 1.42392.7217.02016 1.3874-.654 1.3869-1.40496-.0004-.74232-.6084-1.3752-1.3303-1.3848Z" fill="#AD52DD"/></svg>