<svg width="40" height="40" viewBox="0 0 40 40" fill="none" xmlns="http://www.w3.org/2000/svg"><path d="M.00027476 40C-.0854385 40 19.9115.163341 20 .00048534 20.0872-.160941 40.0869 40 39.9998 40c-.0672 0-11.7642-1.4143-17.1427-2.11v-5.7713h5.2614S20.0357 14.2289 20 14.286c-.0357.06-7.757 17.8327-7.7227 17.8327h4.8656V37.89C11.3716 38.6057.0659883 40 .00027476 40Z" fill="#AD52DD"/><path d="M.00027476 40C-.0854385 40 19.9115.163341 20 .00048534 20.0872-.160941 40.0869 40 39.9998 40c-.0672 0-11.7642-1.4143-17.1427-2.11v-5.7713h5.2614S20.0357 14.2289 20 14.286c-.0357.06-7.757 17.8327-7.7227 17.8327h4.8656V37.89C11.3716 38.6057.0659883 40 .00027476 40Z" fill="#000" fill-opacity=".2"/></svg>