<?xml version="1.0" encoding="UTF-8" standalone="no"?>
<svg xmlns="http://www.w3.org/2000/svg" viewBox="0 0 1821.3333 425.34668" height="30" width="120" id="svg2" version="1.1">
    <defs id="defs6" />
    <g transform="matrix(1.3333333,0,0,-1.3333333,0,425.34667)" id="g10">
        <g transform="scale(0.1)" id="g12">
            <path id="path14" fill="white" d="m 13627,2430.35 -93.8,-0.4 c -27.9,-0.8 -55.5,-2 -75.6,-5.59 -86.5,-15.46 -128.3,-33.52 -170.2,-53.08 -40.9,-19.16 -82.7,-44.7 -138.8,-94.48 -4.9,-4.34 -12.5,-1.5 -12.5,5.08 l 1,141.07 c 0,4.2 -3.4,7.6 -7.5,7.6 h -277.2 c -36.6,0 -66.2,-30.05 -66.2,-67.13 V 844.672 c 0,-37.07 29.6,-67.133 66.2,-67.133 h 332.7 c 4.1,0 7.5,3.402 7.5,7.602 v 660.899 l -1.5,80.52 c 0,230.94 -10.2,314.38 40.4,388.93 52,76.63 102.4,103.77 168.6,122.92 60.2,17.43 89.5,20.66 172,20.03 13,-0.1 35.8,3.36 46.9,15.17 11,11.72 20.1,28.64 20.5,44.66 l 0.5,297.71 c 0,13.57 -0.4,13.97 -13,14.37" />
            <path id="path16" fill="white" d="m 12293.6,1839.29 c -4.4,-0.01 -6.3,-0.02 -10.6,-0.02 -157.4,0 -314.8,0 -472.2,0 h -358 c -5.3,0 -9,5.41 -7.1,10.34 39.1,100.94 93.2,162.49 145.4,201.1 86.1,63.97 186.3,95.98 300.4,95.98 178.5,0 354.5,-95.36 406.3,-274.84 2.1,-7.19 2.7,-12.15 5,-20.13 1.9,-6.82 -2.1,-12.43 -9.2,-12.43 z m 379.8,80.36 c -16.3,63.18 -39.7,124.72 -71.2,181.92 -144.3,261.98 -440.4,391.52 -730.9,391.52 -242,0 -443.2,-82.23 -603.6,-246.68 -160.5,-164.46 -240.7,-371.15 -240.7,-620.09 0,-242.94 80.5,-445.14 241.4,-606.59 161,-161.46 369.4,-242.191 625.4,-242.191 164.9,0 276.7,29.242 396.7,87.731 95.2,46.429 179.7,112.851 253.5,199.3 29.9,34.93 18.6,88.65 -23,108.17 l -237.2,111.34 c -18.7,8.52 -18.7,0.85 -40.9,-20.46 -70.8,-68.1 -201.3,-126.17 -352.1,-126.17 -128,0 -233.2,34.23 -315.7,102.72 -80.3,66.68 -130.5,155.89 -150.6,267.63 -0.9,4.67 2.8,9.05 7.5,9.05 h 1206.8 c 38.5,0 69.3,31.23 69.4,69.64 0.1,112.05 -6.6,224.18 -34.8,333.16" />
            <path id="path18" fill="white" d="m 10768.9,2292.75 c -35.7,36.54 -78.5,66.5 -122.8,92.13 -194.9,112.83 -465.5,99.78 -658.97,-21.67 -18.37,-10.73 -37.79,-24.62 -61.6,-44.48 l 0.2,0.06 c -1.16,-0.97 -2.37,-1.88 -3.52,-2.86 -4.83,-4.1 -12.18,-0.8 -12.18,5.53 v 709.99 c 0,4.14 -3.36,7.5 -7.5,7.5 H 9569.9 c -36.6,0 -66.26,-29.66 -66.26,-66.26 V 843.801 c 0,-36.59 29.66,-66.262 66.26,-66.262 h 332.63 c 4.14,0 7.5,3.359 7.5,7.5 v 647.831 c 0,54.62 0.5,109.25 2.31,163.84 3.68,110.73 11.67,226.99 70.12,324.31 34.04,56.62 83.94,104.44 144.34,131.14 69.2,30.57 149.9,32.06 221.5,7.8 46.9,-15.89 90.7,-42.99 121.7,-81.62 31.8,-39.71 48.6,-89.57 57.4,-139.69 19.8,-112.85 18.5,-231.55 18.5,-345.79 V 785.039 c 0,-4.141 3.3,-7.5 7.5,-7.5 h 329.6 c 36.6,0 66.3,29.672 66.3,66.262 V 1855.76 c 0,187.95 -85.4,340.01 -180.4,436.99" />
            <path id="path20" fill="white" d="m 9436.9,2432.42 h -242.11 v 608.4 c 0,0.47 -0.37,0.84 -0.83,0.84 h -339.23 c -38.29,0 -69.33,-31.45 -69.33,-70.24 v -543.2 h -120.2 c -38.74,0 -70.15,-31.82 -70.15,-71.07 v -274.06 c 0,-2.19 1.75,-3.96 3.91,-3.96 H 8785.4 V 878.809 c 0,-54.899 43.93,-99.399 98.12,-99.399 h 311.27 v 1295.97 h 176.68 c 36.6,0 66.26,30.05 66.26,67.13 v 289.06 c 0,0.47 -0.37,0.85 -0.83,0.85" />
            <path id="path22" fill="white" d="m 8404.93,2292.75 c -35.79,36.54 -78.58,66.5 -122.85,92.13 -194.84,112.8 -465.41,99.78 -658.82,-21.59 -18.42,-10.74 -37.88,-24.65 -61.75,-44.56 l 0.27,0.07 c -1.8,-1.5 -3.67,-2.93 -5.45,-4.46 -4.09,-3.49 -10.32,-0.7 -10.32,4.68 v 130.02 c 0,3.53 -2.85,6.39 -6.38,6.39 h -333.75 c -36.59,0 -66.26,-29.67 -66.26,-66.27 V 843.801 c 0,-36.59 29.67,-66.262 66.26,-66.262 h 333.75 c 3.53,0 6.38,2.859 6.38,6.383 v 648.948 c 0,54.62 0.51,109.25 2.32,163.84 3.67,110.73 11.67,226.99 70.11,324.31 34.01,56.62 83.97,104.44 144.37,131.14 69.15,30.57 149.89,32.05 221.49,7.8 46.88,-15.89 90.71,-42.99 121.66,-81.62 31.81,-39.72 48.64,-89.57 57.44,-139.69 19.81,-112.86 18.45,-231.55 18.45,-345.8 V 783.922 c 0,-3.524 2.86,-6.383 6.38,-6.383 h 330.75 c 36.6,0 66.26,29.672 66.26,66.262 V 1855.76 c 0,187.95 -85.34,340.01 -180.31,436.99" />
            <path id="path24" fill="white" d="m 6614.76,1598.14 c -5.79,-144.26 -49.46,-251.2 -134.15,-340.67 -70.25,-74.23 -173.71,-123.85 -274.14,-136.5 -144.49,-18.2 -286.76,19.3 -388.81,121.35 -108.84,108.84 -139.36,220.12 -139.36,356 0,139.96 52.18,282.18 135.87,371.66 83.7,89.46 211.12,134.69 337.69,134.69 129.52,0 257.49,-56.97 342.18,-144.94 84.68,-87.98 126.4,-219.75 120.72,-361.59 z m 330.92,854.29 h -335.63 c -2.92,-2.91 -4.59,-4.58 -7.51,-7.5 l 0.01,-122.63 c 0,-6.59 -7.93,-9.83 -12.55,-5.13 -1.78,1.8 -3.72,3.5 -5.55,5.26 l 0.32,-0.09 c -1.46,1.4 -3.04,2.71 -4.53,4.08 -1.91,1.75 -3.82,3.5 -5.79,5.21 -2.75,2.4 -5.57,4.72 -8.42,7.02 -1.78,1.43 -3.54,2.87 -5.35,4.27 -3.12,2.41 -6.31,4.74 -9.53,7.04 -1.8,1.29 -3.58,2.59 -5.41,3.85 -2.83,1.94 -5.72,3.82 -8.61,5.69 -2.66,1.73 -5.32,3.46 -8.03,5.13 -1.28,0.78 -2.58,1.53 -3.87,2.3 -63.2,37.94 -139.09,60.85 -195.34,70.23 -28.48,5.93 -58.35,10.43 -92.95,13.48 -36.17,3.78 -69.86,4.76 -126.45,4.76 -212.72,0 -415.14,-84.78 -563.93,-245.73 -148.79,-160.97 -223.18,-367.41 -223.18,-619.34 0,-242.94 71.29,-404.15 225.06,-567.6 153.79,-163.46 336.03,-245.191 546.73,-245.191 93.86,0 189.29,11.231 284.16,41.852 55.91,23.351 135.11,47.789 210.74,118.98 4.72,4.43 12.47,0.981 12.47,-5.5 V 785.039 c 0,-4.141 3.36,-7.5 7.51,-7.5 h 335.63 c 36.59,0 66.26,29.672 66.26,66.262 V 2386.18 c 0,36.59 -29.67,66.25 -66.26,66.25" />
            <path id="path26" fill="white" d="m 4788.82,1259.5 c -96.88,-109.1 -243.63,-160.64 -388.41,-142.59 -100.95,12.58 -211.36,52.68 -285.84,122.31 -90.13,84.27 -145.8,212.14 -145.8,357.11 0,141.95 61.43,273.81 152.11,355.91 88.05,79.72 214.19,123.57 343.15,123.57 127.96,0 233.94,-44.75 317.92,-134.22 83.98,-89.48 125.97,-204.2 125.97,-344.16 0,-135.86 -39.7,-248.51 -119.1,-337.93 z m 256.67,950.17 c -148.97,160.95 -329.92,241.44 -542.86,241.44 -97.99,0 -189.96,-18.51 -275.93,-55.49 -79.76,-34.32 -154.35,-84.54 -223.77,-150.68 -6.11,-5.81 -16.17,-1.64 -16.17,6.79 v 149.82 c 0,4.18 -3.38,7.57 -7.56,7.57 h -332.57 c -36.6,0 -66.26,-29.67 -66.26,-66.26 V 581.988 246.961 c 0,-36.602 29.66,-66.262 66.26,-66.262 h 332.57 c 4.18,0 7.56,3.383 7.56,7.563 v 739.699 c 0,8.059 9.43,12.488 15.61,7.32 76.55,-63.941 135.39,-91.449 212.77,-118.332 81.28,-28.23 179.66,-39.41 273.64,-39.41 210.94,0 393.39,81.731 547.36,245.191 153.95,163.45 232.79,324.66 232.79,567.6 0,251.93 -74.49,458.37 -223.44,619.34" />
            <path id="path28" fill="white" d="m 3184.83,2607.56 c -1.49,32.04 -9.11,193.32 -13.19,221.87 -6,41.98 -35.26,69.59 -59.48,81.12 -10.58,5.55 -78.6,41.07 -136.93,67.92 -24.94,11.48 -49.14,17.3 -71.92,17.3 -32.64,0 -58.1,-12.16 -73.83,-25.77 -38.59,-24.21 -295.74,-185.52 -324.96,-203.22 -8.92,-5.4 -17.35,-6.21 -21.58,-6.21 -0.04,0 -0.07,0 -0.1,0 l -874.16,266.51 -874.149,-266.51 c -0.035,0 -0.066,0 -0.101,0 -4.231,0 -12.664,0.81 -21.586,6.21 -29.211,17.7 -286.336,178.99 -324.957,203.22 -15.723,13.61 -41.184,25.77 -73.824,25.77 -22.786,0 -46.985,-5.82 -71.926,-17.3 -58.332,-26.85 -126.364,-62.38 -136.934,-67.93 -24.2186,-11.52 -53.4803,-39.13 -59.4764,-81.11 -4.0782,-28.55 -11.6993,-189.83 -13.1875,-221.87 l -0.0586,-1.32 v -1.32 c 0,-7.94 1.6679,-24.6 12.8437,-46.96 6.8946,-13.78 216.5778,-400.94 258.5428,-478.41 l 0.363,-0.67 c 0.821,-2.13 4.055,-11.98 1.95,-30.5 -4.684,-41.22 -86.719,-649.23 -90.961,-680.67 -4.641,-27.19 0.773,-66.66 31.183,-91.37 16.082,-13.06 405.508,-284.668 524.481,-367.61 0,0 21.152,-12.781 25.871,-23.691 14.34,-33.148 235.526,-545.328 256.076,-592.918 9.68,-30.859 40.35,-67.23 99.24,-77.152 47.95,-8.078 432.13,-63.578 448.46,-65.938 l 4.06,-0.59 h 4.09 v 0 c 5.07,0 5.08,0.008 213.86,30.438 140.83,20.543 222.5,32.68 242.76,36.09 58.88,9.922 89.55,46.293 99.24,77.152 20.52,47.527 241.73,559.77 256.07,592.918 4.77,11.031 13.54,16.691 16.15,18.18 0,0 518.12,360.061 534.2,373.121 30.41,24.71 35.83,64.18 31.19,91.37 -4.25,31.44 -86.28,639.45 -90.96,680.67 -2.11,18.52 1.12,28.37 1.95,30.5 l 0.36,0.67 c 41.97,77.47 251.65,464.63 258.54,478.41 11.18,22.36 12.85,39.02 12.85,46.96 v 1.32 l -0.06,1.32" />
        </g>
    </g>
</svg>