<svg width="50" height="49" viewBox="0 0 50 49" fill="none" xmlns="http://www.w3.org/2000/svg">
<path d="M47.7045 19.688C46.617 16.0752 43.1435 14.6307 39.77 16.4995C38.4181 17.3115 37.321 18.4355 36.125 19.5008C36.057 17.679 36.631 15.8993 34.1356 15.9287C32.435 15.864 32.3235 15.9904 32.092 17.9014C31.1956 25.3103 30.2066 32.7097 29.412 40.1299C29.376 40.4719 29.6891 41.1446 29.8931 41.1656C30.926 41.271 31.9825 41.271 33.0166 41.1685C33.2756 41.1426 33.636 40.6242 33.687 40.2934C34.012 38.1889 34.2631 36.0731 34.5516 33.8597C43.0641 39.4996 50.0745 26.7872 47.7045 19.688V19.688ZM40.9831 30.4753C39.607 31.8871 37.6241 32.2238 35.972 31.2809C35.5375 31.0331 35.0441 30.3891 35.065 29.9495C35.16 26.1265 36.3766 22.0136 39.7995 19.7664C41.3535 18.8158 42.8606 19.4337 43.357 21.1536C43.5675 21.8821 43.5931 22.6618 43.6591 23.114C43.5116 26.0565 42.897 28.512 40.9831 30.4753V30.4753ZM12.4296 16.3736C11.3071 16.3962 10.1841 16.3795 9.05856 16.3795C9.17856 12.5805 9.88806 11.7735 13.3861 11.3859C14.8971 11.2183 14.5021 9.98549 14.7211 9.12113C14.9651 8.15681 14.0861 8.24501 13.5661 8.13672C8.49356 7.21601 4.96206 11.2507 4.60356 16.258C1.94606 16.5784 1.88706 16.6127 1.83106 18.0288C1.76906 19.5939 3.10706 19.3543 4.20856 19.7296C3.46506 26.0261 2.66206 32.2574 1.95106 38.5476C1.91406 38.8763 2.19906 39.4937 2.44856 39.5595C4.28106 40.0397 5.55856 39.3383 5.98256 37.5078C7.38306 31.5857 7.89356 25.7051 8.66556 19.6159C9.84306 19.6159 10.9251 19.589 12.0051 19.6257C12.7036 19.6493 13.0621 19.4121 13.0956 18.6992C13.0806 17.872 13.8861 16.2962 12.4296 16.3736V16.3736ZM17.8541 7.75697C16.4881 7.72316 16.4156 8.46796 16.3021 9.4019C15.2576 18.0602 14.1851 26.4166 13.1886 35.1323C14.3426 35.1323 15.3331 35.0903 16.3171 35.145C17.2111 35.195 17.6131 34.9588 17.7286 33.9804C18.6396 26.2672 19.6311 18.5629 20.5676 10.8523C20.9431 7.75893 20.9066 7.83292 17.8541 7.75697V7.75697ZM25.3431 16.109C24.3941 16.0889 23.95 16.3236 23.845 17.3414C23.1856 23.3709 22.4181 28.9653 21.6991 35.0892C22.817 35.0892 23.6906 35.0029 24.5391 35.1092C25.8731 35.2758 26.231 34.6787 26.3635 33.4824C26.8945 28.6937 27.5856 23.9211 28.0891 19.1294C28.4491 15.7013 29.2516 16.1908 25.3431 16.109V16.109ZM26.766 8.19454C25.3041 8.17592 23.962 9.495 23.931 10.9831C23.9 12.458 25.201 13.8506 26.6481 13.8903C28.1516 13.9315 29.5385 12.555 29.5375 11.0218C29.5366 9.50627 28.27 8.21414 26.766 8.19454V8.19454Z" fill="white"/>
</svg>
