<svg width="81" height="30" viewBox="0 0 81 30" fill="none" xmlns="http://www.w3.org/2000/svg">
<path d="M2.12608 23.9944L2.82383 29.7091H27.2525L26.4531 23.1644H15.0628L14.9633 22.3535L25.4536 14.9841L24.7528 9.25879H0.326172L1.12555 15.8024H12.5347L12.6343 16.6208L2.12608 23.9944Z" fill="white"/>
<path d="M27.5908 9.25879L30.0895 29.7091H54.536L52.0373 9.25879H27.5908Z" fill="white"/>
<path d="M80.1717 16.6209C79.608 12.0246 76.0166 9.23888 71.1344 9.2589H54.8734L57.3711 29.7103H64.687L64.1862 25.6196H71.9275C78.0197 25.6185 80.8076 21.8027 80.1717 16.6209ZM71.1365 19.8859L63.4885 19.8943L62.8892 14.9863L70.5802 14.9926C72.3885 15.0147 73.3136 16.0385 73.4634 17.4392C73.5556 18.3408 73.1449 19.8848 71.1365 19.8848V19.8859Z" fill="white"/>
<path d="M34.8946 6.54173C36.1813 5.15321 35.957 2.84086 34.3937 1.37697C32.8305 -0.0869263 30.5201 -0.148028 29.2336 1.2405C27.9469 2.62902 28.1712 4.94135 29.7345 6.40525C31.2977 7.86915 33.6081 7.93025 34.8946 6.54173Z" fill="white"/>
</svg>
