<svg width="78" height="31" viewBox="0 0 78 31" fill="none" xmlns="http://www.w3.org/2000/svg">
<g clip-path="url(#clip0_130_1450)">
<path d="M7.08201 12.5138C8.45159 12.5138 9.35646 13.201 9.74778 14.5509L12.6581 13.5692C12.3646 12.4402 11.7532 11.4831 10.775 10.6977C9.79666 9.9123 8.52495 9.49512 7.00864 9.49512C5.24776 9.49512 3.75592 10.1087 2.55754 11.3113C1.35917 12.5384 0.772217 14.06 0.772217 15.9007C0.772217 17.7414 1.35917 19.2631 2.582 20.4903C3.80483 21.7174 5.29668 22.3064 7.10646 22.3064C8.59832 22.3064 9.84562 21.9137 10.8239 21.1038C11.8021 20.3185 12.438 19.3613 12.7315 18.2323L9.87003 17.2751C9.69889 17.8396 9.38094 18.3305 8.94067 18.7232C8.47607 19.1159 7.86466 19.3122 7.10646 19.3122C6.22603 19.3122 5.49234 19.0177 4.90537 18.4041C4.31842 17.7906 4.02494 16.9561 4.02494 15.9007C4.02494 14.87 4.31842 14.0355 4.90537 13.422C5.49234 12.8329 6.20157 12.5138 7.08201 12.5138V12.5138ZM19.6141 19.3368C18.7581 19.3368 18.0243 19.0422 17.4374 18.4286C16.8505 17.8396 16.557 16.9806 16.557 15.9007C16.557 14.8208 16.8505 13.9864 17.4374 13.3728C18.0243 12.7838 18.7581 12.4648 19.6141 12.4648C20.4456 12.4648 21.1793 12.7838 21.7663 13.3728C22.3532 13.9864 22.6711 14.8208 22.6711 15.9007C22.6711 16.9806 22.3532 17.8396 21.7663 18.4286C21.1793 19.0422 20.4456 19.3368 19.6141 19.3368ZM19.6141 9.49512C17.8042 9.49512 16.288 10.1087 15.0896 11.3113C13.8912 12.5384 13.3043 14.06 13.3043 15.9007C13.3043 17.766 13.8912 19.2876 15.0896 20.4903C16.288 21.7174 17.8042 22.3064 19.6141 22.3064C21.4238 22.3064 22.9157 21.7174 24.1141 20.4903C25.3124 19.2876 25.9238 17.766 25.9238 15.9007C25.9238 14.06 25.3124 12.5384 24.1141 11.3113C22.9157 10.1087 21.4238 9.49512 19.6141 9.49512V9.49512ZM30.9493 26.6014V20.7602C31.6586 21.7419 32.808 22.2328 34.4222 22.2328C36.0852 22.2328 37.4548 21.6438 38.5065 20.4411C39.5581 19.2631 40.0961 17.7414 40.0961 15.8762C40.0961 14.0355 39.5825 12.5384 38.6043 11.3603C37.6016 10.1823 36.2564 9.59323 34.5445 9.59323C33.664 9.59323 32.9059 9.76505 32.27 10.1087C31.6097 10.4522 31.145 10.8449 30.8516 11.3358V9.86324H27.6967V26.6014H30.9493V26.6014ZM36.8923 15.9007C36.8923 16.9561 36.5988 17.7906 36.0363 18.4041C35.4738 19.0177 34.7646 19.3122 33.9086 19.3122C33.0281 19.3122 32.319 19.0177 31.7564 18.3796C31.1695 17.766 30.9004 16.9316 30.9004 15.9007C30.9004 14.87 31.1695 14.06 31.7564 13.4465C32.319 12.8329 33.0281 12.5138 33.9086 12.5138C34.7646 12.5138 35.4738 12.8329 36.0363 13.422C36.5988 14.0355 36.8923 14.87 36.8923 15.9007V15.9007ZM46.0343 26.6996L53.5913 9.86324H50.1185L47.1593 16.9316L43.9555 9.86324H40.3114L45.4229 20.4166L42.5859 26.6996H46.0343V26.6996Z" fill="white"/>
<path d="M7.08201 12.5138C8.45159 12.5138 9.35646 13.201 9.74778 14.5509L12.6581 13.5692C12.3646 12.4402 11.7532 11.4831 10.775 10.6977C9.79666 9.9123 8.52495 9.49512 7.00864 9.49512C5.24776 9.49512 3.75592 10.1087 2.55754 11.3113C1.35917 12.5384 0.772217 14.06 0.772217 15.9007C0.772217 17.7414 1.35917 19.2631 2.582 20.4903C3.80483 21.7174 5.29668 22.3064 7.10646 22.3064C8.59832 22.3064 9.84562 21.9137 10.8239 21.1038C11.8021 20.3185 12.438 19.3613 12.7315 18.2323L9.87003 17.2751C9.69889 17.8396 9.38094 18.3305 8.94067 18.7232C8.47607 19.1159 7.86466 19.3122 7.10646 19.3122C6.22603 19.3122 5.49234 19.0177 4.90537 18.4041C4.31842 17.7906 4.02494 16.9561 4.02494 15.9007C4.02494 14.87 4.31842 14.0355 4.90537 13.422C5.49234 12.8329 6.20157 12.5138 7.08201 12.5138V12.5138ZM19.6141 19.3368C18.7581 19.3368 18.0243 19.0422 17.4374 18.4286C16.8505 17.8396 16.557 16.9806 16.557 15.9007C16.557 14.8208 16.8505 13.9864 17.4374 13.3728C18.0243 12.7838 18.7581 12.4648 19.6141 12.4648C20.4456 12.4648 21.1793 12.7838 21.7663 13.3728C22.3532 13.9864 22.6711 14.8208 22.6711 15.9007C22.6711 16.9806 22.3532 17.8396 21.7663 18.4286C21.1793 19.0422 20.4456 19.3368 19.6141 19.3368ZM19.6141 9.49512C17.8042 9.49512 16.288 10.1087 15.0896 11.3113C13.8912 12.5384 13.3043 14.06 13.3043 15.9007C13.3043 17.766 13.8912 19.2876 15.0896 20.4903C16.288 21.7174 17.8042 22.3064 19.6141 22.3064C21.4238 22.3064 22.9157 21.7174 24.1141 20.4903C25.3124 19.2876 25.9238 17.766 25.9238 15.9007C25.9238 14.06 25.3124 12.5384 24.1141 11.3113C22.9157 10.1087 21.4238 9.49512 19.6141 9.49512V9.49512ZM30.9493 26.6014V20.7602C31.6586 21.7419 32.808 22.2328 34.4222 22.2328C36.0852 22.2328 37.4548 21.6438 38.5065 20.4411C39.5581 19.2631 40.0961 17.7414 40.0961 15.8762C40.0961 14.0355 39.5825 12.5384 38.6043 11.3603C37.6016 10.1823 36.2564 9.59323 34.5445 9.59323C33.664 9.59323 32.9059 9.76505 32.27 10.1087C31.6097 10.4522 31.145 10.8449 30.8516 11.3358V9.86324H27.6967V26.6014H30.9493V26.6014ZM36.8923 15.9007C36.8923 16.9561 36.5988 17.7906 36.0363 18.4041C35.4738 19.0177 34.7646 19.3122 33.9086 19.3122C33.0281 19.3122 32.319 19.0177 31.7564 18.3796C31.1695 17.766 30.9004 16.9316 30.9004 15.9007C30.9004 14.87 31.1695 14.06 31.7564 13.4465C32.319 12.8329 33.0281 12.5138 33.9086 12.5138C34.7646 12.5138 35.4738 12.8329 36.0363 13.422C36.5988 14.0355 36.8923 14.87 36.8923 15.9007V15.9007ZM46.0343 26.6996L53.5913 9.86324H50.1185L47.1593 16.9316L43.9555 9.86324H40.3114L45.4229 20.4166L42.5859 26.6996H46.0343V26.6996Z" fill="white"/>
<path d="M54.7262 19.7056C54.7262 20.3969 54.9647 20.9553 55.4416 21.4339C55.9185 21.9124 56.4749 22.1252 57.1372 22.1252C57.7996 22.1252 58.3825 21.9124 58.8593 21.4339C59.3363 20.9553 59.5747 20.3969 59.5747 19.7056C59.5747 19.041 59.3363 18.4826 58.8593 18.004C58.3825 17.5255 57.7996 17.2861 57.1372 17.2861C56.4749 17.2861 55.9185 17.5255 55.4416 18.004C54.9647 18.4826 54.7262 19.041 54.7262 19.7056Z" fill="white"/>
<path d="M54.7262 19.7056C54.7262 20.3969 54.9647 20.9553 55.4416 21.4339C55.9185 21.9124 56.4749 22.1252 57.1372 22.1252C57.7996 22.1252 58.3825 21.9124 58.8593 21.4339C59.3363 20.9553 59.5747 20.3969 59.5747 19.7056C59.5747 19.041 59.3363 18.4826 58.8593 18.004C58.3825 17.5255 57.7996 17.2861 57.1372 17.2861C56.4749 17.2861 55.9185 17.5255 55.4416 18.004C54.9647 18.4826 54.7262 19.041 54.7262 19.7056Z" fill="white"/>
<path d="M61.4001 18.6498C61.4001 19.6314 61.767 20.4905 62.5251 21.2022C63.2833 21.9385 64.286 22.2821 65.5333 22.2821C67.123 22.2821 68.2969 21.693 69.0795 20.4905C69.0795 21.104 69.1039 21.5949 69.2018 21.9385H72.1855C72.0876 21.3985 72.0387 20.7605 72.0387 20.0241V14.0848C72.0387 12.7595 71.5985 11.6551 70.767 10.7961C69.911 9.93705 68.5904 9.4953 66.805 9.4953C65.2887 9.4953 64.0904 9.91256 63.1854 10.6979C62.2561 11.5078 61.7425 12.4405 61.6446 13.4712L64.5306 14.0848C64.5795 13.5448 64.7996 13.0785 65.1909 12.6859C65.5822 12.3177 66.1447 12.1214 66.8295 12.1214C67.4654 12.1214 67.9789 12.2686 68.3213 12.5631C68.6637 12.8576 68.8593 13.2503 68.8593 13.6921C68.8593 14.183 68.5415 14.4775 67.9545 14.5511L64.9952 14.9929C63.9192 15.1647 63.0632 15.5573 62.4029 16.1709C61.7181 16.8091 61.4001 17.6189 61.4001 18.6498V18.6498ZM66.2181 19.8523C65.7289 19.8523 65.3376 19.7296 65.0686 19.4596C64.7752 19.1897 64.6528 18.8461 64.6528 18.4534C64.6528 17.5944 65.142 17.079 66.1447 16.9317L68.8593 16.5146V17.0545C68.8593 18.0608 68.5904 18.7724 68.1012 19.2143C67.6121 19.656 66.9762 19.8523 66.2181 19.8523ZM77.7752 21.9385V9.86342H74.5226V21.9385H77.7752ZM74.1313 5.91205C74.1313 6.45199 74.3269 6.91831 74.7182 7.31099C75.1095 7.70368 75.5742 7.90004 76.1367 7.90004C76.6748 7.90004 77.1639 7.70368 77.5551 7.31099C77.9467 6.91831 78.142 6.45199 78.142 5.91205C78.142 5.34757 77.9467 4.85672 77.5551 4.46403C77.1639 4.07134 76.6748 3.875 76.1367 3.875C75.5742 3.875 75.1095 4.09588 74.7182 4.48857C74.3269 4.88125 74.1313 5.37211 74.1313 5.91205Z" fill="white"/>
<path d="M61.4001 18.6498C61.4001 19.6314 61.767 20.4905 62.5251 21.2022C63.2833 21.9385 64.286 22.2821 65.5333 22.2821C67.123 22.2821 68.2969 21.693 69.0795 20.4905C69.0795 21.104 69.1039 21.5949 69.2018 21.9385H72.1855C72.0876 21.3985 72.0387 20.7605 72.0387 20.0241V14.0848C72.0387 12.7595 71.5985 11.6551 70.767 10.7961C69.911 9.93705 68.5904 9.4953 66.805 9.4953C65.2887 9.4953 64.0904 9.91256 63.1854 10.6979C62.2561 11.5078 61.7425 12.4405 61.6446 13.4712L64.5306 14.0848C64.5795 13.5448 64.7996 13.0785 65.1909 12.6859C65.5822 12.3177 66.1447 12.1214 66.8295 12.1214C67.4654 12.1214 67.9789 12.2686 68.3213 12.5631C68.6637 12.8576 68.8593 13.2503 68.8593 13.6921C68.8593 14.183 68.5415 14.4775 67.9545 14.5511L64.9952 14.9929C63.9192 15.1647 63.0632 15.5573 62.4029 16.1709C61.7181 16.8091 61.4001 17.6189 61.4001 18.6498V18.6498ZM66.2181 19.8523C65.7289 19.8523 65.3376 19.7296 65.0686 19.4596C64.7752 19.1897 64.6528 18.8461 64.6528 18.4534C64.6528 17.5944 65.142 17.079 66.1447 16.9317L68.8593 16.5146V17.0545C68.8593 18.0608 68.5904 18.7724 68.1012 19.2143C67.6121 19.656 66.9762 19.8523 66.2181 19.8523ZM77.7752 21.9385V9.86342H74.5226V21.9385H77.7752ZM74.1313 5.91205C74.1313 6.45199 74.3269 6.91831 74.7182 7.31099C75.1095 7.70368 75.5742 7.90004 76.1367 7.90004C76.6748 7.90004 77.1639 7.70368 77.5551 7.31099C77.9467 6.91831 78.142 6.45199 78.142 5.91205C78.142 5.34757 77.9467 4.85672 77.5551 4.46403C77.1639 4.07134 76.6748 3.875 76.1367 3.875C75.5742 3.875 75.1095 4.09588 74.7182 4.48857C74.3269 4.88125 74.1313 5.37211 74.1313 5.91205Z" fill="white"/>
</g>
<defs>
<clipPath id="clip0_130_1450">
<rect width="78" height="31" fill="white"/>
</clipPath>
</defs>
</svg>
