<svg width="78" height="31" viewBox="0 0 78 31" fill="none" xmlns="http://www.w3.org/2000/svg">
<path d="M0.467963 17.0921C0.467967 15.7251 0.455398 14.4416 0.470803 13.1586C0.496499 11.0183 1.55763 9.52081 3.2323 8.59196C4.97271 7.62664 6.73428 7.84989 8.35057 9.06063C10.9803 11.0305 11.253 15.0163 8.7235 17.5629C9.86635 18.7612 10.5949 20.1562 10.4568 21.9487C10.3963 22.735 9.93143 23.2966 9.27601 23.2917C8.61642 23.2868 8.11089 22.7343 8.11797 21.9371C8.13749 19.739 6.70829 18.8585 5.05853 18.7458C4.322 18.6955 3.59952 18.4077 2.80791 18.2122C2.80791 19.3632 2.81198 20.5798 2.80659 21.7964C2.8025 22.7228 2.3338 23.3054 1.61877 23.2916C0.911734 23.278 0.468558 22.6965 0.468146 21.7789C0.467457 20.2446 0.467961 18.7102 0.467963 17.0921ZM5.38714 16.2543C7.07232 16.2525 8.10376 14.885 8.1023 13.4832C8.10047 11.728 6.9162 10.6133 5.40087 10.5838C4.06531 10.5579 2.89119 11.6841 2.81807 13.3563C2.7589 14.7095 3.6836 16.1446 5.38714 16.2543Z" fill="white"/>
<path d="M70.356 19.108C70.3055 18.3706 70.3039 17.7062 70.193 17.0636C70.0272 16.1036 69.601 15.7112 68.9134 15.7525C68.2963 15.7895 67.721 16.5476 67.7089 17.407C67.6904 18.7179 67.7043 20.0293 67.704 21.3405C67.7039 21.5358 67.7352 21.7397 67.6941 21.9248C67.4776 22.8998 66.8458 23.4 66.32 23.3026C65.7076 23.1891 65.1812 22.5369 65.2165 21.6897C65.2946 19.8196 65.2148 17.9051 65.5724 16.0936C66.1626 13.1046 69.6298 12.3003 71.5297 14.3826C73.5116 12.2788 76.815 13.1706 77.5289 16.0681C77.6829 16.6932 77.8074 17.3427 77.8302 17.9857C77.8764 19.295 77.8458 20.6075 77.8433 21.9187C77.8418 22.7017 77.381 23.2609 76.7205 23.2913C76.0341 23.3228 75.5153 22.7483 75.507 21.9115C75.4954 20.7399 75.5223 19.5677 75.4957 18.3966C75.4839 17.8804 75.4401 17.3479 75.305 16.8563C75.1336 16.2329 74.7813 15.7355 74.0761 15.7537C73.5218 15.7681 72.9017 16.3885 72.8633 17.0882C72.7768 18.6622 72.7385 20.2395 72.6997 21.816C72.6774 22.7204 72.2777 23.2873 71.6108 23.2918C70.8226 23.2971 70.3621 22.7481 70.3569 21.7853C70.3524 20.9205 70.356 20.0556 70.356 19.108Z" fill="white"/>
<path d="M33.2597 14.5285C34.5161 15.6942 34.9144 17.1832 34.9415 18.831C34.9562 19.7234 34.9728 20.6179 34.9309 21.5083C34.9124 21.901 34.8312 22.3417 34.6382 22.6636C34.1128 23.5401 33.6264 23.5113 32.6199 22.6371C30.2578 23.8321 28.5301 23.4762 27.0157 21.8126C24.8871 19.4744 25.1653 16.2907 27.6084 14.2419C28.9811 13.0907 31.5122 12.9971 33.2597 14.5285ZM31.1646 20.5626C32.5466 19.7031 32.6639 18.5164 32.3421 17.4332C32.0625 16.4922 31.3474 15.9643 30.3899 15.9204C29.3743 15.8739 28.6502 16.3538 28.2125 17.3379C27.8812 18.0828 28.089 19.2709 28.6243 19.9491C29.2951 20.799 30.16 20.7236 31.1646 20.5626Z" fill="white"/>
<path d="M11.9617 20.9858C10.2792 18.2927 11.5796 14.3518 14.6089 13.5357C17.677 12.7092 20.2963 15.0859 20.4279 18.0399C20.4775 19.154 20.4336 20.2727 20.4368 21.3892C20.4388 22.0839 20.4886 22.7612 19.7425 23.1549C19.0095 23.5417 18.5953 23.029 18.1349 22.6253C15.4424 24.1968 12.9741 22.6925 11.9617 20.9858ZM13.8696 19.3472C14.3838 20.5587 15.6257 21.0392 16.7607 20.4659C17.9055 19.8876 18.3789 18.4994 17.8566 17.2522C17.4068 16.1779 16.0684 15.6002 15.0792 16.0533C13.7519 16.6613 13.2479 17.9069 13.8696 19.3472Z" fill="white"/>
<path d="M56.0338 21.3959C54.6334 19.2987 54.6869 17.2142 56.0244 15.2167C57.5377 12.9566 60.86 12.8563 62.6091 14.5209C64.9489 16.7476 64.5966 20.1877 62.7727 21.9566C61.0772 23.6009 58.2699 24.0548 56.0338 21.3959ZM60.5338 16.0921C60.4357 16.0692 60.3353 16.0541 60.2398 16.0223C59.1582 15.6628 58.1552 16.1749 57.5938 17.3263C57.1146 18.3094 57.5515 19.705 58.2936 20.2515C59.4051 21.0701 60.8405 20.8017 61.5688 19.5253C62.2182 18.3873 61.953 16.9472 60.5338 16.0921Z" fill="white"/>
<path d="M53.537 14.0248C54.4451 14.6877 54.6103 15.3587 54.1383 16.0844C53.7458 16.6877 53.1328 16.7665 52.3296 16.2481C51.2357 15.5421 49.8607 15.9364 49.1792 17.1515C48.632 18.1273 49.0476 19.8792 50.0411 20.4106C50.8294 20.8324 51.6834 20.8363 52.4687 20.2985C53.1813 19.8106 53.7709 19.9167 54.2305 20.6358C54.6029 21.2183 54.4745 21.8346 53.8384 22.3446C52.1236 23.7195 49.6609 23.5526 48.1161 21.9784C47.1445 20.9882 46.5604 19.8025 46.5397 18.4633C46.5137 16.7737 47.1311 15.2474 48.5099 14.2508C50.1076 13.096 51.7874 13.1006 53.537 14.0248Z" fill="white"/>
<path d="M24.0412 22.5668C23.6954 23.1867 23.233 23.4498 22.647 23.2212C22.0505 22.9885 21.8304 22.4756 21.8329 21.7887C21.8475 17.8558 21.8143 13.9224 21.8732 9.99041C21.8804 9.51083 22.2394 8.85784 22.6191 8.60992C23.0867 8.30461 23.6763 8.56394 24.0107 9.13012C24.1002 9.2816 24.1724 9.47701 24.1727 9.65243C24.1806 13.8364 24.1785 18.0204 24.1718 22.2044C24.1717 22.303 24.0994 22.4015 24.0412 22.5668Z" fill="white"/>
<path d="M38.7692 9.39133C38.8235 13.6245 38.8395 17.8044 38.8384 21.9842C38.8381 22.7615 38.292 23.3172 37.6342 23.2912C37.0074 23.2664 36.5108 22.7246 36.5089 21.9826C36.4989 17.9412 36.4798 13.8994 36.5389 9.85892C36.5453 9.41906 36.9465 8.77827 37.3179 8.60063C37.8807 8.33146 38.4855 8.58091 38.7692 9.39133Z" fill="white"/>
<path d="M40.4042 15.765C40.4041 15.4324 40.4028 15.1812 40.4044 14.9301C40.4097 14.0978 41.0022 13.246 41.578 13.2412C42.266 13.2356 42.8725 13.9565 42.8945 14.8687C42.9186 15.8726 42.9002 16.8777 42.9002 17.8822C42.9003 19.11 42.9023 20.3378 42.8996 21.5656C42.8973 22.5623 42.3408 23.3096 41.6206 23.2917C40.8889 23.2735 40.4061 22.5821 40.4048 21.5389C40.4025 19.6414 40.4042 17.7439 40.4042 15.765Z" fill="white"/>
<path d="M40.4114 10.2413C40.7216 9.80347 40.9642 9.28246 41.3488 9.09148C41.953 8.79141 42.7387 9.30127 42.7941 10.0929C42.8249 10.5326 42.4629 11.1547 42.103 11.4391C41.5874 11.8468 40.9154 11.4969 40.6047 10.8334C40.5257 10.6648 40.4725 10.4822 40.4114 10.2413Z" fill="white"/>
<path d="M46.3291 21.687C46.4027 22.4388 46.1331 23.0053 45.5827 23.2449C45.0608 23.4721 44.5019 23.3011 44.1711 22.7224C43.835 22.1344 43.8894 21.6068 44.3783 21.1054C44.8561 20.6155 45.3358 20.6397 45.8258 21.002C46.0286 21.1519 46.162 21.4102 46.3291 21.687Z" fill="white"/>
</svg>
