<svg width="89" height="27" viewBox="0 0 89 27" fill="none" xmlns="http://www.w3.org/2000/svg">
<path d="M84.9769 12.5817L81.3805 20.7685H83.1275L84.9427 16.4861L84.994 16.3602L85.7906 18.2315L86.2152 19.2751L86.8256 20.7685H88.5896L84.9769 12.5817V12.5817ZM47.6081 13.3554C47.2689 13.0854 46.8619 12.8695 46.4208 12.7615C45.9798 12.6535 45.2504 12.5817 44.1817 12.5817H42.3667V20.7685H44.5041C45.3861 20.7685 46.0307 20.7145 46.4547 20.5886C46.8958 20.4626 47.2859 20.2647 47.6251 19.9948C48.0662 19.635 48.4224 19.1492 48.6429 18.5913C48.8634 18.0335 48.9822 17.3859 48.9822 16.6841C48.9822 15.9643 48.8634 15.3166 48.6429 14.7588C48.4054 14.201 48.0662 13.7152 47.6081 13.3554V13.3554ZM47.1163 17.8716C46.9975 18.1955 46.811 18.4834 46.5565 18.6993C46.3869 18.8613 46.1663 18.9692 45.929 19.0412C45.6745 19.1132 45.2843 19.1492 44.7584 19.1492H44.0122V14.201H44.6397C45.2335 14.201 45.6574 14.237 45.929 14.309C46.1833 14.381 46.4038 14.4889 46.5735 14.6509C46.811 14.8668 46.9975 15.1546 47.1333 15.4785C47.235 15.8204 47.3028 16.2163 47.3028 16.6661C47.3028 17.1159 47.235 17.5297 47.1163 17.8716V17.8716ZM54.427 20.7685H58.9222V19.1671H56.0555V17.1699H58.9222V15.5865H56.0555V14.1291H58.9222V12.5817H54.427V20.7685V20.7685ZM66.0127 19.1671V14.1291L64.3673 12.5817V20.7685H68.8623L67.9802 19.1671H66.0127V19.1671ZM72.068 12.5817L72.0852 14.1291H74.3072V20.7685H75.9355V14.1291H78.1071L78.09 12.5817H72.068V12.5817ZM46.6072 7.81335H47.8794V8.94693H48.2866V6.22998H47.8794V7.4175H46.6072V6.22998H46.2001V8.94693H46.6072V7.81335ZM42.3667 6.60785H43.1471V8.94693H43.5711V6.60785H44.3344V6.22998H42.3667V6.60785ZM50.4919 8.94693H51.9167V8.55108H50.899V7.66944H51.9167V7.29156H50.899V6.60785H51.9167V6.22998H50.4919V8.94693V8.94693Z" fill="white"/>
<path d="M84.9769 12.5817L81.3805 20.7685H83.1275L84.9427 16.4861L84.994 16.3602L85.7906 18.2315L86.2152 19.2751L86.8256 20.7685H88.5896L84.9769 12.5817V12.5817ZM47.6081 13.3554C47.2689 13.0854 46.8619 12.8695 46.4208 12.7615C45.9798 12.6535 45.2504 12.5817 44.1817 12.5817H42.3667V20.7685H44.5041C45.3861 20.7685 46.0307 20.7145 46.4547 20.5886C46.8958 20.4626 47.2859 20.2647 47.6251 19.9948C48.0662 19.635 48.4224 19.1492 48.6429 18.5913C48.8634 18.0335 48.9822 17.3859 48.9822 16.6841C48.9822 15.9643 48.8634 15.3166 48.6429 14.7588C48.4054 14.201 48.0662 13.7152 47.6081 13.3554V13.3554ZM47.1163 17.8716C46.9975 18.1955 46.811 18.4834 46.5565 18.6993C46.3869 18.8613 46.1663 18.9692 45.929 19.0412C45.6745 19.1132 45.2843 19.1492 44.7584 19.1492H44.0122V14.201H44.6397C45.2335 14.201 45.6574 14.237 45.929 14.309C46.1833 14.381 46.4038 14.4889 46.5735 14.6509C46.811 14.8668 46.9975 15.1546 47.1333 15.4785C47.235 15.8204 47.3028 16.2163 47.3028 16.6661C47.3028 17.1159 47.235 17.5297 47.1163 17.8716V17.8716ZM54.427 20.7685H58.9222V19.1671H56.0555V17.1699H58.9222V15.5865H56.0555V14.1291H58.9222V12.5817H54.427V20.7685V20.7685ZM66.0127 19.1671V14.1291L64.3673 12.5817V20.7685H68.8623L67.9802 19.1671H66.0127V19.1671ZM72.068 12.5817L72.0852 14.1291H74.3072V20.7685H75.9355V14.1291H78.1071L78.09 12.5817H72.068V12.5817ZM46.6072 7.81335H47.8794V8.94693H48.2866V6.22998H47.8794V7.4175H46.6072V6.22998H46.2001V8.94693H46.6072V7.81335ZM42.3667 6.60785H43.1471V8.94693H43.5711V6.60785H44.3344V6.22998H42.3667V6.60785ZM50.4919 8.94693H51.9167V8.55108H50.899V7.66944H51.9167V7.29156H50.899V6.60785H51.9167V6.22998H50.4919V8.94693V8.94693Z" fill="white"/>
<path fill-rule="evenodd" clip-rule="evenodd" d="M16.2389 19.9326H6.791L16.9489 2.35578L15.5975 0L2.71413 22.2885H17.6016L16.2389 19.9326ZM17.1778 16.8335L21.69 24.6441H1.36278L0 27L25.7668 26.9885L18.5406 14.4777L17.1778 16.8335V16.8335ZM11.2916 17.5654L18.5177 5.06607L31.2064 26.9772H28.4809L18.5177 9.77767L14.017 17.5654H11.2916V17.5654Z" fill="white"/>
<path fill-rule="evenodd" clip-rule="evenodd" d="M16.2389 19.9326H6.791L16.9489 2.35578L15.5975 0L2.71413 22.2885H17.6016L16.2389 19.9326ZM17.1778 16.8335L21.69 24.6441H1.36278L0 27L25.7668 26.9885L18.5406 14.4777L17.1778 16.8335V16.8335ZM11.2916 17.5654L18.5177 5.06607L31.2064 26.9772H28.4809L18.5177 9.77767L14.017 17.5654H11.2916V17.5654Z" fill="white"/>
</svg>
