<svg width="128" height="19" viewBox="0 0 128 19" fill="none" xmlns="http://www.w3.org/2000/svg">
<path d="M66.2468 2.30714L65.9745 1.49286L66.2468 0.0678571L66.1106 0L62.366 3.12143V3.18929L66.2468 2.30714Z" fill="white"/>
<path d="M9.05532 17.0998C8.71872 17.4439 8.31635 17.7172 7.87198 17.9037C7.42761 18.0902 6.95024 18.186 6.46808 18.1855C3.47234 18.1855 2.7234 15.5391 2.7234 12.4177C2.7234 9.29626 3.40425 6.64983 6.4 6.64983C6.86373 6.63861 7.32417 6.73018 7.74805 6.91794C8.17194 7.10571 8.54868 7.38497 8.85106 7.73555L10.5532 10.3141H10.6894V6.44626H10.5532L8.98723 7.26055C8.26429 6.64958 7.34786 6.31307 6.4 6.31055C3.47234 6.31055 0 8.54983 0 12.4855C0 16.4213 3.40426 18.6605 6.46808 18.6605C7.46821 18.6535 8.43334 18.2928 9.19149 17.6427L10.6894 18.5248H10.8255V14.4534H10.6894L9.05532 17.0998Z" fill="white"/>
<path d="M20.2212 6.24268C17.3617 6.24268 13.9574 8.68553 13.9574 12.4177C13.9574 16.1498 17.3617 18.5927 20.2212 18.5927C23.0808 18.5927 26.4851 16.1498 26.4851 12.4177C26.4851 8.68553 23.1489 6.24268 20.2212 6.24268ZM20.2212 18.1855C17.3617 18.1855 16.6127 15.6748 16.6127 12.4177C16.6127 9.16053 17.3617 6.64982 20.2212 6.64982C23.0808 6.64982 23.8297 9.16053 23.8297 12.4177C23.8297 15.6748 23.1489 18.1855 20.2212 18.1855Z" fill="white"/>
<path d="M37.3106 6.78557H38.8085V14.2499H38.7404L33.4298 6.44629H28.6638V6.78557H30.0936V18.0499H28.6638V18.3891H32.0681V18.0499H30.5702V6.78557L39.1489 18.5927H39.2851V6.78557H40.7149V6.44629H37.3106V6.78557Z" fill="white"/>
<path d="M48.6808 6.44629H43.3021V6.78557H44.8681V18.0499H43.3021V18.3891H48.6808C51.3362 18.3891 55.7617 17.2356 55.7617 12.3499C55.7617 7.46415 51.3362 6.44629 48.6808 6.44629ZM48.5447 18.0499H47.2511V6.78557H48.5447C51.6766 6.78557 53.1064 9.02486 53.1064 12.4177C53.1064 15.8106 51.6766 18.0499 48.5447 18.0499Z" fill="white"/>
<path d="M66.4511 18.0499H61.9575V12.1463H64.2043C64.8456 12.8278 65.3742 13.6066 65.7702 14.4534H65.9064V9.49986H65.7702C65.3742 10.3467 64.8456 11.1255 64.2043 11.807H61.9575V6.78557H65.9745C67.132 7.532 68.1532 9.63557 68.1532 9.63557H68.2894V6.44629H58.0085V6.78557H59.5745V18.0499H58.0085V18.3891H68.6298V14.3856H68.4937C68.0015 15.7024 67.3129 16.9377 66.4511 18.0499Z" fill="white"/>
<path d="M84.834 6.78557H86.3319V14.2499H86.2638L80.9532 6.44629H76.1191V6.78557H77.617V18.0499H76.1191V18.3891H79.5234V18.0499H78.0936V6.78557L86.6723 18.5927H86.7404V6.78557H88.2383V6.44629H84.834V6.78557Z" fill="white"/>
<path d="M95.9319 6.03906H95.7957L90.6893 17.9819H89.2595V18.3212H92.4595V17.9819H91.0978L92.9361 13.7069H96.817L98.7914 17.9819H97.2255V18.3212H102.808V17.9819H101.379L95.9319 6.03906ZM93.1404 13.4355L94.9106 9.29621L96.7489 13.4355H93.1404V13.4355Z" fill="white"/>
<path d="M111.251 11.4002L108.868 10.5859C107.711 10.1788 106.758 9.63594 106.758 8.48237C106.758 7.3288 107.779 6.58237 109.345 6.58237C109.735 6.54984 110.128 6.60623 110.494 6.7473C110.86 6.88836 111.188 7.11041 111.455 7.39666L113.158 9.97523H113.294V6.17523H113.158L111.592 6.98952C110.969 6.45077 110.169 6.1607 109.345 6.17523C108.86 6.14775 108.374 6.21819 107.917 6.38232C107.46 6.54646 107.041 6.80091 106.685 7.13042C106.328 7.45993 106.043 7.85772 105.845 8.29991C105.647 8.74211 105.54 9.21962 105.532 9.7038C105.532 11.4002 106.758 12.2824 108.051 12.7574L110.434 13.6395C111.728 14.1145 112.545 14.6574 112.545 15.8788C112.545 17.1002 111.728 18.1181 109.685 18.1181C108.693 18.0699 107.741 17.7141 106.962 17.1002L105.192 14.1824H104.987V18.3217H105.192L106.689 17.5074C107.515 18.1317 108.513 18.4871 109.549 18.5252C112.136 18.5252 113.838 16.6931 113.838 14.6574C113.838 12.6217 112.749 11.8752 111.251 11.4002Z" fill="white"/>
<path d="M116.63 6.44629V10.1784H116.766C117.348 8.97675 118.055 7.83952 118.877 6.78557H120.987V18.0499H119.081V18.3891H125.277V18.0499H123.37V6.78557H125.481C126.302 7.83952 127.009 8.97675 127.591 10.1784H127.728V6.51415H116.63V6.44629Z" fill="white"/>
</svg>
