<svg width="67" height="37" viewBox="0 0 67 37" fill="none" xmlns="http://www.w3.org/2000/svg">
<path d="M64.8756 32.2909C65.6927 33.4682 65.5293 34.9818 64.5488 35.8227C63.4049 36.6636 61.7707 36.4955 60.9537 35.4864L55.2341 27.9182L49.678 35.3182C48.861 36.4955 47.2268 36.4955 46.0829 35.6545C44.939 34.8136 44.7756 33.3 45.5927 32.1227L52.1293 23.3773L45.5927 14.6318C44.7756 13.4545 45.1024 11.7727 46.0829 10.9318C47.2268 10.0909 48.861 10.4273 49.678 11.4364L55.2341 19.0045L60.9537 11.7727C61.7707 10.5955 63.2415 10.4273 64.5488 11.2682C65.6927 12.1091 65.6927 13.7909 64.8756 14.9682L58.5024 23.5455L64.8756 32.2909V32.2909ZM35.1341 31.2818C30.8854 31.2818 27.4537 27.9182 27.4537 23.5455C27.4537 19.3409 30.8854 15.8091 35.1341 15.8091C39.3829 15.8091 42.8146 19.3409 42.8146 23.5455C42.6512 27.9182 39.2195 31.2818 35.1341 31.2818ZM12.5829 31.2818C8.33415 31.2818 4.90244 27.9182 4.90244 23.5455C4.90244 19.3409 8.33415 15.8091 12.5829 15.8091C16.8317 15.8091 20.2634 19.3409 20.2634 23.5455C20.2634 27.9182 16.8317 31.2818 12.5829 31.2818V31.2818ZM35.1341 10.7636C30.3951 10.7636 26.1463 13.4545 24.022 17.4909C21.8976 13.4545 17.6488 10.7636 12.7463 10.7636C9.80488 10.7636 7.19024 11.7727 5.06585 13.2864V2.52273C5.06585 1.17727 3.92195 0 2.61463 0C1.1439 0 0 1.17727 0 2.52273V23.7136C0.163415 30.7773 5.71951 36.3273 12.5829 36.3273C17.4854 36.3273 21.7341 33.4682 23.8585 29.4318C25.9829 33.4682 30.2317 36.3273 34.9707 36.3273C41.9976 36.3273 47.7171 30.6091 47.7171 23.3773C47.8805 16.4818 42.161 10.7636 35.1341 10.7636V10.7636Z" fill="white"/>
</svg>
