<svg width="104" height="24" viewBox="0 0 104 24" fill="none" xmlns="http://www.w3.org/2000/svg">
<path d="M52.1113 6C48.069 6 45.1542 8.7 45.1542 12.75C45.1542 16.8 48.4315 19.5 52.4776 19.5C54.9196 19.5 57.0728 18.51 58.4054 16.8413L55.6044 15.1837C54.8648 16.0125 53.7407 16.4963 52.4776 16.4963C50.7235 16.4963 49.2334 15.5587 48.6803 14.0587H58.9402C59.0206 13.6387 59.0684 13.2037 59.0684 12.7463C59.0684 8.7 56.1574 6 52.1113 6ZM48.6511 11.4375C49.1087 9.94126 50.361 9 52.1113 9C53.8651 9 55.1174 9.94126 55.5716 11.4375H48.6511ZM47.8236 1.875L37.6774 19.875L27.5277 1.875H31.3319L37.6739 13.125L44.0156 1.875H47.8236ZM13.5295 0L27.059 24H0L13.5295 0ZM73.7877 12.75C73.7877 15 75.2231 16.5 77.4493 16.5C78.958 16.5 80.0894 15.7987 80.6715 14.655L83.4836 16.3163C82.3191 18.3037 80.1369 19.5 77.4493 19.5C73.4032 19.5 70.4925 16.8 70.4925 12.75C70.4925 8.7 73.4069 6 77.4493 6C80.1369 6 82.3156 7.19626 83.4836 9.18374L80.6715 10.845C80.0894 9.70126 78.958 9 77.4493 9C75.2268 9 73.7877 10.5 73.7877 12.75ZM103.988 1.875V19.125H100.693V1.875H103.988ZM91.539 6C87.4966 6 84.5821 8.7 84.5821 12.75C84.5821 16.8 87.8629 19.5 91.9053 19.5C94.3473 19.5 96.5004 18.51 97.8331 16.8413L95.0321 15.1837C94.2925 16.0125 93.1683 16.4963 91.9053 16.4963C90.1512 16.4963 88.6611 15.5587 88.108 14.0587H98.3679C98.4483 13.6387 98.4958 13.2037 98.4958 12.7463C98.4958 8.7 95.5851 6 91.539 6ZM88.0787 11.4375C88.5366 9.94126 89.7852 9 91.539 9C93.2928 9 94.5451 9.94126 94.9992 11.4375H88.0787ZM69.3939 6.375V10.0087C69.0278 9.9 68.6395 9.825 68.2222 9.825C66.0948 9.825 64.5606 11.325 64.5606 13.575V19.125H61.2653V6.375H64.5606V9.825C64.5606 7.92 66.7245 6.375 69.3939 6.375Z" fill="white"/>
</svg>
