<svg width="102" height="24" viewBox="0 0 102 24" fill="none" xmlns="http://www.w3.org/2000/svg">
<g clip-path="url(#clip0_130_1465)">
<path d="M5.8035 13.121C5.51514 13.415 5.15467 13.562 4.72211 13.562H1.11745C0.793026 13.562 0.5407 13.4518 0.32442 13.2312C0.144187 13.0107 0 12.7534 0 12.4227V1.13936C0 0.808576 0.144187 0.551302 0.32442 0.330781C0.5407 0.147014 0.829072 0 1.11745 0H7.75003C8.07445 0 8.32678 0.147014 8.54306 0.330781C8.75934 0.551302 8.86748 0.808576 8.86748 1.13936V9.33537C8.86748 9.73966 8.72328 10.1439 8.43492 10.4012L7.13723 11.7243L5.8035 13.121Z" fill="white"/>
<path d="M5.8035 13.121C5.51514 13.415 5.15467 13.562 4.72211 13.562H1.11745C0.793026 13.562 0.5407 13.4518 0.32442 13.2312C0.144187 13.0107 0 12.7534 0 12.4227V1.13936C0 0.808576 0.144187 0.551302 0.32442 0.330781C0.5407 0.147014 0.829072 0 1.11745 0H7.75003C8.07445 0 8.32678 0.147014 8.54306 0.330781C8.75934 0.551302 8.86748 0.808576 8.86748 1.13936V9.33537C8.86748 9.73966 8.72328 10.1439 8.43492 10.4012L7.13723 11.7243L5.8035 13.121Z" fill="white"/>
<path d="M10.5985 5.9173C10.3101 5.62328 10.1659 5.25574 10.1659 4.85145V1.13936C10.1659 0.808576 10.3101 0.551302 10.4903 0.330781C10.7066 0.147014 10.995 0 11.2834 0H22.3497C22.6741 0 22.9265 0.147014 23.1427 0.330781C23.359 0.551302 23.4672 0.808576 23.4672 1.13936V7.90199C23.4672 8.23277 23.3229 8.49005 23.1427 8.71057C22.9265 8.93109 22.6741 9.04135 22.3497 9.04135H14.2752C13.8787 9.04135 13.4823 8.89433 13.1938 8.60031L11.8962 7.27718L10.5985 5.9173V5.9173Z" fill="white"/>
<path d="M10.5985 5.9173C10.3101 5.62328 10.1659 5.25574 10.1659 4.85145V1.13936C10.1659 0.808576 10.3101 0.551302 10.4903 0.330781C10.7066 0.147014 10.995 0 11.2834 0H22.3497C22.6741 0 22.9265 0.147014 23.1427 0.330781C23.359 0.551302 23.4672 0.808576 23.4672 1.13936V7.90199C23.4672 8.23277 23.3229 8.49005 23.1427 8.71057C22.9265 8.93109 22.6741 9.04135 22.3497 9.04135H14.2752C13.8787 9.04135 13.4823 8.89433 13.1938 8.60031L11.8962 7.27718L10.5985 5.9173V5.9173Z" fill="white"/>
<path d="M17.6985 10.879C17.9869 10.585 18.3473 10.438 18.7799 10.438H22.3485C22.6729 10.438 22.9252 10.585 23.1415 10.7688C23.3579 10.9893 23.4659 11.2466 23.4659 11.5773V22.8239C23.4659 23.1547 23.3218 23.412 23.1415 23.6325C22.9252 23.853 22.6729 23.9633 22.3485 23.9633H15.7159C15.3915 23.9633 15.1392 23.8162 14.9229 23.6325C14.7066 23.412 14.5985 23.1547 14.5985 22.8239V14.6279C14.5985 14.2236 14.7427 13.8193 15.031 13.562L16.3287 12.2389L17.6985 10.879V10.879Z" fill="white"/>
<path d="M17.6985 10.879C17.9869 10.585 18.3473 10.438 18.7799 10.438H22.3485C22.6729 10.438 22.9252 10.585 23.1415 10.7688C23.3579 10.9893 23.4659 11.2466 23.4659 11.5773V22.8239C23.4659 23.1547 23.3218 23.412 23.1415 23.6325C22.9252 23.853 22.6729 23.9633 22.3485 23.9633H15.7159C15.3915 23.9633 15.1392 23.8162 14.9229 23.6325C14.7066 23.412 14.5985 23.1547 14.5985 22.8239V14.6279C14.5985 14.2236 14.7427 13.8193 15.031 13.562L16.3287 12.2389L17.6985 10.879V10.879Z" fill="white"/>
<path d="M12.8687 18.0826C13.157 18.3766 13.3012 18.7441 13.3012 19.1852V22.8605C13.3012 23.1913 13.157 23.4486 12.9768 23.6691C12.7605 23.8896 12.5081 23.9999 12.1838 23.9999H1.11745C0.793026 23.9999 0.5407 23.8529 0.32442 23.6691C0.144187 23.4486 0 23.1546 0 22.8605V16.0979C0 15.7671 0.144187 15.5098 0.32442 15.2893C0.5407 15.0688 0.793026 14.9585 1.11745 14.9585H9.15584C9.55236 14.9585 9.94883 15.1056 10.2012 15.3996L11.4988 16.7227L12.8687 18.0826V18.0826Z" fill="white"/>
<path d="M12.8687 18.0826C13.157 18.3766 13.3012 18.7441 13.3012 19.1852V22.8605C13.3012 23.1913 13.157 23.4486 12.9768 23.6691C12.7605 23.8896 12.5081 23.9999 12.1838 23.9999H1.11745C0.793026 23.9999 0.5407 23.8529 0.32442 23.6691C0.144187 23.4486 0 23.1546 0 22.8605V16.0979C0 15.7671 0.144187 15.5098 0.32442 15.2893C0.5407 15.0688 0.793026 14.9585 1.11745 14.9585H9.15584C9.55236 14.9585 9.94883 15.1056 10.2012 15.3996L11.4988 16.7227L12.8687 18.0826V18.0826Z" fill="white"/>
<path d="M60.7042 18.0827C60.56 18.1929 60.4158 18.3032 60.3077 18.3767C60.1995 18.4502 60.1274 18.487 60.0553 18.5237C59.9832 18.5605 59.9111 18.5972 59.8751 18.5972H59.6588C59.3704 18.5972 59.1542 18.4502 59.046 18.1929C58.9379 17.8989 58.8658 17.3844 58.8658 16.6125V13.0475C58.8658 12.4226 58.8297 11.9081 58.7576 11.5773C58.6856 11.2465 58.5774 10.9158 58.3972 10.6217C57.8204 9.70289 56.7029 9.2251 55.0808 9.2251C53.8914 9.2251 52.918 9.44562 52.1972 9.84991C51.4762 10.2542 51.1518 10.8422 51.1518 11.5773C51.1518 11.9449 51.26 12.2756 51.4762 12.4962C51.6925 12.7167 51.9809 12.8637 52.3053 12.8637C52.6658 12.8637 52.9901 12.7534 53.2065 12.5329C53.4228 12.3124 53.5669 12.0184 53.5669 11.6876C53.5669 11.3935 53.4587 11.1363 53.2786 10.9525L53.0623 10.732C53.0262 10.6952 53.0262 10.6952 53.0262 10.6585C53.0262 10.585 53.0623 10.5115 53.1704 10.4012C53.2786 10.3277 53.3867 10.2542 53.5308 10.1807C53.6751 10.1072 53.8553 10.0704 54.0355 10.0337C54.2158 9.99692 54.4321 9.99692 54.6122 9.99692C55.5855 9.99692 56.2344 10.2909 56.5588 10.879C56.6309 11.026 56.7029 11.1363 56.739 11.2833C56.7751 11.3936 56.8111 11.5773 56.8472 11.7611C56.8832 11.9449 56.8832 12.1654 56.9193 12.4226C56.9193 12.7167 56.9553 13.0475 56.9553 13.415L54.9728 13.7825L54.1797 13.9295C53.7832 14.003 53.4228 14.0766 53.1704 14.1501C52.8821 14.2236 52.6297 14.2971 52.4134 14.3706C52.1972 14.4441 52.0169 14.5543 51.8367 14.6646C51.6565 14.7749 51.5123 14.8851 51.368 14.9954C50.8634 15.4732 50.6111 16.1347 50.6111 16.9801C50.6111 17.8989 50.8634 18.634 51.4041 19.1485C51.9087 19.6631 52.6297 19.9571 53.5308 19.9571C54.1797 19.9571 54.7925 19.8101 55.3332 19.5161C55.8739 19.222 56.4146 18.7442 56.9914 18.0827C57.0635 18.3767 57.1356 18.634 57.1715 18.781C57.2437 18.928 57.3158 19.075 57.4239 19.222C57.5681 19.4426 57.7483 19.5896 57.9646 19.6998C58.1809 19.8101 58.3972 19.8836 58.6495 19.8836C59.046 19.8836 59.4065 19.7733 59.767 19.5896C60.1274 19.4058 60.56 19.0383 61.0286 18.5972L60.7042 18.0827V18.0827ZM56.9914 13.9663V15.6569C56.9914 16.392 56.8832 16.9801 56.6669 17.3476C56.4507 17.7151 56.1622 18.0092 55.7658 18.2297C55.3693 18.4502 54.9367 18.5605 54.5041 18.5605C53.9274 18.5605 53.4587 18.3767 53.1344 18.0092C52.7739 17.6416 52.6297 17.1638 52.6297 16.5758C52.6297 15.6202 53.0623 14.9954 53.8914 14.6646C54.1797 14.5543 54.5762 14.4441 55.0448 14.3338C55.5135 14.2603 56.1622 14.1133 56.9914 13.9663V13.9663Z" fill="white"/>
<path d="M60.7042 18.0827C60.56 18.1929 60.4158 18.3032 60.3077 18.3767C60.1995 18.4502 60.1274 18.487 60.0553 18.5237C59.9832 18.5605 59.9111 18.5972 59.8751 18.5972H59.6588C59.3704 18.5972 59.1542 18.4502 59.046 18.1929C58.9379 17.8989 58.8658 17.3844 58.8658 16.6125V13.0475C58.8658 12.4226 58.8297 11.9081 58.7576 11.5773C58.6856 11.2465 58.5774 10.9158 58.3972 10.6217C57.8204 9.70289 56.7029 9.2251 55.0808 9.2251C53.8914 9.2251 52.918 9.44562 52.1972 9.84991C51.4762 10.2542 51.1518 10.8422 51.1518 11.5773C51.1518 11.9449 51.26 12.2756 51.4762 12.4962C51.6925 12.7167 51.9809 12.8637 52.3053 12.8637C52.6658 12.8637 52.9901 12.7534 53.2065 12.5329C53.4228 12.3124 53.5669 12.0184 53.5669 11.6876C53.5669 11.3935 53.4587 11.1363 53.2786 10.9525L53.0623 10.732C53.0262 10.6952 53.0262 10.6952 53.0262 10.6585C53.0262 10.585 53.0623 10.5115 53.1704 10.4012C53.2786 10.3277 53.3867 10.2542 53.5308 10.1807C53.6751 10.1072 53.8553 10.0704 54.0355 10.0337C54.2158 9.99692 54.4321 9.99692 54.6122 9.99692C55.5855 9.99692 56.2344 10.2909 56.5588 10.879C56.6309 11.026 56.7029 11.1363 56.739 11.2833C56.7751 11.3936 56.8111 11.5773 56.8472 11.7611C56.8832 11.9449 56.8832 12.1654 56.9193 12.4226C56.9193 12.7167 56.9553 13.0475 56.9553 13.415L54.9728 13.7825L54.1797 13.9295C53.7832 14.003 53.4228 14.0766 53.1704 14.1501C52.8821 14.2236 52.6297 14.2971 52.4134 14.3706C52.1972 14.4441 52.0169 14.5543 51.8367 14.6646C51.6565 14.7749 51.5123 14.8851 51.368 14.9954C50.8634 15.4732 50.6111 16.1347 50.6111 16.9801C50.6111 17.8989 50.8634 18.634 51.4041 19.1485C51.9087 19.6631 52.6297 19.9571 53.5308 19.9571C54.1797 19.9571 54.7925 19.8101 55.3332 19.5161C55.8739 19.222 56.4146 18.7442 56.9914 18.0827C57.0635 18.3767 57.1356 18.634 57.1715 18.781C57.2437 18.928 57.3158 19.075 57.4239 19.222C57.5681 19.4426 57.7483 19.5896 57.9646 19.6998C58.1809 19.8101 58.3972 19.8836 58.6495 19.8836C59.046 19.8836 59.4065 19.7733 59.767 19.5896C60.1274 19.4058 60.56 19.0383 61.0286 18.5972L60.7042 18.0827V18.0827ZM56.9914 13.9663V15.6569C56.9914 16.392 56.8832 16.9801 56.6669 17.3476C56.4507 17.7151 56.1622 18.0092 55.7658 18.2297C55.3693 18.4502 54.9367 18.5605 54.5041 18.5605C53.9274 18.5605 53.4587 18.3767 53.1344 18.0092C52.7739 17.6416 52.6297 17.1638 52.6297 16.5758C52.6297 15.6202 53.0623 14.9954 53.8914 14.6646C54.1797 14.5543 54.5762 14.4441 55.0448 14.3338C55.5135 14.2603 56.1622 14.1133 56.9914 13.9663V13.9663Z" fill="white"/>
<path d="M68.0559 18.2293C67.6955 18.3764 67.371 18.4866 67.1548 18.5234C66.9384 18.5969 66.7222 18.5969 66.5419 18.5969C66.0012 18.5969 65.6048 18.4499 65.3524 18.1191C65.1001 17.7883 64.9559 17.3105 64.9559 16.6857V10.5479H67.9117V9.84952H64.9559V5.80664H64.4873L63.1175 7.20328V9.81277H60.7024V10.5111H63.1175V17.384C63.1175 18.1558 63.2977 18.7806 63.6582 19.1482C64.0187 19.5525 64.5594 19.7362 65.2442 19.7362C65.7128 19.7362 66.1815 19.6627 66.6501 19.479C67.1187 19.332 67.6594 19.0379 68.2722 18.6704L68.0559 18.2293V18.2293Z" fill="white"/>
<path d="M68.0559 18.2293C67.6955 18.3764 67.371 18.4866 67.1548 18.5234C66.9384 18.5969 66.7222 18.5969 66.5419 18.5969C66.0012 18.5969 65.6048 18.4499 65.3524 18.1191C65.1001 17.7883 64.9559 17.3105 64.9559 16.6857V10.5479H67.9117V9.84952H64.9559V5.80664H64.4873L63.1175 7.20328V9.81277H60.7024V10.5111H63.1175V17.384C63.1175 18.1558 63.2977 18.7806 63.6582 19.1482C64.0187 19.5525 64.5594 19.7362 65.2442 19.7362C65.7128 19.7362 66.1815 19.6627 66.6501 19.479C67.1187 19.332 67.6594 19.0379 68.2722 18.6704L68.0559 18.2293V18.2293Z" fill="white"/>
<path d="M80.6372 8.15917C80.9976 8.15917 81.3222 8.04891 81.5745 7.79163C81.8268 7.53436 81.9349 7.24033 81.9349 6.8728C81.9349 6.50526 81.8268 6.21123 81.5745 5.95396C81.3222 5.69669 81.0337 5.58643 80.6732 5.58643C80.3488 5.58643 80.0245 5.69669 79.7722 5.95396C79.5198 6.21123 79.4117 6.50526 79.4117 6.83604C79.4117 7.20358 79.5198 7.49761 79.7722 7.75488C79.9884 8.01215 80.3128 8.15917 80.6372 8.15917Z" fill="white"/>
<path d="M80.6372 8.15917C80.9976 8.15917 81.3222 8.04891 81.5745 7.79163C81.8268 7.53436 81.9349 7.24033 81.9349 6.8728C81.9349 6.50526 81.8268 6.21123 81.5745 5.95396C81.3222 5.69669 81.0337 5.58643 80.6732 5.58643C80.3488 5.58643 80.0245 5.69669 79.7722 5.95396C79.5198 6.21123 79.4117 6.50526 79.4117 6.83604C79.4117 7.20358 79.5198 7.49761 79.7722 7.75488C79.9884 8.01215 80.3128 8.15917 80.6372 8.15917Z" fill="white"/>
<path d="M100.932 17.1271C100.644 17.4579 100.355 17.7151 100.103 17.9357C99.8511 18.1562 99.598 18.3032 99.346 18.4502C99.0939 18.5605 98.8409 18.6707 98.5525 18.7075C98.2642 18.7442 97.9762 18.781 97.6158 18.781C96.4262 18.781 95.5251 18.3767 94.9123 17.5681C94.6599 17.2006 94.4797 16.7963 94.3716 16.3185C94.2634 15.8407 94.2273 15.2159 94.2273 14.4073H101.762C101.725 13.6723 101.653 13.0475 101.581 12.6064C101.472 12.1286 101.328 11.7243 101.112 11.32C100.751 10.6585 100.211 10.1439 99.4901 9.7764C98.7693 9.40886 97.9762 9.2251 97.0751 9.2251C96.318 9.2251 95.6332 9.33536 95.0204 9.59263C94.4076 9.84991 93.903 10.1807 93.4704 10.6217C93.0379 11.0628 92.7134 11.6141 92.4972 12.2756C92.2809 12.9372 92.1367 13.6723 92.1367 14.4441C92.1367 15.2527 92.2448 15.9877 92.4972 16.6493C92.7134 17.3109 93.0738 17.8622 93.4704 18.34C93.903 18.8177 94.4076 19.1485 95.0204 19.4058C95.6332 19.6631 96.318 19.7733 97.0751 19.7733C97.5437 19.7733 97.9401 19.7366 98.3368 19.6631C98.733 19.5896 99.0939 19.4426 99.4185 19.2588C99.7785 19.075 100.103 18.8545 100.428 18.5605C100.751 18.2664 101.112 17.9357 101.437 17.5314L100.932 17.1271V17.1271ZM96.9669 9.88666C97.868 9.88666 98.5172 10.1807 98.9134 10.7687C99.3097 11.3568 99.5627 12.3124 99.6706 13.709H94.1913C94.2995 12.3491 94.5518 11.3568 94.9844 10.7687C95.4169 10.1807 96.1018 9.88666 96.9669 9.88666V9.88666Z" fill="white"/>
<path d="M100.932 17.1271C100.644 17.4579 100.355 17.7151 100.103 17.9357C99.8511 18.1562 99.598 18.3032 99.346 18.4502C99.0939 18.5605 98.8409 18.6707 98.5525 18.7075C98.2642 18.7442 97.9762 18.781 97.6158 18.781C96.4262 18.781 95.5251 18.3767 94.9123 17.5681C94.6599 17.2006 94.4797 16.7963 94.3716 16.3185C94.2634 15.8407 94.2273 15.2159 94.2273 14.4073H101.762C101.725 13.6723 101.653 13.0475 101.581 12.6064C101.472 12.1286 101.328 11.7243 101.112 11.32C100.751 10.6585 100.211 10.1439 99.4901 9.7764C98.7693 9.40886 97.9762 9.2251 97.0751 9.2251C96.318 9.2251 95.6332 9.33536 95.0204 9.59263C94.4076 9.84991 93.903 10.1807 93.4704 10.6217C93.0379 11.0628 92.7134 11.6141 92.4972 12.2756C92.2809 12.9372 92.1367 13.6723 92.1367 14.4441C92.1367 15.2527 92.2448 15.9877 92.4972 16.6493C92.7134 17.3109 93.0738 17.8622 93.4704 18.34C93.903 18.8177 94.4076 19.1485 95.0204 19.4058C95.6332 19.6631 96.318 19.7733 97.0751 19.7733C97.5437 19.7733 97.9401 19.7366 98.3368 19.6631C98.733 19.5896 99.0939 19.4426 99.4185 19.2588C99.7785 19.075 100.103 18.8545 100.428 18.5605C100.751 18.2664 101.112 17.9357 101.437 17.5314L100.932 17.1271V17.1271ZM96.9669 9.88666C97.868 9.88666 98.5172 10.1807 98.9134 10.7687C99.3097 11.3568 99.5627 12.3124 99.6706 13.709H94.1913C94.2995 12.3491 94.5518 11.3568 94.9844 10.7687C95.4169 10.1807 96.1018 9.88666 96.9669 9.88666V9.88666Z" fill="white"/>
<path d="M47.7271 18.6709C47.5468 18.5974 47.4026 18.4871 47.2946 18.3401C47.1864 18.1931 47.1503 17.9726 47.1143 17.7153C47.0782 17.458 47.0782 17.0905 47.0782 16.6494V4.15332L43.3654 5.07215V5.77047C43.7259 5.77047 44.0503 5.80722 44.2666 5.88073C44.5189 5.95423 44.6992 6.0645 44.8073 6.21151C44.9515 6.35852 45.0236 6.57904 45.0957 6.87307C45.1317 7.1671 45.1678 7.53463 45.1678 7.97567V16.6494C45.1678 17.0905 45.1678 17.4213 45.1317 17.7153C45.0957 17.9726 45.0596 18.1931 44.9515 18.3401C44.8433 18.4871 44.6992 18.5974 44.5189 18.6709C44.3387 18.7444 44.0864 18.7811 43.7619 18.8547L43.2573 18.8914V19.553H49.0247V18.8914L48.5201 18.8547C48.1596 18.8179 47.9073 18.7444 47.7271 18.6709Z" fill="white"/>
<path d="M47.7271 18.6709C47.5468 18.5974 47.4026 18.4871 47.2946 18.3401C47.1864 18.1931 47.1503 17.9726 47.1143 17.7153C47.0782 17.458 47.0782 17.0905 47.0782 16.6494V4.15332L43.3654 5.07215V5.77047C43.7259 5.77047 44.0503 5.80722 44.2666 5.88073C44.5189 5.95423 44.6992 6.0645 44.8073 6.21151C44.9515 6.35852 45.0236 6.57904 45.0957 6.87307C45.1317 7.1671 45.1678 7.53463 45.1678 7.97567V16.6494C45.1678 17.0905 45.1678 17.4213 45.1317 17.7153C45.0957 17.9726 45.0596 18.1931 44.9515 18.3401C44.8433 18.4871 44.6992 18.5974 44.5189 18.6709C44.3387 18.7444 44.0864 18.7811 43.7619 18.8547L43.2573 18.8914V19.553H49.0247V18.8914L48.5201 18.8547C48.1596 18.8179 47.9073 18.7444 47.7271 18.6709Z" fill="white"/>
<path d="M82.5831 18.6708C82.4028 18.5973 82.2586 18.487 82.1505 18.34C82.0424 18.193 82.0064 17.9725 81.9703 17.7152C81.9342 17.4579 81.9342 17.0904 81.9342 16.6493V8.93115L78.2214 9.84998V10.5483C78.5819 10.5483 78.9063 10.585 79.1226 10.6585C79.375 10.732 79.5551 10.8423 79.6993 10.9893C79.8436 11.1363 79.9157 11.3568 79.9877 11.6509C80.0237 11.9449 80.0598 12.3124 80.0598 12.7535V16.6861C80.0598 17.1271 80.0598 17.4579 80.0237 17.7519C79.9877 18.0092 79.9517 18.2297 79.8436 18.3767C79.7354 18.5238 79.5912 18.634 79.411 18.7075C79.2307 18.781 78.9784 18.8178 78.654 18.8913L78.1493 18.928V19.5896H83.9168V18.928L83.4121 18.8913C83.0156 18.8178 82.7633 18.7443 82.5831 18.6708V18.6708Z" fill="white"/>
<path d="M82.5831 18.6708C82.4028 18.5973 82.2586 18.487 82.1505 18.34C82.0424 18.193 82.0064 17.9725 81.9703 17.7152C81.9342 17.4579 81.9342 17.0904 81.9342 16.6493V8.93115L78.2214 9.84998V10.5483C78.5819 10.5483 78.9063 10.585 79.1226 10.6585C79.375 10.732 79.5551 10.8423 79.6993 10.9893C79.8436 11.1363 79.9157 11.3568 79.9877 11.6509C80.0237 11.9449 80.0598 12.3124 80.0598 12.7535V16.6861C80.0598 17.1271 80.0598 17.4579 80.0237 17.7519C79.9877 18.0092 79.9517 18.2297 79.8436 18.3767C79.7354 18.5238 79.5912 18.634 79.411 18.7075C79.2307 18.781 78.9784 18.8178 78.654 18.8913L78.1493 18.928V19.5896H83.9168V18.928L83.4121 18.8913C83.0156 18.8178 82.7633 18.7443 82.5831 18.6708V18.6708Z" fill="white"/>
<path d="M89.7572 18.6709C89.577 18.5974 89.4327 18.4871 89.3246 18.3401C89.2165 18.1931 89.1805 17.9726 89.1444 17.7153C89.1084 17.458 89.1084 17.0905 89.1084 16.6494V4.15332L85.4316 5.10891V5.80722C85.792 5.80722 86.1164 5.84397 86.3327 5.91748C86.5851 5.99099 86.7653 6.10125 86.9095 6.24826C87.0537 6.39528 87.1258 6.6158 87.1978 6.90982C87.2339 7.20385 87.2699 7.57139 87.2699 8.01243V16.6862C87.2699 17.1272 87.2699 17.458 87.2339 17.752C87.1978 18.0093 87.1619 18.2298 87.0537 18.3769C86.9456 18.5239 86.8013 18.6341 86.6212 18.7076C86.4409 18.7811 86.1885 18.8179 85.8641 18.8914L85.3595 18.9282V19.5897H91.127V18.9282L90.6223 18.8914C90.2258 18.8179 89.9734 18.7444 89.7572 18.6709V18.6709Z" fill="white"/>
<path d="M89.7572 18.6709C89.577 18.5974 89.4327 18.4871 89.3246 18.3401C89.2165 18.1931 89.1805 17.9726 89.1444 17.7153C89.1084 17.458 89.1084 17.0905 89.1084 16.6494V4.15332L85.4316 5.10891V5.80722C85.792 5.80722 86.1164 5.84397 86.3327 5.91748C86.5851 5.99099 86.7653 6.10125 86.9095 6.24826C87.0537 6.39528 87.1258 6.6158 87.1978 6.90982C87.2339 7.20385 87.2699 7.57139 87.2699 8.01243V16.6862C87.2699 17.1272 87.2699 17.458 87.2339 17.752C87.1978 18.0093 87.1619 18.2298 87.0537 18.3769C86.9456 18.5239 86.8013 18.6341 86.6212 18.7076C86.4409 18.7811 86.1885 18.8179 85.8641 18.8914L85.3595 18.9282V19.5897H91.127V18.9282L90.6223 18.8914C90.2258 18.8179 89.9734 18.7444 89.7572 18.6709V18.6709Z" fill="white"/>
<path d="M76.6361 5.07203C76.2036 4.77801 75.6629 4.59424 74.9779 4.59424C73.9686 4.59424 73.1395 4.92502 72.5268 5.58658C71.914 6.24814 71.6256 7.16698 71.6256 8.30634V9.18842C71.6256 9.40894 71.6616 9.59271 71.6616 9.81323H69.7151V10.5115H71.6616V16.6494C71.6616 17.0904 71.6616 17.4212 71.6256 17.7152C71.5895 17.9725 71.5535 18.193 71.4454 18.34C71.3372 18.487 71.193 18.5973 71.0128 18.6708C70.8326 18.7443 70.5802 18.7811 70.2558 18.8546L69.7512 18.8913V19.5529H75.6628V18.8913L75.014 18.8546C74.6896 18.7811 74.4372 18.7443 74.257 18.6708C74.0768 18.5973 73.9326 18.487 73.8244 18.34C73.7163 18.193 73.6802 17.9725 73.6442 17.7152C73.6082 17.4579 73.6082 17.0904 73.6082 16.6494V10.5483H76.2757V9.84998H73.6082C73.5722 9.77647 73.2837 8.89439 73.1395 7.9388C73.0675 7.35075 73.0675 6.87295 73.1756 6.46866C73.2837 5.95412 73.5361 5.62333 73.9326 5.43957H74.0768C74.257 5.36606 74.4372 5.32931 74.6175 5.32931C74.7977 5.32931 74.9779 5.36606 75.1582 5.43957C75.3023 5.51307 75.4105 5.58658 75.4105 5.66009C75.4105 5.69684 75.3744 5.77035 75.3023 5.84386C75.0861 6.06438 74.9419 6.3584 74.9419 6.68918C74.9419 7.01997 75.05 7.27724 75.2663 7.49776C75.4826 7.71828 75.7709 7.79179 76.0954 7.79179C76.4558 7.79179 76.7803 7.64477 77.0326 7.3875C77.285 7.13023 77.393 6.76269 77.393 6.3584C77.285 5.77035 77.0686 5.36606 76.6361 5.07203V5.07203Z" fill="white"/>
<path d="M76.6361 5.07203C76.2036 4.77801 75.6629 4.59424 74.9779 4.59424C73.9686 4.59424 73.1395 4.92502 72.5268 5.58658C71.914 6.24814 71.6256 7.16698 71.6256 8.30634V9.18842C71.6256 9.40894 71.6616 9.59271 71.6616 9.81323H69.7151V10.5115H71.6616V16.6494C71.6616 17.0904 71.6616 17.4212 71.6256 17.7152C71.5895 17.9725 71.5535 18.193 71.4454 18.34C71.3372 18.487 71.193 18.5973 71.0128 18.6708C70.8326 18.7443 70.5802 18.7811 70.2558 18.8546L69.7512 18.8913V19.5529H75.6628V18.8913L75.014 18.8546C74.6896 18.7811 74.4372 18.7443 74.257 18.6708C74.0768 18.5973 73.9326 18.487 73.8244 18.34C73.7163 18.193 73.6802 17.9725 73.6442 17.7152C73.6082 17.4579 73.6082 17.0904 73.6082 16.6494V10.5483H76.2757V9.84998H73.6082C73.5722 9.77647 73.2837 8.89439 73.1395 7.9388C73.0675 7.35075 73.0675 6.87295 73.1756 6.46866C73.2837 5.95412 73.5361 5.62333 73.9326 5.43957H74.0768C74.257 5.36606 74.4372 5.32931 74.6175 5.32931C74.7977 5.32931 74.9779 5.36606 75.1582 5.43957C75.3023 5.51307 75.4105 5.58658 75.4105 5.66009C75.4105 5.69684 75.3744 5.77035 75.3023 5.84386C75.0861 6.06438 74.9419 6.3584 74.9419 6.68918C74.9419 7.01997 75.05 7.27724 75.2663 7.49776C75.4826 7.71828 75.7709 7.79179 76.0954 7.79179C76.4558 7.79179 76.7803 7.64477 77.0326 7.3875C77.285 7.13023 77.393 6.76269 77.393 6.3584C77.285 5.77035 77.0686 5.36606 76.6361 5.07203V5.07203Z" fill="white"/>
<path d="M31.3253 5.1084V5.80672L32.0823 5.88023C32.659 5.95373 33.0555 6.10075 33.2358 6.32127C33.3078 6.39477 33.3438 6.46828 33.3799 6.54179C33.416 6.61529 33.452 6.6888 33.452 6.83581C33.452 6.94608 33.4881 7.09309 33.4881 7.27686V17.3841C33.4881 17.5679 33.452 17.7149 33.452 17.8251C33.452 17.9354 33.416 18.0457 33.3799 18.1192C33.3438 18.1927 33.3078 18.2662 33.2358 18.3029C33.0555 18.5602 32.659 18.7072 32.0823 18.744L31.3253 18.8175V19.5158H38.0659V18.8175L37.0927 18.744C36.5159 18.7072 36.1555 18.5602 35.9392 18.3029C35.8672 18.2294 35.8311 18.1927 35.8311 18.1192C35.7951 18.0457 35.7951 17.9354 35.759 17.8251C35.723 17.7149 35.723 17.5679 35.723 17.3841V13.3045H37.5613C37.7776 13.3045 37.9579 13.3412 38.102 13.378C38.2823 13.4147 38.4625 13.4882 38.6066 13.5985C38.7509 13.7088 38.859 13.8558 38.9672 14.0763C39.0753 14.2601 39.1834 14.5173 39.2555 14.8114L39.4358 15.3994H40.2648V10.2907H39.4358L39.2916 10.8787C39.1834 11.2095 39.0753 11.4668 39.0032 11.6506C38.8951 11.8711 38.7869 12.0181 38.6427 12.1284C38.4986 12.2386 38.3544 12.3489 38.1741 12.3856C38.0659 12.4224 37.9579 12.4224 37.7776 12.4591H35.6869V6.02724H37.9939C38.6788 6.02724 39.2555 6.06399 39.6881 6.1375C40.1207 6.21101 40.4811 6.35802 40.7334 6.57854C40.9858 6.79906 41.166 7.09309 41.2381 7.46062C41.3462 7.82816 41.3823 8.34271 41.4183 8.93076H42.2474V5.1084H31.3253Z" fill="white"/>
<path d="M31.3253 5.1084V5.80672L32.0823 5.88023C32.659 5.95373 33.0555 6.10075 33.2358 6.32127C33.3078 6.39477 33.3438 6.46828 33.3799 6.54179C33.416 6.61529 33.452 6.6888 33.452 6.83581C33.452 6.94608 33.4881 7.09309 33.4881 7.27686V17.3841C33.4881 17.5679 33.452 17.7149 33.452 17.8251C33.452 17.9354 33.416 18.0457 33.3799 18.1192C33.3438 18.1927 33.3078 18.2662 33.2358 18.3029C33.0555 18.5602 32.659 18.7072 32.0823 18.744L31.3253 18.8175V19.5158H38.0659V18.8175L37.0927 18.744C36.5159 18.7072 36.1555 18.5602 35.9392 18.3029C35.8672 18.2294 35.8311 18.1927 35.8311 18.1192C35.7951 18.0457 35.7951 17.9354 35.759 17.8251C35.723 17.7149 35.723 17.5679 35.723 17.3841V13.3045H37.5613C37.7776 13.3045 37.9579 13.3412 38.102 13.378C38.2823 13.4147 38.4625 13.4882 38.6066 13.5985C38.7509 13.7088 38.859 13.8558 38.9672 14.0763C39.0753 14.2601 39.1834 14.5173 39.2555 14.8114L39.4358 15.3994H40.2648V10.2907H39.4358L39.2916 10.8787C39.1834 11.2095 39.0753 11.4668 39.0032 11.6506C38.8951 11.8711 38.7869 12.0181 38.6427 12.1284C38.4986 12.2386 38.3544 12.3489 38.1741 12.3856C38.0659 12.4224 37.9579 12.4224 37.7776 12.4591H35.6869V6.02724H37.9939C38.6788 6.02724 39.2555 6.06399 39.6881 6.1375C40.1207 6.21101 40.4811 6.35802 40.7334 6.57854C40.9858 6.79906 41.166 7.09309 41.2381 7.46062C41.3462 7.82816 41.3823 8.34271 41.4183 8.93076H42.2474V5.1084H31.3253Z" fill="white"/>
</g>
<defs>
<clipPath id="clip0_130_1465">
<rect width="102" height="24" fill="white"/>
</clipPath>
</defs>
</svg>
