<svg width="114" height="21" viewBox="0 0 114 21" fill="none" xmlns="http://www.w3.org/2000/svg">
<path d="M38.8172 7.43528C38.7874 6.91042 38.7897 6.57079 39.4237 6.58803C40.881 6.62764 42.3402 6.60058 43.9247 6.60058C43.9247 8.75119 43.9108 10.8383 43.9323 12.925C43.9398 13.6432 43.9389 14.3841 44.1134 15.0729C44.3922 16.1734 45.2472 16.604 46.4434 16.3967C47.1068 16.2818 47.8004 15.3544 47.8032 14.5286C47.8117 11.9323 47.8063 9.33591 47.8063 6.66996C49.5022 6.66996 51.1478 6.66996 52.914 6.66996C52.914 9.32619 52.9462 11.9811 52.895 14.6344C52.8789 15.4699 52.702 16.3171 52.4888 17.1314C51.9847 19.0575 48.8976 20.9063 47.2703 20.8026C45.576 20.6946 43.8346 21.1057 42.2211 20.1943C40.0531 18.9697 38.7719 17.2731 38.8096 14.7308C38.8451 12.3315 38.8172 9.93133 38.8172 7.43528Z" fill="white"/>
<path d="M28.9543 11.533C29.2748 10.8816 28.8167 11.0037 28.5147 11.0024C27.2271 10.9967 25.9394 10.9999 24.5842 10.9999C24.5842 9.53455 24.5842 8.12501 24.5842 6.65723C28.4847 6.65723 32.376 6.65723 36.5999 6.65723C36.2717 7.43277 36.0681 8.12212 35.7099 8.72317C34.3245 11.0479 32.8892 13.3442 31.4779 15.6543C31.4507 15.6988 31.49 15.7822 31.5105 15.9439C33.0682 15.9439 34.6407 15.9439 36.289 15.9439C36.289 17.4475 36.289 18.8574 36.289 20.3342C32.2095 20.3342 28.1134 20.3342 23.7462 20.3342C25.1943 17.1847 27.2609 14.502 28.9543 11.533Z" fill="white"/>
<path d="M7.96227 14.7683C7.64845 15.678 7.33462 16.5876 6.99953 17.5589C4.77864 17.5589 2.4721 17.5589 0.0826416 17.5589C0.0826416 16.4316 0.0826416 15.2876 0.0826416 14.0001C1.08416 14.0001 2.12401 13.9778 3.16222 14.0084C3.78046 14.0267 3.97872 13.8387 4.12241 13.1928C4.57772 11.1462 5.18662 9.1323 5.80486 6.85234C4.31214 7.61523 3.03981 8.26549 1.48757 9.0588C1.87748 7.29811 2.15887 5.73071 2.60932 4.21133C2.71599 3.85154 3.37124 3.61892 3.8068 3.3864C5.43891 2.5151 7.0917 1.68082 8.72087 0.804382C9.22451 0.533438 9.59431 0.569454 9.93691 1.0266C11.2771 2.81478 12.6338 4.59117 13.9531 6.39391C14.0653 6.54732 13.9925 6.87624 13.9265 7.10142C13.5524 8.37854 13.1541 9.6489 12.6879 11.1702C11.7004 9.89178 10.7832 8.70435 9.78477 7.41165C9.57913 8.18484 9.38633 8.90975 9.11278 9.74452C8.81996 10.4344 8.6079 11.0145 8.38509 11.6728C8.30974 12.1664 8.24513 12.5818 8.14873 13.0617C8.0654 13.6736 8.01383 14.221 7.96227 14.7683Z" fill="white"/>
<path d="M95.8172 9.00018C95.8172 12.8231 95.8172 16.5461 95.8172 20.3345C94.1823 20.3345 92.6065 20.3345 90.9623 20.3345C90.9459 20.0386 90.9162 19.7498 90.916 19.4609C90.9132 14.1358 90.9267 8.81063 90.8975 3.48567C90.8939 2.83392 91.0698 2.46774 91.6882 2.19347C93.0487 1.5901 94.3754 0.913717 95.8172 0.218262C95.8172 3.1944 95.8172 6.04729 95.8172 9.00018Z" fill="white"/>
<path d="M12.4855 14.3901C14.5899 15.9346 14.1033 18.147 14.0596 20.3226C12.8303 20.3226 11.5965 20.3226 10.3025 20.3226C10.2266 19.3583 10.148 18.3589 10.0852 17.2449C10.8959 16.217 11.6907 15.3036 12.4855 14.3901Z" fill="white"/>
<path d="M12.4752 14.3206C11.6908 15.3035 10.896 16.2169 10.0446 17.1698C9.59294 16.7464 9.19789 16.2834 8.87744 15.7095C9.2187 15.3579 9.50352 15.1335 9.74839 14.8731C10.3302 14.2544 10.8931 13.6186 11.4636 12.9897C11.7974 13.4102 12.1311 13.8306 12.4752 14.3206Z" fill="white"/>
<path d="M11.4537 12.923C10.8931 13.6189 10.3302 14.2547 9.74839 14.8734C9.50352 15.1338 9.2187 15.3582 8.8804 15.6355C8.60695 15.4225 8.40514 15.1728 8.2356 14.8292C9.06047 13.8202 9.85307 12.9052 10.6457 11.9902C10.9117 12.2788 11.1777 12.5674 11.4537 12.923Z" fill="white"/>
<path d="M10.6356 11.9235C9.85298 12.905 9.06038 13.82 8.2091 14.772C8.15042 14.8091 8.05434 14.7974 8.0083 14.7828C8.01382 14.2208 8.06539 13.6734 8.22049 13.0548C8.96182 12.3855 9.5996 11.7875 10.2374 11.1895C10.3668 11.412 10.4963 11.6345 10.6356 11.9235Z" fill="white"/>
<path d="M10.2112 11.1318C9.5997 11.7873 8.96191 12.3853 8.25236 12.99C8.24521 12.5814 8.30983 12.1661 8.45588 11.6665C8.89513 11.2479 9.25296 10.9135 9.61077 10.5791C9.80215 10.7442 9.99352 10.9093 10.2112 11.1318Z" fill="white"/>
<path d="M9.60462 10.5126C9.25289 10.9136 8.89507 11.2481 8.46655 11.5884C8.60792 11.0143 8.81999 10.4342 9.09579 9.82275C9.30585 10.0096 9.45219 10.2278 9.60462 10.5126Z" fill="white"/>
<path fill-rule="evenodd" clip-rule="evenodd" d="M55.368 15.6174C55.3678 17.0559 55.3676 18.4991 55.3681 19.9489L55.3774 19.9589C55.571 20.1693 55.7583 20.3729 55.9559 20.383C56.7367 20.423 57.5268 20.4562 58.3016 20.3785C58.6108 20.3476 58.9102 20.2225 59.2628 20.0752C59.4379 20.002 59.626 19.9234 59.835 19.8481C63.2201 21.9877 67.665 20.6638 69.4021 18.7399C71.8061 16.0773 71.9752 11.8893 69.8265 8.92883C68.8043 7.52042 67.3025 6.76077 65.5576 6.38213C63.8022 6.00122 62.1584 6.35345 60.4385 6.86998V0.130859C59.9938 0.3425 59.5588 0.551442 59.13 0.757351C58.0862 1.25869 57.0799 1.74204 56.0627 2.20257C55.4766 2.46795 55.3503 2.86323 55.3527 3.4578C55.369 7.49807 55.3685 11.5384 55.368 15.6174ZM64.9534 15.8703C64.156 16.5494 63.1812 16.7933 62.0893 16.3894C62.0847 16.3872 62.08 16.3851 62.0753 16.3829C62.055 16.3757 62.0346 16.3683 62.0141 16.3607C59.7512 15.3015 59.5867 12.7268 61.0562 11.3656C61.2081 11.2247 61.3776 11.0969 61.5641 10.9851C63.3286 9.92692 65.4739 11.1879 65.9841 12.6474C66.01 12.7216 66.0327 12.795 66.0523 12.8678C66.3468 13.9599 65.9452 14.9 65.1735 15.6674C65.1604 15.6804 65.1473 15.6932 65.1342 15.706C65.075 15.7633 65.0147 15.8181 64.9534 15.8703Z" fill="white"/>
<path fill-rule="evenodd" clip-rule="evenodd" d="M74.9445 7.75769C72.6834 9.43919 71.4181 13.337 72.9314 16.5754C73.8317 18.7911 75.5064 20.2672 77.7067 20.6683C79.8391 21.0571 82.171 21.2566 83.8146 19.8048C84.802 20.5109 85.7952 20.4517 86.7581 20.3943C87.3167 20.361 87.865 20.3284 88.3961 20.446V6.59993C88.1049 6.59993 87.8197 6.60406 87.5387 6.60812C86.9076 6.61725 86.2983 6.62606 85.6922 6.58709C84.898 6.53602 84.2926 6.67551 84.1184 7.55508C81.7919 5.64816 77.5384 5.82876 74.9445 7.75769ZM79.862 10.636C78.644 10.9421 77.347 12.3224 77.6291 13.8764C77.7219 15.7212 79.2272 16.5663 80.4867 16.578C80.5417 16.5785 80.5962 16.5774 80.6501 16.5747C80.6917 16.5727 80.7329 16.5697 80.7737 16.5658C81.7504 16.4721 82.6412 15.8654 83.1478 15.0493C83.4425 14.5746 83.6072 14.029 83.583 13.4724C83.5786 13.3715 83.568 13.2703 83.5509 13.169C83.3469 11.9634 82.1901 10.5303 80.4613 10.5623C80.346 10.5645 80.2283 10.5731 80.108 10.5888C80.0267 10.5994 79.9445 10.6152 79.862 10.636Z" fill="white"/>
<path fill-rule="evenodd" clip-rule="evenodd" d="M113.796 14.7684V13.2096C113.86 11.3579 113.247 9.86289 112.036 8.5687C110.115 6.51636 107.645 5.96764 104.978 6.2339C103.109 6.42052 101.392 7.04507 100.086 8.57393C98.6965 10.2003 98.1496 12.0113 98.2679 14.076C98.3948 16.2928 99.338 18.0664 101.164 19.4129C104.033 21.5282 109.201 21.4468 111.946 18.5726C112.451 18.0436 112.823 17.392 113.229 16.6786C113.427 16.3316 113.633 15.9699 113.867 15.6007C113.379 15.6007 112.915 15.5996 112.468 15.5985C111.151 15.5953 109.984 15.5925 108.819 15.6199C108.588 15.6253 108.312 15.8444 108.147 16.0383C107.293 17.0418 106.105 16.9205 105.054 16.7444C104.152 16.5934 103.732 15.7015 103.295 14.7684H113.796ZM103.597 11.5171L104.916 10.3778C104.917 10.3777 104.918 10.3775 104.918 10.3774C104.938 10.3604 104.958 10.3434 104.977 10.3264C106.787 9.97792 107.632 10.2445 108.425 11.5095C108.507 11.6403 108.589 11.7819 108.671 11.9345L103.533 11.9345L103.327 11.75C103.417 11.6725 103.507 11.5949 103.597 11.5171Z" fill="white"/>
</svg>
