<svg width="87" height="29" viewBox="0 0 87 29" fill="none" xmlns="http://www.w3.org/2000/svg">
<path d="M17.0056 2.44187C12.9015 2.54657 8.94399 3.32133 5.27962 5.28963C4.35829 5.79217 3.47884 6.37847 2.85065 7.23698C2.2853 8.01173 1.84557 8.8493 2.36906 9.83345C2.47375 10.0219 2.49469 10.2522 2.32718 10.4198C2.13873 10.6291 1.90839 10.5454 1.699 10.4826C1.36397 10.3779 1.13364 10.1475 0.924244 9.89627C-0.373991 8.24207 -0.311174 6.27378 1.15458 4.7452C2.53657 3.30039 4.23265 2.35812 6.07531 1.6462C10.0328 0.117624 14.116 -0.280222 18.3038 0.180442C20.7119 0.452652 22.9315 1.14365 24.9417 2.52563C27.5591 4.32641 28.8154 6.86007 28.983 9.95908C29.1504 13.1838 28.0616 16.0525 26.4283 18.7536C23.9993 22.7741 20.7748 25.9568 16.4193 27.8622C14.5557 28.6788 12.6293 29.1605 10.5773 28.9511C9.42559 28.8255 8.48333 28.3857 8.08548 27.2131C8.06454 27.1294 8.02267 27.0456 8.00173 26.9619C7.98079 26.6688 7.8342 26.3337 8.12736 26.1452C8.42051 25.9568 8.67178 26.2289 8.86024 26.3965C9.63498 27.0456 10.5354 27.0247 11.4358 26.8571C13.9485 26.4174 16.0842 25.224 18.0735 23.6953C21.6961 20.9103 24.3972 17.4135 25.9048 13.0581C26.4492 11.4667 26.6796 9.83345 26.4493 8.15831C26.0723 5.56184 24.4391 4.03326 22.052 3.17475C20.4397 2.6094 18.7435 2.42094 17.0056 2.44187V2.44187Z" fill="white"/>
<path d="M17.0056 2.44187C12.9015 2.54657 8.94399 3.32133 5.27962 5.28963C4.35829 5.79217 3.47884 6.37847 2.85065 7.23698C2.2853 8.01173 1.84557 8.8493 2.36906 9.83345C2.47375 10.0219 2.49469 10.2522 2.32718 10.4198C2.13873 10.6291 1.90839 10.5454 1.699 10.4826C1.36397 10.3779 1.13364 10.1475 0.924244 9.89627C-0.373991 8.24207 -0.311174 6.27378 1.15458 4.7452C2.53657 3.30039 4.23265 2.35812 6.07531 1.6462C10.0328 0.117624 14.116 -0.280222 18.3038 0.180442C20.7119 0.452652 22.9315 1.14365 24.9417 2.52563C27.5591 4.32641 28.8154 6.86007 28.983 9.95908C29.1504 13.1838 28.0616 16.0525 26.4283 18.7536C23.9993 22.7741 20.7748 25.9568 16.4193 27.8622C14.5557 28.6788 12.6293 29.1605 10.5773 28.9511C9.42559 28.8255 8.48333 28.3857 8.08548 27.2131C8.06454 27.1294 8.02267 27.0456 8.00173 26.9619C7.98079 26.6688 7.8342 26.3337 8.12736 26.1452C8.42051 25.9568 8.67178 26.2289 8.86024 26.3965C9.63498 27.0456 10.5354 27.0247 11.4358 26.8571C13.9485 26.4174 16.0842 25.224 18.0735 23.6953C21.6961 20.9103 24.3972 17.4135 25.9048 13.0581C26.4492 11.4667 26.6796 9.83345 26.4493 8.15831C26.0723 5.56184 24.4391 4.03326 22.052 3.17475C20.4397 2.6094 18.7435 2.42094 17.0056 2.44187V2.44187Z" fill="white"/>
<path d="M5.00746 25.7265C5.09122 23.8838 5.44718 22.5018 5.84504 21.1408C7.08045 16.89 8.58809 12.7649 10.5773 8.80743C11.1846 7.59295 11.8965 6.44129 12.7132 5.33151C12.9644 5.01742 13.2366 4.70333 13.5716 4.51487C14.137 4.17985 14.7232 4.24267 15.1211 4.64051C15.54 5.08024 15.6028 5.51996 15.2049 6.10626C14.3046 7.44637 13.6135 8.89119 12.9435 10.3569C10.9333 14.7751 9.2372 19.298 7.9599 23.9675C7.72957 24.847 7.56206 25.7265 7.52017 26.6477C7.47831 27.5691 6.85012 27.9042 6.05443 27.4225C5.27967 26.9409 4.96559 26.229 5.00746 25.7265V25.7265Z" fill="white"/>
<path d="M5.00746 25.7265C5.09122 23.8838 5.44718 22.5018 5.84504 21.1408C7.08045 16.89 8.58809 12.7649 10.5773 8.80743C11.1846 7.59295 11.8965 6.44129 12.7132 5.33151C12.9644 5.01742 13.2366 4.70333 13.5716 4.51487C14.137 4.17985 14.7232 4.24267 15.1211 4.64051C15.54 5.08024 15.6028 5.51996 15.2049 6.10626C14.3046 7.44637 13.6135 8.89119 12.9435 10.3569C10.9333 14.7751 9.2372 19.298 7.9599 23.9675C7.72957 24.847 7.56206 25.7265 7.52017 26.6477C7.47831 27.5691 6.85012 27.9042 6.05443 27.4225C5.27967 26.9409 4.96559 26.229 5.00746 25.7265V25.7265Z" fill="white"/>
<path fill-rule="evenodd" clip-rule="evenodd" d="M45.7552 17.5181C45.4576 17.5524 45.1913 17.6367 44.9289 17.7199C44.7112 17.7889 44.4964 17.857 44.2685 17.8949C43.5985 17.9996 42.9284 18.0834 42.2374 17.9578C41.8814 17.8949 41.7557 17.9996 41.6302 18.3347C40.9182 20.1983 39.955 21.9363 38.5521 23.402C37.5261 24.47 36.3953 25.3075 34.8668 25.5169C32.2284 25.8939 29.9251 24.1558 29.5482 21.5175C29.2551 19.4863 29.7576 17.6018 30.5533 15.7801C31.5584 13.4768 32.9823 11.5294 35.0343 10.0427C37.2957 8.3885 41.1277 9.39358 42.2165 12.1366C42.6353 13.2046 42.6353 14.2934 42.4049 15.3822C42.3002 15.8639 42.4887 16.0104 42.8865 16.0104C44.2056 16.0522 45.3573 15.6125 46.3624 14.8168C46.5398 14.6878 46.5929 14.4717 46.6464 14.2548C46.6623 14.1902 46.6783 14.1256 46.6975 14.0631C46.9906 13.0998 47.3466 12.1575 47.7445 11.2153C47.9538 10.7128 48.2679 10.273 48.7705 10.0218C49.3148 9.77049 49.8593 9.83331 50.2781 10.2312C50.655 10.5871 50.7387 11.0687 50.5293 11.6341C49.3568 14.7331 48.4354 17.9159 47.9538 21.2034C47.8911 21.6222 47.8911 22.041 47.912 22.4598C47.9538 23.1298 48.3308 23.3183 48.896 23.0041C49.3986 22.732 49.8174 22.355 50.1944 21.9572C52.037 19.9889 53.44 17.7275 54.78 15.4241C54.9817 15.0712 55.0468 14.6651 55.1123 14.256C55.1557 13.9857 55.1992 13.7141 55.2826 13.4558C55.5757 12.4508 55.9108 11.4666 56.518 10.5871C56.9577 9.97988 57.523 9.58204 58.3187 9.62392C59.1354 9.68674 59.7008 10.3568 59.5332 11.1734C59.3238 12.2832 58.7166 13.2046 58.0675 14.1049C57.4812 14.9216 57.0205 15.7382 57.0833 16.7852C57.1253 17.2667 57.209 17.7275 57.3765 18.1462C57.7325 19.0257 58.4863 19.3607 59.3238 18.9418C60.3918 18.3975 61.2712 17.6855 61.6691 16.4292C62.4228 14.0421 63.7002 11.9482 65.7732 10.4615C66.8829 9.6658 68.0974 9.28889 69.4794 9.62392C70.8824 9.95895 71.9503 11.32 72.0549 12.7648C72.1387 14.0631 71.7199 15.2147 71.029 16.2616C69.961 17.8949 68.6837 19.256 66.7154 19.8004C65.9198 20.0308 65.1241 20.0517 64.3702 19.6957C64.0352 19.5282 63.9724 19.6329 63.9305 19.968L63.9295 19.9804C63.867 20.7298 63.8061 21.4587 64.0561 22.1875C64.475 23.3392 65.2706 23.758 66.4641 23.5486C67.7623 23.2973 68.8722 22.6692 69.9191 21.8944C71.8246 20.4914 73.3323 18.6906 74.6305 16.7433C75.0022 16.1713 75.1885 15.5016 75.3759 14.8277C75.4631 14.5148 75.5502 14.2009 75.6565 13.8955C75.8136 13.4663 75.9654 13.0423 76.1171 12.6183C76.269 12.1943 76.4208 11.7702 76.5779 11.3409C76.6407 11.1734 76.7244 11.0269 76.8082 10.8803C77.2061 10.1893 77.9389 9.91707 78.567 10.2102C79.1743 10.4824 79.4255 11.2153 79.1534 11.9691C78.9335 12.5869 78.7137 13.1994 78.4938 13.8117C78.2739 14.4243 78.0541 15.0368 77.8342 15.6545C77.7924 15.7382 77.7924 15.8428 77.8342 15.9685C77.9598 15.801 78.0802 15.6336 78.2006 15.466C78.321 15.2985 78.4415 15.131 78.567 14.9634C79.4884 13.6862 80.4935 12.4926 81.6871 11.4456C82.4408 10.7965 83.2575 10.2312 84.2835 10.0846C84.9535 9.97989 85.477 10.1893 85.9168 10.6918C86.6706 11.6131 86.8172 12.702 86.8591 13.8328C86.8591 14.1049 86.7334 14.3562 86.4194 14.3982C86.1261 14.44 85.854 14.3353 85.7074 14.0631C85.6375 13.9235 85.5864 13.7653 85.5352 13.6072V13.6071C85.5095 13.5279 85.484 13.4489 85.4561 13.372C85.2258 12.702 84.7441 12.4298 84.0741 12.6183C83.111 12.8904 82.399 13.5395 81.7289 14.2306C79.9281 16.1361 78.5043 18.2927 77.227 20.5751C76.5359 21.8107 76.0334 23.1298 75.5937 24.47C75.3843 25.1191 74.9027 25.4331 74.3374 25.3075C73.7092 25.1819 73.2694 24.8259 73.0181 24.2397C72.8926 23.9255 72.8715 23.5905 72.9554 23.2555C73.014 22.9326 73.0829 22.6099 73.1549 22.2727L73.1551 22.2726C73.1859 22.1285 73.2171 21.9819 73.2485 21.8316C73.0332 21.9143 72.9097 22.0493 72.7952 22.1746H72.7949C72.7646 22.2078 72.7349 22.2405 72.7041 22.2713C71.4058 23.5695 69.9819 24.6794 68.244 25.3075C66.0035 26.1242 63.6793 25.6216 62.2763 24.0303C61.6062 23.2764 61.2503 22.376 61.0828 21.3919L61.0826 21.391C61.0406 21.1399 60.9991 20.889 60.9571 20.6171C57.7953 21.7059 56.6856 21.2662 55.3245 18.3975C55.0518 18.6853 54.8448 19.017 54.6402 19.3448C54.562 19.4702 54.4842 19.5951 54.4031 19.7166C54.1691 20.057 53.9406 20.3999 53.7123 20.7425L53.7121 20.7427C53.0415 21.7493 52.3729 22.7524 51.5764 23.6743L51.5321 23.7238C50.8976 24.4408 50.2553 25.1666 49.273 25.4122C47.0743 25.9776 45.1479 24.5328 45.0852 22.2295C45.0433 20.8265 45.2945 19.4444 45.5667 18.0834C45.6715 17.874 45.7133 17.7064 45.7552 17.5181V17.5181ZM32.1027 21.2244C32.2075 19.2351 32.9194 17.4343 33.8407 15.6963C34.5108 14.44 35.3274 13.3092 36.3953 12.346C37.1282 11.6969 37.9239 11.1944 38.9709 11.2362C39.5781 11.2572 39.9341 11.5713 40.0597 12.1575L40.062 12.1745C40.0821 12.3123 40.0968 12.4137 39.976 12.5345C39.0546 13.5395 38.9918 14.7122 39.3896 15.9476C39.4734 16.2198 39.4734 16.4501 39.3687 16.7014C38.5521 18.7115 37.4422 20.5542 35.9347 22.1456C35.474 22.6273 34.9505 23.0252 34.3223 23.2764C33.1498 23.758 32.4587 23.3811 32.1656 22.1456C32.1235 21.9499 32.119 21.7447 32.1143 21.5364C32.112 21.4329 32.1096 21.3287 32.1027 21.2244ZM69.961 13.414C70.1076 13.0998 70.1704 12.7858 70.1704 12.5763C70.1913 11.5922 69.6888 11.2362 68.8513 11.5294C68.2649 11.7597 67.8043 12.1366 67.3855 12.5972C66.0663 14.0421 65.2706 15.7801 64.5796 17.5809C64.454 17.8949 64.6424 17.9578 64.8727 17.9787C65.459 18.0206 65.9826 17.8321 66.4641 17.539C68.0765 16.5549 69.2073 15.131 69.961 13.414V13.414Z" fill="white"/>
<path fill-rule="evenodd" clip-rule="evenodd" d="M45.7552 17.5181C45.4576 17.5524 45.1913 17.6367 44.9289 17.7199C44.7112 17.7889 44.4964 17.857 44.2685 17.8949C43.5985 17.9996 42.9284 18.0834 42.2374 17.9578C41.8814 17.8949 41.7557 17.9996 41.6302 18.3347C40.9182 20.1983 39.955 21.9363 38.5521 23.402C37.5261 24.47 36.3953 25.3075 34.8668 25.5169C32.2284 25.8939 29.9251 24.1558 29.5482 21.5175C29.2551 19.4863 29.7576 17.6018 30.5533 15.7801C31.5584 13.4768 32.9823 11.5294 35.0343 10.0427C37.2957 8.3885 41.1277 9.39358 42.2165 12.1366C42.6353 13.2046 42.6353 14.2934 42.4049 15.3822C42.3002 15.8639 42.4887 16.0104 42.8865 16.0104C44.2056 16.0522 45.3573 15.6125 46.3624 14.8168C46.5398 14.6878 46.5929 14.4717 46.6464 14.2548C46.6623 14.1902 46.6783 14.1256 46.6975 14.0631C46.9906 13.0998 47.3466 12.1575 47.7445 11.2153C47.9538 10.7128 48.2679 10.273 48.7705 10.0218C49.3148 9.77049 49.8593 9.83331 50.2781 10.2312C50.655 10.5871 50.7387 11.0687 50.5293 11.6341C49.3568 14.7331 48.4354 17.9159 47.9538 21.2034C47.8911 21.6222 47.8911 22.041 47.912 22.4598C47.9538 23.1298 48.3308 23.3183 48.896 23.0041C49.3986 22.732 49.8174 22.355 50.1944 21.9572C52.037 19.9889 53.44 17.7275 54.78 15.4241C54.9817 15.0712 55.0468 14.6651 55.1123 14.256C55.1557 13.9857 55.1992 13.7141 55.2826 13.4558C55.5757 12.4508 55.9108 11.4666 56.518 10.5871C56.9577 9.97988 57.523 9.58204 58.3187 9.62392C59.1354 9.68674 59.7008 10.3568 59.5332 11.1734C59.3238 12.2832 58.7166 13.2046 58.0675 14.1049C57.4812 14.9216 57.0205 15.7382 57.0833 16.7852C57.1253 17.2667 57.209 17.7275 57.3765 18.1462C57.7325 19.0257 58.4863 19.3607 59.3238 18.9418C60.3918 18.3975 61.2712 17.6855 61.6691 16.4292C62.4228 14.0421 63.7002 11.9482 65.7732 10.4615C66.8829 9.6658 68.0974 9.28889 69.4794 9.62392C70.8824 9.95895 71.9503 11.32 72.0549 12.7648C72.1387 14.0631 71.7199 15.2147 71.029 16.2616C69.961 17.8949 68.6837 19.256 66.7154 19.8004C65.9198 20.0308 65.1241 20.0517 64.3702 19.6957C64.0352 19.5282 63.9724 19.6329 63.9305 19.968L63.9295 19.9804C63.867 20.7298 63.8061 21.4587 64.0561 22.1875C64.475 23.3392 65.2706 23.758 66.4641 23.5486C67.7623 23.2973 68.8722 22.6692 69.9191 21.8944C71.8246 20.4914 73.3323 18.6906 74.6305 16.7433C75.0022 16.1713 75.1885 15.5016 75.3759 14.8277C75.4631 14.5148 75.5502 14.2009 75.6565 13.8955C75.8136 13.4663 75.9654 13.0423 76.1171 12.6183C76.269 12.1943 76.4208 11.7702 76.5779 11.3409C76.6407 11.1734 76.7244 11.0269 76.8082 10.8803C77.2061 10.1893 77.9389 9.91707 78.567 10.2102C79.1743 10.4824 79.4255 11.2153 79.1534 11.9691C78.9335 12.5869 78.7137 13.1994 78.4938 13.8117C78.2739 14.4243 78.0541 15.0368 77.8342 15.6545C77.7924 15.7382 77.7924 15.8428 77.8342 15.9685C77.9598 15.801 78.0802 15.6336 78.2006 15.466C78.321 15.2985 78.4415 15.131 78.567 14.9634C79.4884 13.6862 80.4935 12.4926 81.6871 11.4456C82.4408 10.7965 83.2575 10.2312 84.2835 10.0846C84.9535 9.97989 85.477 10.1893 85.9168 10.6918C86.6706 11.6131 86.8172 12.702 86.8591 13.8328C86.8591 14.1049 86.7334 14.3562 86.4194 14.3982C86.1261 14.44 85.854 14.3353 85.7074 14.0631C85.6375 13.9235 85.5864 13.7653 85.5352 13.6072V13.6071C85.5095 13.5279 85.484 13.4489 85.4561 13.372C85.2258 12.702 84.7441 12.4298 84.0741 12.6183C83.111 12.8904 82.399 13.5395 81.7289 14.2306C79.9281 16.1361 78.5043 18.2927 77.227 20.5751C76.5359 21.8107 76.0334 23.1298 75.5937 24.47C75.3843 25.1191 74.9027 25.4331 74.3374 25.3075C73.7092 25.1819 73.2694 24.8259 73.0181 24.2397C72.8926 23.9255 72.8715 23.5905 72.9554 23.2555C73.014 22.9326 73.0829 22.6099 73.1549 22.2727L73.1551 22.2726C73.1859 22.1285 73.2171 21.9819 73.2485 21.8316C73.0332 21.9143 72.9097 22.0493 72.7952 22.1746H72.7949C72.7646 22.2078 72.7349 22.2405 72.7041 22.2713C71.4058 23.5695 69.9819 24.6794 68.244 25.3075C66.0035 26.1242 63.6793 25.6216 62.2763 24.0303C61.6062 23.2764 61.2503 22.376 61.0828 21.3919L61.0826 21.391C61.0406 21.1399 60.9991 20.889 60.9571 20.6171C57.7953 21.7059 56.6856 21.2662 55.3245 18.3975C55.0518 18.6853 54.8448 19.017 54.6402 19.3448C54.562 19.4702 54.4842 19.5951 54.4031 19.7166C54.1691 20.057 53.9406 20.3999 53.7123 20.7425L53.7121 20.7427C53.0415 21.7493 52.3729 22.7524 51.5764 23.6743L51.5321 23.7238C50.8976 24.4408 50.2553 25.1666 49.273 25.4122C47.0743 25.9776 45.1479 24.5328 45.0852 22.2295C45.0433 20.8265 45.2945 19.4444 45.5667 18.0834C45.6715 17.874 45.7133 17.7064 45.7552 17.5181V17.5181ZM32.1027 21.2244C32.2075 19.2351 32.9194 17.4343 33.8407 15.6963C34.5108 14.44 35.3274 13.3092 36.3953 12.346C37.1282 11.6969 37.9239 11.1944 38.9709 11.2362C39.5781 11.2572 39.9341 11.5713 40.0597 12.1575L40.062 12.1745C40.0821 12.3123 40.0968 12.4137 39.976 12.5345C39.0546 13.5395 38.9918 14.7122 39.3896 15.9476C39.4734 16.2198 39.4734 16.4501 39.3687 16.7014C38.5521 18.7115 37.4422 20.5542 35.9347 22.1456C35.474 22.6273 34.9505 23.0252 34.3223 23.2764C33.1498 23.758 32.4587 23.3811 32.1656 22.1456C32.1235 21.9499 32.119 21.7447 32.1143 21.5364C32.112 21.4329 32.1096 21.3287 32.1027 21.2244ZM69.961 13.414C70.1076 13.0998 70.1704 12.7858 70.1704 12.5763C70.1913 11.5922 69.6888 11.2362 68.8513 11.5294C68.2649 11.7597 67.8043 12.1366 67.3855 12.5972C66.0663 14.0421 65.2706 15.7801 64.5796 17.5809C64.454 17.8949 64.6424 17.9578 64.8727 17.9787C65.459 18.0206 65.9826 17.8321 66.4641 17.539C68.0765 16.5549 69.2073 15.131 69.961 13.414V13.414Z" fill="white"/>
</svg>
