<svg width="40" height="40" viewBox="0 0 40 40" fill="none" xmlns="http://www.w3.org/2000/svg">
<path fill-rule="evenodd" clip-rule="evenodd" d="M20.0652 37.6314C10.1858 37.6314 7.40266 33.2909 6.9773 29.1928C6.935 28.788 6.91441 28.3809 6.91556 27.9727C6.9157 27.5562 6.93478 27.14 6.97273 26.7252C7.15911 24.6819 7.79258 22.6546 8.79081 20.8102L8.85941 20.7942C10.323 20.4603 11.8015 20.203 13.2914 20.0235C13.7556 22.7906 16.166 24.3549 20.0663 24.3549C23.9666 24.3549 26.3781 22.7906 26.8424 20.0235C28.3323 20.203 29.8119 20.4603 31.2744 20.7942L31.343 20.8102C32.3401 22.6546 32.9747 24.6865 33.1611 26.7298C33.2098 27.2719 33.2266 27.8163 33.2114 28.3604C33.2114 28.3947 33.2091 28.4255 33.2079 28.4587C33.1988 28.6874 33.1828 28.9195 33.1599 29.1505C32.7483 33.2623 29.9811 37.6326 20.0675 37.6326L20.0652 37.6314ZM20.0652 14.2914C21.403 14.2914 22.7408 14.3795 24.0695 14.5544C23.4635 14.392 22.854 14.2491 22.24 14.1256C17.7547 13.2262 13.1244 13.3501 8.69361 14.4881C11.4688 7.46276 18.0744 2.51964 25.7824 2.51964C27.9311 2.51806 30.0621 2.90746 32.0714 3.6688C31.5316 5.28449 31.2206 7.03053 31.1394 8.90578L31.1257 9.45807L31.12 9.71649C31.1154 10.2733 31.1314 10.8302 31.1635 11.3859C31.215 12.2648 31.3074 13.1409 31.4402 14.0113C31.5797 14.9409 31.7569 15.8636 31.9707 16.7784C33.0909 17.2837 34.1603 17.8948 35.1644 18.6033C36.6143 19.6439 37.6571 20.7713 38.1773 21.8759C38.0916 21.8102 38.0047 21.7462 37.9166 21.6838L37.8252 21.6209L37.7268 21.5557L37.5279 21.4299L37.4272 21.3705L37.3198 21.3076L37.2054 21.2504L37.0945 21.1898L36.987 21.1326L36.8727 21.0755L36.7618 21.0206C36.6463 20.9626 36.5296 20.9069 36.4119 20.8536L36.293 20.7999L36.174 20.7473L36.0517 20.6947L35.9305 20.6432L35.8161 20.5929C35.7773 20.5758 35.7361 20.5586 35.6961 20.5438L35.5669 20.4923L35.4468 20.4466L35.1952 20.3517L35.0626 20.3036L34.9414 20.2602L34.8065 20.2145L34.6864 20.1721L34.5446 20.1264L34.4303 20.0887L34.2793 20.0395L34.1764 20.0052L34.0278 19.9595L33.9192 19.9252L33.7614 19.8771L33.6665 19.8497L33.4892 19.7971L33.4149 19.7742C32.4498 19.4964 31.4733 19.262 30.4877 19.071L29.3271 18.8423C28.2145 18.6502 27.0951 18.4959 25.9722 18.3804L25.1672 18.3026C23.4704 18.1505 21.7678 18.0739 20.064 18.0762C18.3605 18.077 16.6578 18.1526 14.9608 18.3026L14.7321 18.3255L14.1673 18.3804C13.0447 18.4981 11.9263 18.6518 10.8136 18.8412C9.52162 19.0659 8.24074 19.3502 6.97502 19.693L6.72574 19.7617L6.65142 19.7845L6.37699 19.8646L6.22034 19.9126L6.11171 19.9469L5.96307 19.9926L5.86016 20.0269C5.80914 20.0419 5.75844 20.0579 5.70808 20.075C5.67035 20.0864 5.63375 20.1001 5.59602 20.1127L5.45423 20.1584L5.33303 20.2007L5.19925 20.2465L5.07804 20.2899L4.9454 20.3379L4.82534 20.3837L4.6927 20.4329L4.57378 20.4786L4.44343 20.53L4.32337 20.5792L4.20902 20.6295L4.08896 20.681L3.96661 20.7336L3.84769 20.7862L3.72878 20.8399L3.60986 20.8948L3.37774 21.0069L3.26797 21.0617L3.04614 21.1761L2.93522 21.2367L2.82088 21.2939L2.71225 21.3568C2.61185 21.416 2.51273 21.4774 2.41496 21.5409L2.31433 21.606L2.22286 21.6689C2.16225 21.7112 2.10165 21.7547 2.04219 21.7993L1.96215 21.8622C2.49271 20.7187 3.56298 19.5753 5.08033 18.5142C8.42719 16.1667 13.8929 14.3028 20.0652 14.3028V14.2914ZM40 22.4636C39.9566 22.1526 39.8559 21.853 39.7027 21.5797V21.5374L39.5586 21.231C38.605 19.2025 36.3959 17.2632 33.2994 15.7276C33.105 14.8049 32.9497 13.8745 32.834 12.9387C32.7357 12.1303 32.674 11.3173 32.6511 10.5032C32.6374 9.99206 32.6419 9.48094 32.6625 8.97096C32.7368 7.24664 33.025 5.6241 33.5178 4.1502L33.9809 2.76891L32.6133 2.25093C30.4313 1.42243 28.1165 0.998526 25.7824 1C17.6411 1 10.3768 6.0769 7.27574 13.9209L6.50163 15.8797C3.62586 17.3661 1.55623 19.246 0.635756 21.0938C0.289292 21.526 0.0834714 21.9776 0.0205819 22.451L0 22.6054V22.7598C0.164656 25.0501 2.0239 27.0362 5.39477 28.5513C5.50912 31.5174 6.57938 33.9312 8.54611 35.7253C11.032 37.9893 14.9037 39.1396 20.0537 39.1396C25.2038 39.1396 29.0755 37.9905 31.5614 35.7253C33.5395 33.9186 34.6007 31.4888 34.7173 28.4987C38.0161 26.9928 39.8353 25.0226 40 22.7586V22.6054L39.9794 22.4522L40 22.4636Z" fill="#AD52DD"/>
<path fill-rule="evenodd" clip-rule="evenodd" d="M20.0652 37.6314C10.1858 37.6314 7.40266 33.2909 6.9773 29.1928C6.935 28.788 6.91441 28.3809 6.91556 27.9727C6.9157 27.5562 6.93478 27.14 6.97273 26.7252C7.15911 24.6819 7.79258 22.6546 8.79081 20.8102L8.85941 20.7942C10.323 20.4603 11.8015 20.203 13.2914 20.0235C13.7556 22.7906 16.166 24.3549 20.0663 24.3549C23.9666 24.3549 26.3781 22.7906 26.8424 20.0235C28.3323 20.203 29.8119 20.4603 31.2744 20.7942L31.343 20.8102C32.3401 22.6546 32.9747 24.6865 33.1611 26.7298C33.2098 27.2719 33.2266 27.8163 33.2114 28.3604C33.2114 28.3947 33.2091 28.4255 33.2079 28.4587C33.1988 28.6874 33.1828 28.9195 33.1599 29.1505C32.7483 33.2623 29.9811 37.6326 20.0675 37.6326L20.0652 37.6314ZM20.0652 14.2914C21.403 14.2914 22.7408 14.3795 24.0695 14.5544C23.4635 14.392 22.854 14.2491 22.24 14.1256C17.7547 13.2262 13.1244 13.3501 8.69361 14.4881C11.4688 7.46276 18.0744 2.51964 25.7824 2.51964C27.9311 2.51806 30.0621 2.90746 32.0714 3.6688C31.5316 5.28449 31.2206 7.03053 31.1394 8.90578L31.1257 9.45807L31.12 9.71649C31.1154 10.2733 31.1314 10.8302 31.1635 11.3859C31.215 12.2648 31.3074 13.1409 31.4402 14.0113C31.5797 14.9409 31.7569 15.8636 31.9707 16.7784C33.0909 17.2837 34.1603 17.8948 35.1644 18.6033C36.6143 19.6439 37.6571 20.7713 38.1773 21.8759C38.0916 21.8102 38.0047 21.7462 37.9166 21.6838L37.8252 21.6209L37.7268 21.5557L37.5279 21.4299L37.4272 21.3705L37.3198 21.3076L37.2054 21.2504L37.0945 21.1898L36.987 21.1326L36.8727 21.0755L36.7618 21.0206C36.6463 20.9626 36.5296 20.9069 36.4119 20.8536L36.293 20.7999L36.174 20.7473L36.0517 20.6947L35.9305 20.6432L35.8161 20.5929C35.7773 20.5758 35.7361 20.5586 35.6961 20.5438L35.5669 20.4923L35.4468 20.4466L35.1952 20.3517L35.0626 20.3036L34.9414 20.2602L34.8065 20.2145L34.6864 20.1721L34.5446 20.1264L34.4303 20.0887L34.2793 20.0395L34.1764 20.0052L34.0278 19.9595L33.9192 19.9252L33.7614 19.8771L33.6665 19.8497L33.4892 19.7971L33.4149 19.7742C32.4498 19.4964 31.4733 19.262 30.4877 19.071L29.3271 18.8423C28.2145 18.6502 27.0951 18.4959 25.9722 18.3804L25.1672 18.3026C23.4704 18.1505 21.7678 18.0739 20.064 18.0762C18.3605 18.077 16.6578 18.1526 14.9608 18.3026L14.7321 18.3255L14.1673 18.3804C13.0447 18.4981 11.9263 18.6518 10.8136 18.8412C9.52162 19.0659 8.24074 19.3502 6.97502 19.693L6.72574 19.7617L6.65142 19.7845L6.37699 19.8646L6.22034 19.9126L6.11171 19.9469L5.96307 19.9926L5.86016 20.0269C5.80914 20.0419 5.75844 20.0579 5.70808 20.075C5.67035 20.0864 5.63375 20.1001 5.59602 20.1127L5.45423 20.1584L5.33303 20.2007L5.19925 20.2465L5.07804 20.2899L4.9454 20.3379L4.82534 20.3837L4.6927 20.4329L4.57378 20.4786L4.44343 20.53L4.32337 20.5792L4.20902 20.6295L4.08896 20.681L3.96661 20.7336L3.84769 20.7862L3.72878 20.8399L3.60986 20.8948L3.37774 21.0069L3.26797 21.0617L3.04614 21.1761L2.93522 21.2367L2.82088 21.2939L2.71225 21.3568C2.61185 21.416 2.51273 21.4774 2.41496 21.5409L2.31433 21.606L2.22286 21.6689C2.16225 21.7112 2.10165 21.7547 2.04219 21.7993L1.96215 21.8622C2.49271 20.7187 3.56298 19.5753 5.08033 18.5142C8.42719 16.1667 13.8929 14.3028 20.0652 14.3028V14.2914ZM40 22.4636C39.9566 22.1526 39.8559 21.853 39.7027 21.5797V21.5374L39.5586 21.231C38.605 19.2025 36.3959 17.2632 33.2994 15.7276C33.105 14.8049 32.9497 13.8745 32.834 12.9387C32.7357 12.1303 32.674 11.3173 32.6511 10.5032C32.6374 9.99206 32.6419 9.48094 32.6625 8.97096C32.7368 7.24664 33.025 5.6241 33.5178 4.1502L33.9809 2.76891L32.6133 2.25093C30.4313 1.42243 28.1165 0.998526 25.7824 1C17.6411 1 10.3768 6.0769 7.27574 13.9209L6.50163 15.8797C3.62586 17.3661 1.55623 19.246 0.635756 21.0938C0.289292 21.526 0.0834714 21.9776 0.0205819 22.451L0 22.6054V22.7598C0.164656 25.0501 2.0239 27.0362 5.39477 28.5513C5.50912 31.5174 6.57938 33.9312 8.54611 35.7253C11.032 37.9893 14.9037 39.1396 20.0537 39.1396C25.2038 39.1396 29.0755 37.9905 31.5614 35.7253C33.5395 33.9186 34.6007 31.4888 34.7173 28.4987C38.0161 26.9928 39.8353 25.0226 40 22.7586V22.6054L39.9794 22.4522L40 22.4636Z" fill="black" fill-opacity="0.2"/>
</svg>
