<svg width="40" height="40" viewBox="0 0 40 40" fill="none" xmlns="http://www.w3.org/2000/svg"><path fill-rule="evenodd" clip-rule="evenodd" d="m28.5254 14.1717 10.8585-2.9099c.4385-.1175.7044.1668.5892.6363 0 0-1.2359 5.0341-1.7694 7.2071-.1518.6186-.5601 1.1284-1.1079 1.3835-1.7838.8305-6.011 2.7986-9.7585 4.5433 1.369-1.7326 2.1921-3.9578 2.1921-6.385 0-.0534-.0005-.1066-.0012-.1598l6.839-2.3784.3786-1.43-7.3665 2.1899c-.1628-.9526-.4539-1.8584-.8539-2.697Zm-17.9371-.2375L.616102 11.2618c-.438596-.1175-.7044419.1668-.5891933.6363 0 0 1.2358013 5.0341 1.7692913 7.2071.15182.6186.56011 1.1284 1.10793 1.3835 1.45949.6794 4.55441 2.1204 7.68417 3.5775v-5.5385l-6.95552-2.4189-.37867-1.43 7.33419 2.1803v-2.9249Zm5.1675-2.6989h-3.9911v19.147h4.1177v-4.2451C17.0937 26.873 18.5 27.2941 20 27.2941c4.5482 0 8.2352-3.8714 8.2352-8.6471C28.2352 13.8714 24.5482 10 20 10c-1.5526 0-3.0048.4511-4.2442 1.2353ZM20 22.9705c2.2741 0 4.1176-1.9356 4.1176-4.3235 0-2.3878-1.8435-4.3235-4.1176-4.3235-2.2741 0-4.1176 1.9357-4.1176 4.3235 0 2.3879 1.8435 4.3235 4.1176 4.3235Z" fill="#AD52DD"/><path fill-rule="evenodd" clip-rule="evenodd" d="m28.5254 14.1717 10.8585-2.9099c.4385-.1175.7044.1668.5892.6363 0 0-1.2359 5.0341-1.7694 7.2071-.1518.6186-.5601 1.1284-1.1079 1.3835-1.7838.8305-6.011 2.7986-9.7585 4.5433 1.369-1.7326 2.1921-3.9578 2.1921-6.385 0-.0534-.0005-.1066-.0012-.1598l6.839-2.3784.3786-1.43-7.3665 2.1899c-.1628-.9526-.4539-1.8584-.8539-2.697Zm-17.9371-.2375L.616102 11.2618c-.438596-.1175-.7044419.1668-.5891933.6363 0 0 1.2358013 5.0341 1.7692913 7.2071.15182.6186.56011 1.1284 1.10793 1.3835 1.45949.6794 4.55441 2.1204 7.68417 3.5775v-5.5385l-6.95552-2.4189-.37867-1.43 7.33419 2.1803v-2.9249Zm5.1675-2.6989h-3.9911v19.147h4.1177v-4.2451C17.0937 26.873 18.5 27.2941 20 27.2941c4.5482 0 8.2352-3.8714 8.2352-8.6471C28.2352 13.8714 24.5482 10 20 10c-1.5526 0-3.0048.4511-4.2442 1.2353ZM20 22.9705c2.2741 0 4.1176-1.9356 4.1176-4.3235 0-2.3878-1.8435-4.3235-4.1176-4.3235-2.2741 0-4.1176 1.9357-4.1176 4.3235 0 2.3879 1.8435 4.3235 4.1176 4.3235Z" fill="#000" fill-opacity=".2"/></svg>