<svg width="40" height="40" viewBox="0 0 40 40" fill="none" xmlns="http://www.w3.org/2000/svg"><mask id="a" style="mask-type:alpha" maskUnits="userSpaceOnUse" x="0" y="22" width="38" height="17"><path d="M37.8401 38.5525H0V22.9727h37.8401v15.5798Z" fill="#fff"/></mask><g mask="url(#a)" fill-rule="evenodd" clip-rule="evenodd"><path d="M24.9345 26.8152H1.92077C.859544 26.8152 0 25.9556 0 24.8944s.859544-1.9208 1.92077-1.9208H24.9345c1.0612 0 1.9207.8596 1.9207 1.9208s-.8595 1.9208-1.9207 1.9208Z" fill="#AD52DD"/><path d="M24.9345 26.8152H1.92077C.859544 26.8152 0 25.9556 0 24.8944s.859544-1.9208 1.92077-1.9208H24.9345c1.0612 0 1.9207.8596 1.9207 1.9208s-.8595 1.9208-1.9207 1.9208Z" fill="#000" fill-opacity=".2"/><path d="M20 38.5806c-1.8747 0-3.7263-.2785-5.503-.8293-.4865-.1508-.8932-.4886-1.1307-.9392-.2375-.4506-.2862-.9771-.1356-1.4637.3141-1.018 1.3926-1.5846 2.4034-1.2677 1.4079.437 2.8764.6579 4.3659.6579 6.5177 0 12.1767-4.1825 14.0826-10.4106.0738-.2411.1943-.4654.3549-.6599.1605-.1945.3578-.3555.5805-.4737.2228-.1182.4667-.1913.7178-.2151.251-.0238.5043.0021.7454.0762 1.0141.3073 1.5846 1.383 1.2744 2.3962C35.3527 33.3033 28.2171 38.5806 20 38.5806Z" fill="#AD52DD"/><path d="M20 38.5806c-1.8747 0-3.7263-.2785-5.503-.8293-.4865-.1508-.8932-.4886-1.1307-.9392-.2375-.4506-.2862-.9771-.1356-1.4637.3141-1.018 1.3926-1.5846 2.4034-1.2677 1.4079.437 2.8764.6579 4.3659.6579 6.5177 0 12.1767-4.1825 14.0826-10.4106.0738-.2411.1943-.4654.3549-.6599.1605-.1945.3578-.3555.5805-.4737.2228-.1182.4667-.1913.7178-.2151.251-.0238.5043.0021.7454.0762 1.0141.3073 1.5846 1.383 1.2744 2.3962C35.3527 33.3033 28.2171 38.5806 20 38.5806Z" fill="#000" fill-opacity=".2"/></g><path fill-rule="evenodd" clip-rule="evenodd" d="M38.0793 17.0554H15.0665c-1.0612 0-1.9207-.8595-1.9207-1.9208 0-1.0612.8595-1.9207 1.9207-1.9207h23.0128c1.0612 0 1.9207.8595 1.9207 1.9207 0 1.0613-.8595 1.9208-1.9207 1.9208Z" fill="#AD52DD"/><path fill-rule="evenodd" clip-rule="evenodd" d="M38.0793 17.0554H15.0665c-1.0612 0-1.9207-.8595-1.9207-1.9208 0-1.0612.8595-1.9207 1.9207-1.9207h23.0128c1.0612 0 1.9207.8595 1.9207 1.9207 0 1.0613-.8595 1.9208-1.9207 1.9208Z" fill="#000" fill-opacity=".2"/><path fill-rule="evenodd" clip-rule="evenodd" d="M4.08168 17.0564c-.30042 0-.59665-.0704-.86491-.2056-.26825-.1352-.50105-.3315-.67968-.573-.17863-.2416-.29811-.5216-.34885-.8177-.05074-.2961-.03132-.6.0567-.8872C4.6483 6.72171 11.784 1.44824 20 1.44824c1.8762 0 3.7278.27851 5.503.82977.241.07465.4649.19604.659.35722.194.16119.3544.35901.472.58219.1176.22318.19.46733.2133.71852.0232.25118-.0033.50449-.078.74544-.0744.24109-.1957.46514-.3568.6593s-.359.35463-.5823.47221c-.2232.11758-.4675.18996-.7187.213-.2513.02304-.5046-.00371-.7455-.07873-1.407-.43217-2.8764-.65306-4.366-.65306-6.5162 0-12.17618 4.18247-14.08207 10.4106-.12046.393-.36375.7371-.69416.9817-.33041.2446-.73053.3768-1.14161.3772" fill="#AD52DD"/><path fill-rule="evenodd" clip-rule="evenodd" d="M4.08168 17.0564c-.30042 0-.59665-.0704-.86491-.2056-.26825-.1352-.50105-.3315-.67968-.573-.17863-.2416-.29811-.5216-.34885-.8177-.05074-.2961-.03132-.6.0567-.8872C4.6483 6.72171 11.784 1.44824 20 1.44824c1.8762 0 3.7278.27851 5.503.82977.241.07465.4649.19604.659.35722.194.16119.3544.35901.472.58219.1176.22318.19.46733.2133.71852.0232.25118-.0033.50449-.078.74544-.0744.24109-.1957.46514-.3568.6593s-.359.35463-.5823.47221c-.2232.11758-.4675.18996-.7187.213-.2513.02304-.5046-.00371-.7455-.07873-1.407-.43217-2.8764-.65306-4.366-.65306-6.5162 0-12.17618 4.18247-14.08207 10.4106-.12046.393-.36375.7371-.69416.9817-.33041.2446-.73053.3768-1.14161.3772" fill="#000" fill-opacity=".2"/><path fill-rule="evenodd" clip-rule="evenodd" d="M33.3214 7.8153c0 .50942-.2023.99797-.5625 1.35819-.3603.36021-.8488.56258-1.3582.56258-.5094 0-.998-.20237-1.3582-.56258-.3602-.36022-.5626-.84877-.5626-1.35819s.2024-.99797.5626-1.35819c.3602-.36021.8488-.56258 1.3582-.56258.5094 0 .9979.20237 1.3582.56258.3602.36022.5625.84877.5625 1.35819ZM10.5195 32.2158c0 .5094-.2023.998-.56256 1.3582-.36022.3602-.84877.5626-1.35819.5626s-.99798-.2024-1.35819-.5626c-.36021-.3602-.56258-.8488-.56258-1.3582 0-.5094.20237-.998.56258-1.3582.36021-.3602.84877-.5626 1.35819-.5626s.99797.2024 1.35819.5626c.36026.3602.56256.8488.56256 1.3582Z" fill="#AD52DD"/><path fill-rule="evenodd" clip-rule="evenodd" d="M33.3214 7.8153c0 .50942-.2023.99797-.5625 1.35819-.3603.36021-.8488.56258-1.3582.56258-.5094 0-.998-.20237-1.3582-.56258-.3602-.36022-.5626-.84877-.5626-1.35819s.2024-.99797.5626-1.35819c.3602-.36021.8488-.56258 1.3582-.56258.5094 0 .9979.20237 1.3582.56258.3602.36022.5625.84877.5625 1.35819ZM10.5195 32.2158c0 .5094-.2023.998-.56256 1.3582-.36022.3602-.84877.5626-1.35819.5626s-.99798-.2024-1.35819-.5626c-.36021-.3602-.56258-.8488-.56258-1.3582 0-.5094.20237-.998.56258-1.3582.36021-.3602.84877-.5626 1.35819-.5626s.99797.2024 1.35819.5626c.36026.3602.56256.8488.56256 1.3582Z" fill="#000" fill-opacity=".2"/></svg>