<svg width="39" height="40" viewBox="0 0 39 40" fill="none" xmlns="http://www.w3.org/2000/svg"><path d="M23.0443 39.9357c-2.1636.3863-4.2499-1.0046-4.6362-3.1681L12.5355 4.70054C12.1492 2.53698 13.54.450695 15.7036.0643452 17.8672-.322005 19.9535 1.06886 20.3398 3.23241l5.8725 32.06709c.3864 2.1635-1.0818 4.2498-3.168 4.6362Z" fill="#AD52DD"/><path d="M23.0443 39.9357c-2.1636.3863-4.2499-1.0046-4.6362-3.1681L12.5355 4.70054C12.1492 2.53698 13.54.450695 15.7036.0643452 17.8672-.322005 19.9535 1.06886 20.3398 3.23241l5.8725 32.06709c.3864 2.1635-1.0818 4.2498-3.168 4.6362Z" fill="#000" fill-opacity=".2"/><path d="M7.66744 34.4506c-1.39086.2318-2.78172-.2318-3.78623-1.3136-1.39086-1.6999-1.23632-4.1726.46362-5.5634L29.1485 6.47887c1.6999-1.39086 4.1726-1.23632 5.5634.46362 1.3909 1.69994 1.2364 4.17261-.4636 5.56341L9.52192 33.6006c-.54089.4637-1.23632.7727-1.85448.85Z" fill="#AD52DD"/><path d="M7.66744 34.4506c-1.39086.2318-2.78172-.2318-3.78623-1.3136-1.39086-1.6999-1.23632-4.1726.46362-5.5634L29.1485 6.47887c1.6999-1.39086 4.1726-1.23632 5.5634.46362 1.3909 1.69994 1.2364 4.17261-.4636 5.56341L9.52192 33.6006c-.54089.4637-1.23632.7727-1.85448.85Z" fill="#000" fill-opacity=".2"/><path d="M35.4076 29.3492c-.6954.1546-1.3909.0773-2.009-.1545L2.64513 18.2996C.558843 17.5269-.522936 15.2861.249764 13.1998c.772696-2.0863 3.013526-3.168 5.099816-2.3953l30.67622 10.895c2.0863.7727 3.168 3.0135 2.3953 5.0998-.4636 1.3909-1.6999 2.3181-3.0135 2.5499Z" fill="#AD52DD"/><path d="M35.4076 29.3492c-.6954.1546-1.3909.0773-2.009-.1545L2.64513 18.2996C.558843 17.5269-.522936 15.2861.249764 13.1998c.772696-2.0863 3.013526-3.168 5.099816-2.3953l30.67622 10.895c2.0863.7727 3.168 3.0135 2.3953 5.0998-.4636 1.3909-1.6999 2.3181-3.0135 2.5499Z" fill="#000" fill-opacity=".2"/></svg>