<svg width="79" height="24" viewBox="0 0 79 24" fill="none" xmlns="http://www.w3.org/2000/svg"><path d="m75.4289 11.1839-3.1923 7.2772h1.5507l1.6113-3.8066.0455-.1119.7071 1.6634.3769.9276.5418 1.3275h1.5658l-3.2068-7.2772Zm-33.17.6878c-.3011-.24-.6624-.4319-1.0539-.5279-.3915-.096-1.0389-.1599-1.9875-.1599h-1.6111v7.2772h1.8972c.7829 0 1.3551-.048 1.7315-.1599.3915-.112.7378-.2879 1.0389-.5278.3915-.3199.7077-.7517.9034-1.2476.1957-.4958.3012-1.0715.3012-1.6953 0-.6398-.1055-1.2155-.3012-1.7114-.2108-.4958-.5119-.9276-.9185-1.2474Zm-.4366 4.0144c-.1054.2879-.271.5438-.4969.7357-.1505.144-.3463.2399-.557.3039-.2259.064-.5722.096-1.039.096h-.6624v-4.3984h.557c.5271 0 .9034.032 1.1444.096.2258.064.4215.1599.5721.3039.2108.1919.3764.4478.4969.7357.0903.3039.1505.6558.1505 1.0556 0 .3998-.0602.7677-.1656 1.0716Zm6.4893 2.575h3.9901v-1.4235h-2.5446v-1.7753h2.5446v-1.4074h-2.5446v-1.2955h2.5446v-1.3755h-3.9901v7.2772Zm10.2839-1.4235v-4.4782l-1.4605-1.3755v7.2772h3.99l-.783-1.4235h-1.7465Zm5.375-5.8537.0152 1.3755h1.9724v5.9017h1.4453v-5.9017h1.9276l-.0152-1.3755h-5.3453ZM41.3704 6.9454h1.1293v1.00763h.3614V5.53796h-.3614v1.05557h-1.1293V5.53796h-.3613v2.41507h.3613V6.9454Zm-3.764-1.07156h.6927v2.07919h.3764V5.87384h.6775v-.33588h-1.7466v.33588Zm7.2123 2.07919h1.2647v-.35187H45.18v-.78368h.9034v-.33589H45.18v-.60775h.9034v-.33588h-1.2647v2.41507Z" fill="#AD52DD"/><path d="m75.4289 11.1839-3.1923 7.2772h1.5507l1.6113-3.8066.0455-.1119.7071 1.6634.3769.9276.5418 1.3275h1.5658l-3.2068-7.2772Zm-33.17.6878c-.3011-.24-.6624-.4319-1.0539-.5279-.3915-.096-1.0389-.1599-1.9875-.1599h-1.6111v7.2772h1.8972c.7829 0 1.3551-.048 1.7315-.1599.3915-.112.7378-.2879 1.0389-.5278.3915-.3199.7077-.7517.9034-1.2476.1957-.4958.3012-1.0715.3012-1.6953 0-.6398-.1055-1.2155-.3012-1.7114-.2108-.4958-.5119-.9276-.9185-1.2474Zm-.4366 4.0144c-.1054.2879-.271.5438-.4969.7357-.1505.144-.3463.2399-.557.3039-.2259.064-.5722.096-1.039.096h-.6624v-4.3984h.557c.5271 0 .9034.032 1.1444.096.2258.064.4215.1599.5721.3039.2108.1919.3764.4478.4969.7357.0903.3039.1505.6558.1505 1.0556 0 .3998-.0602.7677-.1656 1.0716Zm6.4893 2.575h3.9901v-1.4235h-2.5446v-1.7753h2.5446v-1.4074h-2.5446v-1.2955h2.5446v-1.3755h-3.9901v7.2772Zm10.2839-1.4235v-4.4782l-1.4605-1.3755v7.2772h3.99l-.783-1.4235h-1.7465Zm5.375-5.8537.0152 1.3755h1.9724v5.9017h1.4453v-5.9017h1.9276l-.0152-1.3755h-5.3453ZM41.3704 6.9454h1.1293v1.00763h.3614V5.53796h-.3614v1.05557h-1.1293V5.53796h-.3613v2.41507h.3613V6.9454Zm-3.764-1.07156h.6927v2.07919h.3764V5.87384h.6775v-.33588h-1.7466v.33588Zm7.2123 2.07919h1.2647v-.35187H45.18v-.78368h.9034v-.33589H45.18v-.60775h.9034v-.33588h-1.2647v2.41507Z" fill="#000" fill-opacity=".2"/><path fill-rule="evenodd" clip-rule="evenodd" d="M14.4143 17.7179H6.02797L15.0445 2.09403 13.845 0 2.40917 19.812H15.6239l-1.2096-2.0941Zm.8334-2.7548 4.0052 6.9428H1.20966L0 24l22.8717-.0102-6.4143-11.1207-1.2097 2.094Zm-5.2248.6506 6.4142-11.11053 11.263 19.47653h-2.4193L16.4371 8.69126l-3.995 6.92244h-2.4192Z" fill="#AD52DD"/><path fill-rule="evenodd" clip-rule="evenodd" d="M14.4143 17.7179H6.02797L15.0445 2.09403 13.845 0 2.40917 19.812H15.6239l-1.2096-2.0941Zm.8334-2.7548 4.0052 6.9428H1.20966L0 24l22.8717-.0102-6.4143-11.1207-1.2097 2.094Zm-5.2248.6506 6.4142-11.11053 11.263 19.47653h-2.4193L16.4371 8.69126l-3.995 6.92244h-2.4192Z" fill="#000" fill-opacity=".2"/></svg>