<svg width="560" height="300" viewBox="0 0 560 300" fill="none" xmlns="http://www.w3.org/2000/svg">
<rect width="560" height="300" fill="white"/>
<rect width="496" height="205.274" transform="translate(32 74)" fill="white"/>
<path d="M70.6267 78.0273V251.901" stroke="#F0F0F0" stroke-width="0.863636"/>
<path d="M146.473 78.0273V251.901" stroke="#F0F0F0" stroke-width="0.863636"/>
<path d="M221.458 78.0273V251.901" stroke="#F0F0F0" stroke-width="0.863636"/>
<path d="M297.305 78.0273V251.901" stroke="#F0F0F0" stroke-width="0.863636"/>
<path d="M372.29 78.0273V251.901" stroke="#F0F0F0" stroke-width="0.863636"/>
<path d="M448.137 78.0273V251.901" stroke="#F0F0F0" stroke-width="0.863636"/>
<path d="M523.984 78.0273V251.901" stroke="#F0F0F0" stroke-width="0.863636"/>
<path d="M71.0574 252.236H523.552" stroke="#F0F0F0" stroke-width="0.863636"/>
<path d="M71.0574 217.328H523.552" stroke="#F0F0F0" stroke-width="0.863636"/>
<path d="M71.0574 182.418H523.552" stroke="#F0F0F0" stroke-width="0.863636"/>
<path d="M71.0574 148.182H523.552" stroke="#F0F0F0" stroke-width="0.863636"/>
<path d="M71.0574 113.274H523.552" stroke="#F0F0F0" stroke-width="0.863636"/>
<path d="M71.0574 77.6924H523.552" stroke="#F0F0F0" stroke-width="0.863636"/>
<path d="M71.0574 252.236H523.552" stroke="#F0F0F0" stroke-width="0.863636"/>
<path d="M70.6267 78.0273V251.901" stroke="#F0F0F0" stroke-width="0.863636"/>
<path d="M64.4001 259.728H65.3845V264.369C65.3845 264.788 65.3014 265.147 65.1352 265.446C64.9711 265.744 64.7399 265.972 64.4417 266.13C64.1434 266.285 63.7939 266.363 63.3934 266.363C63.0247 266.363 62.6934 266.296 62.3994 266.162C62.1075 266.027 61.8763 265.832 61.7059 265.577C61.5375 265.319 61.4534 265.006 61.4534 264.637H62.4345C62.4345 264.818 62.4761 264.975 62.5592 265.107C62.6444 265.239 62.7605 265.342 62.9076 265.417C63.0567 265.489 63.2272 265.526 63.4189 265.526C63.6277 265.526 63.8046 265.482 63.9495 265.395C64.0965 265.305 64.2083 265.174 64.285 265.001C64.3617 264.829 64.4001 264.618 64.4001 264.369V259.728ZM68.1738 266.382C67.8627 266.382 67.5815 266.325 67.3301 266.21C67.0786 266.092 66.8794 265.923 66.7324 265.701C66.5875 265.48 66.5151 265.208 66.5151 264.886C66.5151 264.609 66.5683 264.381 66.6749 264.202C66.7814 264.023 66.9252 263.882 67.1063 263.777C67.2874 263.673 67.4899 263.594 67.7136 263.541C67.9373 263.488 68.1653 263.447 68.3975 263.419C68.6916 263.385 68.9302 263.358 69.1134 263.336C69.2967 263.313 69.4298 263.276 69.5129 263.224C69.596 263.173 69.6376 263.09 69.6376 262.975V262.953C69.6376 262.674 69.5587 262.457 69.4011 262.304C69.2455 262.151 69.0133 262.074 68.7043 262.074C68.3826 262.074 68.1291 262.145 67.9437 262.288C67.7605 262.429 67.6337 262.585 67.5634 262.758L66.6653 262.553C66.7718 262.255 66.9274 262.014 67.1319 261.831C67.3386 261.646 67.5761 261.511 67.8446 261.428C68.1131 261.343 68.3954 261.3 68.6916 261.3C68.8876 261.3 69.0953 261.324 69.3148 261.371C69.5364 261.415 69.7431 261.499 69.9348 261.62C70.1287 261.741 70.2874 261.915 70.411 262.141C70.5346 262.365 70.5964 262.656 70.5964 263.013V266.273H69.6632V265.602H69.6248C69.563 265.726 69.4703 265.847 69.3467 265.967C69.2232 266.086 69.0644 266.185 68.8705 266.264C68.6766 266.343 68.4444 266.382 68.1738 266.382ZM68.3815 265.615C68.6458 265.615 68.8716 265.563 69.0591 265.458C69.2487 265.354 69.3926 265.218 69.4906 265.049C69.5907 264.879 69.6408 264.697 69.6408 264.503V263.87C69.6067 263.904 69.5406 263.936 69.4426 263.966C69.3467 263.994 69.237 264.018 69.1134 264.039C68.9899 264.059 68.8695 264.077 68.7523 264.094C68.6351 264.109 68.5371 264.121 68.4583 264.132C68.2729 264.156 68.1035 264.195 67.9501 264.25C67.7988 264.306 67.6774 264.386 67.5857 264.49C67.4962 264.592 67.4515 264.729 67.4515 264.899C67.4515 265.136 67.5389 265.315 67.7136 265.436C67.8883 265.555 68.111 265.615 68.3815 265.615ZM72.8248 263.359V266.273H71.8692V261.364H72.7865V262.163H72.8472C72.9601 261.903 73.137 261.695 73.3777 261.537C73.6206 261.379 73.9264 261.3 74.295 261.3C74.6295 261.3 74.9225 261.371 75.1739 261.511C75.4253 261.65 75.6203 261.857 75.7588 262.131C75.8973 262.406 75.9665 262.746 75.9665 263.151V266.273H75.0109V263.266C75.0109 262.91 74.9182 262.632 74.7328 262.432C74.5475 262.229 74.2929 262.128 73.969 262.128C73.7474 262.128 73.5503 262.176 73.3777 262.272C73.2073 262.368 73.072 262.509 72.9718 262.694C72.8738 262.877 72.8248 263.099 72.8248 263.359Z" fill="#A1A1AA"/>
<path d="M138.521 266.273V259.728H142.58V260.578H139.508V262.572H142.289V263.419H139.508V266.273H138.521ZM145.473 266.373C144.989 266.373 144.573 266.269 144.223 266.062C143.876 265.854 143.608 265.561 143.418 265.184C143.23 264.804 143.137 264.36 143.137 263.851C143.137 263.348 143.23 262.905 143.418 262.521C143.608 262.138 143.872 261.838 144.211 261.623C144.551 261.408 144.95 261.3 145.406 261.3C145.683 261.3 145.951 261.346 146.211 261.438C146.471 261.529 146.705 261.673 146.911 261.869C147.118 262.065 147.281 262.32 147.4 262.633C147.52 262.944 147.579 263.322 147.579 263.768V264.107H143.677V263.391H146.643C146.643 263.139 146.592 262.917 146.489 262.723C146.387 262.527 146.243 262.372 146.058 262.259C145.875 262.146 145.659 262.09 145.412 262.09C145.144 262.09 144.909 262.156 144.709 262.288C144.511 262.418 144.358 262.588 144.249 262.799C144.142 263.008 144.089 263.235 144.089 263.48V264.039C144.089 264.368 144.147 264.647 144.262 264.877C144.379 265.107 144.542 265.283 144.751 265.404C144.96 265.523 145.203 265.583 145.483 265.583C145.664 265.583 145.829 265.558 145.978 265.506C146.127 265.453 146.256 265.374 146.365 265.27C146.473 265.165 146.556 265.037 146.614 264.883L147.518 265.046C147.446 265.312 147.316 265.546 147.129 265.746C146.943 265.944 146.71 266.099 146.429 266.21C146.15 266.318 145.831 266.373 145.473 266.373ZM148.716 266.273V259.728H149.672V262.16H149.729C149.785 262.058 149.865 261.94 149.969 261.805C150.073 261.671 150.218 261.554 150.404 261.454C150.589 261.352 150.834 261.3 151.139 261.3C151.535 261.3 151.889 261.401 152.2 261.601C152.511 261.801 152.755 262.09 152.932 262.467C153.111 262.844 153.2 263.298 153.2 263.828C153.2 264.359 153.112 264.814 152.935 265.193C152.758 265.57 152.515 265.861 152.206 266.066C151.897 266.268 151.545 266.369 151.148 266.369C150.85 266.369 150.606 266.319 150.416 266.219C150.229 266.119 150.082 266.002 149.975 265.868C149.869 265.733 149.787 265.614 149.729 265.51H149.649V266.273H148.716ZM149.653 263.819C149.653 264.164 149.703 264.467 149.803 264.727C149.903 264.987 150.048 265.19 150.237 265.337C150.427 265.482 150.659 265.554 150.934 265.554C151.22 265.554 151.458 265.479 151.65 265.327C151.842 265.174 151.987 264.966 152.085 264.704C152.185 264.442 152.235 264.147 152.235 263.819C152.235 263.495 152.186 263.204 152.088 262.946C151.992 262.689 151.847 262.485 151.653 262.336C151.462 262.187 151.222 262.112 150.934 262.112C150.657 262.112 150.423 262.184 150.231 262.326C150.041 262.469 149.898 262.668 149.8 262.924C149.702 263.18 149.653 263.478 149.653 263.819Z" fill="#A1A1AA"/>
<path d="M214.593 259.728H215.791L217.875 264.816H217.952L220.035 259.728H221.234V266.273H220.294V261.537H220.234L218.303 266.264H217.523L215.593 261.534H215.532V266.273H214.593V259.728ZM224.022 266.382C223.711 266.382 223.429 266.325 223.178 266.21C222.927 266.092 222.727 265.923 222.58 265.701C222.435 265.48 222.363 265.208 222.363 264.886C222.363 264.609 222.416 264.381 222.523 264.202C222.629 264.023 222.773 263.882 222.954 263.777C223.135 263.673 223.338 263.594 223.561 263.541C223.785 263.488 224.013 263.447 224.245 263.419C224.539 263.385 224.778 263.358 224.961 263.336C225.145 263.313 225.278 263.276 225.361 263.224C225.444 263.173 225.485 263.09 225.485 262.975V262.953C225.485 262.674 225.407 262.457 225.249 262.304C225.093 262.151 224.861 262.074 224.552 262.074C224.231 262.074 223.977 262.145 223.792 262.288C223.608 262.429 223.482 262.585 223.411 262.758L222.513 262.553C222.62 262.255 222.775 262.014 222.98 261.831C223.186 261.646 223.424 261.511 223.693 261.428C223.961 261.343 224.243 261.3 224.539 261.3C224.735 261.3 224.943 261.324 225.163 261.371C225.384 261.415 225.591 261.499 225.783 261.62C225.977 261.741 226.135 261.915 226.259 262.141C226.383 262.365 226.444 262.656 226.444 263.013V266.273H225.511V265.602H225.473C225.411 265.726 225.318 265.847 225.195 265.967C225.071 266.086 224.912 266.185 224.718 266.264C224.525 266.343 224.292 266.382 224.022 266.382ZM224.229 265.615C224.494 265.615 224.72 265.563 224.907 265.458C225.097 265.354 225.24 265.218 225.338 265.049C225.439 264.879 225.489 264.697 225.489 264.503V263.87C225.455 263.904 225.389 263.936 225.291 263.966C225.195 263.994 225.085 264.018 224.961 264.039C224.838 264.059 224.717 264.077 224.6 264.094C224.483 264.109 224.385 264.121 224.306 264.132C224.121 264.156 223.951 264.195 223.798 264.25C223.647 264.306 223.525 264.386 223.434 264.49C223.344 264.592 223.299 264.729 223.299 264.899C223.299 265.136 223.387 265.315 223.561 265.436C223.736 265.555 223.959 265.615 224.229 265.615ZM227.717 266.273V261.364H228.641V262.144H228.692C228.781 261.88 228.939 261.672 229.165 261.521C229.393 261.368 229.651 261.291 229.938 261.291C229.998 261.291 230.068 261.293 230.149 261.297C230.232 261.301 230.297 261.307 230.344 261.313V262.227C230.306 262.217 230.238 262.205 230.14 262.192C230.042 262.177 229.944 262.17 229.846 262.17C229.62 262.17 229.418 262.218 229.242 262.314C229.067 262.407 228.928 262.538 228.826 262.707C228.724 262.873 228.673 263.062 228.673 263.276V266.273H227.717Z" fill="#A1A1AA"/>
<path d="M288.736 266.273H287.687L290.043 259.728H291.184L293.539 266.273H292.491L290.64 260.917H290.589L288.736 266.273ZM288.911 263.71H292.312V264.541H288.911V263.71ZM294.408 268.114V261.364H295.341V262.16H295.421C295.476 262.058 295.556 261.94 295.661 261.805C295.765 261.671 295.91 261.554 296.095 261.454C296.281 261.352 296.526 261.3 296.83 261.3C297.227 261.3 297.58 261.401 297.891 261.601C298.203 261.801 298.446 262.09 298.623 262.467C298.802 262.844 298.892 263.298 298.892 263.828C298.892 264.359 298.803 264.814 298.627 265.193C298.45 265.57 298.207 265.861 297.898 266.066C297.589 266.268 297.236 266.369 296.84 266.369C296.542 266.369 296.298 266.319 296.108 266.219C295.921 266.119 295.774 266.002 295.667 265.868C295.56 265.733 295.478 265.614 295.421 265.51H295.363V268.114H294.408ZM295.344 263.819C295.344 264.164 295.394 264.467 295.494 264.727C295.595 264.987 295.739 265.19 295.929 265.337C296.119 265.482 296.351 265.554 296.626 265.554C296.911 265.554 297.15 265.479 297.342 265.327C297.533 265.174 297.678 264.966 297.776 264.704C297.877 264.442 297.927 264.147 297.927 263.819C297.927 263.495 297.878 263.204 297.78 262.946C297.684 262.689 297.539 262.485 297.345 262.336C297.153 262.187 296.913 262.112 296.626 262.112C296.349 262.112 296.114 262.184 295.923 262.326C295.733 262.469 295.589 262.668 295.491 262.924C295.393 263.18 295.344 263.478 295.344 263.819ZM299.962 266.273V261.364H300.886V262.144H300.937C301.027 261.88 301.184 261.672 301.41 261.521C301.638 261.368 301.896 261.291 302.184 261.291C302.243 261.291 302.314 261.293 302.395 261.297C302.478 261.301 302.543 261.307 302.59 261.313V262.227C302.551 262.217 302.483 262.205 302.385 262.192C302.287 262.177 302.189 262.17 302.091 262.17C301.865 262.17 301.664 262.218 301.487 262.314C301.312 262.407 301.174 262.538 301.071 262.707C300.969 262.873 300.918 263.062 300.918 263.276V266.273H299.962Z" fill="#A1A1AA"/>
<path d="M365.259 259.728H366.458L368.541 264.816H368.618L370.702 259.728H371.9V266.273H370.961V261.537H370.9L368.97 266.264H368.19L366.259 261.534H366.199V266.273H365.259V259.728ZM374.688 266.382C374.377 266.382 374.096 266.325 373.844 266.21C373.593 266.092 373.394 265.923 373.247 265.701C373.102 265.48 373.029 265.208 373.029 264.886C373.029 264.609 373.083 264.381 373.189 264.202C373.296 264.023 373.44 263.882 373.621 263.777C373.802 263.673 374.004 263.594 374.228 263.541C374.452 263.488 374.68 263.447 374.912 263.419C375.206 263.385 375.445 263.358 375.628 263.336C375.811 263.313 375.944 263.276 376.027 263.224C376.11 263.173 376.152 263.09 376.152 262.975V262.953C376.152 262.674 376.073 262.457 375.915 262.304C375.76 262.151 375.528 262.074 375.219 262.074C374.897 262.074 374.643 262.145 374.458 262.288C374.275 262.429 374.148 262.585 374.078 262.758L373.18 262.553C373.286 262.255 373.442 262.014 373.646 261.831C373.853 261.646 374.091 261.511 374.359 261.428C374.627 261.343 374.91 261.3 375.206 261.3C375.402 261.3 375.61 261.324 375.829 261.371C376.051 261.415 376.257 261.499 376.449 261.62C376.643 261.741 376.802 261.915 376.925 262.141C377.049 262.365 377.111 262.656 377.111 263.013V266.273H376.178V265.602H376.139C376.077 265.726 375.985 265.847 375.861 265.967C375.738 266.086 375.579 266.185 375.385 266.264C375.191 266.343 374.959 266.382 374.688 266.382ZM374.896 265.615C375.16 265.615 375.386 265.563 375.574 265.458C375.763 265.354 375.907 265.218 376.005 265.049C376.105 264.879 376.155 264.697 376.155 264.503V263.87C376.121 263.904 376.055 263.936 375.957 263.966C375.861 263.994 375.751 264.018 375.628 264.039C375.504 264.059 375.384 264.077 375.267 264.094C375.15 264.109 375.051 264.121 374.973 264.132C374.787 264.156 374.618 264.195 374.464 264.25C374.313 264.306 374.192 264.386 374.1 264.49C374.011 264.592 373.966 264.729 373.966 264.899C373.966 265.136 374.053 265.315 374.228 265.436C374.403 265.555 374.625 265.615 374.896 265.615ZM378.812 268.114C378.669 268.114 378.539 268.103 378.422 268.079C378.305 268.058 378.217 268.034 378.16 268.009L378.39 267.226C378.565 267.273 378.72 267.293 378.857 267.287C378.993 267.28 379.113 267.229 379.218 267.133C379.324 267.037 379.418 266.881 379.499 266.663L379.617 266.337L377.821 261.364H378.844L380.087 265.174H380.138L381.381 261.364H382.407L380.384 266.929C380.291 267.184 380.171 267.401 380.026 267.577C379.881 267.756 379.709 267.891 379.509 267.98C379.308 268.07 379.076 268.114 378.812 268.114Z" fill="#A1A1AA"/>
<path d="M440.636 259.728H441.621V264.369C441.621 264.788 441.537 265.147 441.371 265.446C441.207 265.744 440.976 265.972 440.678 266.13C440.379 266.285 440.03 266.363 439.629 266.363C439.261 266.363 438.93 266.296 438.635 266.162C438.344 266.027 438.112 265.832 437.942 265.577C437.774 265.319 437.689 265.006 437.689 264.637H438.671C438.671 264.818 438.712 264.975 438.795 265.107C438.881 265.239 438.997 265.342 439.144 265.417C439.293 265.489 439.463 265.526 439.655 265.526C439.864 265.526 440.041 265.482 440.186 265.395C440.333 265.305 440.444 265.174 440.521 265.001C440.598 264.829 440.636 264.618 440.636 264.369V259.728ZM446.091 264.238V261.364H447.05V266.273H446.11V265.423H446.059C445.946 265.685 445.765 265.904 445.516 266.078C445.269 266.251 444.961 266.337 444.592 266.337C444.277 266.337 443.998 266.268 443.755 266.13C443.514 265.989 443.324 265.781 443.186 265.506C443.049 265.232 442.981 264.892 442.981 264.487V261.364H443.937V264.372C443.937 264.706 444.03 264.973 444.215 265.171C444.4 265.369 444.641 265.468 444.937 265.468C445.116 265.468 445.294 265.423 445.471 265.334C445.65 265.244 445.798 265.109 445.915 264.928C446.035 264.747 446.093 264.517 446.091 264.238ZM449.289 263.359V266.273H448.334V261.364H449.251V262.163H449.312C449.425 261.903 449.602 261.695 449.842 261.537C450.085 261.379 450.391 261.3 450.76 261.3C451.094 261.3 451.387 261.371 451.638 261.511C451.89 261.65 452.085 261.857 452.223 262.131C452.362 262.406 452.431 262.746 452.431 263.151V266.273H451.475V263.266C451.475 262.91 451.383 262.632 451.197 262.432C451.012 262.229 450.757 262.128 450.434 262.128C450.212 262.128 450.015 262.176 449.842 262.272C449.672 262.368 449.537 262.509 449.436 262.694C449.338 262.877 449.289 263.099 449.289 263.359ZM455.828 266.373C455.345 266.373 454.928 266.269 454.579 266.062C454.232 265.854 453.963 265.561 453.773 265.184C453.586 264.804 453.492 264.36 453.492 263.851C453.492 263.348 453.586 262.905 453.773 262.521C453.963 262.138 454.227 261.838 454.566 261.623C454.907 261.408 455.305 261.3 455.761 261.3C456.038 261.3 456.307 261.346 456.567 261.438C456.827 261.529 457.06 261.673 457.267 261.869C457.473 262.065 457.636 262.32 457.756 262.633C457.875 262.944 457.935 263.322 457.935 263.768V264.107H454.032V263.391H456.998C456.998 263.139 456.947 262.917 456.845 262.723C456.743 262.527 456.599 262.372 456.413 262.259C456.23 262.146 456.015 262.09 455.768 262.09C455.499 262.09 455.265 262.156 455.065 262.288C454.866 262.418 454.713 262.588 454.604 262.799C454.498 263.008 454.445 263.235 454.445 263.48V264.039C454.445 264.368 454.502 264.647 454.617 264.877C454.734 265.107 454.897 265.283 455.106 265.404C455.315 265.523 455.559 265.583 455.838 265.583C456.019 265.583 456.184 265.558 456.333 265.506C456.483 265.453 456.612 265.374 456.72 265.27C456.829 265.165 456.912 265.037 456.969 264.883L457.874 265.046C457.801 265.312 457.672 265.546 457.484 265.746C457.299 265.944 457.065 266.099 456.784 266.21C456.505 266.318 456.186 266.373 455.828 266.373Z" fill="#A1A1AA"/>
<path d="M509.186 259.728H510.17V264.369C510.17 264.788 510.087 265.147 509.921 265.446C509.757 265.744 509.525 265.972 509.227 266.13C508.929 266.285 508.579 266.363 508.179 266.363C507.81 266.363 507.479 266.296 507.185 266.162C506.893 266.027 506.662 265.832 506.491 265.577C506.323 265.319 506.239 265.006 506.239 264.637H507.22C507.22 264.818 507.261 264.975 507.345 265.107C507.43 265.239 507.546 265.342 507.693 265.417C507.842 265.489 508.013 265.526 508.204 265.526C508.413 265.526 508.59 265.482 508.735 265.395C508.882 265.305 508.994 265.174 509.07 265.001C509.147 264.829 509.186 264.618 509.186 264.369V259.728ZM514.64 264.238V261.364H515.599V266.273H514.659V265.423H514.608C514.495 265.685 514.314 265.904 514.065 266.078C513.818 266.251 513.51 266.337 513.141 266.337C512.826 266.337 512.547 266.268 512.304 266.13C512.063 265.989 511.874 265.781 511.735 265.506C511.599 265.232 511.531 264.892 511.531 264.487V261.364H512.486V264.372C512.486 264.706 512.579 264.973 512.764 265.171C512.95 265.369 513.19 265.468 513.487 265.468C513.666 265.468 513.843 265.423 514.02 265.334C514.199 265.244 514.347 265.109 514.465 264.928C514.584 264.747 514.642 264.517 514.64 264.238ZM517.839 259.728V266.273H516.883V259.728H517.839ZM519.728 268.114C519.586 268.114 519.456 268.103 519.338 268.079C519.221 268.058 519.134 268.034 519.076 268.009L519.307 267.226C519.481 267.273 519.637 267.293 519.773 267.287C519.909 267.28 520.03 267.229 520.134 267.133C520.241 267.037 520.335 266.881 520.416 266.663L520.534 266.337L518.738 261.364H519.76L521.004 265.174H521.055L522.298 261.364H523.324L521.301 266.929C521.207 267.184 521.088 267.401 520.943 267.577C520.798 267.756 520.625 267.891 520.425 267.98C520.225 268.07 519.993 268.114 519.728 268.114Z" fill="#A1A1AA"/>
<path d="M33.7318 221.966V221.25L35.9466 218.955C36.1831 218.706 36.3781 218.487 36.5315 218.3C36.687 218.11 36.8032 217.93 36.8799 217.76C36.9566 217.589 36.9949 217.408 36.9949 217.217C36.9949 216.999 36.9438 216.812 36.8415 216.654C36.7392 216.494 36.5997 216.372 36.4228 216.286C36.246 216.199 36.0468 216.155 35.8252 216.155C35.5908 216.155 35.3863 216.203 35.2115 216.299C35.0368 216.395 34.9026 216.53 34.8088 216.705C34.7151 216.88 34.6682 217.084 34.6682 217.319H33.7254C33.7254 216.92 33.817 216.572 34.0003 216.274C34.1835 215.975 34.4349 215.744 34.7545 215.58C35.0741 215.414 35.4374 215.331 35.8444 215.331C36.2556 215.331 36.6178 215.413 36.931 215.577C37.2463 215.739 37.4924 215.96 37.6693 216.242C37.8461 216.521 37.9346 216.836 37.9346 217.188C37.9346 217.431 37.8887 217.668 37.7971 217.9C37.7076 218.133 37.551 218.392 37.3273 218.677C37.1036 218.96 36.7925 219.305 36.3941 219.709L35.0933 221.071V221.119H38.04V221.966H33.7318ZM41.5301 222.074C41.0251 222.072 40.5937 221.939 40.2357 221.675C39.8777 221.411 39.6039 221.026 39.4143 220.521C39.2247 220.016 39.1299 219.408 39.1299 218.696C39.1299 217.987 39.2247 217.381 39.4143 216.878C39.6061 216.375 39.8809 215.991 40.2389 215.727C40.599 215.463 41.0294 215.331 41.5301 215.331C42.0308 215.331 42.4601 215.464 42.8181 215.73C43.176 215.995 43.4498 216.378 43.6395 216.881C43.8312 217.382 43.9271 217.987 43.9271 218.696C43.9271 219.41 43.8323 220.019 43.6427 220.524C43.453 221.027 43.1792 221.412 42.8213 221.678C42.4633 221.942 42.0329 222.074 41.5301 222.074ZM41.5301 221.221C41.9733 221.221 42.3195 221.005 42.5688 220.572C42.8202 220.14 42.9459 219.514 42.9459 218.696C42.9459 218.153 42.8884 217.694 42.7733 217.319C42.6604 216.942 42.4974 216.656 42.2843 216.462C42.0734 216.266 41.822 216.168 41.5301 216.168C41.089 216.168 40.7428 216.386 40.4914 216.82C40.24 217.255 40.1132 217.88 40.1111 218.696C40.1111 219.242 40.1675 219.703 40.2804 220.08C40.3955 220.455 40.5585 220.74 40.7694 220.934C40.9804 221.125 41.2339 221.221 41.5301 221.221ZM47.3397 222.074C46.8347 222.072 46.4032 221.939 46.0453 221.675C45.6873 221.411 45.4135 221.026 45.2239 220.521C45.0343 220.016 44.9394 219.408 44.9394 218.696C44.9394 217.987 45.0343 217.381 45.2239 216.878C45.4156 216.375 45.6905 215.991 46.0485 215.727C46.4085 215.463 46.8389 215.331 47.3397 215.331C47.8404 215.331 48.2697 215.464 48.6277 215.73C48.9856 215.995 49.2594 216.378 49.449 216.881C49.6408 217.382 49.7367 217.987 49.7367 218.696C49.7367 219.41 49.6419 220.019 49.4522 220.524C49.2626 221.027 48.9888 221.412 48.6308 221.678C48.2729 221.942 47.8425 222.074 47.3397 222.074ZM47.3397 221.221C47.7828 221.221 48.1291 221.005 48.3784 220.572C48.6298 220.14 48.7555 219.514 48.7555 218.696C48.7555 218.153 48.698 217.694 48.5829 217.319C48.47 216.942 48.307 216.656 48.0939 216.462C47.883 216.266 47.6316 216.168 47.3397 216.168C46.8986 216.168 46.5524 216.386 46.3009 216.82C46.0495 217.255 45.9228 217.88 45.9206 218.696C45.9206 219.242 45.9771 219.703 46.09 220.08C46.2051 220.455 46.3681 220.74 46.579 220.934C46.7899 221.125 47.0435 221.221 47.3397 221.221ZM53.1492 222.074C52.6443 222.072 52.2128 221.939 51.8548 221.675C51.4969 221.411 51.2231 221.026 51.0335 220.521C50.8438 220.016 50.749 219.408 50.749 218.696C50.749 217.987 50.8438 217.381 51.0335 216.878C51.2252 216.375 51.5001 215.991 51.858 215.727C52.2181 215.463 52.6485 215.331 53.1492 215.331C53.6499 215.331 54.0793 215.464 54.4372 215.73C54.7952 215.995 55.069 216.378 55.2586 216.881C55.4504 217.382 55.5462 217.987 55.5462 218.696C55.5462 219.41 55.4514 220.019 55.2618 220.524C55.0722 221.027 54.7984 221.412 54.4404 221.678C54.0825 221.942 53.6521 222.074 53.1492 222.074ZM53.1492 221.221C53.5924 221.221 53.9386 221.005 54.1879 220.572C54.4394 220.14 54.5651 219.514 54.5651 218.696C54.5651 218.153 54.5075 217.694 54.3925 217.319C54.2796 216.942 54.1166 216.656 53.9035 216.462C53.6925 216.266 53.4411 216.168 53.1492 216.168C52.7082 216.168 52.3619 216.386 52.1105 216.82C51.8591 217.255 51.7323 217.88 51.7302 218.696C51.7302 219.242 51.7867 219.703 51.8996 220.08C52.0146 220.455 52.1776 220.74 52.3886 220.934C52.5995 221.125 52.8531 221.221 53.1492 221.221ZM58.9588 222.074C58.4538 222.072 58.0224 221.939 57.6644 221.675C57.3065 221.411 57.0327 221.026 56.843 220.521C56.6534 220.016 56.5586 219.408 56.5586 218.696C56.5586 217.987 56.6534 217.381 56.843 216.878C57.0348 216.375 57.3096 215.991 57.6676 215.727C58.0277 215.463 58.4581 215.331 58.9588 215.331C59.4595 215.331 59.8888 215.464 60.2468 215.73C60.6047 215.995 60.8785 216.378 61.0682 216.881C61.2599 217.382 61.3558 217.987 61.3558 218.696C61.3558 219.41 61.261 220.019 61.0714 220.524C60.8817 221.027 60.6079 221.412 60.25 221.678C59.892 221.942 59.4616 222.074 58.9588 222.074ZM58.9588 221.221C59.402 221.221 59.7482 221.005 59.9975 220.572C60.2489 220.14 60.3746 219.514 60.3746 218.696C60.3746 218.153 60.3171 217.694 60.202 217.319C60.0891 216.942 59.9261 216.656 59.7131 216.462C59.5021 216.266 59.2507 216.168 58.9588 216.168C58.5177 216.168 58.1715 216.386 57.9201 216.82C57.6687 217.255 57.5419 217.88 57.5398 218.696C57.5398 219.242 57.5962 219.703 57.7092 220.08C57.8242 220.455 57.9872 220.74 58.1981 220.934C58.4091 221.125 58.6626 221.221 58.9588 221.221Z" fill="#A1A1AA"/>
<path d="M34.8693 187.146C34.4304 187.146 34.0384 187.07 33.6932 186.919C33.3501 186.768 33.0785 186.558 32.8782 186.29C32.68 186.019 32.5735 185.706 32.5586 185.35H33.5621C33.5749 185.544 33.6399 185.712 33.7571 185.855C33.8764 185.996 34.032 186.104 34.2237 186.181C34.4155 186.258 34.6286 186.296 34.8629 186.296C35.1207 186.296 35.3487 186.251 35.5469 186.162C35.7472 186.072 35.9038 185.948 36.0167 185.788C36.1296 185.626 36.1861 185.439 36.1861 185.229C36.1861 185.009 36.1296 184.816 36.0167 184.65C35.9059 184.482 35.7429 184.35 35.5277 184.254C35.3146 184.158 35.0568 184.11 34.7543 184.11H34.2013V183.305H34.7543C34.9972 183.305 35.2102 183.261 35.3935 183.173C35.5788 183.086 35.7237 182.965 35.8281 182.809C35.9325 182.651 35.9847 182.467 35.9847 182.256C35.9847 182.054 35.9389 181.878 35.8473 181.729C35.7578 181.578 35.63 181.459 35.4638 181.374C35.2997 181.289 35.1058 181.246 34.8821 181.246C34.669 181.246 34.4698 181.286 34.2844 181.365C34.1012 181.441 33.9521 181.552 33.837 181.697C33.7219 181.84 33.6602 182.011 33.6516 182.211H32.696C32.7067 181.858 32.8111 181.547 33.0092 181.278C33.2095 181.01 33.4737 180.8 33.8018 180.649C34.13 180.497 34.4943 180.422 34.8949 180.422C35.3146 180.422 35.6768 180.504 35.9815 180.668C36.2884 180.83 36.5249 181.046 36.6911 181.317C36.8594 181.587 36.9425 181.883 36.9403 182.205C36.9425 182.572 36.8402 182.883 36.6335 183.138C36.429 183.394 36.1563 183.566 35.8153 183.653V183.704C36.25 183.77 36.5866 183.943 36.8253 184.222C37.0661 184.501 37.1854 184.847 37.1832 185.26C37.1854 185.621 37.0852 185.943 36.8828 186.229C36.6825 186.514 36.4087 186.739 36.0614 186.903C35.7141 187.065 35.3168 187.146 34.8693 187.146ZM40.6701 187.165C40.1651 187.163 39.7337 187.03 39.3757 186.766C39.0178 186.502 38.744 186.117 38.5543 185.612C38.3647 185.107 38.2699 184.499 38.2699 183.787C38.2699 183.078 38.3647 182.471 38.5543 181.969C38.7461 181.466 39.021 181.082 39.3789 180.818C39.739 180.554 40.1694 180.422 40.6701 180.422C41.1708 180.422 41.6001 180.555 41.9581 180.821C42.3161 181.085 42.5898 181.469 42.7795 181.972C42.9712 182.472 43.0671 183.078 43.0671 183.787C43.0671 184.501 42.9723 185.11 42.7827 185.615C42.593 186.118 42.3192 186.503 41.9613 186.769C41.6033 187.033 41.1729 187.165 40.6701 187.165ZM40.6701 186.312C41.1133 186.312 41.4595 186.096 41.7088 185.663C41.9602 185.231 42.0859 184.605 42.0859 183.787C42.0859 183.244 42.0284 182.785 41.9134 182.41C41.8004 182.032 41.6374 181.747 41.4244 181.553C41.2134 181.357 40.962 181.259 40.6701 181.259C40.229 181.259 39.8828 181.476 39.6314 181.911C39.38 182.346 39.2532 182.971 39.2511 183.787C39.2511 184.333 39.3075 184.794 39.4205 185.171C39.5355 185.546 39.6985 185.83 39.9094 186.024C40.1204 186.216 40.3739 186.312 40.6701 186.312ZM46.4797 187.165C45.9747 187.163 45.5432 187.03 45.1853 186.766C44.8273 186.502 44.5535 186.117 44.3639 185.612C44.1743 185.107 44.0795 184.499 44.0795 183.787C44.0795 183.078 44.1743 182.471 44.3639 181.969C44.5557 181.466 44.8305 181.082 45.1885 180.818C45.5486 180.554 45.979 180.422 46.4797 180.422C46.9804 180.422 47.4097 180.555 47.7677 180.821C48.1256 181.085 48.3994 181.469 48.589 181.972C48.7808 182.472 48.8767 183.078 48.8767 183.787C48.8767 184.501 48.7819 185.11 48.5922 185.615C48.4026 186.118 48.1288 186.503 47.7709 186.769C47.4129 187.033 46.9825 187.165 46.4797 187.165ZM46.4797 186.312C46.9229 186.312 47.2691 186.096 47.5184 185.663C47.7698 185.231 47.8955 184.605 47.8955 183.787C47.8955 183.244 47.838 182.785 47.7229 182.41C47.61 182.032 47.447 181.747 47.2339 181.553C47.023 181.357 46.7716 181.259 46.4797 181.259C46.0386 181.259 45.6924 181.476 45.441 181.911C45.1895 182.346 45.0628 182.971 45.0606 183.787C45.0606 184.333 45.1171 184.794 45.23 185.171C45.3451 185.546 45.5081 185.83 45.719 186.024C45.93 186.216 46.1835 186.312 46.4797 186.312ZM52.2892 187.165C51.7843 187.163 51.3528 187.03 50.9949 186.766C50.6369 186.502 50.3631 186.117 50.1735 185.612C49.9838 185.107 49.889 184.499 49.889 183.787C49.889 183.078 49.9838 182.471 50.1735 181.969C50.3652 181.466 50.6401 181.082 50.998 180.818C51.3581 180.554 51.7885 180.422 52.2892 180.422C52.79 180.422 53.2193 180.555 53.5772 180.821C53.9352 181.085 54.209 181.469 54.3986 181.972C54.5904 182.472 54.6863 183.078 54.6863 183.787C54.6863 184.501 54.5914 185.11 54.4018 185.615C54.2122 186.118 53.9384 186.503 53.5804 186.769C53.2225 187.033 52.7921 187.165 52.2892 187.165ZM52.2892 186.312C52.7324 186.312 53.0787 186.096 53.3279 185.663C53.5794 185.231 53.7051 184.605 53.7051 183.787C53.7051 183.244 53.6475 182.785 53.5325 182.41C53.4196 182.032 53.2566 181.747 53.0435 181.553C52.8326 181.357 52.5811 181.259 52.2892 181.259C51.8482 181.259 51.502 181.476 51.2505 181.911C50.9991 182.346 50.8723 182.971 50.8702 183.787C50.8702 184.333 50.9267 184.794 51.0396 185.171C51.1547 185.546 51.3176 185.83 51.5286 186.024C51.7395 186.216 51.9931 186.312 52.2892 186.312ZM58.0988 187.165C57.5938 187.163 57.1624 187.03 56.8044 186.766C56.4465 186.502 56.1727 186.117 55.983 185.612C55.7934 185.107 55.6986 184.499 55.6986 183.787C55.6986 183.078 55.7934 182.471 55.983 181.969C56.1748 181.466 56.4497 181.082 56.8076 180.818C57.1677 180.554 57.5981 180.422 58.0988 180.422C58.5995 180.422 59.0289 180.555 59.3868 180.821C59.7448 181.085 60.0186 181.469 60.2082 181.972C60.3999 182.472 60.4958 183.078 60.4958 183.787C60.4958 184.501 60.401 185.11 60.2114 185.615C60.0218 186.118 59.748 186.503 59.39 186.769C59.032 187.033 58.6017 187.165 58.0988 187.165ZM58.0988 186.312C58.542 186.312 58.8882 186.096 59.1375 185.663C59.3889 185.231 59.5146 184.605 59.5146 183.787C59.5146 183.244 59.4571 182.785 59.3421 182.41C59.2291 182.032 59.0661 181.747 58.8531 181.553C58.6421 181.357 58.3907 181.259 58.0988 181.259C57.6578 181.259 57.3115 181.476 57.0601 181.911C56.8087 182.346 56.6819 182.971 56.6798 183.787C56.6798 184.333 56.7362 184.794 56.8492 185.171C56.9642 185.546 57.1272 185.83 57.3382 186.024C57.5491 186.216 57.8026 186.312 58.0988 186.312Z" fill="#A1A1AA"/>
<path d="M32.3652 150.869V150.07L35.1937 145.602H35.8233V146.778H35.4238L33.4007 149.98V150.031H37.2775V150.869H32.3652ZM35.4686 152.147V150.626L35.475 150.261V145.602H36.4114V152.147H35.4686ZM40.6701 152.256C40.1651 152.254 39.7337 152.12 39.3757 151.856C39.0178 151.592 38.744 151.207 38.5543 150.702C38.3647 150.197 38.2699 149.589 38.2699 148.877C38.2699 148.168 38.3647 147.562 38.5543 147.059C38.7461 146.556 39.021 146.173 39.3789 145.908C39.739 145.644 40.1694 145.512 40.6701 145.512C41.1708 145.512 41.6001 145.645 41.9581 145.912C42.3161 146.176 42.5898 146.559 42.7795 147.062C42.9712 147.563 43.0671 148.168 43.0671 148.877C43.0671 149.591 42.9723 150.201 42.7827 150.706C42.593 151.208 42.3192 151.593 41.9613 151.859C41.6033 152.124 41.1729 152.256 40.6701 152.256ZM40.6701 151.402C41.1133 151.402 41.4595 151.186 41.7088 150.754C41.9602 150.321 42.0859 149.696 42.0859 148.877C42.0859 148.334 42.0284 147.875 41.9134 147.5C41.8004 147.123 41.6374 146.837 41.4244 146.643C41.2134 146.447 40.962 146.349 40.6701 146.349C40.229 146.349 39.8828 146.567 39.6314 147.001C39.38 147.436 39.2532 148.061 39.2511 148.877C39.2511 149.423 39.3075 149.884 39.4205 150.261C39.5355 150.636 39.6985 150.921 39.9094 151.115C40.1204 151.306 40.3739 151.402 40.6701 151.402ZM46.4797 152.256C45.9747 152.254 45.5432 152.12 45.1853 151.856C44.8273 151.592 44.5535 151.207 44.3639 150.702C44.1743 150.197 44.0795 149.589 44.0795 148.877C44.0795 148.168 44.1743 147.562 44.3639 147.059C44.5557 146.556 44.8305 146.173 45.1885 145.908C45.5486 145.644 45.979 145.512 46.4797 145.512C46.9804 145.512 47.4097 145.645 47.7677 145.912C48.1256 146.176 48.3994 146.559 48.589 147.062C48.7808 147.563 48.8767 148.168 48.8767 148.877C48.8767 149.591 48.7819 150.201 48.5922 150.706C48.4026 151.208 48.1288 151.593 47.7709 151.859C47.4129 152.124 46.9825 152.256 46.4797 152.256ZM46.4797 151.402C46.9229 151.402 47.2691 151.186 47.5184 150.754C47.7698 150.321 47.8955 149.696 47.8955 148.877C47.8955 148.334 47.838 147.875 47.7229 147.5C47.61 147.123 47.447 146.837 47.2339 146.643C47.023 146.447 46.7716 146.349 46.4797 146.349C46.0386 146.349 45.6924 146.567 45.441 147.001C45.1895 147.436 45.0628 148.061 45.0606 148.877C45.0606 149.423 45.1171 149.884 45.23 150.261C45.3451 150.636 45.5081 150.921 45.719 151.115C45.93 151.306 46.1835 151.402 46.4797 151.402ZM52.2892 152.256C51.7843 152.254 51.3528 152.12 50.9949 151.856C50.6369 151.592 50.3631 151.207 50.1735 150.702C49.9838 150.197 49.889 149.589 49.889 148.877C49.889 148.168 49.9838 147.562 50.1735 147.059C50.3652 146.556 50.6401 146.173 50.998 145.908C51.3581 145.644 51.7885 145.512 52.2892 145.512C52.79 145.512 53.2193 145.645 53.5772 145.912C53.9352 146.176 54.209 146.559 54.3986 147.062C54.5904 147.563 54.6863 148.168 54.6863 148.877C54.6863 149.591 54.5914 150.201 54.4018 150.706C54.2122 151.208 53.9384 151.593 53.5804 151.859C53.2225 152.124 52.7921 152.256 52.2892 152.256ZM52.2892 151.402C52.7324 151.402 53.0787 151.186 53.3279 150.754C53.5794 150.321 53.7051 149.696 53.7051 148.877C53.7051 148.334 53.6475 147.875 53.5325 147.5C53.4196 147.123 53.2566 146.837 53.0435 146.643C52.8326 146.447 52.5811 146.349 52.2892 146.349C51.8482 146.349 51.502 146.567 51.2505 147.001C50.9991 147.436 50.8723 148.061 50.8702 148.877C50.8702 149.423 50.9267 149.884 51.0396 150.261C51.1547 150.636 51.3176 150.921 51.5286 151.115C51.7395 151.306 51.9931 151.402 52.2892 151.402ZM58.0988 152.256C57.5938 152.254 57.1624 152.12 56.8044 151.856C56.4465 151.592 56.1727 151.207 55.983 150.702C55.7934 150.197 55.6986 149.589 55.6986 148.877C55.6986 148.168 55.7934 147.562 55.983 147.059C56.1748 146.556 56.4497 146.173 56.8076 145.908C57.1677 145.644 57.5981 145.512 58.0988 145.512C58.5995 145.512 59.0289 145.645 59.3868 145.912C59.7448 146.176 60.0186 146.559 60.2082 147.062C60.3999 147.563 60.4958 148.168 60.4958 148.877C60.4958 149.591 60.401 150.201 60.2114 150.706C60.0218 151.208 59.748 151.593 59.39 151.859C59.032 152.124 58.6017 152.256 58.0988 152.256ZM58.0988 151.402C58.542 151.402 58.8882 151.186 59.1375 150.754C59.3889 150.321 59.5146 149.696 59.5146 148.877C59.5146 148.334 59.4571 147.875 59.3421 147.5C59.2291 147.123 59.0661 146.837 58.8531 146.643C58.6421 146.447 58.3907 146.349 58.0988 146.349C57.6578 146.349 57.3115 146.567 57.0601 147.001C56.8087 147.436 56.6819 148.061 56.6798 148.877C56.6798 149.423 56.7362 149.884 56.8492 150.261C56.9642 150.636 57.1272 150.921 57.3382 151.115C57.5491 151.306 57.8026 151.402 58.0988 151.402Z" fill="#A1A1AA"/>
<path d="M34.9687 117.325C34.5681 117.325 34.2081 117.249 33.8885 117.095C33.571 116.94 33.3174 116.727 33.1278 116.456C32.9382 116.185 32.837 115.876 32.8242 115.529H33.783C33.8064 115.81 33.9311 116.042 34.1569 116.223C34.3828 116.404 34.6534 116.494 34.9687 116.494C35.2201 116.494 35.4428 116.437 35.6367 116.322C35.8327 116.205 35.9861 116.044 36.0969 115.839C36.2098 115.635 36.2663 115.401 36.2663 115.139C36.2663 114.873 36.2088 114.635 36.0937 114.427C35.9787 114.218 35.8199 114.054 35.6175 113.934C35.4172 113.815 35.1871 113.754 34.9272 113.752C34.729 113.752 34.5298 113.786 34.3295 113.854C34.1292 113.923 33.9673 114.012 33.8437 114.123L32.9392 113.989L33.3068 110.69H36.9055V111.537H34.1282L33.9204 113.369H33.9588C34.0866 113.245 34.256 113.142 34.4669 113.059C34.68 112.976 34.908 112.934 35.1509 112.934C35.5493 112.934 35.9041 113.029 36.2152 113.218C36.5284 113.408 36.7745 113.667 36.9534 113.995C37.1346 114.321 37.224 114.696 37.2219 115.12C37.224 115.544 37.1282 115.922 36.9343 116.255C36.7425 116.587 36.4762 116.849 36.1353 117.041C35.7965 117.231 35.4076 117.325 34.9687 117.325ZM40.668 117.345C40.1631 117.342 39.7316 117.209 39.3736 116.945C39.0157 116.681 38.7419 116.296 38.5523 115.791C38.3626 115.286 38.2678 114.678 38.2678 113.966C38.2678 113.257 38.3626 112.651 38.5523 112.148C38.744 111.645 39.0189 111.261 39.3768 110.997C39.7369 110.733 40.1673 110.601 40.668 110.601C41.1687 110.601 41.5981 110.734 41.956 111C42.314 111.265 42.5878 111.648 42.7774 112.151C42.9692 112.652 43.065 113.257 43.065 113.966C43.065 114.68 42.9702 115.289 42.7806 115.794C42.591 116.297 42.3172 116.682 41.9592 116.948C41.6013 117.212 41.1709 117.345 40.668 117.345ZM40.668 116.491C41.1112 116.491 41.4574 116.275 41.7067 115.842C41.9582 115.41 42.0839 114.784 42.0839 113.966C42.0839 113.423 42.0263 112.964 41.9113 112.589C41.7984 112.212 41.6354 111.926 41.4223 111.732C41.2113 111.536 40.9599 111.438 40.668 111.438C40.227 111.438 39.8807 111.656 39.6293 112.09C39.3779 112.525 39.2511 113.15 39.249 113.966C39.249 114.512 39.3055 114.973 39.4184 115.35C39.5334 115.725 39.6964 116.01 39.9074 116.204C40.1183 116.395 40.3719 116.491 40.668 116.491ZM46.4776 117.345C45.9726 117.342 45.5412 117.209 45.1832 116.945C44.8253 116.681 44.5515 116.296 44.3618 115.791C44.1722 115.286 44.0774 114.678 44.0774 113.966C44.0774 113.257 44.1722 112.651 44.3618 112.148C44.5536 111.645 44.8284 111.261 45.1864 110.997C45.5465 110.733 45.9769 110.601 46.4776 110.601C46.9783 110.601 47.4076 110.734 47.7656 111C48.1235 111.265 48.3973 111.648 48.587 112.151C48.7787 112.652 48.8746 113.257 48.8746 113.966C48.8746 114.68 48.7798 115.289 48.5902 115.794C48.4005 116.297 48.1267 116.682 47.7688 116.948C47.4108 117.212 46.9804 117.345 46.4776 117.345ZM46.4776 116.491C46.9208 116.491 47.267 116.275 47.5163 115.842C47.7677 115.41 47.8934 114.784 47.8934 113.966C47.8934 113.423 47.8359 112.964 47.7208 112.589C47.6079 112.212 47.4449 111.926 47.2319 111.732C47.0209 111.536 46.7695 111.438 46.4776 111.438C46.0365 111.438 45.6903 111.656 45.4389 112.09C45.1875 112.525 45.0607 113.15 45.0586 113.966C45.0586 114.512 45.115 114.973 45.2279 115.35C45.343 115.725 45.506 116.01 45.7169 116.204C45.9279 116.395 46.1814 116.491 46.4776 116.491ZM52.2872 117.345C51.7822 117.342 51.3507 117.209 50.9928 116.945C50.6348 116.681 50.361 116.296 50.1714 115.791C49.9818 115.286 49.887 114.678 49.887 113.966C49.887 113.257 49.9818 112.651 50.1714 112.148C50.3632 111.645 50.638 111.261 50.996 110.997C51.3561 110.733 51.7865 110.601 52.2872 110.601C52.7879 110.601 53.2172 110.734 53.5752 111C53.9331 111.265 54.2069 111.648 54.3965 112.151C54.5883 112.652 54.6842 113.257 54.6842 113.966C54.6842 114.68 54.5894 115.289 54.3997 115.794C54.2101 116.297 53.9363 116.682 53.5784 116.948C53.2204 117.212 52.79 117.345 52.2872 117.345ZM52.2872 116.491C52.7303 116.491 53.0766 116.275 53.3259 115.842C53.5773 115.41 53.703 114.784 53.703 113.966C53.703 113.423 53.6455 112.964 53.5304 112.589C53.4175 112.212 53.2545 111.926 53.0414 111.732C52.8305 111.536 52.5791 111.438 52.2872 111.438C51.8461 111.438 51.4999 111.656 51.2485 112.09C50.997 112.525 50.8703 113.15 50.8681 113.966C50.8681 114.512 50.9246 114.973 51.0375 115.35C51.1526 115.725 51.3156 116.01 51.5265 116.204C51.7374 116.395 51.991 116.491 52.2872 116.491ZM58.0967 117.345C57.5918 117.342 57.1603 117.209 56.8023 116.945C56.4444 116.681 56.1706 116.296 55.981 115.791C55.7913 115.286 55.6965 114.678 55.6965 113.966C55.6965 113.257 55.7913 112.651 55.981 112.148C56.1727 111.645 56.4476 111.261 56.8055 110.997C57.1656 110.733 57.596 110.601 58.0967 110.601C58.5974 110.601 59.0268 110.734 59.3847 111C59.7427 111.265 60.0165 111.648 60.2061 112.151C60.3979 112.652 60.4938 113.257 60.4938 113.966C60.4938 114.68 60.3989 115.289 60.2093 115.794C60.0197 116.297 59.7459 116.682 59.3879 116.948C59.03 117.212 58.5996 117.345 58.0967 117.345ZM58.0967 116.491C58.5399 116.491 58.8862 116.275 59.1354 115.842C59.3869 115.41 59.5126 114.784 59.5126 113.966C59.5126 113.423 59.455 112.964 59.34 112.589C59.2271 112.212 59.0641 111.926 58.851 111.732C58.6401 111.536 58.3886 111.438 58.0967 111.438C57.6557 111.438 57.3094 111.656 57.058 112.09C56.8066 112.525 56.6798 113.15 56.6777 113.966C56.6777 114.512 56.7342 114.973 56.8471 115.35C56.9621 115.725 57.1251 116.01 57.3361 116.204C57.547 116.395 57.8006 116.491 58.0967 116.491Z" fill="#A1A1AA"/>
<path d="M34.9527 83.0895C34.6608 83.0852 34.3732 83.032 34.0898 82.9297C33.8086 82.8274 33.5529 82.657 33.3228 82.4183C33.0927 82.1797 32.9083 81.859 32.7699 81.4563C32.6335 81.0536 32.5653 80.5508 32.5653 79.9478C32.5653 79.3768 32.6218 78.8697 32.7347 78.4265C32.8498 77.9833 33.0149 77.6094 33.2301 77.3047C33.4453 76.9979 33.7052 76.7646 34.0099 76.6048C34.3146 76.445 34.6566 76.3651 35.0358 76.3651C35.4257 76.3651 35.772 76.4418 36.0745 76.5952C36.3771 76.7486 36.6221 76.9606 36.8096 77.2312C36.9993 77.5018 37.1196 77.8097 37.1708 78.1548H36.196C36.1299 77.8821 35.9989 77.6594 35.8029 77.4869C35.6069 77.3143 35.3512 77.228 35.0358 77.228C34.5564 77.228 34.1825 77.4368 33.914 77.8544C33.6477 78.272 33.5135 78.8526 33.5113 79.5962H33.5593C33.6722 79.4109 33.8107 79.2532 33.9748 79.1232C34.1409 78.9911 34.3263 78.8899 34.5309 78.8196C34.7375 78.7472 34.9549 78.7109 35.1829 78.7109C35.5621 78.7109 35.9052 78.8036 36.212 78.989C36.5209 79.1722 36.767 79.4258 36.9503 79.7496C37.1335 80.0735 37.2251 80.4442 37.2251 80.8619C37.2251 81.2795 37.1303 81.6577 36.9407 81.9964C36.7532 82.3352 36.489 82.6037 36.148 82.8018C35.8071 82.9979 35.4087 83.0938 34.9527 83.0895ZM34.9495 82.2585C35.201 82.2585 35.4257 82.1967 35.6239 82.0732C35.8221 81.9496 35.9787 81.7834 36.0937 81.5746C36.2088 81.3658 36.2663 81.1325 36.2663 80.8746C36.2663 80.6232 36.2098 80.3942 36.0969 80.1875C35.9861 79.9808 35.8327 79.8168 35.6367 79.6953C35.4428 79.5739 35.2212 79.5131 34.9719 79.5131C34.7823 79.5131 34.6065 79.5494 34.4446 79.6218C34.2848 79.6942 34.1441 79.7944 34.0227 79.9222C33.9012 80.0501 33.8054 80.1971 33.7351 80.3633C33.6669 80.5273 33.6328 80.701 33.6328 80.8842C33.6328 81.1293 33.6892 81.3562 33.8022 81.565C33.9172 81.7738 34.0738 81.9421 34.272 82.07C34.4723 82.1957 34.6981 82.2585 34.9495 82.2585ZM40.668 83.1087C40.1631 83.1065 39.7316 82.9734 39.3736 82.7092C39.0157 82.445 38.7419 82.0604 38.5523 81.5554C38.3626 81.0504 38.2678 80.4421 38.2678 79.7305C38.2678 79.021 38.3626 78.4148 38.5523 77.9119C38.744 77.4091 39.0189 77.0256 39.3768 76.7614C39.7369 76.4972 40.1673 76.3651 40.668 76.3651C41.1687 76.3651 41.5981 76.4982 41.956 76.7646C42.314 77.0288 42.5878 77.4123 42.7774 77.9151C42.9692 78.4158 43.065 79.021 43.065 79.7305C43.065 80.4442 42.9702 81.0536 42.7806 81.5586C42.591 82.0614 42.3172 82.446 41.9592 82.7124C41.6013 82.9766 41.1709 83.1087 40.668 83.1087ZM40.668 82.2553C41.1112 82.2553 41.4574 82.0391 41.7067 81.6065C41.9582 81.174 42.0839 80.5487 42.0839 79.7305C42.0839 79.1871 42.0263 78.728 41.9113 78.353C41.7984 77.9759 41.6354 77.6903 41.4223 77.4964C41.2113 77.3004 40.9599 77.2024 40.668 77.2024C40.227 77.2024 39.8807 77.4197 39.6293 77.8544C39.3779 78.2891 39.2511 78.9144 39.249 79.7305C39.249 80.2759 39.3055 80.7372 39.4184 81.1143C39.5334 81.4893 39.6964 81.7738 39.9074 81.9677C40.1183 82.1594 40.3719 82.2553 40.668 82.2553ZM46.4776 83.1087C45.9726 83.1065 45.5412 82.9734 45.1832 82.7092C44.8253 82.445 44.5515 82.0604 44.3618 81.5554C44.1722 81.0504 44.0774 80.4421 44.0774 79.7305C44.0774 79.021 44.1722 78.4148 44.3618 77.9119C44.5536 77.4091 44.8284 77.0256 45.1864 76.7614C45.5465 76.4972 45.9769 76.3651 46.4776 76.3651C46.9783 76.3651 47.4076 76.4982 47.7656 76.7646C48.1235 77.0288 48.3973 77.4123 48.587 77.9151C48.7787 78.4158 48.8746 79.021 48.8746 79.7305C48.8746 80.4442 48.7798 81.0536 48.5902 81.5586C48.4005 82.0614 48.1267 82.446 47.7688 82.7124C47.4108 82.9766 46.9804 83.1087 46.4776 83.1087ZM46.4776 82.2553C46.9208 82.2553 47.267 82.0391 47.5163 81.6065C47.7677 81.174 47.8934 80.5487 47.8934 79.7305C47.8934 79.1871 47.8359 78.728 47.7208 78.353C47.6079 77.9759 47.4449 77.6903 47.2319 77.4964C47.0209 77.3004 46.7695 77.2024 46.4776 77.2024C46.0365 77.2024 45.6903 77.4197 45.4389 77.8544C45.1875 78.2891 45.0607 78.9144 45.0586 79.7305C45.0586 80.2759 45.115 80.7372 45.2279 81.1143C45.343 81.4893 45.506 81.7738 45.7169 81.9677C45.9279 82.1594 46.1814 82.2553 46.4776 82.2553ZM52.2872 83.1087C51.7822 83.1065 51.3507 82.9734 50.9928 82.7092C50.6348 82.445 50.361 82.0604 50.1714 81.5554C49.9818 81.0504 49.887 80.4421 49.887 79.7305C49.887 79.021 49.9818 78.4148 50.1714 77.9119C50.3632 77.4091 50.638 77.0256 50.996 76.7614C51.3561 76.4972 51.7865 76.3651 52.2872 76.3651C52.7879 76.3651 53.2172 76.4982 53.5752 76.7646C53.9331 77.0288 54.2069 77.4123 54.3965 77.9151C54.5883 78.4158 54.6842 79.021 54.6842 79.7305C54.6842 80.4442 54.5894 81.0536 54.3997 81.5586C54.2101 82.0614 53.9363 82.446 53.5784 82.7124C53.2204 82.9766 52.79 83.1087 52.2872 83.1087ZM52.2872 82.2553C52.7303 82.2553 53.0766 82.0391 53.3259 81.6065C53.5773 81.174 53.703 80.5487 53.703 79.7305C53.703 79.1871 53.6455 78.728 53.5304 78.353C53.4175 77.9759 53.2545 77.6903 53.0414 77.4964C52.8305 77.3004 52.5791 77.2024 52.2872 77.2024C51.8461 77.2024 51.4999 77.4197 51.2485 77.8544C50.997 78.2891 50.8703 78.9144 50.8681 79.7305C50.8681 80.2759 50.9246 80.7372 51.0375 81.1143C51.1526 81.4893 51.3156 81.7738 51.5265 81.9677C51.7374 82.1594 51.991 82.2553 52.2872 82.2553ZM58.0967 83.1087C57.5918 83.1065 57.1603 82.9734 56.8023 82.7092C56.4444 82.445 56.1706 82.0604 55.981 81.5554C55.7913 81.0504 55.6965 80.4421 55.6965 79.7305C55.6965 79.021 55.7913 78.4148 55.981 77.9119C56.1727 77.4091 56.4476 77.0256 56.8055 76.7614C57.1656 76.4972 57.596 76.3651 58.0967 76.3651C58.5974 76.3651 59.0268 76.4982 59.3847 76.7646C59.7427 77.0288 60.0165 77.4123 60.2061 77.9151C60.3979 78.4158 60.4938 79.021 60.4938 79.7305C60.4938 80.4442 60.3989 81.0536 60.2093 81.5586C60.0197 82.0614 59.7459 82.446 59.3879 82.7124C59.03 82.9766 58.5996 83.1087 58.0967 83.1087ZM58.0967 82.2553C58.5399 82.2553 58.8862 82.0391 59.1354 81.6065C59.3869 81.174 59.5126 80.5487 59.5126 79.7305C59.5126 79.1871 59.455 78.728 59.34 78.353C59.2271 77.9759 59.0641 77.6903 58.851 77.4964C58.6401 77.3004 58.3886 77.2024 58.0967 77.2024C57.6557 77.2024 57.3094 77.4197 57.058 77.8544C56.8066 78.2891 56.6798 78.9144 56.6777 79.7305C56.6777 80.2759 56.7342 80.7372 56.8471 81.1143C56.9621 81.4893 57.1251 81.7738 57.3361 81.9677C57.547 82.1594 57.8006 82.2553 58.0967 82.2553Z" fill="#A1A1AA"/>
<path d="M71.0574 203.218L146.473 220.605L221.889 185.83L297.305 131.929L372.721 144.101L448.137 119.758L523.552 109.326" stroke="#C7D2FE" stroke-width="1.72727"/>
<path d="M70.6079 206.221C69.8124 206.221 69.0494 205.904 68.4869 205.341C67.9243 204.777 67.6081 204.013 67.6079 203.216C67.6077 202.419 67.9235 201.654 68.4858 201.09C69.0481 200.526 69.8109 200.209 70.6064 200.209C71.4019 200.209 72.165 200.525 72.7279 201.088C73.2908 201.651 73.6073 202.416 73.6079 203.213C73.6085 204.01 73.2931 204.775 72.7311 205.339C72.1691 205.903 71.4064 206.22 70.6109 206.221H70.6079Z" fill="#4F46E5"/>
<path d="M146.593 222.677C145.797 222.677 145.034 222.361 144.472 221.797C143.909 221.233 143.593 220.469 143.593 219.672C143.593 218.875 143.908 218.11 144.471 217.546C145.033 216.982 145.796 216.665 146.591 216.665C147.387 216.665 148.15 216.981 148.713 217.544C149.276 218.107 149.592 218.872 149.593 219.669C149.593 220.466 149.278 221.231 148.716 221.795C148.154 222.359 147.391 222.676 146.596 222.677H146.593Z" fill="#4F46E5"/>
<path d="M221.442 188.438C220.646 188.438 219.883 188.121 219.321 187.558C218.758 186.994 218.442 186.23 218.442 185.433C218.442 184.635 218.757 183.871 219.32 183.307C219.882 182.743 220.645 182.426 221.44 182.426C222.236 182.425 222.999 182.742 223.562 183.305C224.125 183.868 224.441 184.632 224.442 185.43C224.442 186.227 224.127 186.991 223.565 187.556C223.003 188.12 222.24 188.437 221.445 188.438H221.442Z" fill="#4F46E5"/>
<path d="M297.425 135.06C296.629 135.06 295.866 134.744 295.304 134.18C294.741 133.617 294.425 132.852 294.425 132.055C294.424 131.258 294.74 130.493 295.302 129.93C295.865 129.366 296.628 129.049 297.423 129.048C298.219 129.048 298.982 129.364 299.545 129.927C300.107 130.491 300.424 131.255 300.425 132.052C300.425 132.849 300.11 133.614 299.548 134.178C298.986 134.742 298.223 135.06 297.428 135.06H297.425Z" fill="#4F46E5"/>
<path d="M372.273 146.144C371.478 146.144 370.715 145.827 370.152 145.264C369.59 144.7 369.273 143.936 369.273 143.139C369.273 142.342 369.589 141.577 370.151 141.013C370.713 140.449 371.476 140.132 372.272 140.132C373.067 140.131 373.83 140.448 374.393 141.011C374.956 141.574 375.273 142.339 375.273 143.136C375.274 143.933 374.958 144.697 374.396 145.262C373.834 145.826 373.072 146.143 372.276 146.144H372.273Z" fill="#4F46E5"/>
<path d="M448.256 122.979C447.461 122.979 446.698 122.662 446.135 122.099C445.572 121.535 445.256 120.771 445.256 119.974C445.256 119.176 445.572 118.412 446.134 117.848C446.696 117.284 447.459 116.967 448.255 116.967C449.05 116.966 449.813 117.283 450.376 117.846C450.939 118.409 451.256 119.173 451.256 119.971C451.257 120.768 450.941 121.532 450.379 122.097C449.817 122.661 449.055 122.978 448.259 122.979H448.256Z" fill="#4F46E5"/>
<path d="M524.103 111.908C523.308 111.908 522.545 111.591 521.982 111.027C521.419 110.464 521.103 109.699 521.103 108.902C521.103 108.105 521.419 107.341 521.981 106.777C522.543 106.213 523.306 105.896 524.102 105.896C524.897 105.895 525.66 106.211 526.223 106.775C526.786 107.338 527.102 108.102 527.103 108.899C527.104 109.696 526.788 110.461 526.226 111.025C525.664 111.589 524.902 111.907 524.106 111.908L524.103 111.908Z" fill="#4F46E5"/>
<rect x="16.5" y="56.5" width="527" height="231" rx="3.5" stroke="#E4E4E7"/>
<path d="M17.0043 22.8182H19.2614L22.2841 30.196H22.4034L25.4261 22.8182H27.6832V33H25.9134V26.005H25.8189L23.005 32.9702H21.6825L18.8686 25.9901H18.7741V33H17.0043V22.8182ZM32.9432 33.1491C32.1974 33.1491 31.5511 32.9851 31.0043 32.657C30.4574 32.3288 30.0331 31.8698 29.7315 31.2798C29.4332 30.6899 29.2841 30.0005 29.2841 29.2116C29.2841 28.4228 29.4332 27.7318 29.7315 27.1385C30.0331 26.5452 30.4574 26.0845 31.0043 25.7564C31.5511 25.4283 32.1974 25.2642 32.9432 25.2642C33.6889 25.2642 34.3352 25.4283 34.8821 25.7564C35.429 26.0845 35.8516 26.5452 36.1499 27.1385C36.4515 27.7318 36.6023 28.4228 36.6023 29.2116C36.6023 30.0005 36.4515 30.6899 36.1499 31.2798C35.8516 31.8698 35.429 32.3288 34.8821 32.657C34.3352 32.9851 33.6889 33.1491 32.9432 33.1491ZM32.9531 31.7074C33.3575 31.7074 33.6955 31.5964 33.9673 31.3743C34.2391 31.1489 34.4413 30.8473 34.5739 30.4695C34.7098 30.0916 34.7777 29.6707 34.7777 29.2067C34.7777 28.7393 34.7098 28.3168 34.5739 27.9389C34.4413 27.5578 34.2391 27.2545 33.9673 27.0291C33.6955 26.8037 33.3575 26.6911 32.9531 26.6911C32.5388 26.6911 32.1941 26.8037 31.919 27.0291C31.6473 27.2545 31.4434 27.5578 31.3075 27.9389C31.175 28.3168 31.1087 28.7393 31.1087 29.2067C31.1087 29.6707 31.175 30.0916 31.3075 30.4695C31.4434 30.8473 31.6473 31.1489 31.919 31.3743C32.1941 31.5964 32.5388 31.7074 32.9531 31.7074ZM39.9295 28.5256V33H38.1298V25.3636H39.85V26.6612H39.9395C40.1151 26.2337 40.3952 25.8939 40.7797 25.642C41.1674 25.3902 41.6464 25.2642 42.2164 25.2642C42.7434 25.2642 43.2025 25.3769 43.5936 25.6023C43.988 25.8277 44.2929 26.1541 44.5083 26.5817C44.7271 27.0092 44.8348 27.5279 44.8315 28.1378V33H43.0318V28.4162C43.0318 27.9058 42.8992 27.5064 42.6341 27.218C42.3722 26.9297 42.0093 26.7855 41.5453 26.7855C41.2304 26.7855 40.9503 26.8551 40.7051 26.9943C40.4631 27.1302 40.2725 27.3274 40.1333 27.5859C39.9975 27.8445 39.9295 28.1577 39.9295 28.5256ZM50.4743 25.3636V26.7557H46.0843V25.3636H50.4743ZM47.1681 23.5341H48.9679V30.7031C48.9679 30.9451 49.0043 31.1307 49.0772 31.2599C49.1535 31.3859 49.2529 31.4721 49.3755 31.5185C49.4982 31.5649 49.6341 31.5881 49.7832 31.5881C49.8959 31.5881 49.9986 31.5798 50.0914 31.5632C50.1876 31.5466 50.2605 31.5317 50.3102 31.5185L50.6135 32.9254C50.5173 32.9586 50.3798 32.995 50.2008 33.0348C50.0252 33.0746 49.8097 33.0978 49.5545 33.1044C49.1038 33.1177 48.6977 33.0497 48.3365 32.9006C47.9752 32.7481 47.6885 32.5128 47.4764 32.1946C47.2676 31.8764 47.1648 31.4787 47.1681 31.0014V23.5341ZM53.9432 28.5256V33H52.1435V22.8182H53.9034V26.6612H53.9929C54.1719 26.2304 54.4486 25.8906 54.8232 25.642C55.201 25.3902 55.6816 25.2642 56.2649 25.2642C56.7952 25.2642 57.2576 25.3752 57.652 25.5973C58.0464 25.8194 58.3513 26.1442 58.5668 26.5717C58.7855 26.9993 58.8949 27.5213 58.8949 28.1378V33H57.0952V28.4162C57.0952 27.9025 56.9626 27.5031 56.6974 27.218C56.4356 26.9297 56.0677 26.7855 55.5938 26.7855C55.2756 26.7855 54.9905 26.8551 54.7386 26.9943C54.4901 27.1302 54.2945 27.3274 54.152 27.5859C54.0128 27.8445 53.9432 28.1577 53.9432 28.5256ZM62.5291 22.8182V33H60.7294V22.8182H62.5291ZM65.4984 35.8636C65.2531 35.8636 65.0261 35.8438 64.8173 35.804C64.6118 35.7675 64.4477 35.7244 64.3251 35.6747L64.7427 34.2727C65.0046 34.349 65.2382 34.3854 65.4437 34.3821C65.6492 34.3788 65.8298 34.3142 65.9856 34.1882C66.1447 34.0656 66.2789 33.8601 66.3883 33.5717L66.5424 33.1591L63.7733 25.3636H65.6824L67.4423 31.1307H67.5218L69.2868 25.3636H71.2008L68.1433 33.9247C68.0008 34.3291 67.8118 34.6754 67.5765 34.9638C67.3412 35.2554 67.0529 35.4775 66.7115 35.63C66.3734 35.7857 65.969 35.8636 65.4984 35.8636ZM77.3059 33H75.3372L78.9217 22.8182H81.1987L84.7882 33H82.8194L80.1 24.9062H80.0204L77.3059 33ZM77.3706 29.0078H82.7399V30.4893H77.3706V29.0078ZM86.1293 33V22.8182H89.9474C90.7296 22.8182 91.3859 22.9541 91.9162 23.2259C92.4498 23.4976 92.8525 23.8788 93.1243 24.3693C93.3994 24.8565 93.5369 25.425 93.5369 26.0746C93.5369 26.7275 93.3977 27.2943 93.1193 27.7749C92.8442 28.2521 92.4382 28.6217 91.9013 28.8835C91.3643 29.142 90.7048 29.2713 89.9226 29.2713H87.2031V27.7401H89.674C90.1314 27.7401 90.5059 27.6771 90.7976 27.5511C91.0893 27.4219 91.3047 27.2346 91.4439 26.9893C91.5864 26.7408 91.6577 26.4358 91.6577 26.0746C91.6577 25.7133 91.5864 25.4051 91.4439 25.1499C91.3014 24.8913 91.0843 24.6958 90.7926 24.5632C90.5009 24.4273 90.1248 24.3594 89.6641 24.3594H87.9737V33H86.1293ZM91.3892 28.3864L93.9098 33H91.8516L89.3757 28.3864H91.3892ZM95.2347 33V22.8182H99.0529C99.8351 22.8182 100.491 22.9541 101.022 23.2259C101.555 23.4976 101.958 23.8788 102.23 24.3693C102.505 24.8565 102.642 25.425 102.642 26.0746C102.642 26.7275 102.503 27.2943 102.225 27.7749C101.95 28.2521 101.544 28.6217 101.007 28.8835C100.47 29.142 99.8103 29.2713 99.0281 29.2713H96.3086V27.7401H98.7795C99.2369 27.7401 99.6114 27.6771 99.9031 27.5511C100.195 27.4219 100.41 27.2346 100.549 26.9893C100.692 26.7408 100.763 26.4358 100.763 26.0746C100.763 25.7133 100.692 25.4051 100.549 25.1499C100.407 24.8913 100.19 24.6958 99.8981 24.5632C99.6064 24.4273 99.2302 24.3594 98.7695 24.3594H97.0792V33H95.2347ZM100.495 28.3864L103.015 33H100.957L98.4812 28.3864H100.495Z" fill="#3F3F46"/>
<path d="M280.207 26.1108H278.878C278.827 25.8267 278.732 25.5767 278.592 25.3608C278.453 25.1449 278.283 24.9616 278.081 24.8111C277.879 24.6605 277.653 24.5469 277.403 24.4702C277.156 24.3935 276.893 24.3551 276.615 24.3551C276.112 24.3551 275.662 24.4815 275.264 24.7344C274.869 24.9872 274.557 25.358 274.327 25.8466C274.099 26.3352 273.986 26.9318 273.986 27.6364C273.986 28.3466 274.099 28.946 274.327 29.4347C274.557 29.9233 274.871 30.2926 275.268 30.5426C275.666 30.7926 276.114 30.9176 276.611 30.9176C276.886 30.9176 277.148 30.8807 277.395 30.8068C277.645 30.7301 277.871 30.6179 278.072 30.4702C278.274 30.3224 278.445 30.142 278.584 29.929C278.726 29.7131 278.824 29.4659 278.878 29.1875L280.207 29.1918C280.136 29.6207 279.999 30.0156 279.794 30.3764C279.592 30.7344 279.332 31.044 279.014 31.3054C278.699 31.5639 278.338 31.7642 277.932 31.9062C277.526 32.0483 277.082 32.1193 276.602 32.1193C275.847 32.1193 275.173 31.9403 274.582 31.5824C273.991 31.2216 273.526 30.706 273.185 30.0355C272.847 29.3651 272.678 28.5653 272.678 27.6364C272.678 26.7045 272.848 25.9048 273.189 25.2372C273.53 24.5668 273.996 24.0526 274.587 23.6946C275.178 23.3338 275.849 23.1534 276.602 23.1534C277.065 23.1534 277.497 23.2202 277.898 23.3537C278.301 23.4844 278.663 23.6776 278.984 23.9332C279.305 24.1861 279.571 24.4957 279.781 24.8622C279.991 25.2259 280.134 25.642 280.207 26.1108ZM285.827 29.2855V25.4545H287.105V32H285.853V30.8665H285.784C285.634 31.2159 285.392 31.5071 285.06 31.7401C284.73 31.9702 284.32 32.0852 283.828 32.0852C283.408 32.0852 283.036 31.9929 282.712 31.8082C282.391 31.6207 282.138 31.3438 281.953 30.9773C281.772 30.6108 281.681 30.1577 281.681 29.6179V25.4545H282.955V29.4645C282.955 29.9105 283.078 30.2656 283.326 30.5298C283.573 30.794 283.894 30.9261 284.289 30.9261C284.527 30.9261 284.765 30.8665 285 30.7472C285.239 30.6278 285.436 30.4474 285.593 30.206C285.752 29.9645 285.83 29.6577 285.827 29.2855ZM293.722 27.0526L292.567 27.2571C292.519 27.1094 292.442 26.9687 292.337 26.8352C292.235 26.7017 292.096 26.5923 291.92 26.5071C291.744 26.4219 291.523 26.3793 291.259 26.3793C290.898 26.3793 290.597 26.4602 290.356 26.6222C290.114 26.7812 289.994 26.9872 289.994 27.2401C289.994 27.4588 290.075 27.6349 290.237 27.7685C290.398 27.902 290.66 28.0114 291.021 28.0966L292.06 28.3352C292.663 28.4744 293.112 28.6889 293.407 28.9787C293.702 29.2685 293.85 29.6449 293.85 30.108C293.85 30.5 293.737 30.8494 293.509 31.1562C293.285 31.4602 292.971 31.6989 292.567 31.8722C292.167 32.0455 291.702 32.1321 291.174 32.1321C290.441 32.1321 289.843 31.9759 289.38 31.6634C288.917 31.348 288.633 30.9006 288.528 30.321L289.759 30.1335C289.836 30.4545 289.994 30.6974 290.232 30.8622C290.471 31.0241 290.782 31.1051 291.165 31.1051C291.583 31.1051 291.917 31.0185 292.167 30.8452C292.417 30.669 292.542 30.4545 292.542 30.2017C292.542 29.9972 292.465 29.8253 292.312 29.6861C292.161 29.5469 291.93 29.4418 291.617 29.3707L290.509 29.1278C289.898 28.9886 289.447 28.767 289.154 28.4631C288.864 28.1591 288.719 27.7741 288.719 27.3082C288.719 26.9219 288.827 26.5838 289.043 26.294C289.259 26.0043 289.558 25.7784 289.938 25.6165C290.319 25.4517 290.755 25.3693 291.246 25.3693C291.954 25.3693 292.511 25.5227 292.917 25.8295C293.323 26.1335 293.592 26.5412 293.722 27.0526ZM298.306 25.4545V26.4773H294.731V25.4545H298.306ZM295.69 23.8864H296.964V30.0781C296.964 30.3253 297.001 30.5114 297.075 30.6364C297.149 30.7585 297.244 30.8423 297.36 30.8878C297.48 30.9304 297.609 30.9517 297.748 30.9517C297.85 30.9517 297.94 30.9446 298.017 30.9304C298.093 30.9162 298.153 30.9048 298.196 30.8963L298.426 31.9489C298.352 31.9773 298.247 32.0057 298.11 32.0341C297.974 32.0653 297.804 32.0824 297.599 32.0852C297.264 32.0909 296.951 32.0312 296.662 31.9062C296.372 31.7812 296.137 31.5881 295.958 31.3267C295.779 31.0653 295.69 30.7372 295.69 30.3423V23.8864ZM302.403 32.1321C301.789 32.1321 301.254 31.9915 300.796 31.7102C300.339 31.429 299.984 31.0355 299.731 30.5298C299.478 30.0241 299.352 29.4332 299.352 28.7571C299.352 28.0781 299.478 27.4844 299.731 26.9759C299.984 26.4673 300.339 26.0724 300.796 25.7912C301.254 25.5099 301.789 25.3693 302.403 25.3693C303.016 25.3693 303.552 25.5099 304.009 25.7912C304.467 26.0724 304.822 26.4673 305.075 26.9759C305.327 27.4844 305.454 28.0781 305.454 28.7571C305.454 29.4332 305.327 30.0241 305.075 30.5298C304.822 31.0355 304.467 31.429 304.009 31.7102C303.552 31.9915 303.016 32.1321 302.403 32.1321ZM302.407 31.0625C302.805 31.0625 303.134 30.9574 303.396 30.7472C303.657 30.5369 303.85 30.2571 303.975 29.9077C304.103 29.5582 304.167 29.1733 304.167 28.7528C304.167 28.3352 304.103 27.9517 303.975 27.6023C303.85 27.25 303.657 26.9673 303.396 26.7543C303.134 26.5412 302.805 26.4347 302.407 26.4347C302.006 26.4347 301.674 26.5412 301.41 26.7543C301.148 26.9673 300.954 27.25 300.826 27.6023C300.701 27.9517 300.638 28.3352 300.638 28.7528C300.638 29.1733 300.701 29.5582 300.826 29.9077C300.954 30.2571 301.148 30.5369 301.41 30.7472C301.674 30.9574 302.006 31.0625 302.407 31.0625ZM306.876 32V25.4545H308.099V26.5199H308.18C308.316 26.1591 308.539 25.8778 308.849 25.6761C309.159 25.4716 309.529 25.3693 309.961 25.3693C310.399 25.3693 310.765 25.4716 311.061 25.6761C311.359 25.8807 311.579 26.1619 311.721 26.5199H311.789C311.946 26.1705 312.194 25.892 312.535 25.6847C312.876 25.4744 313.282 25.3693 313.754 25.3693C314.348 25.3693 314.832 25.5554 315.207 25.9276C315.585 26.2997 315.774 26.8608 315.774 27.6108V32H314.5V27.7301C314.5 27.2869 314.379 26.9659 314.137 26.767C313.896 26.5682 313.608 26.4688 313.272 26.4688C312.858 26.4688 312.535 26.5966 312.305 26.8523C312.075 27.1051 311.96 27.4304 311.96 27.8281V32H310.69V27.6491C310.69 27.294 310.579 27.0085 310.358 26.7926C310.136 26.5767 309.848 26.4688 309.493 26.4688C309.251 26.4688 309.028 26.5327 308.824 26.6605C308.622 26.7855 308.458 26.9602 308.333 27.1847C308.211 27.4091 308.15 27.669 308.15 27.9645V32H306.876ZM320.303 32.1321C319.658 32.1321 319.102 31.9943 318.636 31.7188C318.173 31.4403 317.815 31.0497 317.562 30.5469C317.312 30.0412 317.188 29.4489 317.188 28.7699C317.188 28.0994 317.312 27.5085 317.562 26.9972C317.815 26.4858 318.168 26.0866 318.619 25.7997C319.074 25.5128 319.605 25.3693 320.213 25.3693C320.582 25.3693 320.94 25.4304 321.287 25.5526C321.634 25.6747 321.945 25.8665 322.22 26.1278C322.496 26.3892 322.713 26.7287 322.872 27.1463C323.031 27.5611 323.111 28.0653 323.111 28.6591V29.1108H317.908V28.1562H321.862C321.862 27.821 321.794 27.5241 321.658 27.2656C321.521 27.0043 321.33 26.7983 321.082 26.6477C320.838 26.4972 320.551 26.4219 320.222 26.4219C319.864 26.4219 319.551 26.5099 319.284 26.6861C319.02 26.8594 318.815 27.0866 318.67 27.3679C318.528 27.6463 318.457 27.9489 318.457 28.2756V29.0213C318.457 29.4588 318.534 29.831 318.688 30.1378C318.844 30.4446 319.061 30.679 319.339 30.8409C319.618 31 319.943 31.0795 320.315 31.0795C320.557 31.0795 320.777 31.0455 320.976 30.9773C321.175 30.9062 321.347 30.8011 321.491 30.6619C321.636 30.5227 321.747 30.3509 321.824 30.1463L323.03 30.3636C322.933 30.7187 322.76 31.0298 322.51 31.2969C322.263 31.5611 321.952 31.767 321.577 31.9148C321.205 32.0597 320.78 32.1321 320.303 32.1321ZM324.525 32V25.4545H325.756V26.4943H325.824C325.944 26.142 326.154 25.8651 326.455 25.6634C326.759 25.4588 327.103 25.3565 327.486 25.3565C327.566 25.3565 327.659 25.3594 327.767 25.3651C327.878 25.3707 327.965 25.3778 328.027 25.3864V26.6051C327.976 26.5909 327.885 26.5753 327.755 26.5582C327.624 26.5384 327.493 26.5284 327.363 26.5284C327.061 26.5284 326.793 26.5923 326.557 26.7202C326.324 26.8452 326.14 27.0199 326.003 27.2443C325.867 27.4659 325.799 27.7187 325.799 28.0028V32H324.525ZM337.211 27.0526L336.056 27.2571C336.007 27.1094 335.931 26.9687 335.826 26.8352C335.723 26.7017 335.584 26.5923 335.408 26.5071C335.232 26.4219 335.012 26.3793 334.748 26.3793C334.387 26.3793 334.086 26.4602 333.844 26.6222C333.603 26.7812 333.482 26.9872 333.482 27.2401C333.482 27.4588 333.563 27.6349 333.725 27.7685C333.887 27.902 334.148 28.0114 334.509 28.0966L335.549 28.3352C336.151 28.4744 336.6 28.6889 336.895 28.9787C337.191 29.2685 337.338 29.6449 337.338 30.108C337.338 30.5 337.225 30.8494 336.998 31.1562C336.773 31.4602 336.459 31.6989 336.056 31.8722C335.655 32.0455 335.191 32.1321 334.662 32.1321C333.929 32.1321 333.331 31.9759 332.868 31.6634C332.405 31.348 332.121 30.9006 332.016 30.321L333.248 30.1335C333.324 30.4545 333.482 30.6974 333.721 30.8622C333.959 31.0241 334.27 31.1051 334.654 31.1051C335.071 31.1051 335.405 31.0185 335.655 30.8452C335.905 30.669 336.03 30.4545 336.03 30.2017C336.03 29.9972 335.953 29.8253 335.8 29.6861C335.65 29.5469 335.418 29.4418 335.105 29.3707L333.998 29.1278C333.387 28.9886 332.935 28.767 332.642 28.4631C332.353 28.1591 332.208 27.7741 332.208 27.3082C332.208 26.9219 332.316 26.5838 332.532 26.294C332.748 26.0043 333.046 25.7784 333.426 25.6165C333.807 25.4517 334.243 25.3693 334.735 25.3693C335.442 25.3693 335.999 25.5227 336.405 25.8295C336.811 26.1335 337.08 26.5412 337.211 27.0526ZM341.56 32.1321C340.915 32.1321 340.36 31.9943 339.894 31.7188C339.431 31.4403 339.073 31.0497 338.82 30.5469C338.57 30.0412 338.445 29.4489 338.445 28.7699C338.445 28.0994 338.57 27.5085 338.82 26.9972C339.073 26.4858 339.425 26.0866 339.877 25.7997C340.332 25.5128 340.863 25.3693 341.471 25.3693C341.84 25.3693 342.198 25.4304 342.545 25.5526C342.891 25.6747 343.202 25.8665 343.478 26.1278C343.754 26.3892 343.971 26.7287 344.13 27.1463C344.289 27.5611 344.369 28.0653 344.369 28.6591V29.1108H339.165V28.1562H343.12C343.12 27.821 343.052 27.5241 342.915 27.2656C342.779 27.0043 342.587 26.7983 342.34 26.6477C342.096 26.4972 341.809 26.4219 341.479 26.4219C341.121 26.4219 340.809 26.5099 340.542 26.6861C340.278 26.8594 340.073 27.0866 339.928 27.3679C339.786 27.6463 339.715 27.9489 339.715 28.2756V29.0213C339.715 29.4588 339.792 29.831 339.945 30.1378C340.102 30.4446 340.319 30.679 340.597 30.8409C340.876 31 341.201 31.0795 341.573 31.0795C341.815 31.0795 342.035 31.0455 342.234 30.9773C342.433 30.9062 342.604 30.8011 342.749 30.6619C342.894 30.5227 343.005 30.3509 343.082 30.1463L344.288 30.3636C344.191 30.7187 344.018 31.0298 343.768 31.2969C343.521 31.5611 343.21 31.767 342.835 31.9148C342.462 32.0597 342.038 32.1321 341.56 32.1321ZM348.527 34.5909C348.007 34.5909 347.559 34.5227 347.184 34.3864C346.812 34.25 346.508 34.0696 346.272 33.8452C346.037 33.6207 345.86 33.375 345.744 33.108L346.839 32.6562C346.916 32.7812 347.018 32.9134 347.146 33.0526C347.277 33.1946 347.453 33.3153 347.674 33.4148C347.899 33.5142 348.187 33.5639 348.539 33.5639C349.022 33.5639 349.422 33.446 349.737 33.2102C350.052 32.9773 350.21 32.6051 350.21 32.0938V30.8068H350.129C350.052 30.946 349.941 31.1009 349.797 31.2713C349.654 31.4418 349.458 31.5895 349.208 31.7145C348.958 31.8395 348.633 31.902 348.233 31.902C347.716 31.902 347.25 31.7812 346.835 31.5398C346.423 31.2955 346.096 30.9361 345.855 30.4616C345.616 29.9844 345.497 29.3977 345.497 28.7017C345.497 28.0057 345.615 27.4091 345.85 26.9119C346.089 26.4148 346.416 26.0341 346.831 25.7699C347.245 25.5028 347.716 25.3693 348.241 25.3693C348.647 25.3693 348.975 25.4375 349.225 25.5739C349.475 25.7074 349.67 25.8636 349.809 26.0426C349.951 26.2216 350.061 26.3793 350.137 26.5156H350.231V25.4545H351.48V32.1449C351.48 32.7074 351.349 33.169 351.088 33.5298C350.826 33.8906 350.473 34.1577 350.027 34.331C349.583 34.5043 349.083 34.5909 348.527 34.5909ZM348.514 30.8452C348.88 30.8452 349.19 30.7599 349.443 30.5895C349.699 30.4162 349.892 30.169 350.022 29.848C350.156 29.5241 350.223 29.1364 350.223 28.6847C350.223 28.2443 350.157 27.8565 350.027 27.5213C349.896 27.1861 349.704 26.9247 349.451 26.7372C349.199 26.5469 348.886 26.4517 348.514 26.4517C348.13 26.4517 347.811 26.5511 347.555 26.75C347.299 26.946 347.106 27.2131 346.975 27.5511C346.848 27.8892 346.784 28.267 346.784 28.6847C346.784 29.1136 346.849 29.4901 346.98 29.8139C347.11 30.1378 347.304 30.3906 347.559 30.5724C347.818 30.7543 348.136 30.8452 348.514 30.8452ZM353.189 32V25.4545H354.412V26.5199H354.493C354.629 26.1591 354.852 25.8778 355.162 25.6761C355.471 25.4716 355.842 25.3693 356.274 25.3693C356.711 25.3693 357.078 25.4716 357.373 25.6761C357.672 25.8807 357.892 26.1619 358.034 26.5199H358.102C358.258 26.1705 358.507 25.892 358.848 25.6847C359.189 25.4744 359.595 25.3693 360.066 25.3693C360.66 25.3693 361.145 25.5554 361.52 25.9276C361.897 26.2997 362.086 26.8608 362.086 27.6108V32H360.812V27.7301C360.812 27.2869 360.691 26.9659 360.45 26.767C360.208 26.5682 359.92 26.4688 359.585 26.4688C359.17 26.4688 358.848 26.5966 358.618 26.8523C358.387 27.1051 358.272 27.4304 358.272 27.8281V32H357.002V27.6491C357.002 27.294 356.892 27.0085 356.67 26.7926C356.449 26.5767 356.16 26.4688 355.805 26.4688C355.564 26.4688 355.341 26.5327 355.136 26.6605C354.934 26.7855 354.771 26.9602 354.646 27.1847C354.524 27.4091 354.463 27.669 354.463 27.9645V32H353.189ZM366.615 32.1321C365.97 32.1321 365.415 31.9943 364.949 31.7188C364.486 31.4403 364.128 31.0497 363.875 30.5469C363.625 30.0412 363.5 29.4489 363.5 28.7699C363.5 28.0994 363.625 27.5085 363.875 26.9972C364.128 26.4858 364.48 26.0866 364.932 25.7997C365.386 25.5128 365.918 25.3693 366.526 25.3693C366.895 25.3693 367.253 25.4304 367.599 25.5526C367.946 25.6747 368.257 25.8665 368.533 26.1278C368.808 26.3892 369.026 26.7287 369.185 27.1463C369.344 27.5611 369.423 28.0653 369.423 28.6591V29.1108H364.22V28.1562H368.175C368.175 27.821 368.107 27.5241 367.97 27.2656C367.834 27.0043 367.642 26.7983 367.395 26.6477C367.151 26.4972 366.864 26.4219 366.534 26.4219C366.176 26.4219 365.864 26.5099 365.597 26.6861C365.332 26.8594 365.128 27.0866 364.983 27.3679C364.841 27.6463 364.77 27.9489 364.77 28.2756V29.0213C364.77 29.4588 364.847 29.831 365 30.1378C365.156 30.4446 365.374 30.679 365.652 30.8409C365.93 31 366.256 31.0795 366.628 31.0795C366.869 31.0795 367.089 31.0455 367.288 30.9773C367.487 30.9062 367.659 30.8011 367.804 30.6619C367.949 30.5227 368.06 30.3509 368.136 30.1463L369.342 30.3636C369.246 30.7187 369.072 31.0298 368.822 31.2969C368.575 31.5611 368.264 31.767 367.889 31.9148C367.517 32.0597 367.092 32.1321 366.615 32.1321ZM372.111 28.1136V32H370.837V25.4545H372.06V26.5199H372.141C372.292 26.1733 372.527 25.8949 372.848 25.6847C373.172 25.4744 373.58 25.3693 374.071 25.3693C374.517 25.3693 374.908 25.4631 375.243 25.6506C375.578 25.8352 375.838 26.1108 376.023 26.4773C376.208 26.8437 376.3 27.2969 376.3 27.8366V32H375.026V27.9901C375.026 27.5156 374.902 27.1449 374.655 26.8778C374.408 26.608 374.069 26.473 373.637 26.473C373.341 26.473 373.078 26.5369 372.848 26.6648C372.621 26.7926 372.441 26.9801 372.307 27.2273C372.176 27.4716 372.111 27.767 372.111 28.1136ZM381.064 25.4545V26.4773H377.489V25.4545H381.064ZM378.448 23.8864H379.722V30.0781C379.722 30.3253 379.759 30.5114 379.833 30.6364C379.907 30.7585 380.002 30.8423 380.118 30.8878C380.238 30.9304 380.367 30.9517 380.506 30.9517C380.608 30.9517 380.698 30.9446 380.775 30.9304C380.851 30.9162 380.911 30.9048 380.953 30.8963L381.184 31.9489C381.11 31.9773 381.005 32.0057 380.868 32.0341C380.732 32.0653 380.561 32.0824 380.357 32.0852C380.022 32.0909 379.709 32.0312 379.419 31.9062C379.13 31.7812 378.895 31.5881 378.716 31.3267C378.537 31.0653 378.448 30.7372 378.448 30.3423V23.8864Z" fill="#52525B"/>
<g filter="url(#filter0_d_103_5907)">
<rect x="390" y="12" width="154" height="32" rx="4" fill="white"/>
<path d="M401.415 32H400.307L403.511 23.2727H404.602L407.807 32H406.699L404.091 24.6534H404.023L401.415 32ZM401.824 28.5909H406.29V29.5284H401.824V28.5909ZM410.036 23.2727V32H409.03V23.2727H410.036ZM412.883 23.2727V32H411.877V23.2727H412.883ZM418.1 34.4545V25.4545H419.072V26.4943H419.191C419.265 26.3807 419.367 26.2358 419.498 26.0597C419.631 25.8807 419.822 25.7216 420.069 25.5824C420.319 25.4403 420.657 25.3693 421.083 25.3693C421.634 25.3693 422.12 25.5071 422.54 25.7827C422.961 26.0582 423.289 26.4489 423.525 26.9545C423.761 27.4602 423.879 28.0568 423.879 28.7443C423.879 29.4375 423.761 30.0384 423.525 30.5469C423.289 31.0526 422.962 31.4446 422.545 31.723C422.127 31.9986 421.646 32.1364 421.1 32.1364C420.68 32.1364 420.343 32.0668 420.09 31.9276C419.837 31.7855 419.643 31.625 419.506 31.446C419.37 31.2642 419.265 31.1136 419.191 30.9943H419.106V34.4545H418.1ZM419.089 28.7273C419.089 29.2216 419.161 29.6577 419.306 30.0355C419.451 30.4105 419.663 30.7045 419.941 30.9176C420.219 31.1278 420.56 31.233 420.964 31.233C421.384 31.233 421.735 31.1222 422.016 30.9006C422.3 30.6761 422.513 30.375 422.656 29.9972C422.8 29.6165 422.873 29.1932 422.873 28.7273C422.873 28.267 422.802 27.8523 422.66 27.483C422.521 27.1108 422.309 26.8168 422.025 26.6009C421.744 26.3821 421.39 26.2727 420.964 26.2727C420.555 26.2727 420.211 26.3764 419.933 26.5838C419.654 26.7884 419.444 27.0753 419.302 27.4446C419.16 27.8111 419.089 28.2386 419.089 28.7273ZM425.413 32V25.4545H426.384V26.4432H426.452C426.572 26.1193 426.788 25.8565 427.1 25.6548C427.413 25.4531 427.765 25.3523 428.157 25.3523C428.231 25.3523 428.323 25.3537 428.434 25.3565C428.545 25.3594 428.629 25.3636 428.685 25.3693V26.392C428.651 26.3835 428.573 26.3707 428.451 26.3537C428.332 26.3338 428.205 26.3239 428.072 26.3239C427.754 26.3239 427.469 26.3906 427.219 26.5241C426.972 26.6548 426.776 26.8366 426.631 27.0696C426.489 27.2997 426.418 27.5625 426.418 27.858V32H425.413ZM432.337 32.1364C431.746 32.1364 431.228 31.9957 430.782 31.7145C430.339 31.4332 429.992 31.0398 429.742 30.5341C429.495 30.0284 429.371 29.4375 429.371 28.7614C429.371 28.0795 429.495 27.4844 429.742 26.9759C429.992 26.4673 430.339 26.0724 430.782 25.7912C431.228 25.5099 431.746 25.3693 432.337 25.3693C432.928 25.3693 433.445 25.5099 433.888 25.7912C434.335 26.0724 434.681 26.4673 434.928 26.9759C435.178 27.4844 435.303 28.0795 435.303 28.7614C435.303 29.4375 435.178 30.0284 434.928 30.5341C434.681 31.0398 434.335 31.4332 433.888 31.7145C433.445 31.9957 432.928 32.1364 432.337 32.1364ZM432.337 31.233C432.786 31.233 433.156 31.1179 433.445 30.8878C433.735 30.6577 433.95 30.3551 434.089 29.9801C434.228 29.6051 434.298 29.1989 434.298 28.7614C434.298 28.3239 434.228 27.9162 434.089 27.5384C433.95 27.1605 433.735 26.8551 433.445 26.6222C433.156 26.3892 432.786 26.2727 432.337 26.2727C431.888 26.2727 431.519 26.3892 431.229 26.6222C430.94 26.8551 430.725 27.1605 430.586 27.5384C430.447 27.9162 430.377 28.3239 430.377 28.7614C430.377 29.1989 430.447 29.6051 430.586 29.9801C430.725 30.3551 430.94 30.6577 431.229 30.8878C431.519 31.1179 431.888 31.233 432.337 31.233ZM439.31 32.1364C438.765 32.1364 438.283 31.9986 437.865 31.723C437.448 31.4446 437.121 31.0526 436.885 30.5469C436.65 30.0384 436.532 29.4375 436.532 28.7443C436.532 28.0568 436.65 27.4602 436.885 26.9545C437.121 26.4489 437.449 26.0582 437.87 25.7827C438.29 25.5071 438.776 25.3693 439.327 25.3693C439.753 25.3693 440.09 25.4403 440.337 25.5824C440.587 25.7216 440.777 25.8807 440.908 26.0597C441.042 26.2358 441.145 26.3807 441.219 26.4943H441.304V23.2727H442.31V32H441.338V30.9943H441.219C441.145 31.1136 441.04 31.2642 440.904 31.446C440.767 31.625 440.573 31.7855 440.32 31.9276C440.067 32.0668 439.73 32.1364 439.31 32.1364ZM439.446 31.233C439.85 31.233 440.191 31.1278 440.469 30.9176C440.748 30.7045 440.959 30.4105 441.104 30.0355C441.249 29.6577 441.321 29.2216 441.321 28.7273C441.321 28.2386 441.25 27.8111 441.108 27.4446C440.966 27.0753 440.756 26.7884 440.478 26.5838C440.199 26.3764 439.855 26.2727 439.446 26.2727C439.02 26.2727 438.665 26.3821 438.381 26.6009C438.1 26.8168 437.888 27.1108 437.746 27.483C437.607 27.8523 437.537 28.267 437.537 28.7273C437.537 29.1932 437.608 29.6165 437.75 29.9972C437.895 30.375 438.108 30.6761 438.39 30.9006C438.674 31.1222 439.026 31.233 439.446 31.233ZM448.417 29.3239V25.4545H449.422V32H448.417V30.892H448.348C448.195 31.2244 447.956 31.5071 447.632 31.7401C447.309 31.9702 446.9 32.0852 446.405 32.0852C445.996 32.0852 445.632 31.9957 445.314 31.8168C444.996 31.6349 444.746 31.3622 444.564 30.9986C444.382 30.6321 444.292 30.1705 444.292 29.6136V25.4545H445.297V29.5455C445.297 30.0227 445.431 30.4034 445.698 30.6875C445.968 30.9716 446.311 31.1136 446.729 31.1136C446.979 31.1136 447.233 31.0497 447.492 30.9219C447.753 30.794 447.972 30.598 448.148 30.3338C448.327 30.0696 448.417 29.733 448.417 29.3239ZM453.923 32.1364C453.31 32.1364 452.781 31.9915 452.338 31.7017C451.895 31.4119 451.554 31.0128 451.315 30.5043C451.077 29.9957 450.957 29.4148 450.957 28.7614C450.957 28.0966 451.08 27.5099 451.324 27.0014C451.571 26.4901 451.915 26.0909 452.355 25.804C452.798 25.5142 453.315 25.3693 453.906 25.3693C454.366 25.3693 454.781 25.4545 455.151 25.625C455.52 25.7955 455.822 26.0341 456.058 26.3409C456.294 26.6477 456.44 27.0057 456.497 27.4148H455.491C455.415 27.1165 455.244 26.8523 454.98 26.6222C454.719 26.3892 454.366 26.2727 453.923 26.2727C453.531 26.2727 453.188 26.375 452.892 26.5795C452.599 26.7812 452.371 27.0668 452.206 27.4361C452.044 27.8026 451.963 28.233 451.963 28.7273C451.963 29.233 452.043 29.6733 452.202 30.0483C452.364 30.4233 452.591 30.7145 452.884 30.9219C453.179 31.1293 453.526 31.233 453.923 31.233C454.185 31.233 454.422 31.1875 454.635 31.0966C454.848 31.0057 455.028 30.875 455.176 30.7045C455.324 30.5341 455.429 30.3295 455.491 30.0909H456.497C456.44 30.4773 456.3 30.8253 456.075 31.1349C455.854 31.4418 455.56 31.6861 455.193 31.8679C454.83 32.0469 454.406 32.1364 453.923 32.1364ZM460.814 25.4545V26.3068H457.422V25.4545H460.814ZM458.411 23.8864H459.416V30.125C459.416 30.4091 459.457 30.6222 459.54 30.7642C459.625 30.9034 459.733 30.9972 459.864 31.0455C459.997 31.0909 460.138 31.1136 460.286 31.1136C460.396 31.1136 460.487 31.108 460.558 31.0966C460.629 31.0824 460.686 31.071 460.729 31.0625L460.933 31.9659C460.865 31.9915 460.77 32.017 460.648 32.0426C460.526 32.071 460.371 32.0852 460.183 32.0852C459.899 32.0852 459.621 32.0241 459.348 31.902C459.078 31.7798 458.854 31.5938 458.675 31.3438C458.499 31.0938 458.411 30.7784 458.411 30.3977V23.8864ZM466.846 26.9205L465.942 27.1761C465.886 27.0256 465.802 26.8793 465.691 26.7372C465.583 26.5923 465.435 26.473 465.248 26.3793C465.06 26.2855 464.82 26.2386 464.528 26.2386C464.127 26.2386 463.793 26.331 463.526 26.5156C463.262 26.6974 463.13 26.929 463.13 27.2102C463.13 27.4602 463.221 27.6577 463.403 27.8026C463.585 27.9474 463.869 28.0682 464.255 28.1648L465.227 28.4034C465.812 28.5455 466.248 28.7628 466.535 29.0554C466.822 29.3452 466.965 29.7187 466.965 30.1761C466.965 30.5511 466.857 30.8864 466.641 31.1818C466.428 31.4773 466.13 31.7102 465.746 31.8807C465.363 32.0511 464.917 32.1364 464.408 32.1364C463.741 32.1364 463.188 31.9915 462.751 31.7017C462.313 31.4119 462.036 30.9886 461.92 30.4318L462.874 30.1932C462.965 30.5455 463.137 30.8097 463.39 30.9858C463.646 31.1619 463.979 31.25 464.391 31.25C464.86 31.25 465.232 31.1506 465.508 30.9517C465.786 30.75 465.925 30.5085 465.925 30.2273C465.925 30 465.846 29.8097 465.687 29.6562C465.528 29.5 465.283 29.3835 464.954 29.3068L463.863 29.0511C463.263 28.9091 462.823 28.6889 462.542 28.3906C462.263 28.0895 462.124 27.7131 462.124 27.2614C462.124 26.892 462.228 26.5653 462.435 26.2812C462.646 25.9972 462.931 25.7741 463.292 25.6122C463.656 25.4503 464.067 25.3693 464.528 25.3693C465.175 25.3693 465.684 25.5114 466.053 25.7955C466.425 26.0795 466.69 26.4545 466.846 26.9205Z" fill="#52525B"/>
<path fill-rule="evenodd" clip-rule="evenodd" d="M522.234 25.8346C522.384 25.6846 522.588 25.6003 522.8 25.6003C523.012 25.6003 523.216 25.6846 523.366 25.8346L526 28.469L528.634 25.8346C528.708 25.7582 528.797 25.6972 528.894 25.6553C528.992 25.6134 529.097 25.5913 529.203 25.5904C529.309 25.5894 529.415 25.6097 529.513 25.6499C529.611 25.6901 529.7 25.7495 529.776 25.8246C529.851 25.8998 529.91 25.9891 529.95 26.0874C529.991 26.1857 530.011 26.2911 530.01 26.3973C530.009 26.5035 529.987 26.6085 529.945 26.7061C529.903 26.8037 529.842 26.892 529.766 26.9658L526.566 30.1658C526.416 30.3157 526.212 30.4 526 30.4C525.788 30.4 525.584 30.3157 525.434 30.1658L522.234 26.9658C522.084 26.8157 522 26.6123 522 26.4002C522 26.188 522.084 25.9846 522.234 25.8346Z" fill="#A1A1AA"/>
<rect x="390.5" y="12.5" width="153" height="31" rx="3.5" stroke="#E4E4E7"/>
</g>
<defs>
<filter id="filter0_d_103_5907" x="388" y="11" width="158" height="36" filterUnits="userSpaceOnUse" color-interpolation-filters="sRGB">
<feFlood flood-opacity="0" result="BackgroundImageFix"/>
<feColorMatrix in="SourceAlpha" type="matrix" values="0 0 0 0 0 0 0 0 0 0 0 0 0 0 0 0 0 0 127 0" result="hardAlpha"/>
<feOffset dy="1"/>
<feGaussianBlur stdDeviation="1"/>
<feColorMatrix type="matrix" values="0 0 0 0 0 0 0 0 0 0 0 0 0 0 0 0 0 0 0.06 0"/>
<feBlend mode="normal" in2="BackgroundImageFix" result="effect1_dropShadow_103_5907"/>
<feBlend mode="normal" in="SourceGraphic" in2="effect1_dropShadow_103_5907" result="shape"/>
</filter>
</defs>
</svg>
